<svg width="19" height="18" viewBox="0 0 19 18" fill="none" xmlns="http://www.w3.org/2000/svg">
    <path d="M1.76 1.26C0.5 2.532 0.5 4.566 0.5 8.64V9.36C0.5 13.428 0.5 15.462 1.76 16.74C3.032 18 5.066 18 9.14 18H9.86C13.928 18 15.962 18 17.24 16.74C18.5 15.468 18.5 13.434 18.5 9.36V8.64C18.5 4.572 18.5 2.538 17.24 1.26C15.968 2.38419e-07 13.934 0 9.86 0H9.14C5.072 0 3.038 2.38419e-07 1.76 1.26ZM3.536 5.478H5.6C5.666 8.91 7.178 10.362 8.378 10.662V5.478H10.316V8.436C11.498 8.31 12.746 6.96 13.166 5.472H15.098C14.9404 6.24222 14.6256 6.97167 14.1735 7.61481C13.7213 8.25796 13.1414 8.80099 12.47 9.21C13.2194 9.58287 13.8813 10.1104 14.4118 10.7579C14.9424 11.4053 15.3297 12.1579 15.548 12.966H13.418C12.962 11.544 11.822 10.44 10.316 10.29V12.966H10.076C5.972 12.966 3.632 10.158 3.536 5.478Z" fill="white"/>
</svg>
