<svg width="120" height="123" viewBox="0 0 120 123" fill="none" xmlns="http://www.w3.org/2000/svg">
    <g clip-path="url(#clip0_1068_102)">
<!--        <rect width="120" height="123" fill="white"/>-->
        <path fill-rule="evenodd" clip-rule="evenodd" d="M105.527 25.2852C106.035 26.3563 106.5 27.4501 106.921 28.5664C107.87 34.5232 106.885 40.1559 103.968 45.4648C103.244 46.75 102.478 48.0078 101.671 49.2383C100.235 50.6546 98.5665 51.721 96.6675 52.4375C96.3779 52.5425 96.1044 52.5151 95.8472 52.3555C95.694 52.1803 95.6392 51.9616 95.6831 51.6992C95.6923 50.841 95.5829 50.0207 95.355 49.2383C94.6723 43.7998 92.9771 38.7138 90.2691 33.9805C86.964 37.3795 83.3 40.3054 79.2769 42.7578C77.5296 43.5412 75.7249 44.088 73.8628 44.3984C75.5625 43.2201 77.2031 41.9623 78.7847 40.625C70.2969 44.5938 61.3829 47.2188 52.0425 48.5C51.6474 49.9979 51.2647 51.5019 50.8941 53.0117C51.6617 53.039 52.4272 53.0116 53.1909 52.9297C55.5725 52.0433 58.0334 51.5237 60.5738 51.3711C62.9251 51.5821 65.2766 51.5821 67.6284 51.3711C70.0485 51.5465 72.4548 51.8472 74.8472 52.2734C77.2133 53.0075 79.5648 53.7731 81.9019 54.5703C82.9957 54.6797 84.0893 54.6797 85.1831 54.5703C87.1192 54.0043 89.088 53.5941 91.0894 53.3398C92.0001 53.3354 92.875 53.226 93.7144 53.0117C94.4253 53.0117 95.1363 53.0117 95.8472 53.0117C99.0371 52.9326 102.099 53.5069 105.035 54.7344C105.743 54.8591 106.454 54.9685 107.168 55.0625C107.594 55.2074 107.95 55.4535 108.234 55.8008C108.261 56.5665 108.289 57.332 108.316 58.0977C108.335 58.9903 108.253 59.8653 108.07 60.7227C107.475 61.057 106.846 61.3305 106.183 61.543C105.732 61.9664 105.377 62.4586 105.117 63.0195C104.993 66.6625 104.118 70.1079 102.492 73.3555C100.704 75.8491 98.2707 77.1616 95.1909 77.293C91.0969 77.6524 88.1164 76.0118 86.2495 72.3711C85.0269 69.156 84.48 65.8199 84.6089 62.3633C84.4723 62.2266 84.3354 62.0898 84.1988 61.9531C82.8936 61.5046 81.6632 61.6412 80.5074 62.3633C80.1328 64.9005 79.4766 67.3615 78.5386 69.7461C77.1534 72.8265 74.9386 75.096 71.8941 76.5547C70.975 76.9158 70.0453 77.2439 69.105 77.5391C56.9928 79.3226 50.2936 74.1546 49.0074 62.0352C48.5749 61.1269 47.8912 60.6894 46.9566 60.7227C45.4818 63.7837 43.7592 66.6821 41.7886 69.418C41.503 70.8893 41.0654 72.3112 40.4761 73.6836C40.0271 73.8657 39.5621 73.8931 39.0816 73.7656C38.5133 73.0401 38.0485 72.2471 37.687 71.3867C35.9975 67.3075 34.7945 63.0965 34.0777 58.7539C33.062 57.3571 31.7221 56.4001 30.0581 55.8828C27.1235 54.8215 24.1158 54.4934 21.0347 54.8984C20.1826 55.2415 19.4169 55.7063 18.7378 56.293C17.3454 54.1593 16.4979 51.8078 16.1949 49.2383C14.8858 41.6109 16.0342 34.3921 19.6402 27.582C21.668 23.9417 24.0469 20.551 26.7769 17.4102C26.1658 16.5285 25.5641 15.6534 24.9722 14.7852C22.9877 11.1671 22.0581 7.28439 22.1831 3.13672C26.3487 4.35078 29.6299 6.75709 32.0269 10.3555C32.2813 10.8314 32.6095 11.2688 33.0113 11.668C33.8417 10.8383 34.6073 9.96336 35.3081 9.04297C37.0771 7.24796 39.1006 5.79864 41.3784 4.69532C49.5881 1.09611 58.174 -0.325817 67.1363 0.429691C75.0766 1.18061 82.6781 3.20399 89.9409 6.5C94.0617 8.08091 97.6437 10.4598 100.687 13.6367C101.02 14.0516 101.321 14.4892 101.589 14.9492C101.507 15.0039 101.425 15.0587 101.343 15.1133C99.7706 14.4808 98.1572 14.0707 96.5034 13.8828C99.2489 16.298 101.628 19.005 103.64 22.0039C104.229 23.1289 104.858 24.2227 105.527 25.2852Z" fill="#212121"/>
        <path fill-rule="evenodd" clip-rule="evenodd" d="M93.7148 53.0117C92.8755 53.226 92.0006 53.3354 91.0898 53.3399C91.9262 53.1008 92.8012 52.9914 93.7148 53.0117Z" fill="#58626F"/>
        <path fill-rule="evenodd" clip-rule="evenodd" d="M60.5742 51.3711C62.9257 51.1524 65.2774 51.1524 67.6289 51.3711C65.2771 51.5821 62.9256 51.5821 60.5742 51.3711Z" fill="#212121"/>
        <path fill-rule="evenodd" clip-rule="evenodd" d="M35.3086 9.04297C34.6077 9.96336 33.8422 10.8383 33.0117 11.668C32.6099 11.2688 32.2818 10.8314 32.0273 10.3555C33.1193 9.91906 34.2131 9.48151 35.3086 9.04297Z" fill="#C7FF26"/>
        <path fill-rule="evenodd" clip-rule="evenodd" d="M24.9719 14.7852C25.5638 15.6534 26.1654 16.5285 26.7765 17.4102C24.0465 20.551 21.6676 23.9416 19.6398 27.582C16.0339 34.3921 14.8855 41.6109 16.1945 49.2383C16.4975 51.8078 17.3451 54.1593 18.7375 56.293C12.909 61.6286 12.0067 67.7536 16.0304 74.668C17.2066 76.7173 18.7104 78.4946 20.5422 80C23.3732 81.4836 26.3811 82.0306 29.5656 81.6406C31.1408 81.4625 32.672 81.1069 34.1594 80.5742C35.9747 82.6363 37.8887 84.6323 39.9015 86.5625C41.9523 88.1757 44.0031 89.7891 46.0539 91.4023C46.5221 91.9132 46.7136 92.5148 46.6281 93.207C44.5773 92.9805 42.5265 92.7618 40.4758 92.5508C36.9241 92.757 33.3968 93.1672 29.8937 93.7812C29.1879 94.0987 28.8598 94.6455 28.9094 95.4219C28.9345 95.7854 28.9891 96.141 29.0734 96.4883C29.3054 98.2889 29.4422 100.094 29.4836 101.902C28.177 103.004 26.8371 104.043 25.464 105.02C25.2334 105.097 25.1239 105.261 25.1359 105.512C24.9023 105.842 24.793 106.225 24.8078 106.66C24.5174 107.909 24.2439 109.167 23.9875 110.434C11.7704 101.379 4.1415 89.3475 1.10076 74.3398C0.00515124 68.7391 -0.240942 63.1063 0.362479 57.4414L0.690604 54.9805C3.23062 38.3255 11.2697 25.0638 24.8078 15.1953C24.9312 15.0852 24.986 14.9486 24.9719 14.7852Z" fill="#C7FF26"/>
        <path fill-rule="evenodd" clip-rule="evenodd" d="M105.527 25.2852C115.83 37.4634 120.451 51.5727 119.391 67.6133C117.45 87.0839 108.399 102.205 92.2383 112.977C90.1411 114.258 87.981 115.434 85.7578 116.504C83.9041 115.116 82.0721 113.694 80.2617 112.238C79.9918 111.84 79.8005 111.403 79.6875 110.926C79.4111 110.677 79.165 110.403 78.9492 110.105C79.5653 109.038 80.1395 107.944 80.6719 106.824C80.8254 106.284 80.7434 105.792 80.4258 105.348C75.4862 101.593 70.0175 98.8309 64.0195 97.0625C64.2 96.8947 64.4187 96.8126 64.6758 96.8164C67.0048 97.3642 69.3563 97.7744 71.7305 98.0469C76.537 98.504 81.0213 97.5196 85.1836 95.0938C85.943 94.6171 86.6267 94.0429 87.2344 93.3711C90.7176 88.4282 93.3698 83.0688 95.1914 77.293C98.2712 77.1616 100.705 75.8491 102.492 73.3555C104.119 70.1079 104.994 66.6625 105.117 63.0195C105.377 62.4586 105.733 61.9664 106.184 61.543C106.847 61.3305 107.476 61.057 108.07 60.7227C108.254 59.8653 108.336 58.9903 108.316 58.0977C108.289 57.332 108.262 56.5665 108.234 55.8008C107.95 55.4535 107.595 55.2074 107.168 55.0625C106.455 54.9685 105.744 54.8591 105.035 54.7344C102.1 53.5069 99.0375 52.9326 95.8477 53.0117C95.8477 52.793 95.8477 52.5742 95.8477 52.3555C96.1049 52.5151 96.3784 52.5425 96.668 52.4375C98.567 51.721 100.235 50.6546 101.672 49.2383C102.479 48.0078 103.244 46.7499 103.969 45.4648C106.886 40.1559 107.87 34.5232 106.922 28.5664C106.5 27.4501 106.035 26.3563 105.527 25.2852Z" fill="#C7FF26"/>
        <path fill-rule="evenodd" clip-rule="evenodd" d="M96.1758 56.4571C98.5266 56.4134 100.031 57.5072 100.687 59.7383C101.257 63.0041 100.929 66.1759 99.7031 69.2539C98.9703 70.7256 97.8492 71.7646 96.3398 72.3711C96.7825 67.0622 96.7279 61.7576 96.1758 56.4571Z" fill="#C7FF26"/>
        <path fill-rule="evenodd" clip-rule="evenodd" d="M63.0351 54.3242C66.3716 54.1767 69.5982 54.6963 72.7148 55.8828C74.097 56.4505 75.1088 57.4075 75.7499 58.7539C76.4898 62.9572 75.6147 66.7853 73.1249 70.2383C71.3967 72.1552 69.2365 73.2216 66.6444 73.4375C61.6441 74.0674 57.7887 72.2899 55.078 68.1055C53.9235 65.3441 53.7048 62.5005 54.4218 59.5742C55.1643 57.5192 56.5589 56.1247 58.6054 55.3906C60.0641 54.8638 61.5406 54.5083 63.0351 54.3242Z" fill="#FCFCFC"/>
        <path fill-rule="evenodd" clip-rule="evenodd" d="M96.176 56.457C96.728 61.7576 96.7827 67.0622 96.34 72.3711C93.4341 73.7934 91.11 73.1371 89.3674 70.4023C88.7023 69.1095 88.3741 67.7424 88.383 66.3008C89.1198 67.0816 90.0221 67.3277 91.09 67.0391C91.9914 66.5744 92.511 65.8362 92.6486 64.8242C93.0474 62.9321 92.938 61.0728 92.3205 59.2461C91.8229 58.1091 90.9753 57.6444 89.7775 57.8516C91.0431 56.5853 92.5743 56.0657 94.3713 56.293C95.0027 56.2931 95.6044 56.3479 96.176 56.457Z" fill="#FBFBFB"/>
        <ellipse cx="64.2" cy="61.8" rx="4.2" ry="5.6" fill="#212121"/>
        <path fill-rule="evenodd" clip-rule="evenodd" d="M22.84 61.0508C23.2267 61.024 23.6095 61.0513 23.9885 61.1328C25.9388 63.1101 27.7982 65.1609 29.5666 67.2852C29.4842 67.4527 29.375 67.4801 29.2385 67.3672C27.6008 66.0555 25.8507 64.9071 23.9885 63.9219C22.6953 63.4937 21.3828 63.1383 20.051 62.8555C19.8298 62.5091 19.8844 62.2082 20.215 61.9531C21.0632 61.518 21.9382 61.2171 22.84 61.0508Z" fill="#212121"/>
        <path fill-rule="evenodd" clip-rule="evenodd" d="M35.9648 93.3711C35.1824 93.599 34.3621 93.7084 33.5039 93.6992C34.2863 93.4713 35.1066 93.3619 35.9648 93.3711Z" fill="#212121"/>
        <path fill-rule="evenodd" clip-rule="evenodd" d="M35.9641 93.3711C37.9883 93.3437 40.0117 93.3711 42.0344 93.4531C43.6135 93.7525 45.1995 93.9986 46.7922 94.1914C46.4477 96.0396 46.1744 97.899 45.9719 99.7695C47.5694 100.183 49.1554 100.648 50.7297 101.164C54.3808 102.554 58.0448 103.894 61.7219 105.184C61.736 104.02 61.8727 102.872 62.1321 101.738C62.4883 100.422 62.8438 99.1098 63.1985 97.8008C67.5957 99.1241 71.8067 100.901 75.8313 103.133C76.7922 103.706 77.5851 104.444 78.2102 105.348C78.3196 105.73 78.3196 106.113 78.2102 106.496C77.0964 109.072 76.112 111.697 75.2571 114.371C75.1477 114.645 75.1477 114.918 75.2571 115.191C76.1542 113.862 77.1112 112.577 78.1282 111.336C78.2837 111.257 78.4478 111.229 78.6204 111.254C78.5933 111.804 78.6207 112.35 78.7024 112.895C79.6815 114.038 80.7205 115.132 81.8196 116.176C82.162 116.696 82.4629 117.243 82.7219 117.816C78.3754 119.876 73.8363 121.325 69.1047 122.164C55.0876 124.045 41.9626 121.475 29.7297 114.453C28.0199 113.454 26.5707 112.169 25.3821 110.598C24.7739 108.748 24.9654 106.999 25.9563 105.348C27.3326 104.591 28.6725 103.771 29.9758 102.887C30.0853 102.121 30.0853 101.356 29.9758 100.59C29.6945 98.8477 29.503 97.0978 29.4016 95.3398C29.517 94.9763 29.7356 94.6755 30.0579 94.4375C31.1628 93.9866 32.3113 93.7406 33.5032 93.6992C34.3614 93.7084 35.1817 93.599 35.9641 93.3711Z" fill="#212121"/>
    </g>
    <defs>
        <clipPath id="clip0_1068_102">
            <rect width="120" height="123" fill="white"/>
        </clipPath>
    </defs>
</svg>
