<svg width="27" height="26" viewBox="0 0 27 26" fill="none" xmlns="http://www.w3.org/2000/svg">
    <path d="M17.1746 25.75C17.5128 25.75 17.8371 25.6157 18.0762 25.3766C18.3153 25.1375 18.4496 24.8132 18.4496 24.475C18.4496 24.1369 18.3153 23.8125 18.0762 23.5734C17.8371 23.3343 17.5128 23.2 17.1746 23.2H6.54961C5.64787 23.2 4.78307 22.8418 4.14545 22.2042C3.50782 21.5665 3.14961 20.7017 3.14961 19.8V6.2C3.14961 5.29826 3.50782 4.43346 4.14545 3.79584C4.78307 3.15821 5.64787 2.8 6.54961 2.8H17.1746C17.5128 2.8 17.8371 2.66567 18.0762 2.42656C18.3153 2.18745 18.4496 1.86315 18.4496 1.525C18.4496 1.18685 18.3153 0.862548 18.0762 0.623439C17.8371 0.38433 17.5128 0.25 17.1746 0.25H6.54961C4.97157 0.25 3.45817 0.876873 2.34232 1.99271C1.22648 3.10856 0.599609 4.62196 0.599609 6.2V19.8C0.599609 21.378 1.22648 22.8914 2.34232 24.0073C3.45817 25.1231 4.97157 25.75 6.54961 25.75H17.1746ZM18.8593 6.5383C18.9823 6.42464 19.1265 6.33633 19.2836 6.2784C19.4408 6.22048 19.6078 6.19408 19.7751 6.20071C19.9424 6.20734 20.1068 6.24687 20.2589 6.31705C20.4109 6.38722 20.5477 6.48667 20.6613 6.6097L25.7613 12.1347C25.979 12.3703 26.0999 12.6792 26.0999 13C26.0999 13.3208 25.979 13.6297 25.7613 13.8653L20.6613 19.3903C20.4316 19.6385 20.1127 19.7853 19.7747 19.7984C19.4368 19.8114 19.1075 19.6897 18.8593 19.46C18.6111 19.2303 18.4643 18.9114 18.4513 18.5734C18.4382 18.2355 18.5599 17.9062 18.7896 17.658L21.9142 14.2733H8.67461C8.33646 14.2733 8.01216 14.139 7.77305 13.8999C7.53394 13.6608 7.39961 13.3365 7.39961 12.9983C7.39961 12.6601 7.53394 12.3358 7.77305 12.0967C8.01216 11.8576 8.33646 11.7233 8.67461 11.7233H21.9125L18.7879 8.3386C18.6743 8.2156 18.5859 8.07142 18.528 7.91429C18.4701 7.75715 18.4437 7.59015 18.4503 7.42281C18.4569 7.25547 18.4965 7.09108 18.5667 6.93902C18.6368 6.78696 18.7363 6.65192 18.8593 6.5383Z" fill="white"/>
</svg>
