<svg width="28" height="28" viewBox="0 0 28 28" fill="none" xmlns="http://www.w3.org/2000/svg">
    <path d="M25.6867 14.2869C25.692 14.0956 25.692 13.9044 25.6867 13.7131L27.6683 11.2375C27.7722 11.1075 27.8441 10.9549 27.8782 10.7921C27.9124 10.6292 27.9078 10.4606 27.8648 10.2998C27.5394 9.07896 27.0535 7.90663 26.4198 6.81352C26.3368 6.6705 26.2215 6.54884 26.0832 6.45823C25.9448 6.36762 25.7872 6.31054 25.623 6.29156L22.4726 5.94094C22.3416 5.80281 22.2088 5.67 22.0742 5.5425L21.7023 2.38422C21.6832 2.21981 21.6259 2.06215 21.5351 1.9238C21.4442 1.78545 21.3223 1.67023 21.1791 1.58734C20.086 0.954172 18.9136 0.469141 17.6927 0.145C17.532 0.102048 17.3633 0.0974585 17.2005 0.1316C17.0376 0.165742 16.885 0.237661 16.7551 0.341562L14.2861 2.3125H13.7123L11.2367 0.334922C11.1067 0.23102 10.9542 0.159101 10.7913 0.12496C10.6284 0.090818 10.4598 0.0954075 10.2991 0.138359C9.07817 0.463786 7.90584 0.949688 6.81272 1.58336C6.66971 1.6664 6.54805 1.78168 6.45744 1.92002C6.36682 2.05837 6.30975 2.21595 6.29077 2.38023L5.94014 5.53586C5.80202 5.66779 5.66921 5.8006 5.54171 5.9343L2.38342 6.29688C2.21902 6.316 2.06136 6.37327 1.923 6.46412C1.78465 6.55498 1.66944 6.67689 1.58655 6.82016C0.953481 7.91341 0.468034 9.08572 0.142878 10.3065C0.100108 10.4674 0.0957338 10.636 0.130107 10.7989C0.16448 10.9618 0.23664 11.1143 0.340769 11.2441L2.31171 13.7131V14.2869L0.334128 16.7625C0.230227 16.8925 0.158308 17.045 0.124166 17.2079C0.0900245 17.3708 0.094614 17.5394 0.137565 17.7002C0.462992 18.921 0.948895 20.0934 1.58257 21.1865C1.66561 21.3295 1.78089 21.4512 1.91923 21.5418C2.05757 21.6324 2.21516 21.6895 2.37944 21.7084L5.52975 22.0591C5.66168 22.1972 5.79449 22.33 5.92819 22.4575L6.29608 25.6158C6.31521 25.7802 6.37248 25.9379 6.46333 26.0762C6.55418 26.2146 6.6761 26.3298 6.81936 26.4127C7.91262 27.0457 9.08493 27.5312 10.3057 27.8563C10.4666 27.8991 10.6352 27.9035 10.7981 27.8691C10.961 27.8347 11.1135 27.7626 11.2433 27.6584L13.7123 25.6875C13.9036 25.6928 14.0948 25.6928 14.2861 25.6875L16.7617 27.6691C16.8917 27.773 17.0443 27.8449 17.2071 27.879C17.37 27.9132 17.5386 27.9086 17.6994 27.8656C18.9204 27.5408 20.0928 27.0549 21.1857 26.4206C21.3287 26.3376 21.4504 26.2223 21.541 26.084C21.6316 25.9456 21.6887 25.788 21.7076 25.6238L22.0583 22.4734C22.1964 22.3424 22.3292 22.2096 22.4567 22.075L25.615 21.7031C25.7794 21.684 25.9371 21.6267 26.0754 21.5359C26.2138 21.445 26.329 21.3231 26.4119 21.1798C27.0449 20.0866 27.5304 18.9143 27.8555 17.6935C27.8983 17.5326 27.9027 17.364 27.8683 17.2011C27.8339 17.0382 27.7618 16.8857 27.6576 16.7559L25.6867 14.2869ZM13.9992 19.3125C12.9485 19.3125 11.9214 19.0009 11.0477 18.4172C10.1741 17.8334 9.49319 17.0037 9.0911 16.033C8.689 15.0623 8.5838 13.9941 8.78878 12.9636C8.99377 11.9331 9.49973 10.9865 10.2427 10.2435C10.9857 9.50053 11.9323 8.99456 12.9628 8.78958C13.9933 8.58459 15.0615 8.6898 16.0322 9.09189C17.0029 9.49398 17.8326 10.1749 18.4164 11.0485C19.0001 11.9222 19.3117 12.9493 19.3117 14C19.3117 15.409 18.752 16.7602 17.7557 17.7565C16.7594 18.7528 15.4082 19.3125 13.9992 19.3125Z" fill="white"/>
</svg>
