<svg width="493" height="420" viewBox="0 0 493 420" fill="none" xmlns="http://www.w3.org/2000/svg">
    <rect width="493" height="120" fill="white"/>
    <path d="M104.22 41H97.72L96.48 44H93.16L99.4 30H102.6L108.86 44H105.46L104.22 41ZM103.2 38.54L100.98 33.18L98.76 38.54H103.2ZM122.654 41.44V46.32H119.754V44H112.194V46.32H109.294V41.44H109.734C110.4 41.4267 110.86 41.0333 111.114 40.26C111.367 39.4867 111.527 38.3867 111.594 36.96L111.734 33.24H121.114V41.44H122.654ZM114.414 37.18C114.374 38.2733 114.287 39.1667 114.154 39.86C114.034 40.5533 113.8 41.08 113.454 41.44H117.994V35.8H114.474L114.414 37.18ZM130.957 33.08C131.957 33.08 132.864 33.3133 133.677 33.78C134.504 34.2333 135.151 34.88 135.617 35.72C136.084 36.5467 136.317 37.5133 136.317 38.62C136.317 39.7267 136.084 40.7 135.617 41.54C135.151 42.3667 134.504 43.0133 133.677 43.48C132.864 43.9333 131.957 44.16 130.957 44.16C129.584 44.16 128.504 43.7267 127.717 42.86V47.88H124.597V33.24H127.577V34.48C128.351 33.5467 129.477 33.08 130.957 33.08ZM130.417 41.6C131.217 41.6 131.871 41.3333 132.377 40.8C132.897 40.2533 133.157 39.5267 133.157 38.62C133.157 37.7133 132.897 36.9933 132.377 36.46C131.871 35.9133 131.217 35.64 130.417 35.64C129.617 35.64 128.957 35.9133 128.437 36.46C127.931 36.9933 127.677 37.7133 127.677 38.62C127.677 39.5267 127.931 40.2533 128.437 40.8C128.957 41.3333 129.617 41.6 130.417 41.6ZM148.964 38.66C148.964 38.7 148.944 38.98 148.904 39.5H140.764C140.911 40.1667 141.257 40.6933 141.804 41.08C142.351 41.4667 143.031 41.66 143.844 41.66C144.404 41.66 144.897 41.58 145.324 41.42C145.764 41.2467 146.171 40.98 146.544 40.62L148.204 42.42C147.191 43.58 145.711 44.16 143.764 44.16C142.551 44.16 141.477 43.9267 140.544 43.46C139.611 42.98 138.891 42.32 138.384 41.48C137.877 40.64 137.624 39.6867 137.624 38.62C137.624 37.5667 137.871 36.62 138.364 35.78C138.871 34.9267 139.557 34.2667 140.424 33.8C141.304 33.32 142.284 33.08 143.364 33.08C144.417 33.08 145.371 33.3067 146.224 33.76C147.077 34.2133 147.744 34.8667 148.224 35.72C148.717 36.56 148.964 37.54 148.964 38.66ZM143.384 35.44C142.677 35.44 142.084 35.64 141.604 36.04C141.124 36.44 140.831 36.9867 140.724 37.68H146.024C145.917 37 145.624 36.46 145.144 36.06C144.664 35.6467 144.077 35.44 143.384 35.44ZM156.475 44.16C155.329 44.16 154.295 43.9267 153.375 43.46C152.469 42.98 151.755 42.32 151.235 41.48C150.729 40.64 150.475 39.6867 150.475 38.62C150.475 37.5533 150.729 36.6 151.235 35.76C151.755 34.92 152.469 34.2667 153.375 33.8C154.295 33.32 155.329 33.08 156.475 33.08C157.609 33.08 158.595 33.32 159.435 33.8C160.289 34.2667 160.909 34.94 161.295 35.82L158.875 37.12C158.315 36.1333 157.509 35.64 156.455 35.64C155.642 35.64 154.969 35.9067 154.435 36.44C153.902 36.9733 153.635 37.7 153.635 38.62C153.635 39.54 153.902 40.2667 154.435 40.8C154.969 41.3333 155.642 41.6 156.455 41.6C157.522 41.6 158.329 41.1067 158.875 40.12L161.295 41.44C160.909 42.2933 160.289 42.96 159.435 43.44C158.595 43.92 157.609 44.16 156.475 44.16Z" fill="#212121"/>
    <path d="M94.488 70V61.52H100.728V62.864H95.656L96.024 62.512V70H94.488ZM101.871 70.096C101.572 70.096 101.316 69.9947 101.103 69.792C100.89 69.5787 100.783 69.312 100.783 68.992C100.783 68.672 100.89 68.4107 101.103 68.208C101.316 68.0053 101.572 67.904 101.871 67.904C102.159 67.904 102.404 68.0053 102.607 68.208C102.82 68.4107 102.927 68.672 102.927 68.992C102.927 69.312 102.82 69.5787 102.607 69.792C102.404 69.9947 102.159 70.096 101.871 70.096ZM114.721 70.128C113.867 70.128 113.078 69.9893 112.353 69.712C111.638 69.424 111.014 69.024 110.481 68.512C109.958 67.9893 109.547 67.3813 109.249 66.688C108.95 65.9947 108.801 65.232 108.801 64.4C108.801 63.568 108.95 62.8053 109.249 62.112C109.547 61.4187 109.963 60.816 110.497 60.304C111.03 59.7813 111.654 59.3813 112.369 59.104C113.094 58.816 113.883 58.672 114.737 58.672C115.601 58.672 116.395 58.8213 117.121 59.12C117.857 59.408 118.481 59.84 118.993 60.416L117.953 61.424C117.526 60.976 117.046 60.6453 116.513 60.432C115.979 60.208 115.409 60.096 114.801 60.096C114.171 60.096 113.585 60.2027 113.041 60.416C112.507 60.6293 112.043 60.928 111.649 61.312C111.254 61.696 110.945 62.1547 110.721 62.688C110.507 63.2107 110.401 63.7813 110.401 64.4C110.401 65.0187 110.507 65.5947 110.721 66.128C110.945 66.6507 111.254 67.104 111.649 67.488C112.043 67.872 112.507 68.1707 113.041 68.384C113.585 68.5973 114.171 68.704 114.801 68.704C115.409 68.704 115.979 68.5973 116.513 68.384C117.046 68.16 117.526 67.8187 117.953 67.36L118.993 68.368C118.481 68.944 117.857 69.3813 117.121 69.68C116.395 69.9787 115.595 70.128 114.721 70.128ZM126.032 70V68.208L125.952 67.872V64.816C125.952 64.1653 125.76 63.664 125.376 63.312C125.002 62.9493 124.437 62.768 123.68 62.768C123.178 62.768 122.688 62.8533 122.208 63.024C121.728 63.184 121.322 63.4027 120.992 63.68L120.352 62.528C120.789 62.176 121.312 61.9093 121.92 61.728C122.538 61.536 123.184 61.44 123.856 61.44C125.018 61.44 125.914 61.7227 126.544 62.288C127.173 62.8533 127.488 63.7173 127.488 64.88V70H126.032ZM123.248 70.096C122.618 70.096 122.064 69.9893 121.584 69.776C121.114 69.5627 120.752 69.2693 120.496 68.896C120.24 68.512 120.112 68.08 120.112 67.6C120.112 67.1413 120.218 66.7253 120.432 66.352C120.656 65.9787 121.013 65.68 121.504 65.456C122.005 65.232 122.677 65.12 123.52 65.12H126.208V66.224H123.584C122.816 66.224 122.298 66.352 122.032 66.608C121.765 66.864 121.632 67.1733 121.632 67.536C121.632 67.952 121.797 68.288 122.128 68.544C122.458 68.7893 122.917 68.912 123.504 68.912C124.08 68.912 124.581 68.784 125.008 68.528C125.445 68.272 125.76 67.8987 125.952 67.408L126.256 68.464C126.053 68.9653 125.696 69.3653 125.184 69.664C124.672 69.952 124.026 70.096 123.248 70.096ZM134.75 70.096C134.046 70.096 133.4 69.936 132.814 69.616C132.238 69.2853 131.774 68.8 131.422 68.16C131.08 67.52 130.91 66.72 130.91 65.76C130.91 64.8 131.075 64 131.406 63.36C131.747 62.72 132.206 62.24 132.782 61.92C133.368 61.6 134.024 61.44 134.75 61.44C135.582 61.44 136.318 61.6213 136.958 61.984C137.598 62.3467 138.104 62.8533 138.478 63.504C138.851 64.144 139.038 64.896 139.038 65.76C139.038 66.624 138.851 67.3813 138.478 68.032C138.104 68.6827 137.598 69.1893 136.958 69.552C136.318 69.9147 135.582 70.096 134.75 70.096ZM130.254 73.104V61.52H131.726V63.808L131.63 65.776L131.79 67.744V73.104H130.254ZM134.622 68.752C135.166 68.752 135.651 68.6293 136.078 68.384C136.515 68.1387 136.856 67.792 137.102 67.344C137.358 66.8853 137.486 66.3573 137.486 65.76C137.486 65.152 137.358 64.6293 137.102 64.192C136.856 63.744 136.515 63.3973 136.078 63.152C135.651 62.9067 135.166 62.784 134.622 62.784C134.088 62.784 133.603 62.9067 133.166 63.152C132.739 63.3973 132.398 63.744 132.142 64.192C131.896 64.6293 131.774 65.152 131.774 65.76C131.774 66.3573 131.896 66.8853 132.142 67.344C132.398 67.792 132.739 68.1387 133.166 68.384C133.603 68.6293 134.088 68.752 134.622 68.752ZM146.391 70V68.208L146.311 67.872V64.816C146.311 64.1653 146.119 63.664 145.735 63.312C145.362 62.9493 144.796 62.768 144.039 62.768C143.538 62.768 143.047 62.8533 142.567 63.024C142.087 63.184 141.682 63.4027 141.351 63.68L140.711 62.528C141.148 62.176 141.671 61.9093 142.279 61.728C142.898 61.536 143.543 61.44 144.215 61.44C145.378 61.44 146.274 61.7227 146.903 62.288C147.532 62.8533 147.847 63.7173 147.847 64.88V70H146.391ZM143.607 70.096C142.978 70.096 142.423 69.9893 141.943 69.776C141.474 69.5627 141.111 69.2693 140.855 68.896C140.599 68.512 140.471 68.08 140.471 67.6C140.471 67.1413 140.578 66.7253 140.791 66.352C141.015 65.9787 141.372 65.68 141.863 65.456C142.364 65.232 143.036 65.12 143.879 65.12H146.567V66.224H143.943C143.175 66.224 142.658 66.352 142.391 66.608C142.124 66.864 141.991 67.1733 141.991 67.536C141.991 67.952 142.156 68.288 142.487 68.544C142.818 68.7893 143.276 68.912 143.863 68.912C144.439 68.912 144.94 68.784 145.367 68.528C145.804 68.272 146.119 67.8987 146.311 67.408L146.615 68.464C146.412 68.9653 146.055 69.3653 145.543 69.664C145.031 69.952 144.386 70.096 143.607 70.096ZM152.293 70V62.464L152.677 62.864H149.189V61.52H156.933V62.864H153.461L153.829 62.464V70H152.293ZM161.761 70.096C160.907 70.096 160.15 69.9093 159.489 69.536C158.827 69.1627 158.305 68.6507 157.921 68C157.537 67.3387 157.345 66.592 157.345 65.76C157.345 64.9173 157.537 64.1707 157.921 63.52C158.305 62.8693 158.827 62.3627 159.489 62C160.15 61.6267 160.907 61.44 161.761 61.44C162.603 61.44 163.355 61.6267 164.017 62C164.689 62.3627 165.211 62.8693 165.585 63.52C165.969 64.16 166.161 64.9067 166.161 65.76C166.161 66.6027 165.969 67.3493 165.585 68C165.211 68.6507 164.689 69.1627 164.017 69.536C163.355 69.9093 162.603 70.096 161.761 70.096ZM161.761 68.752C162.305 68.752 162.79 68.6293 163.217 68.384C163.654 68.1387 163.995 67.792 164.241 67.344C164.486 66.8853 164.609 66.3573 164.609 65.76C164.609 65.152 164.486 64.6293 164.241 64.192C163.995 63.744 163.654 63.3973 163.217 63.152C162.79 62.9067 162.305 62.784 161.761 62.784C161.217 62.784 160.731 62.9067 160.305 63.152C159.878 63.3973 159.537 63.744 159.281 64.192C159.025 64.6293 158.897 65.152 158.897 65.76C158.897 66.3573 159.025 66.8853 159.281 67.344C159.537 67.792 159.878 68.1387 160.305 68.384C160.731 68.6293 161.217 68.752 161.761 68.752ZM168.379 70V61.52H172.315C173.307 61.52 174.085 61.712 174.651 62.096C175.227 62.4693 175.515 63.0027 175.515 63.696C175.515 64.3893 175.243 64.928 174.699 65.312C174.165 65.6853 173.456 65.872 172.571 65.872L172.811 65.456C173.824 65.456 174.576 65.6427 175.067 66.016C175.557 66.3893 175.803 66.9387 175.803 67.664C175.803 68.4 175.525 68.976 174.971 69.392C174.427 69.7973 173.589 70 172.459 70H168.379ZM169.883 68.816H172.347C172.987 68.816 173.467 68.72 173.787 68.528C174.107 68.3253 174.267 68.0053 174.267 67.568C174.267 67.12 174.117 66.7947 173.819 66.592C173.531 66.3787 173.072 66.272 172.443 66.272H169.883V68.816ZM169.883 65.168H172.187C172.773 65.168 173.216 65.0613 173.515 64.848C173.824 64.624 173.979 64.3147 173.979 63.92C173.979 63.5147 173.824 63.2107 173.515 63.008C173.216 62.8053 172.773 62.704 172.187 62.704H169.883V65.168ZM178.543 70.096C178.244 70.096 177.988 69.9947 177.775 69.792C177.561 69.5787 177.455 69.312 177.455 68.992C177.455 68.672 177.561 68.4107 177.775 68.208C177.988 68.0053 178.244 67.904 178.543 67.904C178.831 67.904 179.076 68.0053 179.279 68.208C179.492 68.4107 179.599 68.672 179.599 68.992C179.599 69.312 179.492 69.5787 179.279 69.792C179.076 69.9947 178.831 70.096 178.543 70.096ZM186.129 70V61.52H192.369V62.864H187.297L187.665 62.512V70H186.129ZM199.186 69.28V62.864H195.506L195.426 64.496C195.405 65.0293 195.368 65.5467 195.314 66.048C195.272 66.5387 195.197 66.992 195.09 67.408C194.994 67.824 194.85 68.1653 194.658 68.432C194.466 68.6987 194.21 68.864 193.89 68.928L192.37 68.656C192.701 68.6667 192.968 68.56 193.17 68.336C193.373 68.1013 193.528 67.7813 193.634 67.376C193.752 66.9707 193.837 66.512 193.89 66C193.944 65.4773 193.986 64.9387 194.018 64.384L194.146 61.52H200.722V69.28H199.186ZM192.034 71.968V68.656H202.018V71.968H200.578V70H193.49V71.968H192.034ZM207.795 70.096C206.889 70.096 206.089 69.9093 205.395 69.536C204.713 69.1627 204.179 68.6507 203.795 68C203.422 67.3493 203.235 66.6027 203.235 65.76C203.235 64.9173 203.417 64.1707 203.779 63.52C204.153 62.8693 204.659 62.3627 205.299 62C205.95 61.6267 206.681 61.44 207.491 61.44C208.313 61.44 209.038 61.6213 209.667 61.984C210.297 62.3467 210.787 62.8587 211.139 63.52C211.502 64.1707 211.683 64.9333 211.683 65.808C211.683 65.872 211.678 65.9467 211.667 66.032C211.667 66.1173 211.662 66.1973 211.651 66.272H204.435V65.168H210.851L210.227 65.552C210.238 65.008 210.126 64.5227 209.891 64.096C209.657 63.6693 209.331 63.3387 208.915 63.104C208.51 62.8587 208.035 62.736 207.491 62.736C206.958 62.736 206.483 62.8587 206.067 63.104C205.651 63.3387 205.326 63.6747 205.091 64.112C204.857 64.5387 204.739 65.0293 204.739 65.584V65.84C204.739 66.4053 204.867 66.912 205.123 67.36C205.39 67.7973 205.758 68.1387 206.227 68.384C206.697 68.6293 207.235 68.752 207.843 68.752C208.345 68.752 208.798 68.6667 209.203 68.496C209.619 68.3253 209.982 68.0693 210.291 67.728L211.139 68.72C210.755 69.168 210.275 69.5093 209.699 69.744C209.134 69.9787 208.499 70.096 207.795 70.096ZM213.646 66.272V64.944H217.95V66.272H213.646ZM221.715 70V62.464L222.099 62.864H218.611V61.52H226.355V62.864H222.883L223.251 62.464V70H221.715ZM231.183 70.096C230.329 70.096 229.572 69.9093 228.911 69.536C228.249 69.1627 227.727 68.6507 227.343 68C226.959 67.3387 226.767 66.592 226.767 65.76C226.767 64.9173 226.959 64.1707 227.343 63.52C227.727 62.8693 228.249 62.3627 228.911 62C229.572 61.6267 230.329 61.44 231.183 61.44C232.025 61.44 232.777 61.6267 233.439 62C234.111 62.3627 234.633 62.8693 235.007 63.52C235.391 64.16 235.583 64.9067 235.583 65.76C235.583 66.6027 235.391 67.3493 235.007 68C234.633 68.6507 234.111 69.1627 233.439 69.536C232.777 69.9093 232.025 70.096 231.183 70.096ZM231.183 68.752C231.727 68.752 232.212 68.6293 232.639 68.384C233.076 68.1387 233.417 67.792 233.663 67.344C233.908 66.8853 234.031 66.3573 234.031 65.76C234.031 65.152 233.908 64.6293 233.663 64.192C233.417 63.744 233.076 63.3973 232.639 63.152C232.212 62.9067 231.727 62.784 231.183 62.784C230.639 62.784 230.153 62.9067 229.727 63.152C229.3 63.3973 228.959 63.744 228.703 64.192C228.447 64.6293 228.319 65.152 228.319 65.76C228.319 66.3573 228.447 66.8853 228.703 67.344C228.959 67.792 229.3 68.1387 229.727 68.384C230.153 68.6293 230.639 68.752 231.183 68.752ZM243.777 70V62.464L244.161 62.864H240.673V61.52H248.417V62.864H244.945L245.313 62.464V70H243.777ZM255.188 70V68.208L255.108 67.872V64.816C255.108 64.1653 254.916 63.664 254.532 63.312C254.159 62.9493 253.593 62.768 252.836 62.768C252.335 62.768 251.844 62.8533 251.364 63.024C250.884 63.184 250.479 63.4027 250.148 63.68L249.508 62.528C249.945 62.176 250.468 61.9093 251.076 61.728C251.695 61.536 252.34 61.44 253.012 61.44C254.175 61.44 255.071 61.7227 255.7 62.288C256.329 62.8533 256.644 63.7173 256.644 64.88V70H255.188ZM252.404 70.096C251.775 70.096 251.22 69.9893 250.74 69.776C250.271 69.5627 249.908 69.2693 249.652 68.896C249.396 68.512 249.268 68.08 249.268 67.6C249.268 67.1413 249.375 66.7253 249.588 66.352C249.812 65.9787 250.169 65.68 250.66 65.456C251.161 65.232 251.833 65.12 252.676 65.12H255.364V66.224H252.74C251.972 66.224 251.455 66.352 251.188 66.608C250.921 66.864 250.788 67.1733 250.788 67.536C250.788 67.952 250.953 68.288 251.284 68.544C251.615 68.7893 252.073 68.912 252.66 68.912C253.236 68.912 253.737 68.784 254.164 68.528C254.601 68.272 254.916 67.8987 255.108 67.408L255.412 68.464C255.209 68.9653 254.852 69.3653 254.34 69.664C253.828 69.952 253.183 70.096 252.404 70.096ZM259.41 70V61.52H260.994L264.642 67.792H264.002L267.746 61.52H269.186V70H267.794V63.248L268.05 63.392L264.626 69.04H263.954L260.514 63.28L260.818 63.216V70H259.41ZM271.536 72.368L272.336 69.136L272.544 70.064C272.234 70.064 271.973 69.968 271.76 69.776C271.557 69.584 271.456 69.3227 271.456 68.992C271.456 68.672 271.557 68.4107 271.76 68.208C271.973 68.0053 272.229 67.904 272.528 67.904C272.837 67.904 273.088 68.0107 273.28 68.224C273.472 68.4267 273.568 68.6827 273.568 68.992C273.568 69.0987 273.557 69.2053 273.536 69.312C273.525 69.408 273.498 69.5253 273.456 69.664C273.424 69.792 273.37 69.952 273.296 70.144L272.544 72.368H271.536ZM100.28 89.28V82.864H96.6L96.52 84.496C96.4987 85.0293 96.4613 85.5467 96.408 86.048C96.3653 86.5387 96.2907 86.992 96.184 87.408C96.088 87.824 95.944 88.1653 95.752 88.432C95.56 88.6987 95.304 88.864 94.984 88.928L93.464 88.656C93.7947 88.6667 94.0613 88.56 94.264 88.336C94.4667 88.1013 94.6213 87.7813 94.728 87.376C94.8453 86.9707 94.9307 86.512 94.984 86C95.0373 85.4773 95.08 84.9387 95.112 84.384L95.24 81.52H101.816V89.28H100.28ZM93.128 91.968V88.656H103.112V91.968H101.672V90H94.584V91.968H93.128ZM110.313 90V88.208L110.233 87.872V84.816C110.233 84.1653 110.041 83.664 109.657 83.312C109.284 82.9493 108.718 82.768 107.961 82.768C107.46 82.768 106.969 82.8533 106.489 83.024C106.009 83.184 105.604 83.4027 105.273 83.68L104.633 82.528C105.07 82.176 105.593 81.9093 106.201 81.728C106.82 81.536 107.465 81.44 108.137 81.44C109.3 81.44 110.196 81.7227 110.825 82.288C111.454 82.8533 111.769 83.7173 111.769 84.88V90H110.313ZM107.529 90.096C106.9 90.096 106.345 89.9893 105.865 89.776C105.396 89.5627 105.033 89.2693 104.777 88.896C104.521 88.512 104.393 88.08 104.393 87.6C104.393 87.1413 104.5 86.7253 104.713 86.352C104.937 85.9787 105.294 85.68 105.785 85.456C106.286 85.232 106.958 85.12 107.801 85.12H110.489V86.224H107.865C107.097 86.224 106.58 86.352 106.313 86.608C106.046 86.864 105.913 87.1733 105.913 87.536C105.913 87.952 106.078 88.288 106.409 88.544C106.74 88.7893 107.198 88.912 107.785 88.912C108.361 88.912 108.862 88.784 109.289 88.528C109.726 88.272 110.041 87.8987 110.233 87.408L110.537 88.464C110.334 88.9653 109.977 89.3653 109.465 89.664C108.953 89.952 108.308 90.096 107.529 90.096ZM113.127 89.984L113.223 88.688C113.298 88.6987 113.367 88.7093 113.431 88.72C113.495 88.7307 113.554 88.736 113.607 88.736C113.948 88.736 114.215 88.6187 114.407 88.384C114.61 88.1493 114.759 87.84 114.855 87.456C114.951 87.0613 115.02 86.6187 115.063 86.128C115.106 85.6373 115.138 85.1467 115.159 84.656L115.303 81.52H121.815V90H120.279V82.416L120.647 82.864H116.295L116.647 82.4L116.535 84.752C116.503 85.4987 116.444 86.1973 116.359 86.848C116.274 87.4987 116.14 88.0693 115.959 88.56C115.788 89.0507 115.548 89.4347 115.239 89.712C114.94 89.9893 114.551 90.128 114.071 90.128C113.932 90.128 113.783 90.112 113.623 90.08C113.474 90.0587 113.308 90.0267 113.127 89.984ZM128.561 90.096C127.654 90.096 126.854 89.9093 126.161 89.536C125.478 89.1627 124.945 88.6507 124.561 88C124.188 87.3493 124.001 86.6027 124.001 85.76C124.001 84.9173 124.182 84.1707 124.545 83.52C124.918 82.8693 125.425 82.3627 126.065 82C126.716 81.6267 127.446 81.44 128.257 81.44C129.078 81.44 129.804 81.6213 130.433 81.984C131.062 82.3467 131.553 82.8587 131.905 83.52C132.268 84.1707 132.449 84.9333 132.449 85.808C132.449 85.872 132.444 85.9467 132.433 86.032C132.433 86.1173 132.428 86.1973 132.417 86.272H125.201V85.168H131.617L130.993 85.552C131.004 85.008 130.892 84.5227 130.657 84.096C130.422 83.6693 130.097 83.3387 129.681 83.104C129.276 82.8587 128.801 82.736 128.257 82.736C127.724 82.736 127.249 82.8587 126.833 83.104C126.417 83.3387 126.092 83.6747 125.857 84.112C125.622 84.5387 125.505 85.0293 125.505 85.584V85.84C125.505 86.4053 125.633 86.912 125.889 87.36C126.156 87.7973 126.524 88.1387 126.993 88.384C127.462 88.6293 128.001 88.752 128.609 88.752C129.11 88.752 129.564 88.6667 129.969 88.496C130.385 88.3253 130.748 88.0693 131.057 87.728L131.905 88.72C131.521 89.168 131.041 89.5093 130.465 89.744C129.9 89.9787 129.265 90.096 128.561 90.096ZM140.976 90L137.696 85.872L138.96 85.104L142.784 90H140.976ZM134.832 90V81.52H136.368V90H134.832ZM135.904 86.416V85.104H138.704V86.416H135.904ZM139.088 85.936L137.664 85.744L140.912 81.52H142.56L139.088 85.936ZM147.745 90.096C146.892 90.096 146.134 89.9093 145.473 89.536C144.812 89.1627 144.289 88.6507 143.905 88C143.521 87.3387 143.329 86.592 143.329 85.76C143.329 84.9173 143.521 84.1707 143.905 83.52C144.289 82.8693 144.812 82.3627 145.473 82C146.134 81.6267 146.892 81.44 147.745 81.44C148.588 81.44 149.34 81.6267 150.001 82C150.673 82.3627 151.196 82.8693 151.569 83.52C151.953 84.16 152.145 84.9067 152.145 85.76C152.145 86.6027 151.953 87.3493 151.569 88C151.196 88.6507 150.673 89.1627 150.001 89.536C149.34 89.9093 148.588 90.096 147.745 90.096ZM147.745 88.752C148.289 88.752 148.774 88.6293 149.201 88.384C149.638 88.1387 149.98 87.792 150.225 87.344C150.47 86.8853 150.593 86.3573 150.593 85.76C150.593 85.152 150.47 84.6293 150.225 84.192C149.98 83.744 149.638 83.3973 149.201 83.152C148.774 82.9067 148.289 82.784 147.745 82.784C147.201 82.784 146.716 82.9067 146.289 83.152C145.862 83.3973 145.521 83.744 145.265 84.192C145.009 84.6293 144.881 85.152 144.881 85.76C144.881 86.3573 145.009 86.8853 145.265 87.344C145.521 87.792 145.862 88.1387 146.289 88.384C146.716 88.6293 147.201 88.752 147.745 88.752ZM164.452 89.28V82.864H160.772L160.692 84.496C160.671 85.0293 160.633 85.5467 160.58 86.048C160.537 86.5387 160.463 86.992 160.356 87.408C160.26 87.824 160.116 88.1653 159.924 88.432C159.732 88.6987 159.476 88.864 159.156 88.928L157.636 88.656C157.967 88.6667 158.233 88.56 158.436 88.336C158.639 88.1013 158.793 87.7813 158.9 87.376C159.017 86.9707 159.103 86.512 159.156 86C159.209 85.4773 159.252 84.9387 159.284 84.384L159.412 81.52H165.988V89.28H164.452ZM157.3 91.968V88.656H167.284V91.968H165.844V90H158.756V91.968H157.3ZM174.485 90V88.208L174.405 87.872V84.816C174.405 84.1653 174.213 83.664 173.829 83.312C173.456 82.9493 172.89 82.768 172.133 82.768C171.632 82.768 171.141 82.8533 170.661 83.024C170.181 83.184 169.776 83.4027 169.445 83.68L168.805 82.528C169.242 82.176 169.765 81.9093 170.373 81.728C170.992 81.536 171.637 81.44 172.309 81.44C173.472 81.44 174.368 81.7227 174.997 82.288C175.626 82.8533 175.941 83.7173 175.941 84.88V90H174.485ZM171.701 90.096C171.072 90.096 170.517 89.9893 170.037 89.776C169.568 89.5627 169.205 89.2693 168.949 88.896C168.693 88.512 168.565 88.08 168.565 87.6C168.565 87.1413 168.672 86.7253 168.885 86.352C169.109 85.9787 169.466 85.68 169.957 85.456C170.458 85.232 171.13 85.12 171.973 85.12H174.661V86.224H172.037C171.269 86.224 170.752 86.352 170.485 86.608C170.218 86.864 170.085 87.1733 170.085 87.536C170.085 87.952 170.25 88.288 170.581 88.544C170.912 88.7893 171.37 88.912 171.957 88.912C172.533 88.912 173.034 88.784 173.461 88.528C173.898 88.272 174.213 87.8987 174.405 87.408L174.709 88.464C174.506 88.9653 174.149 89.3653 173.637 89.664C173.125 89.952 172.48 90.096 171.701 90.096ZM177.299 89.984L177.395 88.688C177.469 88.6987 177.539 88.7093 177.603 88.72C177.667 88.7307 177.725 88.736 177.779 88.736C178.12 88.736 178.387 88.6187 178.579 88.384C178.781 88.1493 178.931 87.84 179.027 87.456C179.123 87.0613 179.192 86.6187 179.235 86.128C179.277 85.6373 179.309 85.1467 179.331 84.656L179.475 81.52H185.987V90H184.451V82.416L184.819 82.864H180.467L180.819 82.4L180.707 84.752C180.675 85.4987 180.616 86.1973 180.531 86.848C180.445 87.4987 180.312 88.0693 180.131 88.56C179.96 89.0507 179.72 89.4347 179.411 89.712C179.112 89.9893 178.723 90.128 178.243 90.128C178.104 90.128 177.955 90.112 177.795 90.08C177.645 90.0587 177.48 90.0267 177.299 89.984ZM192.733 90.096C191.826 90.096 191.026 89.9093 190.333 89.536C189.65 89.1627 189.117 88.6507 188.733 88C188.359 87.3493 188.173 86.6027 188.173 85.76C188.173 84.9173 188.354 84.1707 188.717 83.52C189.09 82.8693 189.597 82.3627 190.237 82C190.887 81.6267 191.618 81.44 192.429 81.44C193.25 81.44 193.975 81.6213 194.605 81.984C195.234 82.3467 195.725 82.8587 196.077 83.52C196.439 84.1707 196.621 84.9333 196.621 85.808C196.621 85.872 196.615 85.9467 196.605 86.032C196.605 86.1173 196.599 86.1973 196.589 86.272H189.373V85.168H195.789L195.165 85.552C195.175 85.008 195.063 84.5227 194.829 84.096C194.594 83.6693 194.269 83.3387 193.853 83.104C193.447 82.8587 192.973 82.736 192.429 82.736C191.895 82.736 191.421 82.8587 191.005 83.104C190.589 83.3387 190.263 83.6747 190.029 84.112C189.794 84.5387 189.677 85.0293 189.677 85.584V85.84C189.677 86.4053 189.805 86.912 190.061 87.36C190.327 87.7973 190.695 88.1387 191.165 88.384C191.634 88.6293 192.173 88.752 192.781 88.752C193.282 88.752 193.735 88.6667 194.141 88.496C194.557 88.3253 194.919 88.0693 195.229 87.728L196.077 88.72C195.693 89.168 195.213 89.5093 194.637 89.744C194.071 89.9787 193.437 90.096 192.733 90.096ZM205.148 90L201.868 85.872L203.132 85.104L206.956 90H205.148ZM199.004 90V81.52H200.54V90H199.004ZM200.076 86.416V85.104H202.876V86.416H200.076ZM203.26 85.936L201.836 85.744L205.084 81.52H206.732L203.26 85.936ZM211.917 90.096C211.064 90.096 210.306 89.9093 209.645 89.536C208.984 89.1627 208.461 88.6507 208.077 88C207.693 87.3387 207.501 86.592 207.501 85.76C207.501 84.9173 207.693 84.1707 208.077 83.52C208.461 82.8693 208.984 82.3627 209.645 82C210.306 81.6267 211.064 81.44 211.917 81.44C212.76 81.44 213.512 81.6267 214.173 82C214.845 82.3627 215.368 82.8693 215.741 83.52C216.125 84.16 216.317 84.9067 216.317 85.76C216.317 86.6027 216.125 87.3493 215.741 88C215.368 88.6507 214.845 89.1627 214.173 89.536C213.512 89.9093 212.76 90.096 211.917 90.096ZM211.917 88.752C212.461 88.752 212.946 88.6293 213.373 88.384C213.81 88.1387 214.152 87.792 214.397 87.344C214.642 86.8853 214.765 86.3573 214.765 85.76C214.765 85.152 214.642 84.6293 214.397 84.192C214.152 83.744 213.81 83.3973 213.373 83.152C212.946 82.9067 212.461 82.784 211.917 82.784C211.373 82.784 210.888 82.9067 210.461 83.152C210.034 83.3973 209.693 83.744 209.437 84.192C209.181 84.6293 209.053 85.152 209.053 85.76C209.053 86.3573 209.181 86.8853 209.437 87.344C209.693 87.792 210.034 88.1387 210.461 88.384C210.888 88.6293 211.373 88.752 211.917 88.752Z" fill="#212121"/>
    <g clip-path="url(#clip0_742_12)">
        <path d="M50.2917 74.3947C41.6113 62.0526 40 60.7859 40 56.25C40 50.0368 45.1355 45 51.4706 45C57.8056 45 62.9412 50.0368 62.9412 56.25C62.9412 60.7859 61.3299 62.0526 52.6494 74.3947C52.0798 75.2018 50.8613 75.2017 50.2917 74.3947ZM51.4706 60.9375C54.1102 60.9375 56.25 58.8388 56.25 56.25C56.25 53.6612 54.1102 51.5625 51.4706 51.5625C48.831 51.5625 46.6912 53.6612 46.6912 56.25C46.6912 58.8388 48.831 60.9375 51.4706 60.9375Z" fill="#212121"/>
    </g>
    <rect width="493" height="120" transform="translate(0 150)" fill="white"/>
    <path d="M105.44 192.64H100.96V204H97.76V192.64H93.3V190H105.44V192.64ZM116.601 198.66C116.601 198.7 116.581 198.98 116.541 199.5H108.401C108.547 200.167 108.894 200.693 109.441 201.08C109.987 201.467 110.667 201.66 111.481 201.66C112.041 201.66 112.534 201.58 112.961 201.42C113.401 201.247 113.807 200.98 114.181 200.62L115.841 202.42C114.827 203.58 113.347 204.16 111.401 204.16C110.187 204.16 109.114 203.927 108.181 203.46C107.247 202.98 106.527 202.32 106.021 201.48C105.514 200.64 105.261 199.687 105.261 198.62C105.261 197.567 105.507 196.62 106.001 195.78C106.507 194.927 107.194 194.267 108.061 193.8C108.941 193.32 109.921 193.08 111.001 193.08C112.054 193.08 113.007 193.307 113.861 193.76C114.714 194.213 115.381 194.867 115.861 195.72C116.354 196.56 116.601 197.54 116.601 198.66ZM111.021 195.44C110.314 195.44 109.721 195.64 109.241 196.04C108.761 196.44 108.467 196.987 108.361 197.68H113.661C113.554 197 113.261 196.46 112.781 196.06C112.301 195.647 111.714 195.44 111.021 195.44ZM129.215 193.24V204H126.095V195.8H122.695L122.595 197.7C122.541 199.113 122.408 200.287 122.195 201.22C121.981 202.153 121.635 202.887 121.155 203.42C120.675 203.953 120.008 204.22 119.155 204.22C118.701 204.22 118.161 204.14 117.535 203.98L117.695 201.42C117.908 201.447 118.061 201.46 118.155 201.46C118.621 201.46 118.968 201.293 119.195 200.96C119.435 200.613 119.595 200.18 119.675 199.66C119.755 199.127 119.815 198.427 119.855 197.56L120.015 193.24H129.215ZM142.675 198.66C142.675 198.7 142.655 198.98 142.615 199.5H134.475C134.622 200.167 134.968 200.693 135.515 201.08C136.062 201.467 136.742 201.66 137.555 201.66C138.115 201.66 138.608 201.58 139.035 201.42C139.475 201.247 139.882 200.98 140.255 200.62L141.915 202.42C140.902 203.58 139.422 204.16 137.475 204.16C136.262 204.16 135.188 203.927 134.255 203.46C133.322 202.98 132.602 202.32 132.095 201.48C131.588 200.64 131.335 199.687 131.335 198.62C131.335 197.567 131.582 196.62 132.075 195.78C132.582 194.927 133.268 194.267 134.135 193.8C135.015 193.32 135.995 193.08 137.075 193.08C138.128 193.08 139.082 193.307 139.935 193.76C140.788 194.213 141.455 194.867 141.935 195.72C142.428 196.56 142.675 197.54 142.675 198.66ZM137.095 195.44C136.388 195.44 135.795 195.64 135.315 196.04C134.835 196.44 134.542 196.987 134.435 197.68H139.735C139.628 197 139.335 196.46 138.855 196.06C138.375 195.647 137.788 195.44 137.095 195.44ZM159.926 198.58C159.926 200.247 159.366 201.567 158.246 202.54C157.14 203.5 155.553 204.053 153.486 204.2V207.88H150.626V204.2C148.56 204.053 146.966 203.507 145.846 202.56C144.74 201.6 144.186 200.273 144.186 198.58C144.186 196.913 144.733 195.62 145.826 194.7C146.933 193.78 148.533 193.247 150.626 193.1V189.16H153.486V193.1C155.553 193.247 157.14 193.787 158.246 194.72C159.366 195.653 159.926 196.94 159.926 198.58ZM147.206 198.58C147.206 199.54 147.48 200.28 148.026 200.8C148.573 201.32 149.44 201.647 150.626 201.78V195.52C149.44 195.64 148.573 195.953 148.026 196.46C147.48 196.953 147.206 197.66 147.206 198.58ZM153.486 201.78C154.673 201.647 155.54 201.32 156.086 200.8C156.646 200.28 156.926 199.54 156.926 198.58C156.926 197.66 156.646 196.953 156.086 196.46C155.54 195.953 154.673 195.64 153.486 195.52V201.78ZM167.079 204.16C165.946 204.16 164.926 203.927 164.019 203.46C163.126 202.98 162.426 202.32 161.919 201.48C161.412 200.64 161.159 199.687 161.159 198.62C161.159 197.553 161.412 196.6 161.919 195.76C162.426 194.92 163.126 194.267 164.019 193.8C164.926 193.32 165.946 193.08 167.079 193.08C168.212 193.08 169.226 193.32 170.119 193.8C171.012 194.267 171.712 194.92 172.219 195.76C172.726 196.6 172.979 197.553 172.979 198.62C172.979 199.687 172.726 200.64 172.219 201.48C171.712 202.32 171.012 202.98 170.119 203.46C169.226 203.927 168.212 204.16 167.079 204.16ZM167.079 201.6C167.879 201.6 168.532 201.333 169.039 200.8C169.559 200.253 169.819 199.527 169.819 198.62C169.819 197.713 169.559 196.993 169.039 196.46C168.532 195.913 167.879 195.64 167.079 195.64C166.279 195.64 165.619 195.913 165.099 196.46C164.579 196.993 164.319 197.713 164.319 198.62C164.319 199.527 164.579 200.253 165.099 200.8C165.619 201.333 166.279 201.6 167.079 201.6ZM175.125 193.24H178.225V197.44H182.905V193.24H186.025V204H182.905V199.98H178.225V204H175.125V193.24Z" fill="#212121"/>
    <path d="M96.984 227.904V220.896H98.328V227.904H96.984ZM94.072 225.04V223.776H101.24V225.04H94.072ZM104.86 230L109.612 219.472L110.028 220.192H103.372L104.172 219.408V222.192H102.636V218.8H111.084V219.888L106.556 230H104.86ZM119.44 233.104C118.832 232.133 118.362 231.013 118.032 229.744C117.701 228.464 117.536 227.088 117.536 225.616C117.536 224.144 117.701 222.768 118.032 221.488C118.362 220.197 118.832 219.077 119.44 218.128H120.896C120.256 219.259 119.786 220.443 119.488 221.68C119.189 222.907 119.04 224.219 119.04 225.616C119.04 227.013 119.189 228.331 119.488 229.568C119.786 230.795 120.256 231.973 120.896 233.104H119.44ZM124.219 230V219.44L124.907 220.192H121.691V218.8H125.803V230H124.219ZM128.076 230V228.912L132.636 224.512C133.042 224.128 133.34 223.792 133.532 223.504C133.735 223.205 133.868 222.933 133.932 222.688C134.007 222.432 134.044 222.187 134.044 221.952C134.044 221.376 133.842 220.923 133.436 220.592C133.031 220.261 132.439 220.096 131.66 220.096C131.063 220.096 130.524 220.197 130.044 220.4C129.564 220.592 129.148 220.896 128.796 221.312L127.708 220.368C128.135 219.824 128.706 219.408 129.42 219.12C130.146 218.821 130.94 218.672 131.804 218.672C132.583 218.672 133.26 218.8 133.836 219.056C134.412 219.301 134.855 219.659 135.164 220.128C135.484 220.597 135.644 221.152 135.644 221.792C135.644 222.155 135.596 222.512 135.5 222.864C135.404 223.216 135.223 223.589 134.956 223.984C134.69 224.379 134.306 224.821 133.804 225.312L129.74 229.232L129.356 228.608H136.124V230H128.076ZM140.864 230.128C140.075 230.128 139.307 230.005 138.56 229.76C137.824 229.515 137.221 229.184 136.752 228.768L137.488 227.504C137.861 227.856 138.347 228.144 138.944 228.368C139.541 228.592 140.181 228.704 140.864 228.704C141.696 228.704 142.341 228.528 142.8 228.176C143.269 227.813 143.504 227.328 143.504 226.72C143.504 226.133 143.28 225.664 142.832 225.312C142.395 224.949 141.696 224.768 140.736 224.768H139.84V223.648L143.168 219.552L143.392 220.192H137.264V218.8H144.656V219.888L141.344 223.968L140.512 223.472H141.04C142.395 223.472 143.408 223.776 144.08 224.384C144.763 224.992 145.104 225.765 145.104 226.704C145.104 227.333 144.949 227.909 144.64 228.432C144.331 228.955 143.861 229.371 143.232 229.68C142.613 229.979 141.824 230.128 140.864 230.128ZM147.796 233.104H146.34C146.991 231.973 147.465 230.795 147.764 229.568C148.063 228.331 148.212 227.013 148.212 225.616C148.212 224.219 148.063 222.907 147.764 221.68C147.465 220.443 146.991 219.259 146.34 218.128H147.796C148.425 219.077 148.9 220.197 149.22 221.488C149.551 222.768 149.716 224.144 149.716 225.616C149.716 227.088 149.551 228.464 149.22 229.744C148.9 231.013 148.425 232.133 147.796 233.104ZM156.139 227.248V226.128L161.867 218.8H163.595L157.915 226.128L157.099 225.872H166.043V227.248H156.139ZM162.363 230V227.248L162.411 225.872V223.44H163.915V230H162.363ZM170.603 230.128C169.813 230.128 169.045 230.005 168.299 229.76C167.563 229.515 166.96 229.184 166.491 228.768L167.227 227.504C167.6 227.856 168.085 228.144 168.683 228.368C169.28 228.592 169.915 228.704 170.587 228.704C171.44 228.704 172.096 228.523 172.555 228.16C173.013 227.797 173.243 227.312 173.243 226.704C173.243 226.288 173.141 225.925 172.939 225.616C172.736 225.307 172.384 225.072 171.883 224.912C171.392 224.741 170.715 224.656 169.851 224.656H167.307L167.899 218.8H174.219V220.192H168.491L169.323 219.408L168.859 224.032L168.027 223.264H170.187C171.307 223.264 172.208 223.408 172.891 223.696C173.573 223.984 174.069 224.384 174.379 224.896C174.688 225.397 174.843 225.979 174.843 226.64C174.843 227.28 174.688 227.867 174.379 228.4C174.069 228.923 173.6 229.344 172.971 229.664C172.352 229.973 171.563 230.128 170.603 230.128ZM180.878 230.128C179.886 230.128 179.038 229.909 178.334 229.472C177.63 229.035 177.092 228.405 176.718 227.584C176.356 226.752 176.174 225.739 176.174 224.544C176.174 223.275 176.398 222.203 176.846 221.328C177.294 220.453 177.918 219.792 178.718 219.344C179.518 218.896 180.436 218.672 181.47 218.672C182.004 218.672 182.51 218.725 182.99 218.832C183.481 218.939 183.902 219.104 184.254 219.328L183.646 220.576C183.358 220.373 183.028 220.235 182.654 220.16C182.292 220.085 181.908 220.048 181.502 220.048C180.361 220.048 179.454 220.405 178.782 221.12C178.11 221.824 177.774 222.875 177.774 224.272C177.774 224.496 177.785 224.763 177.806 225.072C177.828 225.381 177.881 225.685 177.966 225.984L177.422 225.44C177.582 224.949 177.833 224.539 178.174 224.208C178.526 223.867 178.942 223.616 179.422 223.456C179.913 223.285 180.441 223.2 181.006 223.2C181.753 223.2 182.414 223.339 182.99 223.616C183.566 223.893 184.02 224.288 184.35 224.8C184.681 225.301 184.846 225.899 184.846 226.592C184.846 227.307 184.67 227.931 184.318 228.464C183.966 228.997 183.492 229.408 182.894 229.696C182.297 229.984 181.625 230.128 180.878 230.128ZM180.814 228.832C181.305 228.832 181.732 228.741 182.094 228.56C182.468 228.379 182.761 228.128 182.974 227.808C183.188 227.477 183.294 227.093 183.294 226.656C183.294 225.995 183.065 225.472 182.606 225.088C182.148 224.693 181.524 224.496 180.734 224.496C180.222 224.496 179.774 224.592 179.39 224.784C179.006 224.976 178.702 225.237 178.478 225.568C178.265 225.888 178.158 226.256 178.158 226.672C178.158 227.056 178.26 227.413 178.462 227.744C178.665 228.064 178.964 228.325 179.358 228.528C179.753 228.731 180.238 228.832 180.814 228.832ZM186.271 226.272V224.944H190.575V226.272H186.271ZM194.032 230L198.784 219.472L199.2 220.192H192.544L193.344 219.408V222.192H191.808V218.8H200.256V219.888L195.728 230H194.032ZM205.745 230.128C204.839 230.128 204.055 229.995 203.393 229.728C202.732 229.461 202.22 229.083 201.857 228.592C201.495 228.091 201.313 227.504 201.313 226.832C201.313 226.171 201.484 225.611 201.825 225.152C202.177 224.683 202.684 224.331 203.345 224.096C204.007 223.851 204.807 223.728 205.745 223.728C206.684 223.728 207.484 223.851 208.145 224.096C208.817 224.331 209.329 224.683 209.681 225.152C210.033 225.621 210.209 226.181 210.209 226.832C210.209 227.504 210.028 228.091 209.665 228.592C209.303 229.083 208.785 229.461 208.113 229.728C207.441 229.995 206.652 230.128 205.745 230.128ZM205.745 228.832C206.641 228.832 207.34 228.651 207.841 228.288C208.353 227.915 208.609 227.413 208.609 226.784C208.609 226.165 208.353 225.68 207.841 225.328C207.34 224.965 206.641 224.784 205.745 224.784C204.86 224.784 204.167 224.965 203.665 225.328C203.164 225.68 202.913 226.165 202.913 226.784C202.913 227.413 203.164 227.915 203.665 228.288C204.167 228.651 204.86 228.832 205.745 228.832ZM205.745 224.592C204.892 224.592 204.167 224.48 203.569 224.256C202.972 224.021 202.513 223.691 202.193 223.264C201.873 222.827 201.713 222.309 201.713 221.712C201.713 221.083 201.879 220.544 202.209 220.096C202.551 219.637 203.025 219.285 203.633 219.04C204.241 218.795 204.945 218.672 205.745 218.672C206.556 218.672 207.265 218.795 207.873 219.04C208.481 219.285 208.956 219.637 209.297 220.096C209.639 220.544 209.809 221.083 209.809 221.712C209.809 222.309 209.649 222.827 209.329 223.264C209.009 223.691 208.545 224.021 207.937 224.256C207.329 224.48 206.599 224.592 205.745 224.592ZM205.745 223.568C206.524 223.568 207.132 223.408 207.569 223.088C208.017 222.768 208.241 222.331 208.241 221.776C208.241 221.211 208.012 220.768 207.553 220.448C207.095 220.128 206.492 219.968 205.745 219.968C204.999 219.968 204.401 220.128 203.953 220.448C203.516 220.768 203.297 221.211 203.297 221.776C203.297 222.331 203.511 222.768 203.937 223.088C204.375 223.408 204.977 223.568 205.745 223.568ZM211.818 226.272V224.944H216.122V226.272H211.818ZM221.431 218.672C222.445 218.672 223.298 218.891 223.991 219.328C224.695 219.765 225.229 220.4 225.591 221.232C225.954 222.053 226.135 223.061 226.135 224.256C226.135 225.525 225.911 226.597 225.463 227.472C225.015 228.347 224.397 229.008 223.607 229.456C222.818 229.904 221.895 230.128 220.839 230.128C220.317 230.128 219.81 230.075 219.319 229.968C218.839 229.861 218.418 229.696 218.055 229.472L218.663 228.224C218.962 228.416 219.293 228.555 219.655 228.64C220.029 228.715 220.418 228.752 220.823 228.752C221.954 228.752 222.855 228.4 223.527 227.696C224.199 226.981 224.535 225.925 224.535 224.528C224.535 224.304 224.525 224.037 224.503 223.728C224.482 223.419 224.434 223.115 224.359 222.816L224.887 223.36C224.738 223.851 224.487 224.267 224.135 224.608C223.794 224.939 223.378 225.189 222.887 225.36C222.407 225.52 221.879 225.6 221.303 225.6C220.567 225.6 219.911 225.461 219.335 225.184C218.759 224.907 218.306 224.517 217.975 224.016C217.645 223.504 217.479 222.901 217.479 222.208C217.479 221.483 217.65 220.859 217.991 220.336C218.343 219.803 218.818 219.392 219.415 219.104C220.023 218.816 220.695 218.672 221.431 218.672ZM221.495 219.968C221.015 219.968 220.589 220.059 220.215 220.24C219.842 220.421 219.549 220.672 219.335 220.992C219.133 221.312 219.031 221.696 219.031 222.144C219.031 222.805 219.261 223.333 219.719 223.728C220.178 224.112 220.797 224.304 221.575 224.304C222.087 224.304 222.535 224.208 222.919 224.016C223.314 223.824 223.618 223.563 223.831 223.232C224.055 222.901 224.167 222.533 224.167 222.128C224.167 221.733 224.066 221.376 223.863 221.056C223.661 220.736 223.362 220.475 222.967 220.272C222.573 220.069 222.082 219.968 221.495 219.968ZM232.25 230.128C231.376 230.128 230.592 229.904 229.898 229.456C229.216 229.008 228.672 228.357 228.266 227.504C227.872 226.651 227.674 225.616 227.674 224.4C227.674 223.184 227.872 222.149 228.266 221.296C228.672 220.443 229.216 219.792 229.898 219.344C230.592 218.896 231.376 218.672 232.25 218.672C233.114 218.672 233.893 218.896 234.586 219.344C235.28 219.792 235.824 220.443 236.218 221.296C236.613 222.149 236.81 223.184 236.81 224.4C236.81 225.616 236.613 226.651 236.218 227.504C235.824 228.357 235.28 229.008 234.586 229.456C233.893 229.904 233.114 230.128 232.25 230.128ZM232.25 228.704C232.837 228.704 233.349 228.544 233.786 228.224C234.234 227.904 234.581 227.424 234.826 226.784C235.082 226.144 235.21 225.349 235.21 224.4C235.21 223.451 235.082 222.656 234.826 222.016C234.581 221.376 234.234 220.896 233.786 220.576C233.349 220.256 232.837 220.096 232.25 220.096C231.664 220.096 231.146 220.256 230.698 220.576C230.25 220.896 229.898 221.376 229.642 222.016C229.397 222.656 229.274 223.451 229.274 224.4C229.274 225.349 229.397 226.144 229.642 226.784C229.898 227.424 230.25 227.904 230.698 228.224C231.146 228.544 231.664 228.704 232.25 228.704Z" fill="#212121"/>
    <g clip-path="url(#clip1_742_12)">
        <path d="M61.5832 219.946L57.3535 224.142C56.7291 224.782 55.9016 224.999 55.0956 225C51.5313 224.893 48.1623 223.143 45.3961 221.345C40.8555 218.041 36.6894 213.946 34.0746 208.996C33.0718 206.92 31.8951 204.272 32.0075 201.955C32.0175 201.084 32.2524 200.229 32.8661 199.667L37.0958 195.439C37.9741 194.692 38.8235 194.95 39.3855 195.821L42.7883 202.273C43.1464 203.038 42.941 203.857 42.4066 204.403L40.8483 205.96C40.7521 206.092 40.6909 206.242 40.6893 206.405C41.2869 208.718 43.0972 210.85 44.6964 212.318C46.2955 213.785 48.0145 215.773 50.2458 216.243C50.5216 216.32 50.8594 216.347 51.0567 216.164L52.8695 214.32C53.4944 213.846 54.3966 213.615 55.0638 214.002H55.0956L61.2333 217.626C62.1343 218.191 62.2283 219.282 61.5832 219.946Z" fill="#212121"/>
    </g>
    <rect width="493" height="120" transform="translate(0 300)" fill="white"/>
    <path d="M100.8 340C102.04 340 103.113 340.207 104.02 340.62C104.94 341.033 105.647 341.62 106.14 342.38C106.633 343.14 106.88 344.04 106.88 345.08C106.88 346.107 106.633 347.007 106.14 347.78C105.647 348.54 104.94 349.127 104.02 349.54C103.113 349.94 102.04 350.14 100.8 350.14H97.98V354H94.74V340H100.8ZM100.62 347.5C101.593 347.5 102.333 347.293 102.84 346.88C103.347 346.453 103.6 345.853 103.6 345.08C103.6 344.293 103.347 343.693 102.84 343.28C102.333 342.853 101.593 342.64 100.62 342.64H97.98V347.5H100.62ZM119.218 348.66C119.218 348.7 119.198 348.98 119.158 349.5H111.018C111.164 350.167 111.511 350.693 112.058 351.08C112.604 351.467 113.284 351.66 114.098 351.66C114.658 351.66 115.151 351.58 115.578 351.42C116.018 351.247 116.424 350.98 116.798 350.62L118.458 352.42C117.444 353.58 115.964 354.16 114.018 354.16C112.804 354.16 111.731 353.927 110.798 353.46C109.864 352.98 109.144 352.32 108.638 351.48C108.131 350.64 107.878 349.687 107.878 348.62C107.878 347.567 108.124 346.62 108.618 345.78C109.124 344.927 109.811 344.267 110.678 343.8C111.558 343.32 112.538 343.08 113.618 343.08C114.671 343.08 115.624 343.307 116.478 343.76C117.331 344.213 117.998 344.867 118.478 345.72C118.971 346.56 119.218 347.54 119.218 348.66ZM113.638 345.44C112.931 345.44 112.338 345.64 111.858 346.04C111.378 346.44 111.084 346.987 110.978 347.68H116.278C116.171 347 115.878 346.46 115.398 346.06C114.918 345.647 114.331 345.44 113.638 345.44ZM131.976 349.92H130.476V354H127.396V349.92H125.896L123.616 354H119.936L123.316 348.44L120.176 343.24H123.476L125.856 347.42H127.396V343.24H130.476V347.42H131.996L134.396 343.24H137.696L134.556 348.44L137.956 354H134.256L131.976 349.92ZM139.578 343.24H142.678V349.64L147.918 343.24H150.778V354H147.678V347.6L142.458 354H139.578V343.24ZM164.277 354V347.56L161.057 352.96H159.737L156.597 347.54V354H153.777V343.24H157.037L160.477 349.46L164.137 343.24H167.057L167.097 354H164.277ZM182.09 343.08C183.09 343.08 183.997 343.313 184.81 343.78C185.637 344.233 186.283 344.88 186.75 345.72C187.217 346.547 187.45 347.513 187.45 348.62C187.45 349.727 187.217 350.7 186.75 351.54C186.283 352.367 185.637 353.013 184.81 353.48C183.997 353.933 183.09 354.16 182.09 354.16C180.717 354.16 179.637 353.727 178.85 352.86V357.88H175.73V343.24H178.71V344.48C179.483 343.547 180.61 343.08 182.09 343.08ZM181.55 351.6C182.35 351.6 183.003 351.333 183.51 350.8C184.03 350.253 184.29 349.527 184.29 348.62C184.29 347.713 184.03 346.993 183.51 346.46C183.003 345.913 182.35 345.64 181.55 345.64C180.75 345.64 180.09 345.913 179.57 346.46C179.063 346.993 178.81 347.713 178.81 348.62C178.81 349.527 179.063 350.253 179.57 350.8C180.09 351.333 180.75 351.6 181.55 351.6ZM193.641 343.08C195.308 343.08 196.588 343.48 197.481 344.28C198.374 345.067 198.821 346.26 198.821 347.86V354H195.901V352.66C195.314 353.66 194.221 354.16 192.621 354.16C191.794 354.16 191.074 354.02 190.461 353.74C189.861 353.46 189.401 353.073 189.081 352.58C188.761 352.087 188.601 351.527 188.601 350.9C188.601 349.9 188.974 349.113 189.721 348.54C190.481 347.967 191.648 347.68 193.221 347.68H195.701C195.701 347 195.494 346.48 195.081 346.12C194.668 345.747 194.048 345.56 193.221 345.56C192.648 345.56 192.081 345.653 191.521 345.84C190.974 346.013 190.508 346.253 190.121 346.56L189.001 344.38C189.588 343.967 190.288 343.647 191.101 343.42C191.928 343.193 192.774 343.08 193.641 343.08ZM193.401 352.06C193.934 352.06 194.408 351.94 194.821 351.7C195.234 351.447 195.528 351.08 195.701 350.6V349.5H193.561C192.281 349.5 191.641 349.92 191.641 350.76C191.641 351.16 191.794 351.48 192.101 351.72C192.421 351.947 192.854 352.06 193.401 352.06ZM207.751 343.98C208.778 343.98 209.678 344.193 210.451 344.62C211.225 345.033 211.818 345.62 212.231 346.38C212.658 347.14 212.871 348.02 212.871 349.02C212.871 350.047 212.618 350.96 212.111 351.76C211.618 352.547 210.925 353.16 210.031 353.6C209.138 354.027 208.125 354.24 206.991 354.24C205.111 354.24 203.631 353.64 202.551 352.44C201.485 351.227 200.951 349.453 200.951 347.12C200.951 344.96 201.418 343.24 202.351 341.96C203.298 340.667 204.745 339.82 206.691 339.42L211.811 338.4L212.231 341.08L207.711 341.98C206.485 342.22 205.571 342.62 204.971 343.18C204.385 343.74 204.038 344.533 203.931 345.56C204.398 345.053 204.958 344.667 205.611 344.4C206.265 344.12 206.978 343.98 207.751 343.98ZM207.011 351.82C207.811 351.82 208.451 351.56 208.931 351.04C209.425 350.52 209.671 349.86 209.671 349.06C209.671 348.247 209.425 347.6 208.931 347.12C208.451 346.64 207.811 346.4 207.011 346.4C206.198 346.4 205.545 346.64 205.051 347.12C204.558 347.6 204.311 348.247 204.311 349.06C204.311 349.873 204.565 350.54 205.071 351.06C205.578 351.567 206.225 351.82 207.011 351.82ZM220.028 354.16C218.895 354.16 217.875 353.927 216.968 353.46C216.075 352.98 215.375 352.32 214.868 351.48C214.362 350.64 214.108 349.687 214.108 348.62C214.108 347.553 214.362 346.6 214.868 345.76C215.375 344.92 216.075 344.267 216.968 343.8C217.875 343.32 218.895 343.08 220.028 343.08C221.162 343.08 222.175 343.32 223.068 343.8C223.962 344.267 224.662 344.92 225.168 345.76C225.675 346.6 225.928 347.553 225.928 348.62C225.928 349.687 225.675 350.64 225.168 351.48C224.662 352.32 223.962 352.98 223.068 353.46C222.175 353.927 221.162 354.16 220.028 354.16ZM220.028 351.6C220.828 351.6 221.482 351.333 221.988 350.8C222.508 350.253 222.768 349.527 222.768 348.62C222.768 347.713 222.508 346.993 221.988 346.46C221.482 345.913 220.828 345.64 220.028 345.64C219.228 345.64 218.568 345.913 218.048 346.46C217.528 346.993 217.268 347.713 217.268 348.62C217.268 349.527 217.528 350.253 218.048 350.8C218.568 351.333 219.228 351.6 220.028 351.6ZM236.724 345.8H233.084V354H229.984V345.8H226.344V343.24H236.724V345.8ZM244.047 346.68C245.447 346.693 246.507 347.007 247.227 347.62C247.947 348.233 248.307 349.113 248.307 350.26C248.307 351.46 247.9 352.387 247.087 353.04C246.273 353.693 245.12 354.02 243.627 354.02L238.387 354V343.24H241.487V346.68H244.047ZM249.467 343.24H252.567V354H249.467V343.24ZM243.347 351.8C243.947 351.813 244.407 351.687 244.727 351.42C245.047 351.153 245.207 350.753 245.207 350.22C245.207 349.7 245.047 349.32 244.727 349.08C244.42 348.84 243.96 348.713 243.347 348.7L241.487 348.68V351.8H243.347Z" fill="#212121"/>
    <path d="M94.744 380V368.8H104.392V380H102.824V369.776L103.208 370.192H95.928L96.328 369.776V380H94.744ZM107.629 380V371.52H109.165V375.12H113.997V371.52H115.533V380H113.997V376.448H109.165V380H107.629ZM121.328 376.144V375.072H129.328V376.144H121.328ZM135.369 380V368.8H145.017V380H143.449V369.776L143.833 370.192H136.553L136.953 369.776V380H135.369ZM149.934 380V372.464L150.318 372.864H146.83V371.52H154.574V372.864H151.102L151.47 372.464V380H149.934ZM156.48 373.632C156.182 373.632 155.926 373.531 155.712 373.328C155.499 373.115 155.392 372.848 155.392 372.528C155.392 372.208 155.499 371.947 155.712 371.744C155.926 371.541 156.182 371.44 156.48 371.44C156.768 371.44 157.014 371.541 157.216 371.744C157.43 371.947 157.536 372.208 157.536 372.528C157.536 372.848 157.43 373.115 157.216 373.328C157.014 373.531 156.768 373.632 156.48 373.632ZM156.48 380.096C156.182 380.096 155.926 379.995 155.712 379.792C155.499 379.579 155.392 379.312 155.392 378.992C155.392 378.672 155.499 378.411 155.712 378.208C155.926 378.005 156.182 377.904 156.48 377.904C156.768 377.904 157.014 378.005 157.216 378.208C157.43 378.411 157.536 378.672 157.536 378.992C157.536 379.312 157.43 379.579 157.216 379.792C157.014 379.995 156.768 380.096 156.48 380.096ZM167.762 380.096C166.898 380.096 166.125 379.909 165.442 379.536C164.77 379.163 164.242 378.651 163.858 378C163.474 377.349 163.282 376.603 163.282 375.76C163.282 374.917 163.474 374.171 163.858 373.52C164.242 372.869 164.77 372.363 165.442 372C166.125 371.627 166.898 371.44 167.762 371.44C168.53 371.44 169.213 371.595 169.81 371.904C170.418 372.203 170.887 372.651 171.218 373.248L170.05 374C169.773 373.584 169.431 373.28 169.026 373.088C168.631 372.885 168.205 372.784 167.746 372.784C167.191 372.784 166.695 372.907 166.258 373.152C165.821 373.397 165.474 373.744 165.218 374.192C164.962 374.629 164.834 375.152 164.834 375.76C164.834 376.368 164.962 376.896 165.218 377.344C165.474 377.792 165.821 378.139 166.258 378.384C166.695 378.629 167.191 378.752 167.746 378.752C168.205 378.752 168.631 378.656 169.026 378.464C169.431 378.261 169.773 377.952 170.05 377.536L171.218 378.272C170.887 378.859 170.418 379.312 169.81 379.632C169.213 379.941 168.53 380.096 167.762 380.096ZM180.416 368.672C181.429 368.672 182.282 368.891 182.976 369.328C183.68 369.765 184.213 370.4 184.576 371.232C184.938 372.053 185.12 373.061 185.12 374.256C185.12 375.525 184.896 376.597 184.448 377.472C184 378.347 183.381 379.008 182.592 379.456C181.802 379.904 180.88 380.128 179.824 380.128C179.301 380.128 178.794 380.075 178.304 379.968C177.824 379.861 177.402 379.696 177.04 379.472L177.648 378.224C177.946 378.416 178.277 378.555 178.64 378.64C179.013 378.715 179.402 378.752 179.808 378.752C180.938 378.752 181.84 378.4 182.512 377.696C183.184 376.981 183.52 375.925 183.52 374.528C183.52 374.304 183.509 374.037 183.488 373.728C183.466 373.419 183.418 373.115 183.344 372.816L183.872 373.36C183.722 373.851 183.472 374.267 183.12 374.608C182.778 374.939 182.362 375.189 181.872 375.36C181.392 375.52 180.864 375.6 180.288 375.6C179.552 375.6 178.896 375.461 178.32 375.184C177.744 374.907 177.29 374.517 176.96 374.016C176.629 373.504 176.464 372.901 176.464 372.208C176.464 371.483 176.634 370.859 176.976 370.336C177.328 369.803 177.802 369.392 178.4 369.104C179.008 368.816 179.68 368.672 180.416 368.672ZM180.48 369.968C180 369.968 179.573 370.059 179.2 370.24C178.826 370.421 178.533 370.672 178.32 370.992C178.117 371.312 178.016 371.696 178.016 372.144C178.016 372.805 178.245 373.333 178.704 373.728C179.162 374.112 179.781 374.304 180.56 374.304C181.072 374.304 181.52 374.208 181.904 374.016C182.298 373.824 182.602 373.563 182.816 373.232C183.04 372.901 183.152 372.533 183.152 372.128C183.152 371.733 183.05 371.376 182.848 371.056C182.645 370.736 182.346 370.475 181.952 370.272C181.557 370.069 181.066 369.968 180.48 369.968ZM187.715 373.632C187.416 373.632 187.16 373.531 186.947 373.328C186.733 373.115 186.627 372.848 186.627 372.528C186.627 372.208 186.733 371.947 186.947 371.744C187.16 371.541 187.416 371.44 187.715 371.44C188.003 371.44 188.248 371.541 188.451 371.744C188.664 371.947 188.771 372.208 188.771 372.528C188.771 372.848 188.664 373.115 188.451 373.328C188.248 373.531 188.003 373.632 187.715 373.632ZM187.715 380.096C187.416 380.096 187.16 379.995 186.947 379.792C186.733 379.579 186.627 379.312 186.627 378.992C186.627 378.672 186.733 378.411 186.947 378.208C187.16 378.005 187.416 377.904 187.715 377.904C188.003 377.904 188.248 378.005 188.451 378.208C188.664 378.411 188.771 378.672 188.771 378.992C188.771 379.312 188.664 379.579 188.451 379.792C188.248 379.995 188.003 380.096 187.715 380.096ZM194.86 380.128C193.985 380.128 193.201 379.904 192.508 379.456C191.825 379.008 191.281 378.357 190.876 377.504C190.481 376.651 190.284 375.616 190.284 374.4C190.284 373.184 190.481 372.149 190.876 371.296C191.281 370.443 191.825 369.792 192.508 369.344C193.201 368.896 193.985 368.672 194.86 368.672C195.724 368.672 196.502 368.896 197.196 369.344C197.889 369.792 198.433 370.443 198.828 371.296C199.222 372.149 199.42 373.184 199.42 374.4C199.42 375.616 199.222 376.651 198.828 377.504C198.433 378.357 197.889 379.008 197.196 379.456C196.502 379.904 195.724 380.128 194.86 380.128ZM194.86 378.704C195.446 378.704 195.958 378.544 196.396 378.224C196.844 377.904 197.19 377.424 197.436 376.784C197.692 376.144 197.82 375.349 197.82 374.4C197.82 373.451 197.692 372.656 197.436 372.016C197.19 371.376 196.844 370.896 196.396 370.576C195.958 370.256 195.446 370.096 194.86 370.096C194.273 370.096 193.756 370.256 193.308 370.576C192.86 370.896 192.508 371.376 192.252 372.016C192.006 372.656 191.884 373.451 191.884 374.4C191.884 375.349 192.006 376.144 192.252 376.784C192.508 377.424 192.86 377.904 193.308 378.224C193.756 378.544 194.273 378.704 194.86 378.704ZM205.532 380.128C204.657 380.128 203.873 379.904 203.18 379.456C202.497 379.008 201.953 378.357 201.548 377.504C201.153 376.651 200.956 375.616 200.956 374.4C200.956 373.184 201.153 372.149 201.548 371.296C201.953 370.443 202.497 369.792 203.18 369.344C203.873 368.896 204.657 368.672 205.532 368.672C206.396 368.672 207.174 368.896 207.868 369.344C208.561 369.792 209.105 370.443 209.5 371.296C209.894 372.149 210.092 373.184 210.092 374.4C210.092 375.616 209.894 376.651 209.5 377.504C209.105 378.357 208.561 379.008 207.868 379.456C207.174 379.904 206.396 380.128 205.532 380.128ZM205.532 378.704C206.118 378.704 206.63 378.544 207.068 378.224C207.516 377.904 207.862 377.424 208.108 376.784C208.364 376.144 208.492 375.349 208.492 374.4C208.492 373.451 208.364 372.656 208.108 372.016C207.862 371.376 207.516 370.896 207.068 370.576C206.63 370.256 206.118 370.096 205.532 370.096C204.945 370.096 204.428 370.256 203.98 370.576C203.532 370.896 203.18 371.376 202.924 372.016C202.678 372.656 202.556 373.451 202.556 374.4C202.556 375.349 202.678 376.144 202.924 376.784C203.18 377.424 203.532 377.904 203.98 378.224C204.428 378.544 204.945 378.704 205.532 378.704ZM222.436 379.28V372.864H218.756L218.676 374.496C218.655 375.029 218.618 375.547 218.564 376.048C218.522 376.539 218.447 376.992 218.34 377.408C218.244 377.824 218.1 378.165 217.908 378.432C217.716 378.699 217.46 378.864 217.14 378.928L215.62 378.656C215.951 378.667 216.218 378.56 216.42 378.336C216.623 378.101 216.778 377.781 216.884 377.376C217.002 376.971 217.087 376.512 217.14 376C217.194 375.477 217.236 374.939 217.268 374.384L217.396 371.52H223.972V379.28H222.436ZM215.284 381.968V378.656H225.268V381.968H223.828V380H216.74V381.968H215.284ZM230.901 380.096C230.048 380.096 229.291 379.909 228.629 379.536C227.968 379.163 227.445 378.651 227.061 378C226.677 377.339 226.485 376.592 226.485 375.76C226.485 374.917 226.677 374.171 227.061 373.52C227.445 372.869 227.968 372.363 228.629 372C229.291 371.627 230.048 371.44 230.901 371.44C231.744 371.44 232.496 371.627 233.157 372C233.829 372.363 234.352 372.869 234.725 373.52C235.109 374.16 235.301 374.907 235.301 375.76C235.301 376.603 235.109 377.349 234.725 378C234.352 378.651 233.829 379.163 233.157 379.536C232.496 379.909 231.744 380.096 230.901 380.096ZM230.901 378.752C231.445 378.752 231.931 378.629 232.357 378.384C232.795 378.139 233.136 377.792 233.381 377.344C233.627 376.885 233.749 376.357 233.749 375.76C233.749 375.152 233.627 374.629 233.381 374.192C233.136 373.744 232.795 373.397 232.357 373.152C231.931 372.907 231.445 372.784 230.901 372.784C230.357 372.784 229.872 372.907 229.445 373.152C229.019 373.397 228.677 373.744 228.421 374.192C228.165 374.629 228.037 375.152 228.037 375.76C228.037 376.357 228.165 376.885 228.421 377.344C228.677 377.792 229.019 378.139 229.445 378.384C229.872 378.629 230.357 378.752 230.901 378.752ZM242.984 380V369.44L243.672 370.192H240.456V368.8H244.568V380H242.984ZM248.954 380L253.706 369.472L254.122 370.192H247.466L248.266 369.408V372.192H246.73V368.8H255.178V369.888L250.65 380H248.954ZM257.324 373.632C257.025 373.632 256.769 373.531 256.556 373.328C256.343 373.115 256.236 372.848 256.236 372.528C256.236 372.208 256.343 371.947 256.556 371.744C256.769 371.541 257.025 371.44 257.324 371.44C257.612 371.44 257.857 371.541 258.06 371.744C258.273 371.947 258.38 372.208 258.38 372.528C258.38 372.848 258.273 373.115 258.06 373.328C257.857 373.531 257.612 373.632 257.324 373.632ZM257.324 380.096C257.025 380.096 256.769 379.995 256.556 379.792C256.343 379.579 256.236 379.312 256.236 378.992C256.236 378.672 256.343 378.411 256.556 378.208C256.769 378.005 257.025 377.904 257.324 377.904C257.612 377.904 257.857 378.005 258.06 378.208C258.273 378.411 258.38 378.672 258.38 378.992C258.38 379.312 258.273 379.579 258.06 379.792C257.857 379.995 257.612 380.096 257.324 380.096ZM264.469 380.128C263.594 380.128 262.81 379.904 262.117 379.456C261.434 379.008 260.89 378.357 260.485 377.504C260.09 376.651 259.893 375.616 259.893 374.4C259.893 373.184 260.09 372.149 260.485 371.296C260.89 370.443 261.434 369.792 262.117 369.344C262.81 368.896 263.594 368.672 264.469 368.672C265.333 368.672 266.112 368.896 266.805 369.344C267.498 369.792 268.042 370.443 268.437 371.296C268.832 372.149 269.029 373.184 269.029 374.4C269.029 375.616 268.832 376.651 268.437 377.504C268.042 378.357 267.498 379.008 266.805 379.456C266.112 379.904 265.333 380.128 264.469 380.128ZM264.469 378.704C265.056 378.704 265.568 378.544 266.005 378.224C266.453 377.904 266.8 377.424 267.045 376.784C267.301 376.144 267.429 375.349 267.429 374.4C267.429 373.451 267.301 372.656 267.045 372.016C266.8 371.376 266.453 370.896 266.005 370.576C265.568 370.256 265.056 370.096 264.469 370.096C263.882 370.096 263.365 370.256 262.917 370.576C262.469 370.896 262.117 371.376 261.861 372.016C261.616 372.656 261.493 373.451 261.493 374.4C261.493 375.349 261.616 376.144 261.861 376.784C262.117 377.424 262.469 377.904 262.917 378.224C263.365 378.544 263.882 378.704 264.469 378.704ZM275.141 380.128C274.266 380.128 273.482 379.904 272.789 379.456C272.106 379.008 271.562 378.357 271.157 377.504C270.762 376.651 270.565 375.616 270.565 374.4C270.565 373.184 270.762 372.149 271.157 371.296C271.562 370.443 272.106 369.792 272.789 369.344C273.482 368.896 274.266 368.672 275.141 368.672C276.005 368.672 276.784 368.896 277.477 369.344C278.17 369.792 278.714 370.443 279.109 371.296C279.504 372.149 279.701 373.184 279.701 374.4C279.701 375.616 279.504 376.651 279.109 377.504C278.714 378.357 278.17 379.008 277.477 379.456C276.784 379.904 276.005 380.128 275.141 380.128ZM275.141 378.704C275.728 378.704 276.24 378.544 276.677 378.224C277.125 377.904 277.472 377.424 277.717 376.784C277.973 376.144 278.101 375.349 278.101 374.4C278.101 373.451 277.973 372.656 277.717 372.016C277.472 371.376 277.125 370.896 276.677 370.576C276.24 370.256 275.728 370.096 275.141 370.096C274.554 370.096 274.037 370.256 273.589 370.576C273.141 370.896 272.789 371.376 272.533 372.016C272.288 372.656 272.165 373.451 272.165 374.4C272.165 375.349 272.288 376.144 272.533 376.784C272.789 377.424 273.141 377.904 273.589 378.224C274.037 378.544 274.554 378.704 275.141 378.704Z" fill="#212121"/>
    <path d="M47 347.812C40.2693 347.812 34.8125 353.269 34.8125 360C34.8125 366.731 40.2693 372.188 47 372.188C53.7307 372.188 59.1875 366.731 59.1875 360C59.1875 353.269 53.7307 347.812 47 347.812ZM52.625 361.875H47C46.7514 361.875 46.5129 361.776 46.3371 361.6C46.1613 361.425 46.0625 361.186 46.0625 360.938V352.5C46.0625 352.251 46.1613 352.013 46.3371 351.837C46.5129 351.661 46.7514 351.562 47 351.562C47.2486 351.562 47.4871 351.661 47.6629 351.837C47.8387 352.013 47.9375 352.251 47.9375 352.5V360H52.625C52.8736 360 53.1121 360.099 53.2879 360.275C53.4637 360.45 53.5625 360.689 53.5625 360.938C53.5625 361.186 53.4637 361.425 53.2879 361.6C53.1121 361.776 52.8736 361.875 52.625 361.875Z" fill="#212121"/>
    <defs>
        <clipPath id="clip0_742_12">
            <rect width="22.9412" height="30" fill="white" transform="translate(40 45)"/>
        </clipPath>
        <clipPath id="clip1_742_12">
            <rect width="30" height="30" fill="white" transform="translate(32 195)"/>
        </clipPath>
    </defs>
</svg>
