<svg width="1540" height="218" viewBox="0 0 1540 218" fill="none" xmlns="http://www.w3.org/2000/svg">
    <rect width="1540" height="218" fill="white"/>
    <path d="M691.923 59.672L689.779 59C690.141 57.6347 690.589 56.632 691.123 55.992C691.677 55.352 692.424 55.032 693.363 55.032C694.003 55.032 694.845 55.2453 695.891 55.672C696.936 56.0987 697.619 56.312 697.939 56.312C698.387 56.312 698.728 56.1947 698.963 55.96C699.219 55.704 699.464 55.288 699.699 54.712L701.843 55.352C701.48 56.7173 701.021 57.7307 700.467 58.392C699.933 59.032 699.197 59.352 698.259 59.352C697.619 59.352 696.776 59.1387 695.731 58.712C694.685 58.2853 694.003 58.072 693.683 58.072C693.235 58.072 692.883 58.2 692.627 58.456C692.392 58.6907 692.157 59.096 691.923 59.672ZM705.302 67V63.896L713.014 57.336C714.593 56.0133 715.681 54.9253 716.278 54.072C716.897 53.1973 717.206 52.2693 717.206 51.288C717.206 50.2213 716.865 49.3787 716.182 48.76C715.5 48.12 714.636 47.8 713.59 47.8C712.609 47.8 711.724 48.0667 710.934 48.6C710.166 49.1333 709.324 49.9867 708.406 51.16L705.622 48.984C706.774 47.3627 707.958 46.1787 709.174 45.432C710.412 44.664 711.98 44.28 713.878 44.28C716.076 44.28 717.857 44.8987 719.222 46.136C720.588 47.3733 721.27 49.0053 721.27 51.032C721.27 51.9067 721.164 52.696 720.95 53.4C720.737 54.0827 720.353 54.7867 719.798 55.512C719.265 56.216 718.678 56.8667 718.038 57.464C717.42 58.04 716.556 58.7867 715.446 59.704L710.838 63.544H721.494V67H705.302ZM735.385 67V50.104H739.225L744.505 57.944L749.817 50.104H753.657V67H749.753V55.736L744.441 63.32L739.161 55.8V67H735.385ZM766.254 67.384C763.779 67.384 761.71 66.5627 760.046 64.92C758.403 63.2773 757.582 61.1547 757.582 58.552C757.582 56.0987 758.361 54.0187 759.918 52.312C761.475 50.6053 763.449 49.752 765.838 49.752C768.398 49.752 770.382 50.6267 771.79 52.376C773.219 54.104 773.934 56.2587 773.934 58.84C773.934 59.3093 773.913 59.672 773.87 59.928H761.454C761.667 61.272 762.211 62.328 763.086 63.096C763.961 63.8427 765.038 64.216 766.318 64.216C767.982 64.216 769.507 63.544 770.894 62.2L773.166 64.216C771.417 66.328 769.113 67.384 766.254 67.384ZM761.422 57.368H770.094C769.966 56.0667 769.529 55 768.782 54.168C768.035 53.336 767.043 52.92 765.806 52.92C764.633 52.92 763.651 53.336 762.862 54.168C762.073 54.9787 761.593 56.0453 761.422 57.368ZM785.631 67.384C783.135 67.384 781.055 66.5413 779.391 64.856C777.727 63.1493 776.895 61.08 776.895 58.648V58.584C776.895 56.152 777.727 54.072 779.391 52.344C781.076 50.616 783.167 49.752 785.663 49.752C788.393 49.752 790.644 50.7227 792.415 52.664L790.015 55.256C788.671 53.848 787.209 53.144 785.631 53.144C784.244 53.144 783.081 53.6667 782.143 54.712C781.225 55.7573 780.767 57.0267 780.767 58.52V58.584C780.767 60.12 781.236 61.4107 782.175 62.456C783.135 63.5013 784.351 64.024 785.823 64.024C787.38 64.024 788.841 63.32 790.207 61.912L792.543 64.216C791.625 65.24 790.623 66.0293 789.535 66.584C788.468 67.1173 787.167 67.384 785.631 67.384ZM794.412 67L799.084 60.664C797.889 60.3013 796.929 59.6933 796.204 58.84C795.5 57.9653 795.148 56.888 795.148 55.608C795.148 53.944 795.734 52.6107 796.908 51.608C798.081 50.6053 799.713 50.104 801.804 50.104H810.284V67H806.412V61.304H802.956L798.956 67H794.412ZM802.348 58.392H806.412V53.24H802.316C801.292 53.24 800.481 53.4747 799.884 53.944C799.308 54.392 799.02 55.0107 799.02 55.8C799.02 56.6107 799.318 57.2507 799.916 57.72C800.534 58.168 801.345 58.392 802.348 58.392ZM828.799 71.064V67H815.135V50.104H818.975V63.672H826.271V50.104H830.111V63.672H832.543L832.031 71.064H828.799ZM849.936 67H846.096V64.92C844.731 66.5413 842.907 67.352 840.624 67.352C838.939 67.352 837.509 66.8933 836.336 65.976C835.184 65.0373 834.608 63.736 834.608 62.072C834.608 60.2587 835.237 58.8827 836.496 57.944C837.755 57.0053 839.408 56.536 841.456 56.536C843.099 56.536 844.656 56.7707 846.128 57.24V56.92C846.128 55.7467 845.765 54.8507 845.04 54.232C844.336 53.6133 843.312 53.304 841.968 53.304C840.432 53.304 838.821 53.656 837.136 54.36L836.08 51.256C838.171 50.3173 840.315 49.848 842.512 49.848C844.965 49.848 846.811 50.4667 848.048 51.704C849.307 52.9413 849.936 54.7013 849.936 56.984V67ZM846.192 60.888V59.928C845.04 59.48 843.749 59.256 842.32 59.256C841.104 59.256 840.155 59.4907 839.472 59.96C838.789 60.4293 838.448 61.0907 838.448 61.944C838.448 62.712 838.757 63.32 839.376 63.768C839.995 64.216 840.773 64.44 841.712 64.44C843.013 64.44 844.08 64.1093 844.912 63.448C845.765 62.7867 846.192 61.9333 846.192 60.888ZM660.712 89.192C659.101 89.192 657.762 88.6373 656.696 87.528C655.629 86.408 655.096 85.032 655.096 83.4C655.096 81.7893 655.634 80.424 656.712 79.304C657.789 78.1733 659.138 77.608 660.76 77.608C661.698 77.608 662.498 77.7627 663.16 78.072C663.821 78.3707 664.466 78.8187 665.096 79.416L664.264 80.312C663.186 79.288 662.013 78.776 660.744 78.776C659.506 78.776 658.472 79.2187 657.64 80.104C656.818 80.9893 656.408 82.088 656.408 83.4C656.408 84.7013 656.824 85.8 657.656 86.696C658.488 87.5813 659.517 88.024 660.744 88.024C661.469 88.024 662.109 87.8907 662.664 87.624C663.218 87.3573 663.784 86.952 664.36 86.408L665.192 87.288C664.562 87.9173 663.901 88.392 663.208 88.712C662.514 89.032 661.682 89.192 660.712 89.192ZM667.196 91.56V80.728H668.428V82.392C669.26 81.1653 670.316 80.552 671.596 80.552C672.652 80.552 673.575 80.9467 674.364 81.736C675.154 82.5147 675.548 83.56 675.548 84.872C675.548 86.1627 675.154 87.2027 674.364 87.992C673.575 88.7813 672.652 89.176 671.596 89.176C670.295 89.176 669.239 88.5893 668.428 87.416V91.56H667.196ZM671.372 88.072C672.204 88.072 672.898 87.784 673.452 87.208C674.007 86.6213 674.284 85.8373 674.284 84.856C674.284 83.9067 674.002 83.1387 673.436 82.552C672.871 81.9547 672.183 81.656 671.372 81.656C670.572 81.656 669.874 81.96 669.276 82.568C668.679 83.176 668.38 83.944 668.38 84.872C668.38 85.8 668.679 86.568 669.276 87.176C669.874 87.7733 670.572 88.072 671.372 88.072ZM684.685 87.928C683.853 88.7707 682.824 89.192 681.597 89.192C680.371 89.192 679.347 88.7707 678.525 87.928C677.715 87.0853 677.309 86.0667 677.309 84.872C677.309 83.688 677.72 82.6747 678.541 81.832C679.373 80.9787 680.403 80.552 681.629 80.552C682.856 80.552 683.88 80.9733 684.701 81.816C685.523 82.6587 685.933 83.6773 685.933 84.872C685.933 86.056 685.517 87.0747 684.685 87.928ZM681.629 88.088C682.515 88.088 683.24 87.7787 683.805 87.16C684.381 86.5413 684.669 85.7787 684.669 84.872C684.669 83.976 684.371 83.2133 683.773 82.584C683.187 81.9547 682.461 81.64 681.597 81.64C680.712 81.64 679.987 81.9547 679.421 82.584C678.856 83.2027 678.573 83.9653 678.573 84.872C678.573 85.768 678.867 86.5307 679.453 87.16C680.04 87.7787 680.765 88.088 681.629 88.088ZM688.165 89V80.728H689.397V85.496L693.925 80.728H695.445L691.989 84.312L695.541 89H694.085L691.141 85.208L689.397 87V89H688.165ZM708.904 87.928C708.072 88.7707 707.043 89.192 705.816 89.192C704.589 89.192 703.565 88.7707 702.744 87.928C701.933 87.0853 701.528 86.0667 701.528 84.872C701.528 83.688 701.939 82.6747 702.76 81.832C703.592 80.9787 704.621 80.552 705.848 80.552C707.075 80.552 708.099 80.9733 708.92 81.816C709.741 82.6587 710.152 83.6773 710.152 84.872C710.152 86.056 709.736 87.0747 708.904 87.928ZM705.848 88.088C706.733 88.088 707.459 87.7787 708.024 87.16C708.6 86.5413 708.888 85.7787 708.888 84.872C708.888 83.976 708.589 83.2133 707.992 82.584C707.405 81.9547 706.68 81.64 705.816 81.64C704.931 81.64 704.205 81.9547 703.64 82.584C703.075 83.2027 702.792 83.9653 702.792 84.872C702.792 85.768 703.085 86.5307 703.672 87.16C704.259 87.7787 704.984 88.088 705.848 88.088ZM711.328 89L714.72 84.264L711.504 80.728H712.992L717.2 85.528V80.728H718.432V85.528L722.64 80.728H724.128L720.912 84.264L724.304 89H722.864L720.112 85.144L718.432 86.984V89H717.2V86.984L715.52 85.144L712.768 89H711.328ZM725.993 89V80.728H727.225V87.272L732.137 80.728H733.337V89H732.105V82.456L727.177 89H725.993ZM734.871 91.064V87.912H735.767C736.503 86.5573 736.871 84.6427 736.871 82.168V80.728H742.759V87.912H744.007L743.815 91.064H742.791V89H736.103L735.879 91.064H734.871ZM737.079 87.912H741.527V81.816H738.055V82.968C738.055 85.048 737.73 86.696 737.079 87.912ZM748.16 89.176C747.318 89.176 746.592 88.9467 745.984 88.488C745.376 88.0293 745.072 87.3893 745.072 86.568C745.072 85.704 745.392 85.0373 746.032 84.568C746.672 84.0987 747.531 83.864 748.608 83.864C749.462 83.864 750.304 83.9813 751.136 84.216V83.96C751.136 83.2347 750.923 82.68 750.496 82.296C750.07 81.912 749.467 81.72 748.688 81.72C747.878 81.72 747.04 81.9173 746.176 82.312L745.808 81.304C746.832 80.8347 747.835 80.6 748.816 80.6C749.99 80.6 750.88 80.904 751.488 81.512C752.064 82.088 752.352 82.8987 752.352 83.944V89H751.136V87.768C750.4 88.7067 749.408 89.176 748.16 89.176ZM748.4 88.184C749.168 88.184 749.819 87.976 750.352 87.56C750.886 87.144 751.152 86.6107 751.152 85.96V85.192C750.342 84.9573 749.536 84.84 748.736 84.84C747.979 84.84 747.387 84.9947 746.96 85.304C746.534 85.6027 746.32 86.0133 746.32 86.536C746.32 87.0373 746.518 87.4373 746.912 87.736C747.318 88.0347 747.814 88.184 748.4 88.184ZM754.962 89V80.728H756.194V84.296H760.962V80.728H762.194V89H760.962V85.384H756.194V89H754.962ZM764.946 89V80.728H766.178V87.272L771.09 80.728H772.29V89H771.058V82.456L766.13 89H764.946ZM774.304 89L776.832 85.8C776.181 85.6507 775.648 85.3573 775.232 84.92C774.827 84.4827 774.624 83.944 774.624 83.304C774.624 82.536 774.901 81.9173 775.456 81.448C776.011 80.968 776.773 80.728 777.744 80.728H781.632V89H780.4V85.992H778.112C778.016 86.12 777.685 86.5573 777.12 87.304C776.555 88.0507 776.123 88.616 775.824 89H774.304ZM777.84 84.952H780.4V81.816H777.808C777.2 81.816 776.72 81.9547 776.368 82.232C776.027 82.4987 775.856 82.872 775.856 83.352C775.856 83.8427 776.037 84.232 776.4 84.52C776.773 84.808 777.253 84.952 777.84 84.952ZM791.645 89.176C790.802 89.176 790.077 88.9467 789.469 88.488C788.861 88.0293 788.557 87.3893 788.557 86.568C788.557 85.704 788.877 85.0373 789.517 84.568C790.157 84.0987 791.015 83.864 792.093 83.864C792.946 83.864 793.789 83.9813 794.621 84.216V83.96C794.621 83.2347 794.407 82.68 793.981 82.296C793.554 81.912 792.951 81.72 792.173 81.72C791.362 81.72 790.525 81.9173 789.661 82.312L789.293 81.304C790.317 80.8347 791.319 80.6 792.301 80.6C793.474 80.6 794.365 80.904 794.973 81.512C795.549 82.088 795.837 82.8987 795.837 83.944V89H794.621V87.768C793.885 88.7067 792.893 89.176 791.645 89.176ZM791.885 88.184C792.653 88.184 793.303 87.976 793.837 87.56C794.37 87.144 794.637 86.6107 794.637 85.96V85.192C793.826 84.9573 793.021 84.84 792.221 84.84C791.463 84.84 790.871 84.9947 790.445 85.304C790.018 85.6027 789.805 86.0133 789.805 86.536C789.805 87.0373 790.002 87.4373 790.397 87.736C790.802 88.0347 791.298 88.184 791.885 88.184ZM798.446 89V80.728H802.446C803.268 80.728 803.924 80.9147 804.414 81.288C804.905 81.6613 805.15 82.1627 805.15 82.792C805.15 83.6773 804.692 84.312 803.774 84.696C804.99 85.0267 805.598 85.7093 805.598 86.744C805.598 87.4373 805.326 87.9867 804.782 88.392C804.238 88.7973 803.508 89 802.59 89H798.446ZM799.678 87.944H802.43C803.017 87.944 803.481 87.8213 803.822 87.576C804.164 87.3307 804.334 86.9893 804.334 86.552C804.334 86.1467 804.153 85.832 803.79 85.608C803.438 85.384 802.932 85.272 802.27 85.272H799.678V87.944ZM799.678 84.28H802.222C802.734 84.28 803.14 84.168 803.438 83.944C803.748 83.7093 803.902 83.3787 803.902 82.952C803.902 82.6 803.758 82.3173 803.47 82.104C803.182 81.8907 802.777 81.784 802.254 81.784H799.678V84.28ZM809.821 89V81.816H806.861V80.728H814.029V81.816H811.069V89H809.821ZM822.685 87.928C821.853 88.7707 820.824 89.192 819.597 89.192C818.371 89.192 817.347 88.7707 816.525 87.928C815.715 87.0853 815.309 86.0667 815.309 84.872C815.309 83.688 815.72 82.6747 816.541 81.832C817.373 80.9787 818.403 80.552 819.629 80.552C820.856 80.552 821.88 80.9733 822.701 81.816C823.523 82.6587 823.933 83.6773 823.933 84.872C823.933 86.056 823.517 87.0747 822.685 87.928ZM819.629 88.088C820.515 88.088 821.24 87.7787 821.805 87.16C822.381 86.5413 822.669 85.7787 822.669 84.872C822.669 83.976 822.371 83.2133 821.773 82.584C821.187 81.9547 820.461 81.64 819.597 81.64C818.712 81.64 817.987 81.9547 817.421 82.584C816.856 83.2027 816.573 83.9653 816.573 84.872C816.573 85.768 816.867 86.5307 817.453 87.16C818.04 87.7787 818.765 88.088 819.629 88.088ZM826.165 89V80.728H827.333L830.421 85.08L833.509 80.728H834.693V89H833.445V82.696L830.389 86.888L827.365 82.696V89H826.165ZM844.31 87.928C843.478 88.7707 842.449 89.192 841.222 89.192C839.996 89.192 838.972 88.7707 838.15 87.928C837.34 87.0853 836.934 86.0667 836.934 84.872C836.934 83.688 837.345 82.6747 838.166 81.832C838.998 80.9787 840.028 80.552 841.254 80.552C842.481 80.552 843.505 80.9733 844.326 81.816C845.148 82.6587 845.558 83.6773 845.558 84.872C845.558 86.056 845.142 87.0747 844.31 87.928ZM841.254 88.088C842.14 88.088 842.865 87.7787 843.43 87.16C844.006 86.5413 844.294 85.7787 844.294 84.872C844.294 83.976 843.996 83.2133 843.398 82.584C842.812 81.9547 842.086 81.64 841.222 81.64C840.337 81.64 839.612 81.9547 839.046 82.584C838.481 83.2027 838.198 83.9653 838.198 84.872C838.198 85.768 838.492 86.5307 839.078 87.16C839.665 87.7787 840.39 88.088 841.254 88.088ZM851.678 89.192C850.409 89.192 849.39 88.776 848.622 87.944C847.865 87.1013 847.486 85.9653 847.486 84.536C847.486 84.0133 847.497 83.5707 847.518 83.208C847.539 82.8347 847.582 82.424 847.646 81.976C847.71 81.528 847.811 81.144 847.95 80.824C848.089 80.504 848.265 80.1893 848.478 79.88C848.702 79.5707 848.99 79.3093 849.342 79.096C849.694 78.8827 850.105 78.7227 850.574 78.616L855.182 77.528L855.422 78.568L850.942 79.672C850.11 79.8853 849.513 80.2267 849.15 80.696C848.798 81.1547 848.59 81.7947 848.526 82.616C849.23 81.4213 850.371 80.824 851.95 80.824C853.038 80.824 853.971 81.2293 854.75 82.04C855.529 82.84 855.918 83.8053 855.918 84.936C855.918 86.1093 855.513 87.112 854.702 87.944C853.891 88.776 852.883 89.192 851.678 89.192ZM851.71 88.088C852.553 88.088 853.251 87.7893 853.806 87.192C854.361 86.584 854.638 85.8427 854.638 84.968C854.638 84.104 854.35 83.368 853.774 82.76C853.209 82.152 852.51 81.848 851.678 81.848C850.835 81.848 850.137 82.152 849.582 82.76C849.027 83.3573 848.75 84.0933 848.75 84.968C848.75 85.832 849.033 86.568 849.598 87.176C850.174 87.784 850.878 88.088 851.71 88.088ZM858.149 89V80.728H859.381V87.272L864.293 80.728H865.493V89H864.261V82.456L859.333 89H858.149ZM867.843 89.128C867.523 89.128 867.193 89.0853 866.851 89L866.995 87.944C867.241 88.0187 867.438 88.056 867.587 88.056C867.822 88.056 868.014 88.0293 868.163 87.976C868.313 87.912 868.473 87.7573 868.643 87.512C868.825 87.256 868.963 86.8987 869.059 86.44C869.155 85.9813 869.235 85.3307 869.299 84.488C869.374 83.6453 869.411 82.6213 869.411 81.416V80.728H875.267V89H874.035V81.816H870.579V82.008C870.579 83.2667 870.531 84.3387 870.435 85.224C870.339 86.1093 870.217 86.8027 870.067 87.304C869.929 87.8053 869.731 88.1947 869.475 88.472C869.219 88.7493 868.969 88.9253 868.723 89C868.489 89.0853 868.195 89.128 867.843 89.128ZM877.288 89L879.816 85.8C879.166 85.6507 878.632 85.3573 878.216 84.92C877.811 84.4827 877.608 83.944 877.608 83.304C877.608 82.536 877.886 81.9173 878.44 81.448C878.995 80.968 879.758 80.728 880.728 80.728H884.616V89H883.384V85.992H881.096C881 86.12 880.67 86.5573 880.104 87.304C879.539 88.0507 879.107 88.616 878.808 89H877.288ZM880.824 84.952H883.384V81.816H880.792C880.184 81.816 879.704 81.9547 879.352 82.232C879.011 82.4987 878.84 82.872 878.84 83.352C878.84 83.8427 879.022 84.232 879.384 84.52C879.758 84.808 880.238 84.952 880.824 84.952Z" fill="#212121"/>
    <path d="M31.6197 166V154.8H36.6437C37.9344 154.8 38.9104 155.131 39.5717 155.792C40.073 156.293 40.3237 156.923 40.3237 157.68C40.3237 158.789 39.7904 159.621 38.7237 160.176C40.2064 160.677 40.9477 161.595 40.9477 162.928C40.9477 163.909 40.5744 164.667 39.8277 165.2C39.081 165.733 38.073 166 36.8037 166H31.6197ZM33.5557 159.52H36.2437C36.8944 159.52 37.4064 159.392 37.7797 159.136C38.1637 158.869 38.3557 158.48 38.3557 157.968C38.3557 157.52 38.185 157.173 37.8437 156.928C37.5024 156.672 37.017 156.544 36.3877 156.544H33.5557V159.52ZM33.5557 164.256H36.8197C37.5024 164.256 38.0304 164.123 38.4037 163.856C38.7877 163.589 38.9797 163.2 38.9797 162.688C38.9797 161.685 38.2117 161.184 36.6757 161.184H33.5557V164.256ZM42.9426 166V157.552H44.8786V160.512H46.6546C47.6572 160.512 48.4679 160.736 49.0866 161.184C49.7052 161.632 50.0146 162.299 50.0146 163.184C50.0146 164.059 49.7266 164.747 49.1506 165.248C48.5746 165.749 47.7906 166 46.7986 166H42.9426ZM44.8786 164.432H46.5426C47.0332 164.432 47.4119 164.325 47.6786 164.112C47.9452 163.899 48.0786 163.589 48.0786 163.184C48.0786 162.811 47.9399 162.523 47.6626 162.32C47.3959 162.117 47.0119 162.016 46.5106 162.016H44.8786V164.432ZM51.2946 166V157.552H53.2306V166H51.2946ZM59.7893 164.512C60.504 164.512 61.0853 164.267 61.5333 163.776C61.992 163.275 62.2213 162.656 62.2213 161.92C62.2213 161.195 61.9813 160.581 61.5013 160.08C61.032 159.568 60.4506 159.312 59.7573 159.312C59.0533 159.312 58.472 159.563 58.0133 160.064C57.5653 160.565 57.3413 161.184 57.3413 161.92C57.3413 162.645 57.576 163.259 58.0453 163.76C58.5146 164.261 59.096 164.512 59.7893 164.512ZM59.7573 166.192C58.392 166.192 57.3253 165.76 56.5573 164.896C55.7893 164.032 55.4053 162.821 55.4053 161.264C55.4053 160.763 55.416 160.325 55.4373 159.952C55.4693 159.568 55.5226 159.157 55.5973 158.72C55.672 158.272 55.784 157.883 55.9333 157.552C56.0933 157.221 56.2906 156.907 56.5253 156.608C56.7706 156.299 57.08 156.043 57.4533 155.84C57.8373 155.627 58.28 155.467 58.7813 155.36L63.3893 154.4L63.7093 155.952L59.1013 156.96C58.3333 157.12 57.784 157.408 57.4533 157.824C57.1226 158.229 56.9306 158.741 56.8773 159.36C57.1333 158.933 57.5333 158.565 58.0773 158.256C58.632 157.936 59.3146 157.776 60.1253 157.776C61.224 157.776 62.168 158.176 62.9573 158.976C63.7573 159.765 64.1573 160.736 64.1573 161.888C64.1573 163.072 63.736 164.085 62.8933 164.928C62.0613 165.771 61.016 166.192 59.7573 166.192ZM70.1461 166.192C68.8661 166.192 67.7994 165.765 66.9461 164.912C66.0927 164.059 65.6661 163.019 65.6661 161.792C65.6661 160.565 66.0981 159.525 66.9621 158.672C67.8261 157.808 68.8981 157.376 70.1781 157.376C71.4581 157.376 72.5247 157.803 73.3781 158.656C74.2421 159.509 74.6741 160.555 74.6741 161.792C74.6741 163.008 74.2421 164.048 73.3781 164.912C72.5141 165.765 71.4367 166.192 70.1461 166.192ZM70.1781 164.512C70.9461 164.512 71.5647 164.251 72.0341 163.728C72.5034 163.205 72.7381 162.56 72.7381 161.792C72.7381 161.035 72.4927 160.395 72.0021 159.872C71.5114 159.339 70.8927 159.072 70.1461 159.072C69.3887 159.072 68.7754 159.333 68.3061 159.856C67.8367 160.379 67.6021 161.024 67.6021 161.792C67.6021 162.539 67.8474 163.179 68.3381 163.712C68.8287 164.245 69.4421 164.512 70.1781 164.512ZM76.6457 168.56V157.552H78.5817V158.96C79.3284 157.904 80.283 157.376 81.4457 157.376C82.5124 157.376 83.435 157.776 84.2137 158.576C84.9924 159.365 85.3817 160.437 85.3817 161.792C85.3817 163.125 84.9924 164.192 84.2137 164.992C83.435 165.781 82.5124 166.176 81.4457 166.176C80.283 166.176 79.3284 165.68 78.5817 164.688V168.56H76.6457ZM80.9977 164.496C81.6804 164.496 82.251 164.245 82.7097 163.744C83.179 163.243 83.4137 162.581 83.4137 161.76C83.4137 160.96 83.179 160.309 82.7097 159.808C82.2404 159.307 81.6697 159.056 80.9977 159.056C80.3257 159.056 79.7444 159.312 79.2537 159.824C78.7737 160.336 78.5337 160.992 78.5337 161.792C78.5337 162.581 78.7737 163.232 79.2537 163.744C79.7444 164.245 80.3257 164.496 80.9977 164.496ZM92.1613 166V157.552H99.6973V166H97.7613V159.216H94.0973V166H92.1613ZM106.146 166.192C104.866 166.192 103.799 165.765 102.946 164.912C102.093 164.059 101.666 163.019 101.666 161.792C101.666 160.565 102.098 159.525 102.962 158.672C103.826 157.808 104.898 157.376 106.178 157.376C107.458 157.376 108.525 157.803 109.378 158.656C110.242 159.509 110.674 160.555 110.674 161.792C110.674 163.008 110.242 164.048 109.378 164.912C108.514 165.765 107.437 166.192 106.146 166.192ZM106.178 164.512C106.946 164.512 107.565 164.251 108.034 163.728C108.503 163.205 108.738 162.56 108.738 161.792C108.738 161.035 108.493 160.395 108.002 159.872C107.511 159.339 106.893 159.072 106.146 159.072C105.389 159.072 104.775 159.333 104.306 159.856C103.837 160.379 103.602 161.024 103.602 161.792C103.602 162.539 103.847 163.179 104.338 163.712C104.829 164.245 105.442 164.512 106.178 164.512ZM111.67 168.032V164.336H112.582C113.211 163.077 113.526 161.163 113.526 158.592V157.552H120.07V164.336H121.27L121.014 168.032H119.398V166H113.478L113.286 168.032H111.67ZM114.566 164.336H118.134V159.216H115.35V160.336C115.35 161.904 115.088 163.237 114.566 164.336ZM122.144 166L125.248 161.712L122.256 157.552H124.368L126.32 160.336L128.272 157.552H130.336L127.344 161.664L130.464 166H128.352L126.272 163.04L124.208 166H122.144ZM136.177 166.192C134.897 166.192 133.831 165.765 132.977 164.912C132.124 164.059 131.697 163.019 131.697 161.792C131.697 160.565 132.129 159.525 132.993 158.672C133.857 157.808 134.929 157.376 136.209 157.376C137.489 157.376 138.556 157.803 139.409 158.656C140.273 159.509 140.705 160.555 140.705 161.792C140.705 163.008 140.273 164.048 139.409 164.912C138.545 165.765 137.468 166.192 136.177 166.192ZM136.209 164.512C136.977 164.512 137.596 164.251 138.065 163.728C138.535 163.205 138.769 162.56 138.769 161.792C138.769 161.035 138.524 160.395 138.033 159.872C137.543 159.339 136.924 159.072 136.177 159.072C135.42 159.072 134.807 159.333 134.337 159.856C133.868 160.379 133.633 161.024 133.633 161.792C133.633 162.539 133.879 163.179 134.369 163.712C134.86 164.245 135.473 164.512 136.209 164.512ZM141.701 168.032V164.336H142.613C143.242 163.077 143.557 161.163 143.557 158.592V157.552H150.101V164.336H151.301L151.045 168.032H149.429V166H143.509L143.317 168.032H141.701ZM144.597 164.336H148.165V159.216H145.381V160.336C145.381 161.904 145.12 163.237 144.597 164.336ZM152.143 166L154.479 162.832C153.882 162.651 153.402 162.347 153.039 161.92C152.687 161.483 152.511 160.944 152.511 160.304C152.511 159.472 152.805 158.805 153.391 158.304C153.978 157.803 154.794 157.552 155.839 157.552H160.079V166H158.143V163.152H156.415L154.415 166H152.143ZM156.111 161.696H158.143V159.12H156.095C155.583 159.12 155.178 159.237 154.879 159.472C154.591 159.696 154.447 160.005 154.447 160.4C154.447 160.805 154.597 161.125 154.895 161.36C155.205 161.584 155.61 161.696 156.111 161.696ZM173.881 168.032V166H162.505V157.552H164.441V164.336H167.561V157.552H169.481V164.336H172.601V157.552H174.537V164.336H175.737L175.497 168.032H173.881ZM181.221 166.192C179.983 166.192 178.949 165.781 178.117 164.96C177.295 164.139 176.885 163.077 176.885 161.776C176.885 160.549 177.274 159.509 178.053 158.656C178.831 157.803 179.818 157.376 181.013 157.376C182.293 157.376 183.285 157.813 183.989 158.688C184.703 159.552 185.061 160.629 185.061 161.92C185.061 162.155 185.05 162.336 185.029 162.464H178.821C178.927 163.136 179.199 163.664 179.637 164.048C180.074 164.421 180.613 164.608 181.253 164.608C182.085 164.608 182.847 164.272 183.541 163.6L184.677 164.608C183.802 165.664 182.65 166.192 181.221 166.192ZM178.805 161.184H183.141C183.077 160.533 182.858 160 182.485 159.584C182.111 159.168 181.615 158.96 180.997 158.96C180.41 158.96 179.919 159.168 179.525 159.584C179.13 159.989 178.89 160.523 178.805 161.184ZM187.005 166V157.552H192.989V159.216H188.941V166H187.005ZM198.537 166.192C197.257 166.192 196.19 165.765 195.337 164.912C194.483 164.059 194.057 163.019 194.057 161.792C194.057 160.565 194.489 159.525 195.353 158.672C196.217 157.808 197.289 157.376 198.569 157.376C199.849 157.376 200.915 157.803 201.769 158.656C202.633 159.509 203.065 160.555 203.065 161.792C203.065 163.008 202.633 164.048 201.769 164.912C200.905 165.765 199.827 166.192 198.537 166.192ZM198.569 164.512C199.337 164.512 199.955 164.251 200.425 163.728C200.894 163.205 201.129 162.56 201.129 161.792C201.129 161.035 200.883 160.395 200.393 159.872C199.902 159.339 199.283 159.072 198.537 159.072C197.779 159.072 197.166 159.333 196.697 159.856C196.227 160.379 195.993 161.024 195.993 161.792C195.993 162.539 196.238 163.179 196.729 163.712C197.219 164.245 197.833 164.512 198.569 164.512ZM75.4993 188H73.5793V186.96C72.8966 187.771 71.9846 188.176 70.8433 188.176C70.0006 188.176 69.286 187.947 68.6993 187.488C68.1233 187.019 67.8353 186.368 67.8353 185.536C67.8353 184.629 68.15 183.941 68.7793 183.472C69.4086 183.003 70.2353 182.768 71.2593 182.768C72.0806 182.768 72.8593 182.885 73.5953 183.12V182.96C73.5953 182.373 73.414 181.925 73.0513 181.616C72.6993 181.307 72.1873 181.152 71.5153 181.152C70.7473 181.152 69.942 181.328 69.0993 181.68L68.5713 180.128C69.6166 179.659 70.6886 179.424 71.7873 179.424C73.014 179.424 73.9366 179.733 74.5553 180.352C75.1846 180.971 75.4993 181.851 75.4993 182.992V188ZM73.6273 184.944V184.464C73.0513 184.24 72.406 184.128 71.6913 184.128C71.0833 184.128 70.6086 184.245 70.2673 184.48C69.926 184.715 69.7553 185.045 69.7553 185.472C69.7553 185.856 69.91 186.16 70.2193 186.384C70.5286 186.608 70.918 186.72 71.3873 186.72C72.038 186.72 72.5713 186.555 72.9873 186.224C73.414 185.893 73.6273 185.467 73.6273 184.944ZM77.8019 188V179.552H82.1379C82.9806 179.552 83.6526 179.744 84.1539 180.128C84.6659 180.501 84.9219 181.013 84.9219 181.664C84.9219 182.549 84.4686 183.195 83.5619 183.6C84.7246 183.931 85.3059 184.635 85.3059 185.712C85.3059 186.427 85.0233 186.987 84.4579 187.392C83.9033 187.797 83.1459 188 82.1859 188H77.8019ZM79.7059 186.464H81.8979C82.3566 186.464 82.7086 186.368 82.9539 186.176C83.2099 185.973 83.3379 185.707 83.3379 185.376C83.3379 185.056 83.2046 184.805 82.9379 184.624C82.6819 184.443 82.3033 184.352 81.8019 184.352H79.7059V186.464ZM79.7059 183.04H81.6899C82.0846 183.04 82.3939 182.944 82.6179 182.752C82.8419 182.56 82.9539 182.309 82.9539 182C82.9539 181.712 82.8526 181.483 82.6499 181.312C82.4473 181.131 82.1379 181.04 81.7219 181.04H79.7059V183.04ZM89.0474 188V181.216H86.3274V179.552H93.7194V181.216H90.9994V188H89.0474ZM99.2711 188.192C97.9911 188.192 96.9244 187.765 96.0711 186.912C95.2177 186.059 94.7911 185.019 94.7911 183.792C94.7911 182.565 95.2231 181.525 96.0871 180.672C96.9511 179.808 98.0231 179.376 99.3031 179.376C100.583 179.376 101.65 179.803 102.503 180.656C103.367 181.509 103.799 182.555 103.799 183.792C103.799 185.008 103.367 186.048 102.503 186.912C101.639 187.765 100.562 188.192 99.2711 188.192ZM99.3031 186.512C100.071 186.512 100.69 186.251 101.159 185.728C101.628 185.205 101.863 184.56 101.863 183.792C101.863 183.035 101.618 182.395 101.127 181.872C100.636 181.339 100.018 181.072 99.2711 181.072C98.5137 181.072 97.9004 181.333 97.4311 181.856C96.9617 182.379 96.7271 183.024 96.7271 183.792C96.7271 184.539 96.9724 185.179 97.4631 185.712C97.9537 186.245 98.5671 186.512 99.3031 186.512ZM105.771 188V179.552H107.691L110.331 183.472L112.987 179.552H114.907V188H112.955V182.368L110.299 186.16L107.659 182.4V188H105.771ZM121.349 188.192C120.069 188.192 119.003 187.765 118.149 186.912C117.296 186.059 116.869 185.019 116.869 183.792C116.869 182.565 117.301 181.525 118.165 180.672C119.029 179.808 120.101 179.376 121.381 179.376C122.661 179.376 123.728 179.803 124.581 180.656C125.445 181.509 125.877 182.555 125.877 183.792C125.877 185.008 125.445 186.048 124.581 186.912C123.717 187.765 122.64 188.192 121.349 188.192ZM121.381 186.512C122.149 186.512 122.768 186.251 123.237 185.728C123.707 185.205 123.941 184.56 123.941 183.792C123.941 183.035 123.696 182.395 123.205 181.872C122.715 181.339 122.096 181.072 121.349 181.072C120.592 181.072 119.979 181.333 119.509 181.856C119.04 182.379 118.805 183.024 118.805 183.792C118.805 184.539 119.051 185.179 119.541 185.712C120.032 186.245 120.645 186.512 121.381 186.512ZM131.977 186.512C132.691 186.512 133.273 186.267 133.721 185.776C134.179 185.275 134.409 184.656 134.409 183.92C134.409 183.195 134.169 182.581 133.689 182.08C133.219 181.568 132.638 181.312 131.945 181.312C131.241 181.312 130.659 181.563 130.201 182.064C129.753 182.565 129.529 183.184 129.529 183.92C129.529 184.645 129.763 185.259 130.233 185.76C130.702 186.261 131.283 186.512 131.977 186.512ZM131.945 188.192C130.579 188.192 129.513 187.76 128.745 186.896C127.977 186.032 127.593 184.821 127.593 183.264C127.593 182.763 127.603 182.325 127.625 181.952C127.657 181.568 127.71 181.157 127.785 180.72C127.859 180.272 127.971 179.883 128.121 179.552C128.281 179.221 128.478 178.907 128.713 178.608C128.958 178.299 129.267 178.043 129.641 177.84C130.025 177.627 130.467 177.467 130.969 177.36L135.577 176.4L135.897 177.952L131.289 178.96C130.521 179.12 129.971 179.408 129.641 179.824C129.31 180.229 129.118 180.741 129.065 181.36C129.321 180.933 129.721 180.565 130.265 180.256C130.819 179.936 131.502 179.776 132.313 179.776C133.411 179.776 134.355 180.176 135.145 180.976C135.945 181.765 136.345 182.736 136.345 183.888C136.345 185.072 135.923 186.085 135.081 186.928C134.249 187.771 133.203 188.192 131.945 188.192ZM138.318 188V179.552H140.206V185.216C141.976 182.699 143.31 180.811 144.206 179.552H146.03V188H144.158V182.368L140.142 188H138.318ZM148.394 188.096C148.085 188.096 147.706 188.059 147.258 187.984L147.402 186.4C147.573 186.443 147.76 186.464 147.962 186.464C148.186 186.464 148.368 186.432 148.506 186.368C148.656 186.304 148.805 186.144 148.954 185.888C149.114 185.621 149.237 185.248 149.322 184.768C149.408 184.288 149.477 183.616 149.53 182.752C149.584 181.877 149.61 180.811 149.61 179.552H155.994V188H154.058V181.216H151.418C151.418 182.421 151.37 183.445 151.274 184.288C151.178 185.131 151.05 185.797 150.89 186.288C150.741 186.779 150.528 187.163 150.25 187.44C149.984 187.707 149.712 187.883 149.434 187.968C149.157 188.053 148.81 188.096 148.394 188.096ZM157.659 188L159.995 184.832C159.398 184.651 158.918 184.347 158.555 183.92C158.203 183.483 158.027 182.944 158.027 182.304C158.027 181.472 158.32 180.805 158.907 180.304C159.494 179.803 160.31 179.552 161.355 179.552H165.595V188H163.659V185.152H161.931L159.931 188H157.659ZM161.627 183.696H163.659V181.12H161.611C161.099 181.12 160.694 181.237 160.395 181.472C160.107 181.696 159.963 182.005 159.963 182.4C159.963 182.805 160.112 183.125 160.411 183.36C160.72 183.584 161.126 183.696 161.627 183.696Z" fill="#212121"/>
    <path d="M310.542 166V154.8H319.678V166H317.71V156.576H312.51V166H310.542ZM326.349 166.192C325.069 166.192 324.003 165.765 323.149 164.912C322.296 164.059 321.869 163.019 321.869 161.792C321.869 160.565 322.301 159.525 323.165 158.672C324.029 157.808 325.101 157.376 326.381 157.376C327.661 157.376 328.728 157.803 329.581 158.656C330.445 159.509 330.877 160.555 330.877 161.792C330.877 163.008 330.445 164.048 329.581 164.912C328.717 165.765 327.64 166.192 326.349 166.192ZM326.381 164.512C327.149 164.512 327.768 164.251 328.237 163.728C328.707 163.205 328.941 162.56 328.941 161.792C328.941 161.035 328.696 160.395 328.205 159.872C327.715 159.339 327.096 159.072 326.349 159.072C325.592 159.072 324.979 159.333 324.509 159.856C324.04 160.379 323.805 161.024 323.805 161.792C323.805 162.539 324.051 163.179 324.541 163.712C325.032 164.245 325.645 164.512 326.381 164.512ZM332.849 166V157.552H334.769V161.6L338.449 157.552H340.721L337.441 161.104L340.993 166H338.705L336.145 162.512L334.769 163.968V166H332.849ZM344.061 168.608C343.357 168.608 342.691 168.437 342.061 168.096L342.717 166.656C343.112 166.869 343.491 166.976 343.853 166.976C344.131 166.976 344.36 166.901 344.541 166.752C344.723 166.613 344.893 166.363 345.053 166L341.533 157.552H343.597L345.997 163.824L348.189 157.552H350.205L346.845 166.24C346.504 167.104 346.125 167.712 345.709 168.064C345.293 168.427 344.744 168.608 344.061 168.608ZM351.864 166V157.552H359.4V166H357.464V159.216H353.8V166H351.864ZM361.833 166V157.552H363.753V161.6L367.433 157.552H369.705L366.425 161.104L369.977 166H367.689L365.129 162.512L363.753 163.968V166H361.833ZM378.406 166H376.486V164.96C375.803 165.771 374.891 166.176 373.75 166.176C372.907 166.176 372.192 165.947 371.606 165.488C371.03 165.019 370.742 164.368 370.742 163.536C370.742 162.629 371.056 161.941 371.686 161.472C372.315 161.003 373.142 160.768 374.166 160.768C374.987 160.768 375.766 160.885 376.502 161.12V160.96C376.502 160.373 376.32 159.925 375.958 159.616C375.606 159.307 375.094 159.152 374.422 159.152C373.654 159.152 372.848 159.328 372.006 159.68L371.478 158.128C372.523 157.659 373.595 157.424 374.694 157.424C375.92 157.424 376.843 157.733 377.462 158.352C378.091 158.971 378.406 159.851 378.406 160.992V166ZM376.534 162.944V162.464C375.958 162.24 375.312 162.128 374.598 162.128C373.99 162.128 373.515 162.245 373.174 162.48C372.832 162.715 372.662 163.045 372.662 163.472C372.662 163.856 372.816 164.16 373.126 164.384C373.435 164.608 373.824 164.72 374.294 164.72C374.944 164.72 375.478 164.555 375.894 164.224C376.32 163.893 376.534 163.467 376.534 162.944ZM392.593 166H390.673V164.96C389.99 165.771 389.078 166.176 387.937 166.176C387.094 166.176 386.38 165.947 385.793 165.488C385.217 165.019 384.929 164.368 384.929 163.536C384.929 162.629 385.244 161.941 385.873 161.472C386.502 161.003 387.329 160.768 388.353 160.768C389.174 160.768 389.953 160.885 390.689 161.12V160.96C390.689 160.373 390.508 159.925 390.145 159.616C389.793 159.307 389.281 159.152 388.609 159.152C387.841 159.152 387.036 159.328 386.193 159.68L385.665 158.128C386.71 157.659 387.782 157.424 388.881 157.424C390.108 157.424 391.03 157.733 391.649 158.352C392.278 158.971 392.593 159.851 392.593 160.992V166ZM390.721 162.944V162.464C390.145 162.24 389.5 162.128 388.785 162.128C388.177 162.128 387.702 162.245 387.361 162.48C387.02 162.715 386.849 163.045 386.849 163.472C386.849 163.856 387.004 164.16 387.313 164.384C387.622 164.608 388.012 164.72 388.481 164.72C389.132 164.72 389.665 164.555 390.081 164.224C390.508 163.893 390.721 163.467 390.721 162.944ZM394.896 166V157.552H399.232C400.074 157.552 400.746 157.744 401.248 158.128C401.76 158.501 402.016 159.013 402.016 159.664C402.016 160.549 401.562 161.195 400.656 161.6C401.818 161.931 402.4 162.635 402.4 163.712C402.4 164.427 402.117 164.987 401.552 165.392C400.997 165.797 400.24 166 399.28 166H394.896ZM396.8 164.464H398.992C399.45 164.464 399.802 164.368 400.048 164.176C400.304 163.973 400.432 163.707 400.432 163.376C400.432 163.056 400.298 162.805 400.032 162.624C399.776 162.443 399.397 162.352 398.896 162.352H396.8V164.464ZM396.8 161.04H398.784C399.178 161.04 399.488 160.944 399.712 160.752C399.936 160.56 400.048 160.309 400.048 160C400.048 159.712 399.946 159.483 399.744 159.312C399.541 159.131 399.232 159.04 398.816 159.04H396.8V161.04ZM406.141 166V159.216H403.421V157.552H410.813V159.216H408.093V166H406.141ZM416.365 166.192C415.085 166.192 414.018 165.765 413.165 164.912C412.311 164.059 411.885 163.019 411.885 161.792C411.885 160.565 412.317 159.525 413.181 158.672C414.045 157.808 415.117 157.376 416.397 157.376C417.677 157.376 418.743 157.803 419.597 158.656C420.461 159.509 420.893 160.555 420.893 161.792C420.893 163.008 420.461 164.048 419.597 164.912C418.733 165.765 417.655 166.192 416.365 166.192ZM416.397 164.512C417.165 164.512 417.783 164.251 418.253 163.728C418.722 163.205 418.957 162.56 418.957 161.792C418.957 161.035 418.711 160.395 418.221 159.872C417.73 159.339 417.111 159.072 416.365 159.072C415.607 159.072 414.994 159.333 414.525 159.856C414.055 160.379 413.821 161.024 413.821 161.792C413.821 162.539 414.066 163.179 414.557 163.712C415.047 164.245 415.661 164.512 416.397 164.512ZM422.864 166V157.552H424.784L427.424 161.472L430.08 157.552H432V166H430.048V160.368L427.392 164.16L424.752 160.4V166H422.864ZM438.443 166.192C437.163 166.192 436.096 165.765 435.243 164.912C434.39 164.059 433.963 163.019 433.963 161.792C433.963 160.565 434.395 159.525 435.259 158.672C436.123 157.808 437.195 157.376 438.475 157.376C439.755 157.376 440.822 157.803 441.675 158.656C442.539 159.509 442.971 160.555 442.971 161.792C442.971 163.008 442.539 164.048 441.675 164.912C440.811 165.765 439.734 166.192 438.443 166.192ZM438.475 164.512C439.243 164.512 439.862 164.251 440.331 163.728C440.8 163.205 441.035 162.56 441.035 161.792C441.035 161.035 440.79 160.395 440.299 159.872C439.808 159.339 439.19 159.072 438.443 159.072C437.686 159.072 437.072 159.333 436.603 159.856C436.134 160.379 435.899 161.024 435.899 161.792C435.899 162.539 436.144 163.179 436.635 163.712C437.126 164.245 437.739 164.512 438.475 164.512ZM449.071 164.512C449.785 164.512 450.367 164.267 450.815 163.776C451.273 163.275 451.503 162.656 451.503 161.92C451.503 161.195 451.263 160.581 450.783 160.08C450.313 159.568 449.732 159.312 449.039 159.312C448.335 159.312 447.753 159.563 447.295 160.064C446.847 160.565 446.623 161.184 446.623 161.92C446.623 162.645 446.857 163.259 447.327 163.76C447.796 164.261 448.377 164.512 449.071 164.512ZM449.039 166.192C447.673 166.192 446.607 165.76 445.839 164.896C445.071 164.032 444.687 162.821 444.687 161.264C444.687 160.763 444.697 160.325 444.719 159.952C444.751 159.568 444.804 159.157 444.879 158.72C444.953 158.272 445.065 157.883 445.215 157.552C445.375 157.221 445.572 156.907 445.807 156.608C446.052 156.299 446.361 156.043 446.735 155.84C447.119 155.627 447.561 155.467 448.063 155.36L452.671 154.4L452.991 155.952L448.383 156.96C447.615 157.12 447.065 157.408 446.735 157.824C446.404 158.229 446.212 158.741 446.159 159.36C446.415 158.933 446.815 158.565 447.359 158.256C447.913 157.936 448.596 157.776 449.407 157.776C450.505 157.776 451.449 158.176 452.239 158.976C453.039 159.765 453.439 160.736 453.439 161.888C453.439 163.072 453.017 164.085 452.175 164.928C451.343 165.771 450.297 166.192 449.039 166.192ZM455.411 166V157.552H457.299V163.216C459.07 160.699 460.403 158.811 461.299 157.552H463.123V166H461.251V160.368L457.235 166H455.411ZM465.488 166.096C465.179 166.096 464.8 166.059 464.352 165.984L464.496 164.4C464.667 164.443 464.853 164.464 465.056 164.464C465.28 164.464 465.461 164.432 465.6 164.368C465.749 164.304 465.899 164.144 466.048 163.888C466.208 163.621 466.331 163.248 466.416 162.768C466.501 162.288 466.571 161.616 466.624 160.752C466.677 159.877 466.704 158.811 466.704 157.552H473.088V166H471.152V159.216H468.512C468.512 160.421 468.464 161.445 468.368 162.288C468.272 163.131 468.144 163.797 467.984 164.288C467.835 164.779 467.621 165.163 467.344 165.44C467.077 165.707 466.805 165.883 466.528 165.968C466.251 166.053 465.904 166.096 465.488 166.096ZM474.753 166L477.089 162.832C476.491 162.651 476.011 162.347 475.649 161.92C475.297 161.483 475.121 160.944 475.121 160.304C475.121 159.472 475.414 158.805 476.001 158.304C476.587 157.803 477.403 157.552 478.449 157.552H482.689V166H480.753V163.152H479.025L477.025 166H474.753ZM478.721 161.696H480.753V159.12H478.705C478.193 159.12 477.787 159.237 477.489 159.472C477.201 159.696 477.057 160.005 477.057 160.4C477.057 160.805 477.206 161.125 477.505 161.36C477.814 161.584 478.219 161.696 478.721 161.696ZM351.135 188.192C349.684 188.192 348.452 187.76 347.439 186.896L348.351 185.616C349.14 186.288 350.026 186.624 351.007 186.624C351.455 186.624 351.834 186.517 352.143 186.304C352.452 186.08 352.607 185.797 352.607 185.456C352.607 185.136 352.458 184.88 352.159 184.688C351.86 184.496 351.439 184.4 350.895 184.4H349.855V183.008H350.895C351.343 183.008 351.7 182.907 351.967 182.704C352.244 182.491 352.383 182.224 352.383 181.904C352.383 181.616 352.25 181.387 351.983 181.216C351.727 181.035 351.396 180.944 350.991 180.944C350.052 180.944 349.252 181.232 348.591 181.808L347.727 180.592C348.655 179.781 349.802 179.376 351.167 179.376C352.095 179.376 352.852 179.589 353.439 180.016C354.026 180.443 354.319 180.987 354.319 181.648C354.319 182.544 353.876 183.184 352.991 183.568C354.015 183.931 354.527 184.613 354.527 185.616C354.527 186.341 354.212 186.955 353.583 187.456C352.954 187.947 352.138 188.192 351.135 188.192ZM363.624 188H361.704V186.96C361.022 187.771 360.11 188.176 358.968 188.176C358.126 188.176 357.411 187.947 356.824 187.488C356.248 187.019 355.96 186.368 355.96 185.536C355.96 184.629 356.275 183.941 356.904 183.472C357.534 183.003 358.36 182.768 359.384 182.768C360.206 182.768 360.984 182.885 361.72 183.12V182.96C361.72 182.373 361.539 181.925 361.176 181.616C360.824 181.307 360.312 181.152 359.64 181.152C358.872 181.152 358.067 181.328 357.224 181.68L356.696 180.128C357.742 179.659 358.814 179.424 359.912 179.424C361.139 179.424 362.062 179.733 362.68 180.352C363.31 180.971 363.624 181.851 363.624 182.992V188ZM361.752 184.944V184.464C361.176 184.24 360.531 184.128 359.816 184.128C359.208 184.128 358.734 184.245 358.392 184.48C358.051 184.715 357.88 185.045 357.88 185.472C357.88 185.856 358.035 186.16 358.344 186.384C358.654 186.608 359.043 186.72 359.512 186.72C360.163 186.72 360.696 186.555 361.112 186.224C361.539 185.893 361.752 185.467 361.752 184.944ZM370.724 190.56V179.552H372.66V180.96C373.406 179.904 374.361 179.376 375.524 179.376C376.59 179.376 377.513 179.776 378.292 180.576C379.07 181.365 379.46 182.437 379.46 183.792C379.46 185.125 379.07 186.192 378.292 186.992C377.513 187.781 376.59 188.176 375.524 188.176C374.361 188.176 373.406 187.68 372.66 186.688V190.56H370.724ZM375.076 186.496C375.758 186.496 376.329 186.245 376.788 185.744C377.257 185.243 377.492 184.581 377.492 183.76C377.492 182.96 377.257 182.309 376.788 181.808C376.318 181.307 375.748 181.056 375.076 181.056C374.404 181.056 373.822 181.312 373.332 181.824C372.852 182.336 372.612 182.992 372.612 183.792C372.612 184.581 372.852 185.232 373.332 185.744C373.822 186.245 374.404 186.496 375.076 186.496ZM383.171 190.608C382.467 190.608 381.8 190.437 381.171 190.096L381.827 188.656C382.221 188.869 382.6 188.976 382.963 188.976C383.24 188.976 383.469 188.901 383.651 188.752C383.832 188.613 384.003 188.363 384.163 188L380.643 179.552H382.707L385.107 185.824L387.299 179.552H389.315L385.955 188.24C385.613 189.104 385.235 189.712 384.819 190.064C384.403 190.427 383.853 190.608 383.171 190.608ZM395.102 186.512C395.816 186.512 396.398 186.267 396.846 185.776C397.304 185.275 397.534 184.656 397.534 183.92C397.534 183.195 397.294 182.581 396.814 182.08C396.344 181.568 395.763 181.312 395.07 181.312C394.366 181.312 393.784 181.563 393.326 182.064C392.878 182.565 392.654 183.184 392.654 183.92C392.654 184.645 392.888 185.259 393.358 185.76C393.827 186.261 394.408 186.512 395.102 186.512ZM395.07 188.192C393.704 188.192 392.638 187.76 391.87 186.896C391.102 186.032 390.718 184.821 390.718 183.264C390.718 182.763 390.728 182.325 390.75 181.952C390.782 181.568 390.835 181.157 390.91 180.72C390.984 180.272 391.096 179.883 391.246 179.552C391.406 179.221 391.603 178.907 391.838 178.608C392.083 178.299 392.392 178.043 392.766 177.84C393.15 177.627 393.592 177.467 394.094 177.36L398.702 176.4L399.022 177.952L394.414 178.96C393.646 179.12 393.096 179.408 392.766 179.824C392.435 180.229 392.243 180.741 392.19 181.36C392.446 180.933 392.846 180.565 393.39 180.256C393.944 179.936 394.627 179.776 395.438 179.776C396.536 179.776 397.48 180.176 398.27 180.976C399.07 181.765 399.47 182.736 399.47 183.888C399.47 185.072 399.048 186.085 398.206 186.928C397.374 187.771 396.328 188.192 395.07 188.192ZM405.315 188.192C404.077 188.192 403.043 187.781 402.211 186.96C401.389 186.139 400.979 185.077 400.979 183.776C400.979 182.549 401.368 181.509 402.147 180.656C402.925 179.803 403.912 179.376 405.107 179.376C406.387 179.376 407.379 179.813 408.083 180.688C408.797 181.552 409.155 182.629 409.155 183.92C409.155 184.155 409.144 184.336 409.123 184.464H402.915C403.021 185.136 403.293 185.664 403.731 186.048C404.168 186.421 404.707 186.608 405.347 186.608C406.179 186.608 406.941 186.272 407.635 185.6L408.771 186.608C407.896 187.664 406.744 188.192 405.315 188.192ZM402.899 183.184H407.235C407.171 182.533 406.952 182 406.579 181.584C406.205 181.168 405.709 180.96 405.091 180.96C404.504 180.96 404.013 181.168 403.619 181.584C403.224 181.989 402.984 182.523 402.899 183.184ZM410.027 188L413.339 183.104L410.155 179.552H412.411L415.915 183.696V179.552H417.851V183.696L421.371 179.552H423.627L420.443 183.104L423.739 188H421.563L419.147 184.4L417.851 185.872V188H415.915V185.872L414.619 184.4L412.203 188H410.027ZM429.115 188.192C427.835 188.192 426.768 187.765 425.915 186.912C425.061 186.059 424.635 185.019 424.635 183.792C424.635 182.565 425.067 181.525 425.931 180.672C426.795 179.808 427.867 179.376 429.147 179.376C430.427 179.376 431.493 179.803 432.347 180.656C433.211 181.509 433.643 182.555 433.643 183.792C433.643 185.008 433.211 186.048 432.347 186.912C431.483 187.765 430.405 188.192 429.115 188.192ZM429.147 186.512C429.915 186.512 430.533 186.251 431.003 185.728C431.472 185.205 431.707 184.56 431.707 183.792C431.707 183.035 431.461 182.395 430.971 181.872C430.48 181.339 429.861 181.072 429.115 181.072C428.357 181.072 427.744 181.333 427.275 181.856C426.805 182.379 426.571 183.024 426.571 183.792C426.571 184.539 426.816 185.179 427.307 185.712C427.797 186.245 428.411 186.512 429.147 186.512ZM435.614 188V179.552H437.534L440.174 183.472L442.83 179.552H444.75V188H442.798V182.368L440.142 186.16L437.502 182.4V188H435.614Z" fill="#212121"/>
    <path d="M1164.83 164.496C1163.72 165.627 1162.32 166.192 1160.62 166.192C1158.92 166.192 1157.53 165.632 1156.43 164.512C1155.33 163.392 1154.78 162.021 1154.78 160.4C1154.78 158.8 1155.33 157.435 1156.44 156.304C1157.55 155.173 1158.96 154.608 1160.65 154.608C1162.35 154.608 1163.75 155.168 1164.84 156.288C1165.94 157.408 1166.49 158.779 1166.49 160.4C1166.49 162 1165.94 163.365 1164.83 164.496ZM1157.92 163.232C1158.64 164 1159.55 164.384 1160.65 164.384C1161.75 164.384 1162.65 164 1163.36 163.232C1164.07 162.464 1164.43 161.52 1164.43 160.4C1164.43 159.291 1164.07 158.352 1163.34 157.584C1162.63 156.805 1161.72 156.416 1160.62 156.416C1159.52 156.416 1158.61 156.8 1157.9 157.568C1157.2 158.336 1156.84 159.28 1156.84 160.4C1156.84 161.509 1157.2 162.453 1157.92 163.232ZM1168.65 166V157.552H1176.18V166H1174.25V159.216H1170.58V166H1168.65ZM1178.55 166.096C1178.24 166.096 1177.86 166.059 1177.41 165.984L1177.56 164.4C1177.73 164.443 1177.92 164.464 1178.12 164.464C1178.34 164.464 1178.52 164.432 1178.66 164.368C1178.81 164.304 1178.96 164.144 1179.11 163.888C1179.27 163.621 1179.39 163.248 1179.48 162.768C1179.56 162.288 1179.63 161.616 1179.69 160.752C1179.74 159.877 1179.77 158.811 1179.77 157.552H1186.15V166H1184.21V159.216H1181.57C1181.57 160.421 1181.53 161.445 1181.43 162.288C1181.33 163.131 1181.21 163.797 1181.05 164.288C1180.9 164.779 1180.68 165.163 1180.41 165.44C1180.14 165.707 1179.87 165.883 1179.59 165.968C1179.31 166.053 1178.97 166.096 1178.55 166.096ZM1195.67 166H1193.75V164.96C1193.07 165.771 1192.16 166.176 1191.02 166.176C1190.17 166.176 1189.46 165.947 1188.87 165.488C1188.3 165.019 1188.01 164.368 1188.01 163.536C1188.01 162.629 1188.32 161.941 1188.95 161.472C1189.58 161.003 1190.41 160.768 1191.43 160.768C1192.25 160.768 1193.03 160.885 1193.77 161.12V160.96C1193.77 160.373 1193.59 159.925 1193.22 159.616C1192.87 159.307 1192.36 159.152 1191.69 159.152C1190.92 159.152 1190.11 159.328 1189.27 159.68L1188.74 158.128C1189.79 157.659 1190.86 157.424 1191.96 157.424C1193.19 157.424 1194.11 157.733 1194.73 158.352C1195.36 158.971 1195.67 159.851 1195.67 160.992V166ZM1193.8 162.944V162.464C1193.22 162.24 1192.58 162.128 1191.86 162.128C1191.26 162.128 1190.78 162.245 1190.44 162.48C1190.1 162.715 1189.93 163.045 1189.93 163.472C1189.93 163.856 1190.08 164.16 1190.39 164.384C1190.7 164.608 1191.09 164.72 1191.56 164.72C1192.21 164.72 1192.74 164.555 1193.16 164.224C1193.59 163.893 1193.8 163.467 1193.8 162.944ZM1199.78 166V159.216H1197.06V157.552H1204.45V159.216H1201.73V166H1199.78ZM1213.08 166H1211.16V164.96C1210.47 165.771 1209.56 166.176 1208.42 166.176C1207.58 166.176 1206.86 165.947 1206.28 165.488C1205.7 165.019 1205.41 164.368 1205.41 163.536C1205.41 162.629 1205.73 161.941 1206.36 161.472C1206.99 161.003 1207.81 160.768 1208.84 160.768C1209.66 160.768 1210.44 160.885 1211.17 161.12V160.96C1211.17 160.373 1210.99 159.925 1210.63 159.616C1210.28 159.307 1209.77 159.152 1209.09 159.152C1208.33 159.152 1207.52 159.328 1206.68 159.68L1206.15 158.128C1207.19 157.659 1208.27 157.424 1209.37 157.424C1210.59 157.424 1211.51 157.733 1212.13 158.352C1212.76 158.971 1213.08 159.851 1213.08 160.992V166ZM1211.21 162.944V162.464C1210.63 162.24 1209.98 162.128 1209.27 162.128C1208.66 162.128 1208.19 162.245 1207.85 162.48C1207.5 162.715 1207.33 163.045 1207.33 163.472C1207.33 163.856 1207.49 164.16 1207.8 164.384C1208.11 164.608 1208.5 164.72 1208.97 164.72C1209.62 164.72 1210.15 164.555 1210.57 164.224C1210.99 163.893 1211.21 163.467 1211.21 162.944ZM1142.5 188H1140.58V186.96C1139.9 187.771 1138.98 188.176 1137.84 188.176C1137 188.176 1136.29 187.947 1135.7 187.488C1135.12 187.019 1134.84 186.368 1134.84 185.536C1134.84 184.629 1135.15 183.941 1135.78 183.472C1136.41 183.003 1137.24 182.768 1138.26 182.768C1139.08 182.768 1139.86 182.885 1140.6 183.12V182.96C1140.6 182.373 1140.41 181.925 1140.05 181.616C1139.7 181.307 1139.19 181.152 1138.52 181.152C1137.75 181.152 1136.94 181.328 1136.1 181.68L1135.57 180.128C1136.62 179.659 1137.69 179.424 1138.79 179.424C1140.01 179.424 1140.94 179.733 1141.56 180.352C1142.18 180.971 1142.5 181.851 1142.5 182.992V188ZM1140.63 184.944V184.464C1140.05 184.24 1139.41 184.128 1138.69 184.128C1138.08 184.128 1137.61 184.245 1137.27 184.48C1136.93 184.715 1136.76 185.045 1136.76 185.472C1136.76 185.856 1136.91 186.16 1137.22 186.384C1137.53 186.608 1137.92 186.72 1138.39 186.72C1139.04 186.72 1139.57 186.555 1139.99 186.224C1140.41 185.893 1140.63 185.467 1140.63 184.944ZM1144.8 188V179.552H1149.14C1149.98 179.552 1150.65 179.744 1151.15 180.128C1151.67 180.501 1151.92 181.013 1151.92 181.664C1151.92 182.549 1151.47 183.195 1150.56 183.6C1151.72 183.931 1152.31 184.635 1152.31 185.712C1152.31 186.427 1152.02 186.987 1151.46 187.392C1150.9 187.797 1150.15 188 1149.19 188H1144.8ZM1146.71 186.464H1148.9C1149.36 186.464 1149.71 186.368 1149.95 186.176C1150.21 185.973 1150.34 185.707 1150.34 185.376C1150.34 185.056 1150.2 184.805 1149.94 184.624C1149.68 184.443 1149.3 184.352 1148.8 184.352H1146.71V186.464ZM1146.71 183.04H1148.69C1149.08 183.04 1149.39 182.944 1149.62 182.752C1149.84 182.56 1149.95 182.309 1149.95 182C1149.95 181.712 1149.85 181.483 1149.65 181.312C1149.45 181.131 1149.14 181.04 1148.72 181.04H1146.71V183.04ZM1156.05 188V181.216H1153.33V179.552H1160.72V181.216H1158V188H1156.05ZM1166.27 188.192C1164.99 188.192 1163.92 187.765 1163.07 186.912C1162.22 186.059 1161.79 185.019 1161.79 183.792C1161.79 182.565 1162.22 181.525 1163.09 180.672C1163.95 179.808 1165.02 179.376 1166.3 179.376C1167.58 179.376 1168.65 179.803 1169.5 180.656C1170.37 181.509 1170.8 182.555 1170.8 183.792C1170.8 185.008 1170.37 186.048 1169.5 186.912C1168.64 187.765 1167.56 188.192 1166.27 188.192ZM1166.3 186.512C1167.07 186.512 1167.69 186.251 1168.16 185.728C1168.63 185.205 1168.86 184.56 1168.86 183.792C1168.86 183.035 1168.62 182.395 1168.13 181.872C1167.64 181.339 1167.02 181.072 1166.27 181.072C1165.51 181.072 1164.9 181.333 1164.43 181.856C1163.96 182.379 1163.73 183.024 1163.73 183.792C1163.73 184.539 1163.97 185.179 1164.46 185.712C1164.95 186.245 1165.57 186.512 1166.3 186.512ZM1172.77 188V179.552H1174.69L1177.33 183.472L1179.99 179.552H1181.91V188H1179.95V182.368L1177.3 186.16L1174.66 182.4V188H1172.77ZM1188.35 188.192C1187.07 188.192 1186 187.765 1185.15 186.912C1184.3 186.059 1183.87 185.019 1183.87 183.792C1183.87 182.565 1184.3 181.525 1185.17 180.672C1186.03 179.808 1187.1 179.376 1188.38 179.376C1189.66 179.376 1190.73 179.803 1191.58 180.656C1192.45 181.509 1192.88 182.555 1192.88 183.792C1192.88 185.008 1192.45 186.048 1191.58 186.912C1190.72 187.765 1189.64 188.192 1188.35 188.192ZM1188.38 186.512C1189.15 186.512 1189.77 186.251 1190.24 185.728C1190.71 185.205 1190.94 184.56 1190.94 183.792C1190.94 183.035 1190.7 182.395 1190.21 181.872C1189.71 181.339 1189.1 181.072 1188.35 181.072C1187.59 181.072 1186.98 181.333 1186.51 181.856C1186.04 182.379 1185.81 183.024 1185.81 183.792C1185.81 184.539 1186.05 185.179 1186.54 185.712C1187.03 186.245 1187.65 186.512 1188.38 186.512ZM1198.98 186.512C1199.69 186.512 1200.27 186.267 1200.72 185.776C1201.18 185.275 1201.41 184.656 1201.41 183.92C1201.41 183.195 1201.17 182.581 1200.69 182.08C1200.22 181.568 1199.64 181.312 1198.94 181.312C1198.24 181.312 1197.66 181.563 1197.2 182.064C1196.75 182.565 1196.53 183.184 1196.53 183.92C1196.53 184.645 1196.76 185.259 1197.23 185.76C1197.7 186.261 1198.28 186.512 1198.98 186.512ZM1198.94 188.192C1197.58 188.192 1196.51 187.76 1195.74 186.896C1194.98 186.032 1194.59 184.821 1194.59 183.264C1194.59 182.763 1194.6 182.325 1194.62 181.952C1194.66 181.568 1194.71 181.157 1194.78 180.72C1194.86 180.272 1194.97 179.883 1195.12 179.552C1195.28 179.221 1195.48 178.907 1195.71 178.608C1195.96 178.299 1196.27 178.043 1196.64 177.84C1197.02 177.627 1197.47 177.467 1197.97 177.36L1202.58 176.4L1202.9 177.952L1198.29 178.96C1197.52 179.12 1196.97 179.408 1196.64 179.824C1196.31 180.229 1196.12 180.741 1196.06 181.36C1196.32 180.933 1196.72 180.565 1197.26 180.256C1197.82 179.936 1198.5 179.776 1199.31 179.776C1200.41 179.776 1201.36 180.176 1202.14 180.976C1202.94 181.765 1203.34 182.736 1203.34 183.888C1203.34 185.072 1202.92 186.085 1202.08 186.928C1201.25 187.771 1200.2 188.192 1198.94 188.192ZM1205.32 188V179.552H1207.21V185.216C1208.98 182.699 1210.31 180.811 1211.21 179.552H1213.03V188H1211.16V182.368L1207.14 188H1205.32ZM1215.39 188.096C1215.08 188.096 1214.71 188.059 1214.26 187.984L1214.4 186.4C1214.57 186.443 1214.76 186.464 1214.96 186.464C1215.19 186.464 1215.37 186.432 1215.51 186.368C1215.66 186.304 1215.8 186.144 1215.95 185.888C1216.11 185.621 1216.24 185.248 1216.32 184.768C1216.41 184.288 1216.48 183.616 1216.53 182.752C1216.58 181.877 1216.61 180.811 1216.61 179.552H1222.99V188H1221.06V181.216H1218.42C1218.42 182.421 1218.37 183.445 1218.27 184.288C1218.18 185.131 1218.05 185.797 1217.89 186.288C1217.74 186.779 1217.53 187.163 1217.25 187.44C1216.98 187.707 1216.71 187.883 1216.43 187.968C1216.16 188.053 1215.81 188.096 1215.39 188.096ZM1224.66 188L1226.99 184.832C1226.4 184.651 1225.92 184.347 1225.55 183.92C1225.2 183.483 1225.03 182.944 1225.03 182.304C1225.03 181.472 1225.32 180.805 1225.91 180.304C1226.49 179.803 1227.31 179.552 1228.35 179.552H1232.59V188H1230.66V185.152H1228.93L1226.93 188H1224.66ZM1228.63 183.696H1230.66V181.12H1228.61C1228.1 181.12 1227.69 181.237 1227.39 181.472C1227.11 181.696 1226.96 182.005 1226.96 182.4C1226.96 182.805 1227.11 183.125 1227.41 183.36C1227.72 183.584 1228.13 183.696 1228.63 183.696Z" fill="#212121"/>
    <path d="M1420.42 166V154.8H1429.56V166H1427.59V156.576H1422.39V166H1420.42ZM1436.23 166.192C1434.95 166.192 1433.89 165.765 1433.03 164.912C1432.18 164.059 1431.75 163.019 1431.75 161.792C1431.75 160.565 1432.18 159.525 1433.05 158.672C1433.91 157.808 1434.98 157.376 1436.26 157.376C1437.54 157.376 1438.61 157.803 1439.46 158.656C1440.33 159.509 1440.76 160.555 1440.76 161.792C1440.76 163.008 1440.33 164.048 1439.46 164.912C1438.6 165.765 1437.52 166.192 1436.23 166.192ZM1436.26 164.512C1437.03 164.512 1437.65 164.251 1438.12 163.728C1438.59 163.205 1438.82 162.56 1438.82 161.792C1438.82 161.035 1438.58 160.395 1438.09 159.872C1437.6 159.339 1436.98 159.072 1436.23 159.072C1435.47 159.072 1434.86 159.333 1434.39 159.856C1433.92 160.379 1433.69 161.024 1433.69 161.792C1433.69 162.539 1433.93 163.179 1434.42 163.712C1434.91 164.245 1435.53 164.512 1436.26 164.512ZM1442.67 166.096C1442.36 166.096 1441.98 166.059 1441.53 165.984L1441.68 164.4C1441.85 164.443 1442.03 164.464 1442.24 164.464C1442.46 164.464 1442.64 164.432 1442.78 164.368C1442.93 164.304 1443.08 164.144 1443.23 163.888C1443.39 163.621 1443.51 163.248 1443.6 162.768C1443.68 162.288 1443.75 161.616 1443.8 160.752C1443.86 159.877 1443.88 158.811 1443.88 157.552H1450.27V166H1448.33V159.216H1445.69C1445.69 160.421 1445.64 161.445 1445.55 162.288C1445.45 163.131 1445.32 163.797 1445.16 164.288C1445.01 164.779 1444.8 165.163 1444.52 165.44C1444.26 165.707 1443.98 165.883 1443.71 165.968C1443.43 166.053 1443.08 166.096 1442.67 166.096ZM1454.43 168.608C1453.72 168.608 1453.06 168.437 1452.43 168.096L1453.08 166.656C1453.48 166.869 1453.86 166.976 1454.22 166.976C1454.5 166.976 1454.73 166.901 1454.91 166.752C1455.09 166.613 1455.26 166.363 1455.42 166L1451.9 157.552H1453.96L1456.36 163.824L1458.56 157.552H1460.57L1457.21 166.24C1456.87 167.104 1456.49 167.712 1456.08 168.064C1455.66 168.427 1455.11 168.608 1454.43 168.608ZM1467.37 166V162.848C1466.54 163.275 1465.7 163.488 1464.86 163.488C1463.99 163.488 1463.29 163.259 1462.76 162.8C1462.24 162.331 1461.98 161.675 1461.98 160.832V157.552H1463.91V160.368C1463.91 160.773 1464.04 161.12 1464.3 161.408C1464.55 161.696 1464.89 161.84 1465.3 161.84C1466.03 161.84 1466.72 161.653 1467.37 161.28V157.552H1469.3V166H1467.37ZM1475.6 166.192C1474.37 166.192 1473.33 165.781 1472.5 164.96C1471.68 164.139 1471.27 163.077 1471.27 161.776C1471.27 160.549 1471.66 159.509 1472.44 158.656C1473.21 157.803 1474.2 157.376 1475.4 157.376C1476.68 157.376 1477.67 157.813 1478.37 158.688C1479.09 159.552 1479.44 160.629 1479.44 161.92C1479.44 162.155 1479.43 162.336 1479.41 162.464H1473.2C1473.31 163.136 1473.58 163.664 1474.02 164.048C1474.46 164.421 1475 164.608 1475.64 164.608C1476.47 164.608 1477.23 164.272 1477.92 163.6L1479.06 164.608C1478.18 165.664 1477.03 166.192 1475.6 166.192ZM1473.19 161.184H1477.52C1477.46 160.533 1477.24 160 1476.87 159.584C1476.49 159.168 1476 158.96 1475.38 158.96C1474.79 158.96 1474.3 159.168 1473.91 159.584C1473.51 159.989 1473.27 160.523 1473.19 161.184ZM1481.39 166V157.552H1483.32V160.976H1487.05V157.552H1488.99V166H1487.05V162.592H1483.32V166H1481.39ZM1491.42 166V157.552H1493.31V163.216C1495.08 160.699 1496.41 158.811 1497.31 157.552H1499.13V166H1497.26V160.368L1493.24 166H1491.42ZM1505.43 166.192C1504.19 166.192 1503.16 165.781 1502.33 164.96C1501.51 164.139 1501.1 163.077 1501.1 161.776C1501.1 160.549 1501.49 159.509 1502.26 158.656C1503.04 157.803 1504.03 157.376 1505.22 157.376C1506.5 157.376 1507.5 157.813 1508.2 158.688C1508.91 159.552 1509.27 160.629 1509.27 161.92C1509.27 162.155 1509.26 162.336 1509.24 162.464H1503.03C1503.14 163.136 1503.41 163.664 1503.85 164.048C1504.29 164.421 1504.82 164.608 1505.46 164.608C1506.3 164.608 1507.06 164.272 1507.75 163.6L1508.89 164.608C1508.01 165.664 1506.86 166.192 1505.43 166.192ZM1503.02 161.184H1507.35C1507.29 160.533 1507.07 160 1506.7 159.584C1506.32 159.168 1505.83 158.96 1505.21 158.96C1504.62 158.96 1504.13 159.168 1503.74 159.584C1503.34 159.989 1503.1 160.523 1503.02 161.184Z" fill="#212121"/>
    <line x1="132" y1="124.5" x2="397" y2="124.5" stroke="#212121" stroke-width="3"/>
    <line x1="397" y1="124.5" x2="1175" y2="124.5" stroke="#212121" stroke-width="3"/>
    <line x1="1184" y1="124.5" x2="1449" y2="124.5" stroke="#212121" stroke-width="3"/>
    <circle cx="117" cy="125" r="14" fill="white" stroke="#212121" stroke-width="2"/>
    <circle cx="397" cy="125" r="14" fill="white" stroke="#212121" stroke-width="2"/>
    <circle cx="1184" cy="125" r="14" fill="white" stroke="#212121" stroke-width="2"/>
    <circle cx="1464" cy="125" r="14" fill="white" stroke="#212121" stroke-width="2"/>
    <g clip-path="url(#clip0_919_305)">
        <path fill-rule="evenodd" clip-rule="evenodd" d="M113.875 34.1667C111.051 34.1669 108.268 34.8424 105.759 36.1369C103.249 37.4313 101.085 39.3071 99.4482 41.6078C97.811 43.9085 96.7477 46.5674 96.3471 49.3626C95.9465 52.1578 96.2201 55.0083 97.1452 57.6762C98.0702 60.3441 99.6199 62.7522 101.665 64.6994C103.71 66.6466 106.191 68.0766 108.901 68.87C111.611 69.6634 114.471 69.7972 117.244 69.2602C120.016 68.7233 122.619 67.5312 124.837 65.7833L132.446 73.3917C132.839 73.7711 133.365 73.9811 133.911 73.9764C134.457 73.9716 134.98 73.7525 135.366 73.3663C135.752 72.98 135.971 72.4575 135.976 71.9112C135.981 71.365 135.771 70.8387 135.391 70.4458L127.783 62.8375C129.841 60.2263 131.123 57.0883 131.481 53.7828C131.839 50.4772 131.26 47.1375 129.809 44.146C128.357 41.1545 126.093 38.632 123.275 36.8671C120.458 35.1023 117.2 34.1664 113.875 34.1667ZM100.333 51.875C100.333 48.2835 101.76 44.8391 104.299 42.2996C106.839 39.76 110.283 38.3333 113.875 38.3333C117.466 38.3333 120.911 39.76 123.45 42.2996C125.99 44.8391 127.416 48.2835 127.416 51.875C127.416 55.4665 125.99 58.9108 123.45 61.4504C120.911 63.9899 117.466 65.4167 113.875 65.4167C110.283 65.4167 106.839 63.9899 104.299 61.4504C101.76 58.9108 100.333 55.4665 100.333 51.875Z" fill="black"/>
    </g>
    <path d="M397 33.125C384.92 33.125 375.125 42.9199 375.125 55C375.125 67.0801 384.92 76.875 397 76.875C409.08 76.875 418.875 67.0801 418.875 55C418.875 42.9199 409.08 33.125 397 33.125ZM397 73.1641C386.971 73.1641 378.836 65.0293 378.836 55C378.836 44.9707 386.971 36.8359 397 36.8359C407.029 36.8359 415.164 44.9707 415.164 55C415.164 65.0293 407.029 73.1641 397 73.1641ZM404.793 44.5996H401.888C401.741 44.5996 401.604 44.6826 401.541 44.8145L397.117 53.6035H396.951L392.527 44.8145C392.495 44.7502 392.445 44.6961 392.384 44.6582C392.323 44.6203 392.253 44.6 392.181 44.5996H389.217C389.153 44.5996 389.09 44.6143 389.031 44.6484C388.841 44.751 388.772 44.9902 388.875 45.1807L394.314 55.1807H391.316C391.102 55.1807 390.926 55.3564 390.926 55.5713V57.0312C390.926 57.2461 391.102 57.4219 391.316 57.4219H395.306V59.4434H391.316C391.102 59.4434 390.926 59.6191 390.926 59.834V61.2939C390.926 61.5088 391.102 61.6846 391.316 61.6846H395.306V65.0098C395.306 65.2246 395.481 65.4004 395.696 65.4004H398.348C398.562 65.4004 398.738 65.2246 398.738 65.0098V61.6846H402.742C402.957 61.6846 403.133 61.5088 403.133 61.2939V59.834C403.133 59.6191 402.957 59.4434 402.742 59.4434H398.738V57.417H402.742C402.957 57.417 403.133 57.2412 403.133 57.0264V55.5664C403.133 55.3516 402.957 55.1758 402.742 55.1758H399.715L405.14 45.1758C405.169 45.1172 405.188 45.0537 405.188 44.9902C405.184 44.7754 405.008 44.5996 404.793 44.5996Z" fill="black"/>
    <g clip-path="url(#clip1_919_305)">
        <path d="M1191.14 56.7857C1200.02 56.7857 1207.21 53.5877 1207.21 49.6429C1207.21 45.698 1200.02 42.5 1191.14 42.5C1182.27 42.5 1175.07 45.698 1175.07 49.6429C1175.07 53.5877 1182.27 56.7857 1191.14 56.7857Z" stroke="black" stroke-width="4" stroke-linecap="round" stroke-linejoin="round"/>
        <path d="M1175.07 49.6429V71.0714C1175.07 75 1182.21 78.2143 1191.14 78.2143C1200.07 78.2143 1207.21 75 1207.21 71.0714V49.6429" stroke="black" stroke-width="4" stroke-linecap="round" stroke-linejoin="round"/>
        <path d="M1207.21 60.3571C1207.21 64.2857 1200.07 67.5 1191.14 67.5C1182.21 67.5 1175.07 64.2857 1175.07 60.3571M1190.79 35.3571C1186.61 32.7817 1181.75 31.5361 1176.86 31.7857C1167.96 31.7857 1160.79 35 1160.79 38.9286C1160.79 41.0357 1162.86 42.9286 1166.14 44.2857" stroke="black" stroke-width="4" stroke-linecap="round" stroke-linejoin="round"/>
        <path d="M1166.14 65.7143C1162.86 64.3571 1160.79 62.4643 1160.79 60.3571V38.9286" stroke="black" stroke-width="4" stroke-linecap="round" stroke-linejoin="round"/>
        <path d="M1166.14 55C1162.86 53.6429 1160.79 51.75 1160.79 49.6429" stroke="black" stroke-width="4" stroke-linecap="round" stroke-linejoin="round"/>
    </g>
    <g clip-path="url(#clip2_919_305)">
        <path d="M1473.21 38.3333C1473.88 38.3333 1474.55 38.4979 1475.15 38.8129C1475.75 39.128 1476.26 39.584 1476.64 40.1417L1476.82 40.4333L1484.28 53.4854C1484.58 54.0095 1484.76 54.5924 1484.82 55.1938L1484.83 55.5542V64.925C1484.83 65.4417 1484.74 65.9539 1484.55 66.4354L1484.39 66.7896L1482.06 71.4458C1481.74 72.0874 1481.26 72.6354 1480.67 73.0369C1480.08 73.4383 1479.39 73.6797 1478.67 73.7375L1478.34 73.75H1474.42C1473.37 73.7503 1472.35 73.3533 1471.58 72.6386C1470.81 71.9238 1470.34 70.9441 1470.26 69.8958L1470.25 69.5833H1457.75C1457.75 70.6345 1457.35 71.647 1456.64 72.4178C1455.92 73.1886 1454.94 73.6608 1453.9 73.7396L1453.58 73.75H1449.66C1448.95 73.7497 1448.24 73.5648 1447.62 73.213C1446.99 72.8612 1446.47 72.3544 1446.1 71.7417L1445.94 71.4458L1443.61 66.7875C1443.38 66.3255 1443.23 65.8246 1443.19 65.3104L1443.17 64.925V55.5542C1443.17 54.9514 1443.3 54.3557 1443.55 53.8083L1443.72 53.4854L1451.17 40.4333C1451.51 39.846 1451.98 39.3492 1452.55 38.9859C1453.13 38.6225 1453.78 38.4036 1454.45 38.3479L1454.79 38.3333H1473.21ZM1473.21 42.5H1454.79L1447.33 55.5542V64.925L1449.66 69.5833H1453.58V67.7083C1453.58 67.1436 1453.79 66.5987 1454.17 66.1781C1454.54 65.7575 1455.06 65.4908 1455.62 65.4292L1455.87 65.4167H1472.12C1472.69 65.4164 1473.23 65.6246 1473.66 66.0014C1474.08 66.3782 1474.34 66.897 1474.4 67.4583L1474.42 67.7083V69.5833H1478.34L1480.67 64.925V55.5542L1473.21 42.5ZM1473.49 53.1354C1473.98 52.8895 1474.55 52.8497 1475.08 53.0247C1475.6 53.1997 1476.03 53.5752 1476.28 54.0688C1476.52 54.5642 1476.56 55.1346 1476.38 55.6574C1476.21 56.1802 1475.84 56.6137 1475.35 56.8646C1471.92 58.5729 1467.77 59.1667 1464 59.1667C1460.15 59.1667 1456.15 58.5792 1452.66 56.8688C1452.17 56.6165 1451.8 56.1828 1451.62 55.6599C1451.45 55.1371 1451.48 54.5662 1451.72 54.0688C1451.95 53.6136 1452.34 53.259 1452.82 53.0714C1453.3 52.8839 1453.82 52.8763 1454.3 53.05L1454.86 53.2896L1455.37 53.4917L1455.82 53.6583L1456.37 53.8375L1457 54.0292L1457.7 54.2188L1458.49 54.4063L1459.35 54.5771C1460.88 54.8583 1462.44 54.9998 1464 55C1467.16 55 1470.6 54.5167 1473.49 53.1354Z" fill="black"/>
    </g>
    <defs>
        <clipPath id="clip0_919_305">
            <rect width="50" height="50" fill="white" transform="translate(92 30)"/>
        </clipPath>
        <clipPath id="clip1_919_305">
            <rect width="50" height="50" fill="white" transform="translate(1159 30)"/>
        </clipPath>
        <clipPath id="clip2_919_305">
            <rect width="50" height="50" fill="white" transform="translate(1439 30)"/>
        </clipPath>
    </defs>
</svg>
