<svg width="14" height="9" viewBox="0 0 14 9" fill="currentColor" xmlns="http://www.w3.org/2000/svg">
    <path fill-rule="evenodd" clip-rule="evenodd"
          d="M13.6792 0.553C13.776 0.2345 13.6792 0 13.2154 0H11.6842C11.2945 0 11.1148 0.202417 11.0174 0.425833C11.0174 0.425833 10.2387 2.29017 9.13558 3.50117C8.77858 3.85233 8.61642 3.96375 8.42158 3.96375C8.32417 3.96375 8.17775 3.85233 8.17775 3.53325V0.553C8.17775 0.170333 8.07042 0 7.74608 0H5.33808C5.09483 0 4.94842 0.177333 4.94842 0.345917C4.94842 0.708167 5.50025 0.792167 5.55683 1.81183V4.02733C5.55683 4.51325 5.46758 4.60133 5.27275 4.60133C4.75358 4.60133 3.49067 2.72825 2.74108 0.585083C2.59583 0.168 2.44883 0 2.05742 0H0.525C0.0875 0 0 0.202417 0 0.425833C0 0.823667 0.519167 2.8 2.41792 5.41392C3.68375 7.19892 5.46583 8.16667 7.08925 8.16667C8.06283 8.16667 8.183 7.952 8.183 7.58158V6.23233C8.183 5.80242 8.27517 5.71667 8.58375 5.71667C8.81125 5.71667 9.20033 5.82867 10.1092 6.68908C11.1475 7.70933 11.3184 8.16667 11.9029 8.16667H13.4342C13.8717 8.16667 14.091 7.952 13.965 7.52733C13.8262 7.105 13.3303 6.49192 12.6729 5.7645C12.3159 5.35033 11.7804 4.90408 11.6177 4.68067C11.3907 4.39425 11.4555 4.2665 11.6177 4.01158C11.6177 4.01158 13.4843 1.42975 13.6786 0.553H13.6792Z"
          fill="#0085FF"/>
</svg>
