<svg width="14" height="10" viewBox="0 0 14 10" fill="currentColor" xmlns="http://www.w3.org/2000/svg">
    <path d="M5.6 7.14286L9.233 5L5.6 2.85714V7.14286ZM13.692 1.55C13.783 1.88571 13.846 2.33571 13.888 2.90714C13.937 3.47857 13.958 3.97143 13.958 4.4L14 5C14 6.56429 13.888 7.71429 13.692 8.45C13.517 9.09286 13.111 9.50714 12.481 9.68571C12.152 9.77857 11.55 9.84286 10.626 9.88571C9.716 9.93571 8.883 9.95714 8.113 9.95714L7 10C4.067 10 2.24 9.88571 1.519 9.68571C0.889 9.50714 0.483 9.09286 0.308 8.45C0.217 8.11429 0.154 7.66429 0.112 7.09286C0.0630001 6.52143 0.042 6.02857 0.042 5.6L0 5C0 3.43571 0.112 2.28571 0.308 1.55C0.483 0.907143 0.889 0.492857 1.519 0.314286C1.848 0.221429 2.45 0.157143 3.374 0.114286C4.284 0.0642856 5.117 0.0428571 5.887 0.0428571L7 0C9.933 0 11.76 0.114286 12.481 0.314286C13.111 0.492857 13.517 0.907143 13.692 1.55Z"
          fill="#E90000"/>
</svg>
