<svg width="1110" height="122" viewBox="0 0 1110 122" fill="none" xmlns="http://www.w3.org/2000/svg">
    <rect width="1110" height="122" fill="#F8F8F8"/>
    <path d="M133.968 47L132.976 44.6H127.776L126.784 47H124.128L129.12 35.8H131.68L136.688 47H133.968ZM128.608 42.632H132.16L130.384 38.344L128.608 42.632ZM146.491 44.952H147.723V48.856H145.403V47H139.355V48.856H137.035V44.952H137.387C138.571 44.92 138.779 43.24 138.875 41.368L138.987 38.392H146.491V44.952ZM141.131 41.544C141.083 43 140.971 44.312 140.363 44.952H143.995V40.44H141.179L141.131 41.544ZM154.366 38.264C156.782 38.264 158.654 39.992 158.654 42.696C158.654 45.4 156.782 47.128 154.366 47.128C153.294 47.128 152.414 46.792 151.774 46.088V50.104H149.278V38.392H151.662V39.384C152.286 38.632 153.214 38.264 154.366 38.264ZM153.934 45.08C155.182 45.08 156.126 44.184 156.126 42.696C156.126 41.208 155.182 40.312 153.934 40.312C152.686 40.312 151.742 41.208 151.742 42.696C151.742 44.184 152.686 45.08 153.934 45.08ZM168.771 42.728C168.771 42.92 168.739 43.192 168.723 43.4H162.211C162.451 44.472 163.363 45.128 164.675 45.128C165.587 45.128 166.243 44.856 166.835 44.296L168.163 45.736C167.363 46.648 166.163 47.128 164.611 47.128C161.635 47.128 159.699 45.256 159.699 42.696C159.699 40.12 161.667 38.264 164.291 38.264C166.819 38.264 168.771 39.96 168.771 42.728ZM164.307 40.152C163.171 40.152 162.355 40.84 162.179 41.944H166.419C166.243 40.856 165.427 40.152 164.307 40.152ZM174.78 47.128C171.98 47.128 169.98 45.288 169.98 42.696C169.98 40.104 171.98 38.264 174.78 38.264C176.588 38.264 178.012 39.048 178.636 40.456L176.7 41.496C176.236 40.68 175.548 40.312 174.764 40.312C173.5 40.312 172.508 41.192 172.508 42.696C172.508 44.2 173.5 45.08 174.764 45.08C175.548 45.08 176.236 44.728 176.7 43.896L178.636 44.952C178.012 46.328 176.588 47.128 174.78 47.128Z" fill="#212121"/>
    <path d="M130.762 62.58V63.756H126.646V70H125.302V62.58H130.762ZM131.762 70.084C131.244 70.084 130.81 69.678 130.81 69.118C130.81 68.558 131.244 68.166 131.762 68.166C132.266 68.166 132.686 68.558 132.686 69.118C132.686 69.678 132.266 70.084 131.762 70.084ZM143.006 70.112C140.038 70.112 137.826 67.998 137.826 65.1C137.826 62.202 140.038 60.088 143.02 60.088C144.532 60.088 145.848 60.606 146.744 61.614L145.834 62.496C145.078 61.698 144.154 61.334 143.076 61.334C140.864 61.334 139.226 62.93 139.226 65.1C139.226 67.27 140.864 68.866 143.076 68.866C144.154 68.866 145.078 68.488 145.834 67.69L146.744 68.572C145.848 69.58 144.532 70.112 143.006 70.112ZM150.999 62.51C153.029 62.51 154.177 63.49 154.177 65.52V70H152.903V69.02C152.455 69.692 151.629 70.084 150.467 70.084C148.787 70.084 147.723 69.188 147.723 67.9C147.723 66.71 148.493 65.73 150.705 65.73H152.833V65.464C152.833 64.33 152.175 63.672 150.845 63.672C149.963 63.672 149.067 63.98 148.493 64.47L147.933 63.462C148.703 62.846 149.809 62.51 150.999 62.51ZM150.691 69.048C151.699 69.048 152.497 68.586 152.833 67.732V66.696H150.761C149.431 66.696 149.053 67.214 149.053 67.844C149.053 68.586 149.669 69.048 150.691 69.048ZM160.531 62.51C162.701 62.51 164.283 64.022 164.283 66.29C164.283 68.572 162.701 70.084 160.531 70.084C159.481 70.084 158.557 69.678 157.941 68.88V72.716H156.597V62.58H157.885V63.756C158.487 62.93 159.439 62.51 160.531 62.51ZM160.419 68.908C161.847 68.908 162.925 67.872 162.925 66.29C162.925 64.722 161.847 63.686 160.419 63.686C159.005 63.686 157.927 64.722 157.927 66.29C157.927 67.872 159.005 68.908 160.419 68.908ZM168.813 62.51C170.843 62.51 171.991 63.49 171.991 65.52V70H170.717V69.02C170.269 69.692 169.443 70.084 168.281 70.084C166.601 70.084 165.537 69.188 165.537 67.9C165.537 66.71 166.307 65.73 168.519 65.73H170.647V65.464C170.647 64.33 169.989 63.672 168.659 63.672C167.777 63.672 166.881 63.98 166.307 64.47L165.747 63.462C166.517 62.846 167.623 62.51 168.813 62.51ZM168.505 69.048C169.513 69.048 170.311 68.586 170.647 67.732V66.696H168.575C167.245 66.696 166.867 67.214 166.867 67.844C166.867 68.586 167.483 69.048 168.505 69.048ZM179.941 62.58V63.756H177.225V70H175.881V63.756H173.165V62.58H179.941ZM184.166 70.084C181.94 70.084 180.302 68.502 180.302 66.29C180.302 64.078 181.94 62.51 184.166 62.51C186.392 62.51 188.016 64.078 188.016 66.29C188.016 68.502 186.392 70.084 184.166 70.084ZM184.166 68.908C185.594 68.908 186.658 67.872 186.658 66.29C186.658 64.708 185.594 63.686 184.166 63.686C182.738 63.686 181.66 64.708 181.66 66.29C181.66 67.872 182.738 68.908 184.166 68.908ZM195.01 66.15C195.99 66.402 196.452 67.018 196.452 67.956C196.452 69.244 195.5 70 193.526 70H189.956V62.58H193.4C195.15 62.58 196.2 63.266 196.2 64.484C196.2 65.282 195.752 65.856 195.01 66.15ZM191.272 63.616V65.772H193.288C194.31 65.772 194.856 65.394 194.856 64.68C194.856 63.966 194.31 63.616 193.288 63.616H191.272ZM193.428 68.964C194.534 68.964 195.108 68.628 195.108 67.872C195.108 67.102 194.618 66.738 193.512 66.738H191.272V68.964H193.428ZM198.85 70.084C198.332 70.084 197.898 69.678 197.898 69.118C197.898 68.558 198.332 68.166 198.85 68.166C199.354 68.166 199.774 68.558 199.774 69.118C199.774 69.678 199.354 70.084 198.85 70.084ZM210.948 62.58V63.756H206.832V70H205.488V62.58H210.948ZM218.257 68.824H219.391V71.722H218.131V70H211.929V71.722H210.655V68.824H211.047C212.111 68.768 212.293 66.962 212.391 65.086L212.503 62.58H218.257V68.824ZM213.623 65.184C213.567 66.724 213.427 68.236 212.755 68.824H216.913V63.756H213.693L213.623 65.184ZM227.848 66.332C227.848 66.444 227.834 66.612 227.82 66.738H221.8C221.968 68.04 223.018 68.908 224.488 68.908C225.356 68.908 226.084 68.614 226.63 68.012L227.372 68.88C226.7 69.664 225.678 70.084 224.446 70.084C222.052 70.084 220.456 68.502 220.456 66.29C220.456 64.092 222.038 62.51 224.18 62.51C226.322 62.51 227.848 64.05 227.848 66.332ZM224.18 63.644C222.892 63.644 221.94 64.512 221.8 65.772H226.56C226.42 64.526 225.482 63.644 224.18 63.644ZM229.566 66.738V65.576H233.332V66.738H229.566ZM240.699 62.58V63.756H237.983V70H236.639V63.756H233.923V62.58H240.699ZM244.923 70.084C242.697 70.084 241.059 68.502 241.059 66.29C241.059 64.078 242.697 62.51 244.923 62.51C247.149 62.51 248.773 64.078 248.773 66.29C248.773 68.502 247.149 70.084 244.923 70.084ZM244.923 68.908C246.351 68.908 247.415 67.872 247.415 66.29C247.415 64.708 246.351 63.686 244.923 63.686C243.495 63.686 242.417 64.708 242.417 66.29C242.417 67.872 243.495 68.908 244.923 68.908ZM260.004 62.58V63.756H257.288V70H255.944V63.756H253.228V62.58H260.004ZM264.024 62.51C266.054 62.51 267.202 63.49 267.202 65.52V70H265.928V69.02C265.48 69.692 264.654 70.084 263.492 70.084C261.812 70.084 260.748 69.188 260.748 67.9C260.748 66.71 261.518 65.73 263.73 65.73H265.858V65.464C265.858 64.33 265.2 63.672 263.87 63.672C262.988 63.672 262.092 63.98 261.518 64.47L260.958 63.462C261.728 62.846 262.834 62.51 264.024 62.51ZM263.716 69.048C264.724 69.048 265.522 68.586 265.858 67.732V66.696H263.786C262.456 66.696 262.078 67.214 262.078 67.844C262.078 68.586 262.694 69.048 263.716 69.048ZM276.916 62.58H278.176V70H276.958V64.582L274.186 69.16H273.598L270.854 64.568V70H269.622V62.58H271.008L273.92 67.592L276.916 62.58ZM281.1 68.166C281.632 68.166 282.01 68.572 282.01 69.118C282.01 69.398 281.954 69.608 281.772 70.126L281.114 72.072H280.232L280.75 69.986C280.4 69.86 280.162 69.538 280.162 69.118C280.162 68.558 280.568 68.166 281.1 68.166ZM131.714 85.824H132.848V88.722H131.588V87H125.386V88.722H124.112V85.824H124.504C125.568 85.768 125.75 83.962 125.848 82.086L125.96 79.58H131.714V85.824ZM127.08 82.184C127.024 83.724 126.884 85.236 126.212 85.824H130.37V80.756H127.15L127.08 82.184ZM137.245 79.51C139.275 79.51 140.423 80.49 140.423 82.52V87H139.149V86.02C138.701 86.692 137.875 87.084 136.713 87.084C135.033 87.084 133.969 86.188 133.969 84.9C133.969 83.71 134.739 82.73 136.951 82.73H139.079V82.464C139.079 81.33 138.421 80.672 137.091 80.672C136.209 80.672 135.313 80.98 134.739 81.47L134.179 80.462C134.949 79.846 136.055 79.51 137.245 79.51ZM136.937 86.048C137.945 86.048 138.743 85.586 139.079 84.732V83.696H137.007C135.677 83.696 135.299 84.214 135.299 84.844C135.299 85.586 135.915 86.048 136.937 86.048ZM143.515 79.58H149.213V87H147.869V80.756H144.677L144.593 82.408C144.467 85.026 144.117 87.112 142.437 87.112C142.185 87.112 141.919 87.07 141.611 86.986L141.695 85.852C141.821 85.88 141.933 85.894 142.031 85.894C143.235 85.894 143.291 84.074 143.389 82.324L143.515 79.58ZM158.518 83.332C158.518 83.444 158.504 83.612 158.49 83.738H152.47C152.638 85.04 153.688 85.908 155.158 85.908C156.026 85.908 156.754 85.614 157.3 85.012L158.042 85.88C157.37 86.664 156.348 87.084 155.116 87.084C152.722 87.084 151.126 85.502 151.126 83.29C151.126 81.092 152.708 79.51 154.85 79.51C156.992 79.51 158.518 81.05 158.518 83.332ZM154.85 80.644C153.562 80.644 152.61 81.512 152.47 82.772H157.23C157.09 81.526 156.152 80.644 154.85 80.644ZM165.979 87L163.487 83.864H161.947V87H160.603V79.58H161.947V82.716H163.515L165.923 79.58H167.365L164.551 83.15L167.561 87H165.979ZM171.902 87.084C169.676 87.084 168.038 85.502 168.038 83.29C168.038 81.078 169.676 79.51 171.902 79.51C174.128 79.51 175.752 81.078 175.752 83.29C175.752 85.502 174.128 87.084 171.902 87.084ZM171.902 85.908C173.33 85.908 174.394 84.872 174.394 83.29C174.394 81.708 173.33 80.686 171.902 80.686C170.474 80.686 169.396 81.708 169.396 83.29C169.396 84.872 170.474 85.908 171.902 85.908ZM187.864 85.824H188.998V88.722H187.738V87H181.536V88.722H180.262V85.824H180.654C181.718 85.768 181.9 83.962 181.998 82.086L182.11 79.58H187.864V85.824ZM183.23 82.184C183.174 83.724 183.034 85.236 182.362 85.824H186.52V80.756H183.3L183.23 82.184ZM193.395 79.51C195.425 79.51 196.573 80.49 196.573 82.52V87H195.299V86.02C194.851 86.692 194.025 87.084 192.863 87.084C191.183 87.084 190.119 86.188 190.119 84.9C190.119 83.71 190.889 82.73 193.101 82.73H195.229V82.464C195.229 81.33 194.571 80.672 193.241 80.672C192.359 80.672 191.463 80.98 190.889 81.47L190.329 80.462C191.099 79.846 192.205 79.51 193.395 79.51ZM193.087 86.048C194.095 86.048 194.893 85.586 195.229 84.732V83.696H193.157C191.827 83.696 191.449 84.214 191.449 84.844C191.449 85.586 192.065 86.048 193.087 86.048ZM199.665 79.58H205.363V87H204.019V80.756H200.827L200.743 82.408C200.617 85.026 200.267 87.112 198.587 87.112C198.335 87.112 198.069 87.07 197.761 86.986L197.845 85.852C197.971 85.88 198.083 85.894 198.181 85.894C199.385 85.894 199.441 84.074 199.539 82.324L199.665 79.58ZM214.668 83.332C214.668 83.444 214.654 83.612 214.64 83.738H208.62C208.788 85.04 209.838 85.908 211.308 85.908C212.176 85.908 212.904 85.614 213.45 85.012L214.192 85.88C213.52 86.664 212.498 87.084 211.266 87.084C208.872 87.084 207.276 85.502 207.276 83.29C207.276 81.092 208.858 79.51 211 79.51C213.142 79.51 214.668 81.05 214.668 83.332ZM211 80.644C209.712 80.644 208.76 81.512 208.62 82.772H213.38C213.24 81.526 212.302 80.644 211 80.644ZM222.129 87L219.637 83.864H218.097V87H216.753V79.58H218.097V82.716H219.665L222.073 79.58H223.515L220.701 83.15L223.711 87H222.129ZM228.052 87.084C225.826 87.084 224.188 85.502 224.188 83.29C224.188 81.078 225.826 79.51 228.052 79.51C230.278 79.51 231.902 81.078 231.902 83.29C231.902 85.502 230.278 87.084 228.052 87.084ZM228.052 85.908C229.48 85.908 230.544 84.872 230.544 83.29C230.544 81.708 229.48 80.686 228.052 80.686C226.624 80.686 225.546 81.708 225.546 83.29C225.546 84.872 226.624 85.908 228.052 85.908Z" fill="#212121"/>
    <g clip-path="url(#clip0_130_121)">
        <path d="M79.664 70.314C69.8261 56.3263 68 54.8907 68 49.75C68 42.7083 73.8203 37 81 37C88.1797 37 94 42.7083 94 49.75C94 54.8907 92.1739 56.3263 82.336 70.314C81.6904 71.2287 80.3095 71.2286 79.664 70.314ZM81 55.0625C83.9916 55.0625 86.4167 52.684 86.4167 49.75C86.4167 46.816 83.9916 44.4375 81 44.4375C78.0084 44.4375 75.5833 46.816 75.5833 49.75C75.5833 52.684 78.0084 55.0625 81 55.0625Z" fill="#212121"/>
    </g>
    <path d="M526.952 44.8V46.912H523.368V56H520.808V46.912H517.24V44.8H526.952ZM535.881 51.728C535.881 51.92 535.849 52.192 535.833 52.4H529.321C529.561 53.472 530.473 54.128 531.785 54.128C532.697 54.128 533.353 53.856 533.945 53.296L535.273 54.736C534.473 55.648 533.273 56.128 531.721 56.128C528.745 56.128 526.809 54.256 526.809 51.696C526.809 49.12 528.777 47.264 531.401 47.264C533.929 47.264 535.881 48.96 535.881 51.728ZM531.417 49.152C530.281 49.152 529.465 49.84 529.289 50.944H533.529C533.353 49.856 532.537 49.152 531.417 49.152ZM538.612 47.392H545.972V56H543.476V49.44H540.756L540.676 50.96C540.548 54.032 540.052 56.176 537.924 56.176C537.54 56.176 537.124 56.112 536.628 55.984L536.756 53.936C536.884 53.952 537.012 53.968 537.124 53.968C538.308 53.968 538.404 52.48 538.484 50.848L538.612 47.392ZM556.74 51.728C556.74 51.92 556.708 52.192 556.692 52.4H550.18C550.42 53.472 551.332 54.128 552.644 54.128C553.556 54.128 554.212 53.856 554.804 53.296L556.132 54.736C555.332 55.648 554.132 56.128 552.58 56.128C549.604 56.128 547.668 54.256 547.668 51.696C547.668 49.12 549.636 47.264 552.26 47.264C554.788 47.264 556.74 48.96 556.74 51.728ZM552.276 49.152C551.14 49.152 550.324 49.84 550.148 50.944H554.388C554.212 49.856 553.396 49.152 552.276 49.152ZM570.541 51.664C570.541 54.352 568.669 55.92 565.389 56.16V59.104H563.101V56.16C559.805 55.936 557.949 54.384 557.949 51.664C557.949 48.992 559.773 47.504 563.101 47.28V44.128H565.389V47.28C568.669 47.504 570.541 49.008 570.541 51.664ZM560.365 51.664C560.365 53.184 561.181 54.016 563.101 54.224V49.216C561.181 49.408 560.365 50.224 560.365 51.664ZM565.389 54.224C567.309 54.016 568.141 53.184 568.141 51.664C568.141 50.208 567.309 49.408 565.389 49.216V54.224ZM576.263 56.128C573.527 56.128 571.527 54.288 571.527 51.696C571.527 49.104 573.527 47.264 576.263 47.264C578.999 47.264 580.983 49.104 580.983 51.696C580.983 54.288 578.999 56.128 576.263 56.128ZM576.263 54.08C577.511 54.08 578.455 53.184 578.455 51.696C578.455 50.208 577.511 49.312 576.263 49.312C575.015 49.312 574.055 50.208 574.055 51.696C574.055 53.184 575.015 54.08 576.263 54.08ZM582.7 56V47.392H585.18V50.752H588.924V47.392H591.42V56H588.924V52.784H585.18V56H582.7Z" fill="#212121"/>
    <path d="M524.21 73.554V74.66H521.662V77.166H520.486V74.66H517.938V73.554H520.486V71.034H521.662V73.554H524.21ZM525.432 69.2H532.824V70.152L528.862 79H527.378L531.256 70.418H526.776V72.168H525.432V69.2ZM540.135 81.716C539.071 80.022 538.469 77.74 538.469 75.164C538.469 72.588 539.071 70.278 540.135 68.612H541.409C540.275 70.6 539.785 72.714 539.785 75.164C539.785 77.614 540.275 79.728 541.409 81.716H540.135ZM542.104 69.2H545.702V79H544.316V70.418H542.104V69.2ZM549.708 77.782H554.734V79H547.692V78.048L551.682 74.198C552.718 73.19 552.914 72.574 552.914 71.958C552.914 70.95 552.2 70.334 550.828 70.334C549.778 70.334 548.924 70.67 548.322 71.398L547.37 70.572C548.126 69.634 549.428 69.088 550.954 69.088C552.998 69.088 554.314 70.138 554.314 71.818C554.314 72.77 554.034 73.624 552.704 74.898L549.708 77.782ZM559.637 73.316C561.597 73.498 562.591 74.604 562.591 76.116C562.591 77.768 561.373 79.112 558.881 79.112C557.481 79.112 556.109 78.664 555.283 77.922L555.927 76.816C556.585 77.432 557.677 77.866 558.881 77.866C560.351 77.866 561.191 77.194 561.191 76.13C561.191 75.094 560.449 74.422 558.769 74.422H557.985V73.442L560.449 70.418H555.731V69.2H562.199V70.152L559.637 73.316ZM564.947 81.716H563.673C564.807 79.728 565.311 77.614 565.311 75.164C565.311 72.714 564.807 70.6 563.673 68.612H564.947C566.025 70.278 566.627 72.588 566.627 75.164C566.627 77.74 566.025 80.022 564.947 81.716ZM580.913 75.388V76.592H579.051V79H577.693V76.592H572.247V75.612L577.259 69.2H578.771L573.969 75.388H577.735V73.26H579.051V75.388H580.913ZM584.511 73.106C587.437 73.106 588.585 74.324 588.585 76.06C588.585 77.754 587.381 79.112 584.875 79.112C583.489 79.112 582.117 78.664 581.277 77.922L581.921 76.816C582.579 77.432 583.671 77.866 584.861 77.866C586.345 77.866 587.185 77.18 587.185 76.116C587.185 75.01 586.485 74.324 584.217 74.324H581.991L582.509 69.2H588.039V70.418H583.685L583.419 73.106H584.511ZM593.978 73.05C595.924 73.05 597.338 74.212 597.338 76.018C597.338 77.908 595.812 79.112 593.866 79.112C591.234 79.112 589.75 77.348 589.75 74.226C589.75 70.88 591.64 69.088 594.384 69.088C595.308 69.088 596.19 69.27 596.82 69.662L596.288 70.754C595.784 70.418 595.112 70.292 594.412 70.292C592.424 70.292 591.15 71.538 591.15 73.988C591.15 74.1 591.15 74.212 591.164 74.338C591.724 73.498 592.76 73.05 593.978 73.05ZM593.81 77.978C595.084 77.978 595.98 77.236 595.98 76.074C595.98 74.926 595.112 74.184 593.74 74.184C592.41 74.184 591.486 75.01 591.486 76.088C591.486 77.096 592.298 77.978 593.81 77.978ZM598.585 75.738V74.576H602.351V75.738H598.585ZM603.43 69.2H610.822V70.152L606.86 79H605.376L609.254 70.418H604.774V72.168H603.43V69.2ZM617.795 73.862C618.915 74.296 619.531 75.108 619.531 76.228C619.531 78.006 618.019 79.112 615.625 79.112C613.245 79.112 611.747 78.006 611.747 76.228C611.747 75.108 612.363 74.282 613.469 73.862C612.573 73.442 612.097 72.714 612.097 71.748C612.097 70.11 613.511 69.088 615.625 69.088C617.753 69.088 619.181 70.11 619.181 71.748C619.181 72.714 618.691 73.442 617.795 73.862ZM615.625 70.222C614.309 70.222 613.483 70.824 613.483 71.804C613.483 72.77 614.281 73.372 615.625 73.372C616.983 73.372 617.809 72.77 617.809 71.804C617.809 70.824 616.941 70.222 615.625 70.222ZM615.625 77.978C617.179 77.978 618.131 77.292 618.131 76.186C618.131 75.108 617.179 74.436 615.625 74.436C614.071 74.436 613.147 75.108 613.147 76.186C613.147 77.292 614.071 77.978 615.625 77.978ZM620.939 75.738V74.576H624.705V75.738H620.939ZM629.35 69.088C631.982 69.088 633.466 70.852 633.466 73.974C633.466 77.32 631.576 79.112 628.832 79.112C627.908 79.112 627.026 78.93 626.396 78.538L626.928 77.446C627.446 77.782 628.104 77.908 628.818 77.908C630.806 77.908 632.066 76.662 632.066 74.212V73.862C631.492 74.716 630.456 75.15 629.238 75.15C627.292 75.15 625.892 73.988 625.892 72.182C625.892 70.292 627.404 69.088 629.35 69.088ZM629.476 74.016C630.82 74.016 631.744 73.19 631.744 72.112C631.744 71.104 630.932 70.222 629.406 70.222C628.132 70.222 627.25 70.964 627.25 72.126C627.25 73.274 628.104 74.016 629.476 74.016ZM638.817 79.112C636.521 79.112 634.813 77.292 634.813 74.1C634.813 70.908 636.521 69.088 638.817 69.088C641.099 69.088 642.807 70.908 642.807 74.1C642.807 77.292 641.099 79.112 638.817 79.112ZM638.817 77.866C640.343 77.866 641.407 76.606 641.407 74.1C641.407 71.594 640.343 70.334 638.817 70.334C637.277 70.334 636.213 71.594 636.213 74.1C636.213 76.606 637.277 77.866 638.817 77.866Z" fill="#212121"/>
    <g clip-path="url(#clip1_130_121)">
        <path d="M486.625 68.4516L482.818 72.2278C482.256 72.804 481.511 72.9993 480.786 73.0001C477.578 72.904 474.546 71.3283 472.056 69.7103C467.97 66.7374 464.22 63.0511 461.867 58.5964C460.965 56.7283 459.906 54.3449 460.007 52.2598C460.016 51.4755 460.227 50.7057 460.78 50.2001L464.586 46.3954C465.377 45.723 466.141 45.9555 466.647 46.7386L469.709 52.5459C470.032 53.2339 469.847 53.9711 469.366 54.4627L467.963 55.8644C467.877 55.983 467.822 56.118 467.82 56.2649C468.358 58.3467 469.987 60.2654 471.427 61.5859C472.866 62.9063 474.413 64.6953 476.421 65.1188C476.669 65.1881 476.973 65.2124 477.151 65.0473L478.783 63.3881C479.345 62.9618 480.157 62.7535 480.757 63.102H480.786L486.31 66.3632C487.121 66.8716 487.205 67.8539 486.625 68.4516Z" fill="#212121"/>
    </g>
    <path d="M885.24 44.8C888.232 44.8 890.104 46.352 890.104 48.864C890.104 51.36 888.232 52.912 885.24 52.912H882.984V56H880.392V44.8H885.24ZM885.096 50.8C886.68 50.8 887.48 50.08 887.48 48.864C887.48 47.632 886.68 46.912 885.096 46.912H882.984V50.8H885.096ZM899.974 51.728C899.974 51.92 899.942 52.192 899.926 52.4H893.414C893.654 53.472 894.566 54.128 895.878 54.128C896.79 54.128 897.446 53.856 898.038 53.296L899.366 54.736C898.566 55.648 897.366 56.128 895.814 56.128C892.838 56.128 890.902 54.256 890.902 51.696C890.902 49.12 892.87 47.264 895.494 47.264C898.022 47.264 899.974 48.96 899.974 51.728ZM895.51 49.152C894.374 49.152 893.558 49.84 893.382 50.944H897.622C897.446 49.856 896.63 49.152 895.51 49.152ZM912.005 56L910.181 52.736H908.981V56H906.517V52.736H905.317L903.493 56H900.549L903.253 51.552L900.741 47.392H903.381L905.285 50.736H906.517V47.392H908.981V50.736H910.197L912.117 47.392H914.757L912.245 51.552L914.965 56H912.005ZM916.263 56V47.392H918.743V52.512L922.935 47.392H925.223V56H922.743V50.88L918.567 56H916.263ZM938.278 56H936.022V50.848L933.446 55.168H932.39L929.878 50.832V56H927.622V47.392H930.23L932.982 52.368L935.91 47.392H938.246L938.278 56ZM950.272 47.264C952.688 47.264 954.56 48.992 954.56 51.696C954.56 54.4 952.688 56.128 950.272 56.128C949.2 56.128 948.32 55.792 947.68 55.088V59.104H945.184V47.392H947.568V48.384C948.192 47.632 949.12 47.264 950.272 47.264ZM949.84 54.08C951.088 54.08 952.032 53.184 952.032 51.696C952.032 50.208 951.088 49.312 949.84 49.312C948.592 49.312 947.648 50.208 947.648 51.696C947.648 53.184 948.592 54.08 949.84 54.08ZM959.513 47.264C962.137 47.264 963.657 48.48 963.657 51.088V56H961.321V54.928C960.857 55.712 959.961 56.128 958.697 56.128C956.681 56.128 955.481 55.008 955.481 53.52C955.481 52 956.553 50.944 959.177 50.944H961.161C961.161 49.872 960.521 49.248 959.177 49.248C958.265 49.248 957.321 49.552 956.697 50.048L955.801 48.304C956.745 47.632 958.137 47.264 959.513 47.264ZM959.321 54.448C960.153 54.448 960.873 54.064 961.161 53.28V52.4H959.449C958.281 52.4 957.913 52.832 957.913 53.408C957.913 54.032 958.441 54.448 959.321 54.448ZM970.801 47.984C973.281 47.984 974.897 49.6 974.897 52.016C974.897 54.528 972.929 56.192 970.193 56.192C967.265 56.192 965.361 54.32 965.361 50.496C965.361 47.072 966.801 44.976 969.953 44.336L974.049 43.52L974.385 45.664L970.769 46.384C968.801 46.768 967.921 47.6 967.745 49.248C968.481 48.448 969.537 47.984 970.801 47.984ZM970.209 54.256C971.521 54.256 972.337 53.296 972.337 52.048C972.337 50.736 971.489 49.92 970.209 49.92C968.929 49.92 968.049 50.736 968.049 52.048C968.049 53.344 968.945 54.256 970.209 54.256ZM980.623 56.128C977.887 56.128 975.887 54.288 975.887 51.696C975.887 49.104 977.887 47.264 980.623 47.264C983.359 47.264 985.343 49.104 985.343 51.696C985.343 54.288 983.359 56.128 980.623 56.128ZM980.623 54.08C981.871 54.08 982.815 53.184 982.815 51.696C982.815 50.208 981.871 49.312 980.623 49.312C979.375 49.312 978.415 50.208 978.415 51.696C978.415 53.184 979.375 54.08 980.623 54.08ZM993.979 47.392V49.44H991.067V56H988.587V49.44H985.675V47.392H993.979ZM999.837 50.144C1002.09 50.16 1003.25 51.2 1003.25 53.008C1003.25 54.912 1001.9 56.016 999.501 56.016L995.309 56V47.392H997.789V50.144H999.837ZM1004.17 56V47.392H1006.65V56H1004.17ZM999.277 54.24C1000.24 54.256 1000.77 53.824 1000.77 52.976C1000.77 52.128 1000.24 51.776 999.277 51.76L997.789 51.744V54.24H999.277Z" fill="#212121"/>
    <path d="M880.526 69.2H888.968V79H887.596V70.418H881.912V79H880.526V69.2ZM891.8 79V71.58H893.144V74.73H897.372V71.58H898.716V79H897.372V75.892H893.144V79H891.8ZM903.787 75.626V74.688H910.787V75.626H903.787ZM916.073 69.2H924.515V79H923.143V70.418H917.459V79H916.073V69.2ZM932.877 71.58V72.756H930.161V79H928.817V72.756H926.101V71.58H932.877ZM934.545 73.428C934.027 73.428 933.593 73.022 933.593 72.462C933.593 71.902 934.027 71.51 934.545 71.51C935.049 71.51 935.469 71.902 935.469 72.462C935.469 73.022 935.049 73.428 934.545 73.428ZM934.545 79.084C934.027 79.084 933.593 78.678 933.593 78.118C933.593 77.558 934.027 77.166 934.545 77.166C935.049 77.166 935.469 77.558 935.469 78.118C935.469 78.678 935.049 79.084 934.545 79.084ZM944.417 79.084C942.135 79.084 940.497 77.502 940.497 75.29C940.497 73.078 942.135 71.51 944.417 71.51C945.747 71.51 946.853 72.056 947.441 73.092L946.419 73.75C945.943 73.022 945.215 72.686 944.403 72.686C942.947 72.686 941.855 73.708 941.855 75.29C941.855 76.9 942.947 77.908 944.403 77.908C945.215 77.908 945.943 77.572 946.419 76.844L947.441 77.488C946.853 78.524 945.747 79.084 944.417 79.084ZM955.489 69.088C958.121 69.088 959.605 70.852 959.605 73.974C959.605 77.32 957.715 79.112 954.971 79.112C954.047 79.112 953.165 78.93 952.535 78.538L953.067 77.446C953.585 77.782 954.243 77.908 954.957 77.908C956.945 77.908 958.205 76.662 958.205 74.212V73.862C957.631 74.716 956.595 75.15 955.377 75.15C953.431 75.15 952.031 73.988 952.031 72.182C952.031 70.292 953.543 69.088 955.489 69.088ZM955.615 74.016C956.959 74.016 957.883 73.19 957.883 72.112C957.883 71.104 957.071 70.222 955.545 70.222C954.271 70.222 953.389 70.964 953.389 72.126C953.389 73.274 954.243 74.016 955.615 74.016ZM961.875 73.428C961.357 73.428 960.923 73.022 960.923 72.462C960.923 71.902 961.357 71.51 961.875 71.51C962.379 71.51 962.799 71.902 962.799 72.462C962.799 73.022 962.379 73.428 961.875 73.428ZM961.875 79.084C961.357 79.084 960.923 78.678 960.923 78.118C960.923 77.558 961.357 77.166 961.875 77.166C962.379 77.166 962.799 77.558 962.799 78.118C962.799 78.678 962.379 79.084 961.875 79.084ZM968.127 79.112C965.831 79.112 964.123 77.292 964.123 74.1C964.123 70.908 965.831 69.088 968.127 69.088C970.409 69.088 972.117 70.908 972.117 74.1C972.117 77.292 970.409 79.112 968.127 79.112ZM968.127 77.866C969.653 77.866 970.717 76.606 970.717 74.1C970.717 71.594 969.653 70.334 968.127 70.334C966.587 70.334 965.523 71.594 965.523 74.1C965.523 76.606 966.587 77.866 968.127 77.866ZM977.465 79.112C975.169 79.112 973.461 77.292 973.461 74.1C973.461 70.908 975.169 69.088 977.465 69.088C979.747 69.088 981.455 70.908 981.455 74.1C981.455 77.292 979.747 79.112 977.465 79.112ZM977.465 77.866C978.991 77.866 980.055 76.606 980.055 74.1C980.055 71.594 978.991 70.334 977.465 70.334C975.925 70.334 974.861 71.594 974.861 74.1C974.861 76.606 975.925 77.866 977.465 77.866ZM993.601 77.824H994.735V80.722H993.475V79H987.273V80.722H985.999V77.824H986.391C987.455 77.768 987.637 75.962 987.735 74.086L987.847 71.58H993.601V77.824ZM988.967 74.184C988.911 75.724 988.771 77.236 988.099 77.824H992.257V72.756H989.037L988.967 74.184ZM999.664 79.084C997.438 79.084 995.8 77.502 995.8 75.29C995.8 73.078 997.438 71.51 999.664 71.51C1001.89 71.51 1003.51 73.078 1003.51 75.29C1003.51 77.502 1001.89 79.084 999.664 79.084ZM999.664 77.908C1001.09 77.908 1002.16 76.872 1002.16 75.29C1002.16 73.708 1001.09 72.686 999.664 72.686C998.236 72.686 997.158 73.708 997.158 75.29C997.158 76.872 998.236 77.908 999.664 77.908ZM1008.02 69.2H1011.62V79H1010.24V70.418H1008.02V69.2ZM1013.51 69.2H1020.91V70.152L1016.94 79H1015.46L1019.34 70.418H1014.86V72.168H1013.51V69.2ZM1022.78 73.428C1022.27 73.428 1021.83 73.022 1021.83 72.462C1021.83 71.902 1022.27 71.51 1022.78 71.51C1023.29 71.51 1023.71 71.902 1023.71 72.462C1023.71 73.022 1023.29 73.428 1022.78 73.428ZM1022.78 79.084C1022.27 79.084 1021.83 78.678 1021.83 78.118C1021.83 77.558 1022.27 77.166 1022.78 77.166C1023.29 77.166 1023.71 77.558 1023.71 78.118C1023.71 78.678 1023.29 79.084 1022.78 79.084ZM1029.04 79.112C1026.74 79.112 1025.03 77.292 1025.03 74.1C1025.03 70.908 1026.74 69.088 1029.04 69.088C1031.32 69.088 1033.03 70.908 1033.03 74.1C1033.03 77.292 1031.32 79.112 1029.04 79.112ZM1029.04 77.866C1030.56 77.866 1031.63 76.606 1031.63 74.1C1031.63 71.594 1030.56 70.334 1029.04 70.334C1027.5 70.334 1026.43 71.594 1026.43 74.1C1026.43 76.606 1027.5 77.866 1029.04 77.866ZM1038.37 79.112C1036.08 79.112 1034.37 77.292 1034.37 74.1C1034.37 70.908 1036.08 69.088 1038.37 69.088C1040.66 69.088 1042.36 70.908 1042.36 74.1C1042.36 77.292 1040.66 79.112 1038.37 79.112ZM1038.37 77.866C1039.9 77.866 1040.96 76.606 1040.96 74.1C1040.96 71.594 1039.9 70.334 1038.37 70.334C1036.83 70.334 1035.77 71.594 1035.77 74.1C1035.77 76.606 1036.83 77.866 1038.37 77.866Z" fill="#212121"/>
    <path d="M836 46.4375C830.167 46.4375 825.438 51.1668 825.438 57C825.438 62.8332 830.167 67.5625 836 67.5625C841.833 67.5625 846.562 62.8332 846.562 57C846.562 51.1668 841.833 46.4375 836 46.4375ZM840.875 58.625H836C835.785 58.625 835.578 58.5394 835.425 58.387C835.273 58.2347 835.188 58.028 835.188 57.8125V50.5C835.188 50.2845 835.273 50.0778 835.425 49.9255C835.578 49.7731 835.785 49.6875 836 49.6875C836.215 49.6875 836.422 49.7731 836.575 49.9255C836.727 50.0778 836.812 50.2845 836.812 50.5V57H840.875C841.09 57 841.297 57.0856 841.45 57.238C841.602 57.3903 841.688 57.597 841.688 57.8125C841.688 58.028 841.602 58.2347 841.45 58.387C841.297 58.5394 841.09 58.625 840.875 58.625Z" fill="#212121"/>
    <defs>
        <clipPath id="clip0_130_121">
            <rect width="26" height="34" fill="white" transform="translate(68 37)"/>
        </clipPath>
        <clipPath id="clip1_130_121">
            <rect width="27" height="27" fill="white" transform="translate(460 46)"/>
        </clipPath>
    </defs>
</svg>
