<svg width="973" height="280" viewBox="0 0 973 280" fill="none" xmlns="http://www.w3.org/2000/svg">
    <path d="M427.923 247.672L425.779 247C426.141 245.635 426.589 244.632 427.123 243.992C427.677 243.352 428.424 243.032 429.363 243.032C430.003 243.032 430.845 243.245 431.891 243.672C432.936 244.099 433.619 244.312 433.939 244.312C434.387 244.312 434.728 244.195 434.963 243.96C435.219 243.704 435.464 243.288 435.699 242.712L437.843 243.352C437.48 244.717 437.021 245.731 436.467 246.392C435.933 247.032 435.197 247.352 434.259 247.352C433.619 247.352 432.776 247.139 431.731 246.712C430.685 246.285 430.003 246.072 429.683 246.072C429.235 246.072 428.883 246.2 428.627 246.456C428.392 246.691 428.157 247.096 427.923 247.672ZM441.302 255V251.896L449.014 245.336C450.593 244.013 451.681 242.925 452.278 242.072C452.897 241.197 453.206 240.269 453.206 239.288C453.206 238.221 452.865 237.379 452.182 236.76C451.5 236.12 450.636 235.8 449.59 235.8C448.609 235.8 447.724 236.067 446.934 236.6C446.166 237.133 445.324 237.987 444.406 239.16L441.622 236.984C442.774 235.363 443.958 234.179 445.174 233.432C446.412 232.664 447.98 232.28 449.878 232.28C452.076 232.28 453.857 232.899 455.222 234.136C456.588 235.373 457.27 237.005 457.27 239.032C457.27 239.907 457.164 240.696 456.95 241.4C456.737 242.083 456.353 242.787 455.798 243.512C455.265 244.216 454.678 244.867 454.038 245.464C453.42 246.04 452.556 246.787 451.446 247.704L446.838 251.544H457.494V255H441.302ZM471.385 255V238.104H475.225L480.505 245.944L485.817 238.104H489.657V255H485.753V243.736L480.441 251.32L475.161 243.8V255H471.385ZM502.254 255.384C499.779 255.384 497.71 254.563 496.046 252.92C494.403 251.277 493.582 249.155 493.582 246.552C493.582 244.099 494.361 242.019 495.918 240.312C497.475 238.605 499.449 237.752 501.838 237.752C504.398 237.752 506.382 238.627 507.79 240.376C509.219 242.104 509.934 244.259 509.934 246.84C509.934 247.309 509.913 247.672 509.87 247.928H497.454C497.667 249.272 498.211 250.328 499.086 251.096C499.961 251.843 501.038 252.216 502.318 252.216C503.982 252.216 505.507 251.544 506.894 250.2L509.166 252.216C507.417 254.328 505.113 255.384 502.254 255.384ZM497.422 245.368H506.094C505.966 244.067 505.529 243 504.782 242.168C504.035 241.336 503.043 240.92 501.806 240.92C500.633 240.92 499.651 241.336 498.862 242.168C498.073 242.979 497.593 244.045 497.422 245.368ZM521.631 255.384C519.135 255.384 517.055 254.541 515.391 252.856C513.727 251.149 512.895 249.08 512.895 246.648V246.584C512.895 244.152 513.727 242.072 515.391 240.344C517.076 238.616 519.167 237.752 521.663 237.752C524.393 237.752 526.644 238.723 528.415 240.664L526.015 243.256C524.671 241.848 523.209 241.144 521.631 241.144C520.244 241.144 519.081 241.667 518.143 242.712C517.225 243.757 516.767 245.027 516.767 246.52V246.584C516.767 248.12 517.236 249.411 518.175 250.456C519.135 251.501 520.351 252.024 521.823 252.024C523.38 252.024 524.841 251.32 526.207 249.912L528.543 252.216C527.625 253.24 526.623 254.029 525.535 254.584C524.468 255.117 523.167 255.384 521.631 255.384ZM530.412 255L535.084 248.664C533.889 248.301 532.929 247.693 532.204 246.84C531.5 245.965 531.148 244.888 531.148 243.608C531.148 241.944 531.734 240.611 532.908 239.608C534.081 238.605 535.713 238.104 537.804 238.104H546.284V255H542.412V249.304H538.956L534.956 255H530.412ZM538.348 246.392H542.412V241.24H538.316C537.292 241.24 536.481 241.475 535.884 241.944C535.308 242.392 535.02 243.011 535.02 243.8C535.02 244.611 535.318 245.251 535.916 245.72C536.534 246.168 537.345 246.392 538.348 246.392ZM564.799 259.064V255H551.135V238.104H554.975V251.672H562.271V238.104H566.111V251.672H568.543L568.031 259.064H564.799ZM585.936 255H582.096V252.92C580.731 254.541 578.907 255.352 576.624 255.352C574.939 255.352 573.509 254.893 572.336 253.976C571.184 253.037 570.608 251.736 570.608 250.072C570.608 248.259 571.237 246.883 572.496 245.944C573.755 245.005 575.408 244.536 577.456 244.536C579.099 244.536 580.656 244.771 582.128 245.24V244.92C582.128 243.747 581.765 242.851 581.04 242.232C580.336 241.613 579.312 241.304 577.968 241.304C576.432 241.304 574.821 241.656 573.136 242.36L572.08 239.256C574.171 238.317 576.315 237.848 578.512 237.848C580.965 237.848 582.811 238.467 584.048 239.704C585.307 240.941 585.936 242.701 585.936 244.984V255ZM582.192 248.888V247.928C581.04 247.48 579.749 247.256 578.32 247.256C577.104 247.256 576.155 247.491 575.472 247.96C574.789 248.429 574.448 249.091 574.448 249.944C574.448 250.712 574.757 251.32 575.376 251.768C575.995 252.216 576.773 252.44 577.712 252.44C579.013 252.44 580.08 252.109 580.912 251.448C581.765 250.787 582.192 249.933 582.192 248.888ZM396.712 277.192C395.101 277.192 393.762 276.637 392.696 275.528C391.629 274.408 391.096 273.032 391.096 271.4C391.096 269.789 391.634 268.424 392.712 267.304C393.789 266.173 395.138 265.608 396.76 265.608C397.698 265.608 398.498 265.763 399.16 266.072C399.821 266.371 400.466 266.819 401.096 267.416L400.264 268.312C399.186 267.288 398.013 266.776 396.744 266.776C395.506 266.776 394.472 267.219 393.64 268.104C392.818 268.989 392.408 270.088 392.408 271.4C392.408 272.701 392.824 273.8 393.656 274.696C394.488 275.581 395.517 276.024 396.744 276.024C397.469 276.024 398.109 275.891 398.664 275.624C399.218 275.357 399.784 274.952 400.36 274.408L401.192 275.288C400.562 275.917 399.901 276.392 399.208 276.712C398.514 277.032 397.682 277.192 396.712 277.192ZM403.196 279.56V268.728H404.428V270.392C405.26 269.165 406.316 268.552 407.596 268.552C408.652 268.552 409.575 268.947 410.364 269.736C411.154 270.515 411.548 271.56 411.548 272.872C411.548 274.163 411.154 275.203 410.364 275.992C409.575 276.781 408.652 277.176 407.596 277.176C406.295 277.176 405.239 276.589 404.428 275.416V279.56H403.196ZM407.372 276.072C408.204 276.072 408.898 275.784 409.452 275.208C410.007 274.621 410.284 273.837 410.284 272.856C410.284 271.907 410.002 271.139 409.436 270.552C408.871 269.955 408.183 269.656 407.372 269.656C406.572 269.656 405.874 269.96 405.276 270.568C404.679 271.176 404.38 271.944 404.38 272.872C404.38 273.8 404.679 274.568 405.276 275.176C405.874 275.773 406.572 276.072 407.372 276.072ZM420.685 275.928C419.853 276.771 418.824 277.192 417.597 277.192C416.371 277.192 415.347 276.771 414.525 275.928C413.715 275.085 413.309 274.067 413.309 272.872C413.309 271.688 413.72 270.675 414.541 269.832C415.373 268.979 416.403 268.552 417.629 268.552C418.856 268.552 419.88 268.973 420.701 269.816C421.523 270.659 421.933 271.677 421.933 272.872C421.933 274.056 421.517 275.075 420.685 275.928ZM417.629 276.088C418.515 276.088 419.24 275.779 419.805 275.16C420.381 274.541 420.669 273.779 420.669 272.872C420.669 271.976 420.371 271.213 419.773 270.584C419.187 269.955 418.461 269.64 417.597 269.64C416.712 269.64 415.987 269.955 415.421 270.584C414.856 271.203 414.573 271.965 414.573 272.872C414.573 273.768 414.867 274.531 415.453 275.16C416.04 275.779 416.765 276.088 417.629 276.088ZM424.165 277V268.728H425.397V273.496L429.925 268.728H431.445L427.989 272.312L431.541 277H430.085L427.141 273.208L425.397 275V277H424.165ZM444.904 275.928C444.072 276.771 443.043 277.192 441.816 277.192C440.589 277.192 439.565 276.771 438.744 275.928C437.933 275.085 437.528 274.067 437.528 272.872C437.528 271.688 437.939 270.675 438.76 269.832C439.592 268.979 440.621 268.552 441.848 268.552C443.075 268.552 444.099 268.973 444.92 269.816C445.741 270.659 446.152 271.677 446.152 272.872C446.152 274.056 445.736 275.075 444.904 275.928ZM441.848 276.088C442.733 276.088 443.459 275.779 444.024 275.16C444.6 274.541 444.888 273.779 444.888 272.872C444.888 271.976 444.589 271.213 443.992 270.584C443.405 269.955 442.68 269.64 441.816 269.64C440.931 269.64 440.205 269.955 439.64 270.584C439.075 271.203 438.792 271.965 438.792 272.872C438.792 273.768 439.085 274.531 439.672 275.16C440.259 275.779 440.984 276.088 441.848 276.088ZM447.328 277L450.72 272.264L447.504 268.728H448.992L453.2 273.528V268.728H454.432V273.528L458.64 268.728H460.128L456.912 272.264L460.304 277H458.864L456.112 273.144L454.432 274.984V277H453.2V274.984L451.52 273.144L448.768 277H447.328ZM461.993 277V268.728H463.225V275.272L468.137 268.728H469.337V277H468.105V270.456L463.177 277H461.993ZM470.871 279.064V275.912H471.767C472.503 274.557 472.871 272.643 472.871 270.168V268.728H478.759V275.912H480.007L479.815 279.064H478.791V277H472.103L471.879 279.064H470.871ZM473.079 275.912H477.527V269.816H474.055V270.968C474.055 273.048 473.73 274.696 473.079 275.912ZM484.16 277.176C483.318 277.176 482.592 276.947 481.984 276.488C481.376 276.029 481.072 275.389 481.072 274.568C481.072 273.704 481.392 273.037 482.032 272.568C482.672 272.099 483.531 271.864 484.608 271.864C485.462 271.864 486.304 271.981 487.136 272.216V271.96C487.136 271.235 486.923 270.68 486.496 270.296C486.07 269.912 485.467 269.72 484.688 269.72C483.878 269.72 483.04 269.917 482.176 270.312L481.808 269.304C482.832 268.835 483.835 268.6 484.816 268.6C485.99 268.6 486.88 268.904 487.488 269.512C488.064 270.088 488.352 270.899 488.352 271.944V277H487.136V275.768C486.4 276.707 485.408 277.176 484.16 277.176ZM484.4 276.184C485.168 276.184 485.819 275.976 486.352 275.56C486.886 275.144 487.152 274.611 487.152 273.96V273.192C486.342 272.957 485.536 272.84 484.736 272.84C483.979 272.84 483.387 272.995 482.96 273.304C482.534 273.603 482.32 274.013 482.32 274.536C482.32 275.037 482.518 275.437 482.912 275.736C483.318 276.035 483.814 276.184 484.4 276.184ZM490.962 277V268.728H492.194V272.296H496.962V268.728H498.194V277H496.962V273.384H492.194V277H490.962ZM500.946 277V268.728H502.178V275.272L507.09 268.728H508.29V277H507.058V270.456L502.13 277H500.946ZM510.304 277L512.832 273.8C512.181 273.651 511.648 273.357 511.232 272.92C510.827 272.483 510.624 271.944 510.624 271.304C510.624 270.536 510.901 269.917 511.456 269.448C512.011 268.968 512.773 268.728 513.744 268.728H517.632V277H516.4V273.992H514.112C514.016 274.12 513.685 274.557 513.12 275.304C512.555 276.051 512.123 276.616 511.824 277H510.304ZM513.84 272.952H516.4V269.816H513.808C513.2 269.816 512.72 269.955 512.368 270.232C512.027 270.499 511.856 270.872 511.856 271.352C511.856 271.843 512.037 272.232 512.4 272.52C512.773 272.808 513.253 272.952 513.84 272.952ZM527.645 277.176C526.802 277.176 526.077 276.947 525.469 276.488C524.861 276.029 524.557 275.389 524.557 274.568C524.557 273.704 524.877 273.037 525.517 272.568C526.157 272.099 527.015 271.864 528.093 271.864C528.946 271.864 529.789 271.981 530.621 272.216V271.96C530.621 271.235 530.407 270.68 529.981 270.296C529.554 269.912 528.951 269.72 528.173 269.72C527.362 269.72 526.525 269.917 525.661 270.312L525.293 269.304C526.317 268.835 527.319 268.6 528.301 268.6C529.474 268.6 530.365 268.904 530.973 269.512C531.549 270.088 531.837 270.899 531.837 271.944V277H530.621V275.768C529.885 276.707 528.893 277.176 527.645 277.176ZM527.885 276.184C528.653 276.184 529.303 275.976 529.837 275.56C530.37 275.144 530.637 274.611 530.637 273.96V273.192C529.826 272.957 529.021 272.84 528.221 272.84C527.463 272.84 526.871 272.995 526.445 273.304C526.018 273.603 525.805 274.013 525.805 274.536C525.805 275.037 526.002 275.437 526.397 275.736C526.802 276.035 527.298 276.184 527.885 276.184ZM534.446 277V268.728H538.446C539.268 268.728 539.924 268.915 540.414 269.288C540.905 269.661 541.15 270.163 541.15 270.792C541.15 271.677 540.692 272.312 539.774 272.696C540.99 273.027 541.598 273.709 541.598 274.744C541.598 275.437 541.326 275.987 540.782 276.392C540.238 276.797 539.508 277 538.59 277H534.446ZM535.678 275.944H538.43C539.017 275.944 539.481 275.821 539.822 275.576C540.164 275.331 540.334 274.989 540.334 274.552C540.334 274.147 540.153 273.832 539.79 273.608C539.438 273.384 538.932 273.272 538.27 273.272H535.678V275.944ZM535.678 272.28H538.222C538.734 272.28 539.14 272.168 539.438 271.944C539.748 271.709 539.902 271.379 539.902 270.952C539.902 270.6 539.758 270.317 539.47 270.104C539.182 269.891 538.777 269.784 538.254 269.784H535.678V272.28ZM545.821 277V269.816H542.861V268.728H550.029V269.816H547.069V277H545.821ZM558.685 275.928C557.853 276.771 556.824 277.192 555.597 277.192C554.371 277.192 553.347 276.771 552.525 275.928C551.715 275.085 551.309 274.067 551.309 272.872C551.309 271.688 551.72 270.675 552.541 269.832C553.373 268.979 554.403 268.552 555.629 268.552C556.856 268.552 557.88 268.973 558.701 269.816C559.523 270.659 559.933 271.677 559.933 272.872C559.933 274.056 559.517 275.075 558.685 275.928ZM555.629 276.088C556.515 276.088 557.24 275.779 557.805 275.16C558.381 274.541 558.669 273.779 558.669 272.872C558.669 271.976 558.371 271.213 557.773 270.584C557.187 269.955 556.461 269.64 555.597 269.64C554.712 269.64 553.987 269.955 553.421 270.584C552.856 271.203 552.573 271.965 552.573 272.872C552.573 273.768 552.867 274.531 553.453 275.16C554.04 275.779 554.765 276.088 555.629 276.088ZM562.165 277V268.728H563.333L566.421 273.08L569.509 268.728H570.693V277H569.445V270.696L566.389 274.888L563.365 270.696V277H562.165ZM580.31 275.928C579.478 276.771 578.449 277.192 577.222 277.192C575.996 277.192 574.972 276.771 574.15 275.928C573.34 275.085 572.934 274.067 572.934 272.872C572.934 271.688 573.345 270.675 574.166 269.832C574.998 268.979 576.028 268.552 577.254 268.552C578.481 268.552 579.505 268.973 580.326 269.816C581.148 270.659 581.558 271.677 581.558 272.872C581.558 274.056 581.142 275.075 580.31 275.928ZM577.254 276.088C578.14 276.088 578.865 275.779 579.43 275.16C580.006 274.541 580.294 273.779 580.294 272.872C580.294 271.976 579.996 271.213 579.398 270.584C578.812 269.955 578.086 269.64 577.222 269.64C576.337 269.64 575.612 269.955 575.046 270.584C574.481 271.203 574.198 271.965 574.198 272.872C574.198 273.768 574.492 274.531 575.078 275.16C575.665 275.779 576.39 276.088 577.254 276.088ZM587.678 277.192C586.409 277.192 585.39 276.776 584.622 275.944C583.865 275.101 583.486 273.965 583.486 272.536C583.486 272.013 583.497 271.571 583.518 271.208C583.539 270.835 583.582 270.424 583.646 269.976C583.71 269.528 583.811 269.144 583.95 268.824C584.089 268.504 584.265 268.189 584.478 267.88C584.702 267.571 584.99 267.309 585.342 267.096C585.694 266.883 586.105 266.723 586.574 266.616L591.182 265.528L591.422 266.568L586.942 267.672C586.11 267.885 585.513 268.227 585.15 268.696C584.798 269.155 584.59 269.795 584.526 270.616C585.23 269.421 586.371 268.824 587.95 268.824C589.038 268.824 589.971 269.229 590.75 270.04C591.529 270.84 591.918 271.805 591.918 272.936C591.918 274.109 591.513 275.112 590.702 275.944C589.891 276.776 588.883 277.192 587.678 277.192ZM587.71 276.088C588.553 276.088 589.251 275.789 589.806 275.192C590.361 274.584 590.638 273.843 590.638 272.968C590.638 272.104 590.35 271.368 589.774 270.76C589.209 270.152 588.51 269.848 587.678 269.848C586.835 269.848 586.137 270.152 585.582 270.76C585.027 271.357 584.75 272.093 584.75 272.968C584.75 273.832 585.033 274.568 585.598 275.176C586.174 275.784 586.878 276.088 587.71 276.088ZM594.149 277V268.728H595.381V275.272L600.293 268.728H601.493V277H600.261V270.456L595.333 277H594.149ZM603.843 277.128C603.523 277.128 603.193 277.085 602.851 277L602.995 275.944C603.241 276.019 603.438 276.056 603.587 276.056C603.822 276.056 604.014 276.029 604.163 275.976C604.313 275.912 604.473 275.757 604.643 275.512C604.825 275.256 604.963 274.899 605.059 274.44C605.155 273.981 605.235 273.331 605.299 272.488C605.374 271.645 605.411 270.621 605.411 269.416V268.728H611.267V277H610.035V269.816H606.579V270.008C606.579 271.267 606.531 272.339 606.435 273.224C606.339 274.109 606.217 274.803 606.067 275.304C605.929 275.805 605.731 276.195 605.475 276.472C605.219 276.749 604.969 276.925 604.723 277C604.489 277.085 604.195 277.128 603.843 277.128ZM613.288 277L615.816 273.8C615.166 273.651 614.632 273.357 614.216 272.92C613.811 272.483 613.608 271.944 613.608 271.304C613.608 270.536 613.886 269.917 614.44 269.448C614.995 268.968 615.758 268.728 616.728 268.728H620.616V277H619.384V273.992H617.096C617 274.12 616.67 274.557 616.104 275.304C615.539 276.051 615.107 276.616 614.808 277H613.288ZM616.824 272.952H619.384V269.816H616.792C616.184 269.816 615.704 269.955 615.352 270.232C615.011 270.499 614.84 270.872 614.84 271.352C614.84 271.843 615.022 272.232 615.384 272.52C615.758 272.808 616.238 272.952 616.824 272.952Z" fill="#212121"/>
    <path d="M1.61969 136V124.8H6.64369C7.93435 124.8 8.91035 125.131 9.57169 125.792C10.073 126.293 10.3237 126.923 10.3237 127.68C10.3237 128.789 9.79035 129.621 8.72369 130.176C10.2064 130.677 10.9477 131.595 10.9477 132.928C10.9477 133.909 10.5744 134.667 9.82769 135.2C9.08102 135.733 8.07302 136 6.80369 136H1.61969ZM3.55569 129.52H6.24369C6.89435 129.52 7.40635 129.392 7.77969 129.136C8.16369 128.869 8.35569 128.48 8.35569 127.968C8.35569 127.52 8.18502 127.173 7.84369 126.928C7.50235 126.672 7.01702 126.544 6.38769 126.544H3.55569V129.52ZM3.55569 134.256H6.81969C7.50235 134.256 8.03035 134.123 8.40369 133.856C8.78769 133.589 8.97969 133.2 8.97969 132.688C8.97969 131.685 8.21169 131.184 6.67569 131.184H3.55569V134.256ZM12.9426 136V127.552H14.8786V130.512H16.6546C17.6572 130.512 18.4679 130.736 19.0866 131.184C19.7052 131.632 20.0146 132.299 20.0146 133.184C20.0146 134.059 19.7266 134.747 19.1506 135.248C18.5746 135.749 17.7906 136 16.7986 136H12.9426ZM14.8786 134.432H16.5426C17.0332 134.432 17.4119 134.325 17.6786 134.112C17.9452 133.899 18.0786 133.589 18.0786 133.184C18.0786 132.811 17.9399 132.523 17.6626 132.32C17.3959 132.117 17.0119 132.016 16.5106 132.016H14.8786V134.432ZM21.2946 136V127.552H23.2306V136H21.2946ZM29.7893 134.512C30.504 134.512 31.0853 134.267 31.5333 133.776C31.992 133.275 32.2213 132.656 32.2213 131.92C32.2213 131.195 31.9813 130.581 31.5013 130.08C31.032 129.568 30.4506 129.312 29.7573 129.312C29.0533 129.312 28.472 129.563 28.0133 130.064C27.5653 130.565 27.3413 131.184 27.3413 131.92C27.3413 132.645 27.576 133.259 28.0453 133.76C28.5146 134.261 29.096 134.512 29.7893 134.512ZM29.7573 136.192C28.392 136.192 27.3253 135.76 26.5573 134.896C25.7893 134.032 25.4053 132.821 25.4053 131.264C25.4053 130.763 25.416 130.325 25.4373 129.952C25.4693 129.568 25.5226 129.157 25.5973 128.72C25.672 128.272 25.784 127.883 25.9333 127.552C26.0933 127.221 26.2906 126.907 26.5253 126.608C26.7706 126.299 27.08 126.043 27.4533 125.84C27.8373 125.627 28.28 125.467 28.7813 125.36L33.3893 124.4L33.7093 125.952L29.1013 126.96C28.3333 127.12 27.784 127.408 27.4533 127.824C27.1226 128.229 26.9306 128.741 26.8773 129.36C27.1333 128.933 27.5333 128.565 28.0773 128.256C28.632 127.936 29.3146 127.776 30.1253 127.776C31.224 127.776 32.168 128.176 32.9573 128.976C33.7573 129.765 34.1573 130.736 34.1573 131.888C34.1573 133.072 33.736 134.085 32.8933 134.928C32.0613 135.771 31.016 136.192 29.7573 136.192ZM40.1461 136.192C38.8661 136.192 37.7994 135.765 36.9461 134.912C36.0927 134.059 35.6661 133.019 35.6661 131.792C35.6661 130.565 36.0981 129.525 36.9621 128.672C37.8261 127.808 38.8981 127.376 40.1781 127.376C41.4581 127.376 42.5247 127.803 43.3781 128.656C44.2421 129.509 44.6741 130.555 44.6741 131.792C44.6741 133.008 44.2421 134.048 43.3781 134.912C42.5141 135.765 41.4367 136.192 40.1461 136.192ZM40.1781 134.512C40.9461 134.512 41.5647 134.251 42.0341 133.728C42.5034 133.205 42.7381 132.56 42.7381 131.792C42.7381 131.035 42.4927 130.395 42.0021 129.872C41.5114 129.339 40.8927 129.072 40.1461 129.072C39.3887 129.072 38.7754 129.333 38.3061 129.856C37.8367 130.379 37.6021 131.024 37.6021 131.792C37.6021 132.539 37.8474 133.179 38.3381 133.712C38.8287 134.245 39.4421 134.512 40.1781 134.512ZM46.6457 138.56V127.552H48.5817V128.96C49.3284 127.904 50.283 127.376 51.4457 127.376C52.5124 127.376 53.435 127.776 54.2137 128.576C54.9924 129.365 55.3817 130.437 55.3817 131.792C55.3817 133.125 54.9924 134.192 54.2137 134.992C53.435 135.781 52.5124 136.176 51.4457 136.176C50.283 136.176 49.3284 135.68 48.5817 134.688V138.56H46.6457ZM50.9977 134.496C51.6804 134.496 52.251 134.245 52.7097 133.744C53.179 133.243 53.4137 132.581 53.4137 131.76C53.4137 130.96 53.179 130.309 52.7097 129.808C52.2404 129.307 51.6697 129.056 50.9977 129.056C50.3257 129.056 49.7444 129.312 49.2537 129.824C48.7737 130.336 48.5337 130.992 48.5337 131.792C48.5337 132.581 48.7737 133.232 49.2537 133.744C49.7444 134.245 50.3257 134.496 50.9977 134.496ZM62.1613 136V127.552H69.6973V136H67.7613V129.216H64.0973V136H62.1613ZM76.1461 136.192C74.8661 136.192 73.7994 135.765 72.9461 134.912C72.0927 134.059 71.6661 133.019 71.6661 131.792C71.6661 130.565 72.0981 129.525 72.9621 128.672C73.8261 127.808 74.8981 127.376 76.1781 127.376C77.4581 127.376 78.5247 127.803 79.3781 128.656C80.2421 129.509 80.6741 130.555 80.6741 131.792C80.6741 133.008 80.2421 134.048 79.3781 134.912C78.5141 135.765 77.4367 136.192 76.1461 136.192ZM76.1781 134.512C76.9461 134.512 77.5647 134.251 78.0341 133.728C78.5034 133.205 78.7381 132.56 78.7381 131.792C78.7381 131.035 78.4927 130.395 78.0021 129.872C77.5114 129.339 76.8927 129.072 76.1461 129.072C75.3887 129.072 74.7754 129.333 74.3061 129.856C73.8367 130.379 73.6021 131.024 73.6021 131.792C73.6021 132.539 73.8474 133.179 74.3381 133.712C74.8287 134.245 75.4421 134.512 76.1781 134.512ZM81.6697 138.032V134.336H82.5817C83.211 133.077 83.5257 131.163 83.5257 128.592V127.552H90.0697V134.336H91.2697L91.0137 138.032H89.3977V136H83.4777L83.2857 138.032H81.6697ZM84.5657 134.336H88.1337V129.216H85.3497V130.336C85.3497 131.904 85.0884 133.237 84.5657 134.336ZM92.1441 136L95.2481 131.712L92.2561 127.552H94.3681L96.3201 130.336L98.2721 127.552H100.336L97.3441 131.664L100.464 136H98.3521L96.2721 133.04L94.2081 136H92.1441ZM106.177 136.192C104.897 136.192 103.831 135.765 102.977 134.912C102.124 134.059 101.697 133.019 101.697 131.792C101.697 130.565 102.129 129.525 102.993 128.672C103.857 127.808 104.929 127.376 106.209 127.376C107.489 127.376 108.556 127.803 109.409 128.656C110.273 129.509 110.705 130.555 110.705 131.792C110.705 133.008 110.273 134.048 109.409 134.912C108.545 135.765 107.468 136.192 106.177 136.192ZM106.209 134.512C106.977 134.512 107.596 134.251 108.065 133.728C108.535 133.205 108.769 132.56 108.769 131.792C108.769 131.035 108.524 130.395 108.033 129.872C107.543 129.339 106.924 129.072 106.177 129.072C105.42 129.072 104.807 129.333 104.337 129.856C103.868 130.379 103.633 131.024 103.633 131.792C103.633 132.539 103.879 133.179 104.369 133.712C104.86 134.245 105.473 134.512 106.209 134.512ZM111.701 138.032V134.336H112.613C113.242 133.077 113.557 131.163 113.557 128.592V127.552H120.101V134.336H121.301L121.045 138.032H119.429V136H113.509L113.317 138.032H111.701ZM114.597 134.336H118.165V129.216H115.381V130.336C115.381 131.904 115.12 133.237 114.597 134.336ZM122.143 136L124.479 132.832C123.882 132.651 123.402 132.347 123.039 131.92C122.687 131.483 122.511 130.944 122.511 130.304C122.511 129.472 122.805 128.805 123.391 128.304C123.978 127.803 124.794 127.552 125.839 127.552H130.079V136H128.143V133.152H126.415L124.415 136H122.143ZM126.111 131.696H128.143V129.12H126.095C125.583 129.12 125.178 129.237 124.879 129.472C124.591 129.696 124.447 130.005 124.447 130.4C124.447 130.805 124.597 131.125 124.895 131.36C125.205 131.584 125.61 131.696 126.111 131.696ZM143.881 138.032V136H132.505V127.552H134.441V134.336H137.561V127.552H139.481V134.336H142.601V127.552H144.537V134.336H145.737L145.497 138.032H143.881ZM151.221 136.192C149.983 136.192 148.949 135.781 148.117 134.96C147.295 134.139 146.885 133.077 146.885 131.776C146.885 130.549 147.274 129.509 148.053 128.656C148.831 127.803 149.818 127.376 151.013 127.376C152.293 127.376 153.285 127.813 153.989 128.688C154.703 129.552 155.061 130.629 155.061 131.92C155.061 132.155 155.05 132.336 155.029 132.464H148.821C148.927 133.136 149.199 133.664 149.637 134.048C150.074 134.421 150.613 134.608 151.253 134.608C152.085 134.608 152.847 134.272 153.541 133.6L154.677 134.608C153.802 135.664 152.65 136.192 151.221 136.192ZM148.805 131.184H153.141C153.077 130.533 152.858 130 152.485 129.584C152.111 129.168 151.615 128.96 150.997 128.96C150.41 128.96 149.919 129.168 149.525 129.584C149.13 129.989 148.89 130.523 148.805 131.184ZM157.005 136V127.552H162.989V129.216H158.941V136H157.005ZM168.537 136.192C167.257 136.192 166.19 135.765 165.337 134.912C164.483 134.059 164.057 133.019 164.057 131.792C164.057 130.565 164.489 129.525 165.353 128.672C166.217 127.808 167.289 127.376 168.569 127.376C169.849 127.376 170.915 127.803 171.769 128.656C172.633 129.509 173.065 130.555 173.065 131.792C173.065 133.008 172.633 134.048 171.769 134.912C170.905 135.765 169.827 136.192 168.537 136.192ZM168.569 134.512C169.337 134.512 169.955 134.251 170.425 133.728C170.894 133.205 171.129 132.56 171.129 131.792C171.129 131.035 170.883 130.395 170.393 129.872C169.902 129.339 169.283 129.072 168.537 129.072C167.779 129.072 167.166 129.333 166.697 129.856C166.227 130.379 165.993 131.024 165.993 131.792C165.993 132.539 166.238 133.179 166.729 133.712C167.219 134.245 167.833 134.512 168.569 134.512ZM45.4993 158H43.5793V156.96C42.8966 157.771 41.9846 158.176 40.8433 158.176C40.0006 158.176 39.286 157.947 38.6993 157.488C38.1233 157.019 37.8353 156.368 37.8353 155.536C37.8353 154.629 38.15 153.941 38.7793 153.472C39.4086 153.003 40.2353 152.768 41.2593 152.768C42.0806 152.768 42.8593 152.885 43.5953 153.12V152.96C43.5953 152.373 43.414 151.925 43.0513 151.616C42.6993 151.307 42.1873 151.152 41.5153 151.152C40.7473 151.152 39.942 151.328 39.0993 151.68L38.5713 150.128C39.6166 149.659 40.6886 149.424 41.7873 149.424C43.014 149.424 43.9366 149.733 44.5553 150.352C45.1846 150.971 45.4993 151.851 45.4993 152.992V158ZM43.6273 154.944V154.464C43.0513 154.24 42.406 154.128 41.6913 154.128C41.0833 154.128 40.6086 154.245 40.2673 154.48C39.926 154.715 39.7553 155.045 39.7553 155.472C39.7553 155.856 39.91 156.16 40.2193 156.384C40.5286 156.608 40.918 156.72 41.3873 156.72C42.038 156.72 42.5713 156.555 42.9873 156.224C43.414 155.893 43.6273 155.467 43.6273 154.944ZM47.8019 158V149.552H52.1379C52.9806 149.552 53.6526 149.744 54.1539 150.128C54.6659 150.501 54.9219 151.013 54.9219 151.664C54.9219 152.549 54.4686 153.195 53.5619 153.6C54.7246 153.931 55.3059 154.635 55.3059 155.712C55.3059 156.427 55.0233 156.987 54.4579 157.392C53.9033 157.797 53.1459 158 52.1859 158H47.8019ZM49.7059 156.464H51.8979C52.3566 156.464 52.7086 156.368 52.9539 156.176C53.2099 155.973 53.3379 155.707 53.3379 155.376C53.3379 155.056 53.2046 154.805 52.9379 154.624C52.6819 154.443 52.3033 154.352 51.8019 154.352H49.7059V156.464ZM49.7059 153.04H51.6899C52.0846 153.04 52.3939 152.944 52.6179 152.752C52.8419 152.56 52.9539 152.309 52.9539 152C52.9539 151.712 52.8526 151.483 52.6499 151.312C52.4473 151.131 52.1379 151.04 51.7219 151.04H49.7059V153.04ZM59.0474 158V151.216H56.3274V149.552H63.7194V151.216H60.9994V158H59.0474ZM69.2711 158.192C67.9911 158.192 66.9244 157.765 66.0711 156.912C65.2177 156.059 64.7911 155.019 64.7911 153.792C64.7911 152.565 65.2231 151.525 66.0871 150.672C66.9511 149.808 68.0231 149.376 69.3031 149.376C70.5831 149.376 71.6497 149.803 72.5031 150.656C73.3671 151.509 73.7991 152.555 73.7991 153.792C73.7991 155.008 73.3671 156.048 72.5031 156.912C71.6391 157.765 70.5617 158.192 69.2711 158.192ZM69.3031 156.512C70.0711 156.512 70.6897 156.251 71.1591 155.728C71.6284 155.205 71.8631 154.56 71.8631 153.792C71.8631 153.035 71.6177 152.395 71.1271 151.872C70.6364 151.339 70.0177 151.072 69.2711 151.072C68.5137 151.072 67.9004 151.333 67.4311 151.856C66.9617 152.379 66.7271 153.024 66.7271 153.792C66.7271 154.539 66.9724 155.179 67.4631 155.712C67.9537 156.245 68.5671 156.512 69.3031 156.512ZM75.7707 158V149.552H77.6907L80.3307 153.472L82.9867 149.552H84.9067V158H82.9547V152.368L80.2987 156.16L77.6587 152.4V158H75.7707ZM91.3492 158.192C90.0692 158.192 89.0025 157.765 88.1492 156.912C87.2959 156.059 86.8692 155.019 86.8692 153.792C86.8692 152.565 87.3012 151.525 88.1652 150.672C89.0292 149.808 90.1012 149.376 91.3812 149.376C92.6612 149.376 93.7279 149.803 94.5812 150.656C95.4452 151.509 95.8772 152.555 95.8772 153.792C95.8772 155.008 95.4452 156.048 94.5812 156.912C93.7172 157.765 92.6399 158.192 91.3492 158.192ZM91.3812 156.512C92.1492 156.512 92.7679 156.251 93.2372 155.728C93.7065 155.205 93.9412 154.56 93.9412 153.792C93.9412 153.035 93.6959 152.395 93.2052 151.872C92.7145 151.339 92.0959 151.072 91.3492 151.072C90.5919 151.072 89.9785 151.333 89.5092 151.856C89.0399 152.379 88.8052 153.024 88.8052 153.792C88.8052 154.539 89.0505 155.179 89.5412 155.712C90.0319 156.245 90.6452 156.512 91.3812 156.512ZM101.977 156.512C102.691 156.512 103.273 156.267 103.721 155.776C104.179 155.275 104.409 154.656 104.409 153.92C104.409 153.195 104.169 152.581 103.689 152.08C103.219 151.568 102.638 151.312 101.945 151.312C101.241 151.312 100.659 151.563 100.201 152.064C99.7528 152.565 99.5288 153.184 99.5288 153.92C99.5288 154.645 99.7635 155.259 100.233 155.76C100.702 156.261 101.283 156.512 101.977 156.512ZM101.945 158.192C100.579 158.192 99.5128 157.76 98.7448 156.896C97.9768 156.032 97.5928 154.821 97.5928 153.264C97.5928 152.763 97.6035 152.325 97.6248 151.952C97.6568 151.568 97.7101 151.157 97.7848 150.72C97.8595 150.272 97.9715 149.883 98.1208 149.552C98.2808 149.221 98.4781 148.907 98.7128 148.608C98.9581 148.299 99.2675 148.043 99.6408 147.84C100.025 147.627 100.467 147.467 100.969 147.36L105.577 146.4L105.897 147.952L101.289 148.96C100.521 149.12 99.9715 149.408 99.6408 149.824C99.3101 150.229 99.1181 150.741 99.0648 151.36C99.3208 150.933 99.7208 150.565 100.265 150.256C100.819 149.936 101.502 149.776 102.313 149.776C103.411 149.776 104.355 150.176 105.145 150.976C105.945 151.765 106.345 152.736 106.345 153.888C106.345 155.072 105.923 156.085 105.081 156.928C104.249 157.771 103.203 158.192 101.945 158.192ZM108.318 158V149.552H110.206V155.216C111.976 152.699 113.31 150.811 114.206 149.552H116.03V158H114.158V152.368L110.142 158H108.318ZM118.394 158.096C118.085 158.096 117.706 158.059 117.258 157.984L117.402 156.4C117.573 156.443 117.76 156.464 117.962 156.464C118.186 156.464 118.368 156.432 118.506 156.368C118.656 156.304 118.805 156.144 118.954 155.888C119.114 155.621 119.237 155.248 119.322 154.768C119.408 154.288 119.477 153.616 119.53 152.752C119.584 151.877 119.61 150.811 119.61 149.552H125.994V158H124.058V151.216H121.418C121.418 152.421 121.37 153.445 121.274 154.288C121.178 155.131 121.05 155.797 120.89 156.288C120.741 156.779 120.528 157.163 120.25 157.44C119.984 157.707 119.712 157.883 119.434 157.968C119.157 158.053 118.81 158.096 118.394 158.096ZM127.659 158L129.995 154.832C129.398 154.651 128.918 154.347 128.555 153.92C128.203 153.483 128.027 152.944 128.027 152.304C128.027 151.472 128.32 150.805 128.907 150.304C129.494 149.803 130.31 149.552 131.355 149.552H135.595V158H133.659V155.152H131.931L129.931 158H127.659ZM131.627 153.696H133.659V151.12H131.611C131.099 151.12 130.694 151.237 130.395 151.472C130.107 151.696 129.963 152.005 129.963 152.4C129.963 152.805 130.112 153.125 130.411 153.36C130.72 153.584 131.126 153.696 131.627 153.696Z" fill="#212121"/>
    <path d="M280.542 136V124.8H289.678V136H287.71V126.576H282.51V136H280.542ZM296.349 136.192C295.069 136.192 294.003 135.765 293.149 134.912C292.296 134.059 291.869 133.019 291.869 131.792C291.869 130.565 292.301 129.525 293.165 128.672C294.029 127.808 295.101 127.376 296.381 127.376C297.661 127.376 298.728 127.803 299.581 128.656C300.445 129.509 300.877 130.555 300.877 131.792C300.877 133.008 300.445 134.048 299.581 134.912C298.717 135.765 297.64 136.192 296.349 136.192ZM296.381 134.512C297.149 134.512 297.768 134.251 298.237 133.728C298.707 133.205 298.941 132.56 298.941 131.792C298.941 131.035 298.696 130.395 298.205 129.872C297.715 129.339 297.096 129.072 296.349 129.072C295.592 129.072 294.979 129.333 294.509 129.856C294.04 130.379 293.805 131.024 293.805 131.792C293.805 132.539 294.051 133.179 294.541 133.712C295.032 134.245 295.645 134.512 296.381 134.512ZM302.849 136V127.552H304.769V131.6L308.449 127.552H310.721L307.441 131.104L310.993 136H308.705L306.145 132.512L304.769 133.968V136H302.849ZM314.061 138.608C313.357 138.608 312.691 138.437 312.061 138.096L312.717 136.656C313.112 136.869 313.491 136.976 313.853 136.976C314.131 136.976 314.36 136.901 314.541 136.752C314.723 136.613 314.893 136.363 315.053 136L311.533 127.552H313.597L315.997 133.824L318.189 127.552H320.205L316.845 136.24C316.504 137.104 316.125 137.712 315.709 138.064C315.293 138.427 314.744 138.608 314.061 138.608ZM321.864 136V127.552H329.4V136H327.464V129.216H323.8V136H321.864ZM331.833 136V127.552H333.753V131.6L337.433 127.552H339.705L336.425 131.104L339.977 136H337.689L335.129 132.512L333.753 133.968V136H331.833ZM348.406 136H346.486V134.96C345.803 135.771 344.891 136.176 343.75 136.176C342.907 136.176 342.192 135.947 341.606 135.488C341.03 135.019 340.742 134.368 340.742 133.536C340.742 132.629 341.056 131.941 341.686 131.472C342.315 131.003 343.142 130.768 344.166 130.768C344.987 130.768 345.766 130.885 346.502 131.12V130.96C346.502 130.373 346.32 129.925 345.958 129.616C345.606 129.307 345.094 129.152 344.422 129.152C343.654 129.152 342.848 129.328 342.006 129.68L341.478 128.128C342.523 127.659 343.595 127.424 344.694 127.424C345.92 127.424 346.843 127.733 347.462 128.352C348.091 128.971 348.406 129.851 348.406 130.992V136ZM346.534 132.944V132.464C345.958 132.24 345.312 132.128 344.598 132.128C343.99 132.128 343.515 132.245 343.174 132.48C342.832 132.715 342.662 133.045 342.662 133.472C342.662 133.856 342.816 134.16 343.126 134.384C343.435 134.608 343.824 134.72 344.294 134.72C344.944 134.72 345.478 134.555 345.894 134.224C346.32 133.893 346.534 133.467 346.534 132.944ZM362.593 136H360.673V134.96C359.99 135.771 359.078 136.176 357.937 136.176C357.094 136.176 356.38 135.947 355.793 135.488C355.217 135.019 354.929 134.368 354.929 133.536C354.929 132.629 355.244 131.941 355.873 131.472C356.502 131.003 357.329 130.768 358.353 130.768C359.174 130.768 359.953 130.885 360.689 131.12V130.96C360.689 130.373 360.508 129.925 360.145 129.616C359.793 129.307 359.281 129.152 358.609 129.152C357.841 129.152 357.036 129.328 356.193 129.68L355.665 128.128C356.71 127.659 357.782 127.424 358.881 127.424C360.108 127.424 361.03 127.733 361.649 128.352C362.278 128.971 362.593 129.851 362.593 130.992V136ZM360.721 132.944V132.464C360.145 132.24 359.5 132.128 358.785 132.128C358.177 132.128 357.702 132.245 357.361 132.48C357.02 132.715 356.849 133.045 356.849 133.472C356.849 133.856 357.004 134.16 357.313 134.384C357.622 134.608 358.012 134.72 358.481 134.72C359.132 134.72 359.665 134.555 360.081 134.224C360.508 133.893 360.721 133.467 360.721 132.944ZM364.896 136V127.552H369.232C370.074 127.552 370.746 127.744 371.248 128.128C371.76 128.501 372.016 129.013 372.016 129.664C372.016 130.549 371.562 131.195 370.656 131.6C371.818 131.931 372.4 132.635 372.4 133.712C372.4 134.427 372.117 134.987 371.552 135.392C370.997 135.797 370.24 136 369.28 136H364.896ZM366.8 134.464H368.992C369.45 134.464 369.802 134.368 370.048 134.176C370.304 133.973 370.432 133.707 370.432 133.376C370.432 133.056 370.298 132.805 370.032 132.624C369.776 132.443 369.397 132.352 368.896 132.352H366.8V134.464ZM366.8 131.04H368.784C369.178 131.04 369.488 130.944 369.712 130.752C369.936 130.56 370.048 130.309 370.048 130C370.048 129.712 369.946 129.483 369.744 129.312C369.541 129.131 369.232 129.04 368.816 129.04H366.8V131.04ZM376.141 136V129.216H373.421V127.552H380.813V129.216H378.093V136H376.141ZM386.365 136.192C385.085 136.192 384.018 135.765 383.165 134.912C382.311 134.059 381.885 133.019 381.885 131.792C381.885 130.565 382.317 129.525 383.181 128.672C384.045 127.808 385.117 127.376 386.397 127.376C387.677 127.376 388.743 127.803 389.597 128.656C390.461 129.509 390.893 130.555 390.893 131.792C390.893 133.008 390.461 134.048 389.597 134.912C388.733 135.765 387.655 136.192 386.365 136.192ZM386.397 134.512C387.165 134.512 387.783 134.251 388.253 133.728C388.722 133.205 388.957 132.56 388.957 131.792C388.957 131.035 388.711 130.395 388.221 129.872C387.73 129.339 387.111 129.072 386.365 129.072C385.607 129.072 384.994 129.333 384.525 129.856C384.055 130.379 383.821 131.024 383.821 131.792C383.821 132.539 384.066 133.179 384.557 133.712C385.047 134.245 385.661 134.512 386.397 134.512ZM392.864 136V127.552H394.784L397.424 131.472L400.08 127.552H402V136H400.048V130.368L397.392 134.16L394.752 130.4V136H392.864ZM408.443 136.192C407.163 136.192 406.096 135.765 405.243 134.912C404.39 134.059 403.963 133.019 403.963 131.792C403.963 130.565 404.395 129.525 405.259 128.672C406.123 127.808 407.195 127.376 408.475 127.376C409.755 127.376 410.822 127.803 411.675 128.656C412.539 129.509 412.971 130.555 412.971 131.792C412.971 133.008 412.539 134.048 411.675 134.912C410.811 135.765 409.734 136.192 408.443 136.192ZM408.475 134.512C409.243 134.512 409.862 134.251 410.331 133.728C410.8 133.205 411.035 132.56 411.035 131.792C411.035 131.035 410.79 130.395 410.299 129.872C409.808 129.339 409.19 129.072 408.443 129.072C407.686 129.072 407.072 129.333 406.603 129.856C406.134 130.379 405.899 131.024 405.899 131.792C405.899 132.539 406.144 133.179 406.635 133.712C407.126 134.245 407.739 134.512 408.475 134.512ZM419.071 134.512C419.785 134.512 420.367 134.267 420.815 133.776C421.273 133.275 421.503 132.656 421.503 131.92C421.503 131.195 421.263 130.581 420.783 130.08C420.313 129.568 419.732 129.312 419.039 129.312C418.335 129.312 417.753 129.563 417.295 130.064C416.847 130.565 416.623 131.184 416.623 131.92C416.623 132.645 416.857 133.259 417.327 133.76C417.796 134.261 418.377 134.512 419.071 134.512ZM419.039 136.192C417.673 136.192 416.607 135.76 415.839 134.896C415.071 134.032 414.687 132.821 414.687 131.264C414.687 130.763 414.697 130.325 414.719 129.952C414.751 129.568 414.804 129.157 414.879 128.72C414.953 128.272 415.065 127.883 415.215 127.552C415.375 127.221 415.572 126.907 415.807 126.608C416.052 126.299 416.361 126.043 416.735 125.84C417.119 125.627 417.561 125.467 418.063 125.36L422.671 124.4L422.991 125.952L418.383 126.96C417.615 127.12 417.065 127.408 416.735 127.824C416.404 128.229 416.212 128.741 416.159 129.36C416.415 128.933 416.815 128.565 417.359 128.256C417.913 127.936 418.596 127.776 419.407 127.776C420.505 127.776 421.449 128.176 422.239 128.976C423.039 129.765 423.439 130.736 423.439 131.888C423.439 133.072 423.017 134.085 422.175 134.928C421.343 135.771 420.297 136.192 419.039 136.192ZM425.411 136V127.552H427.299V133.216C429.07 130.699 430.403 128.811 431.299 127.552H433.123V136H431.251V130.368L427.235 136H425.411ZM435.488 136.096C435.179 136.096 434.8 136.059 434.352 135.984L434.496 134.4C434.667 134.443 434.853 134.464 435.056 134.464C435.28 134.464 435.461 134.432 435.6 134.368C435.749 134.304 435.899 134.144 436.048 133.888C436.208 133.621 436.331 133.248 436.416 132.768C436.501 132.288 436.571 131.616 436.624 130.752C436.677 129.877 436.704 128.811 436.704 127.552H443.088V136H441.152V129.216H438.512C438.512 130.421 438.464 131.445 438.368 132.288C438.272 133.131 438.144 133.797 437.984 134.288C437.835 134.779 437.621 135.163 437.344 135.44C437.077 135.707 436.805 135.883 436.528 135.968C436.251 136.053 435.904 136.096 435.488 136.096ZM444.753 136L447.089 132.832C446.491 132.651 446.011 132.347 445.649 131.92C445.297 131.483 445.121 130.944 445.121 130.304C445.121 129.472 445.414 128.805 446.001 128.304C446.587 127.803 447.403 127.552 448.449 127.552H452.689V136H450.753V133.152H449.025L447.025 136H444.753ZM448.721 131.696H450.753V129.12H448.705C448.193 129.12 447.787 129.237 447.489 129.472C447.201 129.696 447.057 130.005 447.057 130.4C447.057 130.805 447.206 131.125 447.505 131.36C447.814 131.584 448.219 131.696 448.721 131.696ZM321.135 158.192C319.684 158.192 318.452 157.76 317.439 156.896L318.351 155.616C319.14 156.288 320.026 156.624 321.007 156.624C321.455 156.624 321.834 156.517 322.143 156.304C322.452 156.08 322.607 155.797 322.607 155.456C322.607 155.136 322.458 154.88 322.159 154.688C321.86 154.496 321.439 154.4 320.895 154.4H319.855V153.008H320.895C321.343 153.008 321.7 152.907 321.967 152.704C322.244 152.491 322.383 152.224 322.383 151.904C322.383 151.616 322.25 151.387 321.983 151.216C321.727 151.035 321.396 150.944 320.991 150.944C320.052 150.944 319.252 151.232 318.591 151.808L317.727 150.592C318.655 149.781 319.802 149.376 321.167 149.376C322.095 149.376 322.852 149.589 323.439 150.016C324.026 150.443 324.319 150.987 324.319 151.648C324.319 152.544 323.876 153.184 322.991 153.568C324.015 153.931 324.527 154.613 324.527 155.616C324.527 156.341 324.212 156.955 323.583 157.456C322.954 157.947 322.138 158.192 321.135 158.192ZM333.624 158H331.704V156.96C331.022 157.771 330.11 158.176 328.968 158.176C328.126 158.176 327.411 157.947 326.824 157.488C326.248 157.019 325.96 156.368 325.96 155.536C325.96 154.629 326.275 153.941 326.904 153.472C327.534 153.003 328.36 152.768 329.384 152.768C330.206 152.768 330.984 152.885 331.72 153.12V152.96C331.72 152.373 331.539 151.925 331.176 151.616C330.824 151.307 330.312 151.152 329.64 151.152C328.872 151.152 328.067 151.328 327.224 151.68L326.696 150.128C327.742 149.659 328.814 149.424 329.912 149.424C331.139 149.424 332.062 149.733 332.68 150.352C333.31 150.971 333.624 151.851 333.624 152.992V158ZM331.752 154.944V154.464C331.176 154.24 330.531 154.128 329.816 154.128C329.208 154.128 328.734 154.245 328.392 154.48C328.051 154.715 327.88 155.045 327.88 155.472C327.88 155.856 328.035 156.16 328.344 156.384C328.654 156.608 329.043 156.72 329.512 156.72C330.163 156.72 330.696 156.555 331.112 156.224C331.539 155.893 331.752 155.467 331.752 154.944ZM340.724 160.56V149.552H342.66V150.96C343.406 149.904 344.361 149.376 345.524 149.376C346.59 149.376 347.513 149.776 348.292 150.576C349.07 151.365 349.46 152.437 349.46 153.792C349.46 155.125 349.07 156.192 348.292 156.992C347.513 157.781 346.59 158.176 345.524 158.176C344.361 158.176 343.406 157.68 342.66 156.688V160.56H340.724ZM345.076 156.496C345.758 156.496 346.329 156.245 346.788 155.744C347.257 155.243 347.492 154.581 347.492 153.76C347.492 152.96 347.257 152.309 346.788 151.808C346.318 151.307 345.748 151.056 345.076 151.056C344.404 151.056 343.822 151.312 343.332 151.824C342.852 152.336 342.612 152.992 342.612 153.792C342.612 154.581 342.852 155.232 343.332 155.744C343.822 156.245 344.404 156.496 345.076 156.496ZM353.171 160.608C352.467 160.608 351.8 160.437 351.171 160.096L351.827 158.656C352.221 158.869 352.6 158.976 352.963 158.976C353.24 158.976 353.469 158.901 353.651 158.752C353.832 158.613 354.003 158.363 354.163 158L350.643 149.552H352.707L355.107 155.824L357.299 149.552H359.315L355.955 158.24C355.613 159.104 355.235 159.712 354.819 160.064C354.403 160.427 353.853 160.608 353.171 160.608ZM365.102 156.512C365.816 156.512 366.398 156.267 366.846 155.776C367.304 155.275 367.534 154.656 367.534 153.92C367.534 153.195 367.294 152.581 366.814 152.08C366.344 151.568 365.763 151.312 365.07 151.312C364.366 151.312 363.784 151.563 363.326 152.064C362.878 152.565 362.654 153.184 362.654 153.92C362.654 154.645 362.888 155.259 363.358 155.76C363.827 156.261 364.408 156.512 365.102 156.512ZM365.07 158.192C363.704 158.192 362.638 157.76 361.87 156.896C361.102 156.032 360.718 154.821 360.718 153.264C360.718 152.763 360.728 152.325 360.75 151.952C360.782 151.568 360.835 151.157 360.91 150.72C360.984 150.272 361.096 149.883 361.246 149.552C361.406 149.221 361.603 148.907 361.838 148.608C362.083 148.299 362.392 148.043 362.766 147.84C363.15 147.627 363.592 147.467 364.094 147.36L368.702 146.4L369.022 147.952L364.414 148.96C363.646 149.12 363.096 149.408 362.766 149.824C362.435 150.229 362.243 150.741 362.19 151.36C362.446 150.933 362.846 150.565 363.39 150.256C363.944 149.936 364.627 149.776 365.438 149.776C366.536 149.776 367.48 150.176 368.27 150.976C369.07 151.765 369.47 152.736 369.47 153.888C369.47 155.072 369.048 156.085 368.206 156.928C367.374 157.771 366.328 158.192 365.07 158.192ZM375.315 158.192C374.077 158.192 373.043 157.781 372.211 156.96C371.389 156.139 370.979 155.077 370.979 153.776C370.979 152.549 371.368 151.509 372.147 150.656C372.925 149.803 373.912 149.376 375.107 149.376C376.387 149.376 377.379 149.813 378.083 150.688C378.797 151.552 379.155 152.629 379.155 153.92C379.155 154.155 379.144 154.336 379.123 154.464H372.915C373.021 155.136 373.293 155.664 373.731 156.048C374.168 156.421 374.707 156.608 375.347 156.608C376.179 156.608 376.941 156.272 377.635 155.6L378.771 156.608C377.896 157.664 376.744 158.192 375.315 158.192ZM372.899 153.184H377.235C377.171 152.533 376.952 152 376.579 151.584C376.205 151.168 375.709 150.96 375.091 150.96C374.504 150.96 374.013 151.168 373.619 151.584C373.224 151.989 372.984 152.523 372.899 153.184ZM380.027 158L383.339 153.104L380.155 149.552H382.411L385.915 153.696V149.552H387.851V153.696L391.371 149.552H393.627L390.443 153.104L393.739 158H391.563L389.147 154.4L387.851 155.872V158H385.915V155.872L384.619 154.4L382.203 158H380.027ZM399.115 158.192C397.835 158.192 396.768 157.765 395.915 156.912C395.061 156.059 394.635 155.019 394.635 153.792C394.635 152.565 395.067 151.525 395.931 150.672C396.795 149.808 397.867 149.376 399.147 149.376C400.427 149.376 401.493 149.803 402.347 150.656C403.211 151.509 403.643 152.555 403.643 153.792C403.643 155.008 403.211 156.048 402.347 156.912C401.483 157.765 400.405 158.192 399.115 158.192ZM399.147 156.512C399.915 156.512 400.533 156.251 401.003 155.728C401.472 155.205 401.707 154.56 401.707 153.792C401.707 153.035 401.461 152.395 400.971 151.872C400.48 151.339 399.861 151.072 399.115 151.072C398.357 151.072 397.744 151.333 397.275 151.856C396.805 152.379 396.571 153.024 396.571 153.792C396.571 154.539 396.816 155.179 397.307 155.712C397.797 156.245 398.411 156.512 399.147 156.512ZM405.614 158V149.552H407.534L410.174 153.472L412.83 149.552H414.75V158H412.798V152.368L410.142 156.16L407.502 152.4V158H405.614Z" fill="#212121"/>
    <path d="M627.828 134.496C626.719 135.627 625.316 136.192 623.62 136.192C621.924 136.192 620.527 135.632 619.428 134.512C618.329 133.392 617.78 132.021 617.78 130.4C617.78 128.8 618.335 127.435 619.444 126.304C620.553 125.173 621.956 124.608 623.652 124.608C625.348 124.608 626.745 125.168 627.844 126.288C628.943 127.408 629.492 128.779 629.492 130.4C629.492 132 628.937 133.365 627.828 134.496ZM620.916 133.232C621.641 134 622.553 134.384 623.652 134.384C624.751 134.384 625.652 134 626.356 133.232C627.071 132.464 627.428 131.52 627.428 130.4C627.428 129.291 627.065 128.352 626.34 127.584C625.625 126.805 624.719 126.416 623.62 126.416C622.521 126.416 621.615 126.8 620.9 127.568C620.196 128.336 619.844 129.28 619.844 130.4C619.844 131.509 620.201 132.453 620.916 133.232ZM631.646 136V127.552H639.182V136H637.246V129.216H633.582V136H631.646ZM641.55 136.096C641.241 136.096 640.862 136.059 640.414 135.984L640.558 134.4C640.729 134.443 640.916 134.464 641.118 134.464C641.342 134.464 641.524 134.432 641.662 134.368C641.812 134.304 641.961 134.144 642.11 133.888C642.27 133.621 642.393 133.248 642.478 132.768C642.564 132.288 642.633 131.616 642.686 130.752C642.74 129.877 642.766 128.811 642.766 127.552H649.15V136H647.214V129.216H644.574C644.574 130.421 644.526 131.445 644.43 132.288C644.334 133.131 644.206 133.797 644.046 134.288C643.897 134.779 643.684 135.163 643.406 135.44C643.14 135.707 642.868 135.883 642.59 135.968C642.313 136.053 641.966 136.096 641.55 136.096ZM658.671 136H656.751V134.96C656.069 135.771 655.157 136.176 654.015 136.176C653.173 136.176 652.458 135.947 651.871 135.488C651.295 135.019 651.007 134.368 651.007 133.536C651.007 132.629 651.322 131.941 651.951 131.472C652.581 131.003 653.407 130.768 654.431 130.768C655.253 130.768 656.031 130.885 656.767 131.12V130.96C656.767 130.373 656.586 129.925 656.223 129.616C655.871 129.307 655.359 129.152 654.687 129.152C653.919 129.152 653.114 129.328 652.271 129.68L651.743 128.128C652.789 127.659 653.861 127.424 654.959 127.424C656.186 127.424 657.109 127.733 657.727 128.352C658.357 128.971 658.671 129.851 658.671 130.992V136ZM656.799 132.944V132.464C656.223 132.24 655.578 132.128 654.863 132.128C654.255 132.128 653.781 132.245 653.439 132.48C653.098 132.715 652.927 133.045 652.927 133.472C652.927 133.856 653.082 134.16 653.391 134.384C653.701 134.608 654.09 134.72 654.559 134.72C655.21 134.72 655.743 134.555 656.159 134.224C656.586 133.893 656.799 133.467 656.799 132.944ZM662.782 136V129.216H660.062V127.552H667.454V129.216H664.734V136H662.782ZM676.077 136H674.157V134.96C673.475 135.771 672.563 136.176 671.421 136.176C670.579 136.176 669.864 135.947 669.277 135.488C668.701 135.019 668.413 134.368 668.413 133.536C668.413 132.629 668.728 131.941 669.357 131.472C669.987 131.003 670.813 130.768 671.837 130.768C672.659 130.768 673.437 130.885 674.173 131.12V130.96C674.173 130.373 673.992 129.925 673.629 129.616C673.277 129.307 672.765 129.152 672.093 129.152C671.325 129.152 670.52 129.328 669.677 129.68L669.149 128.128C670.195 127.659 671.267 127.424 672.365 127.424C673.592 127.424 674.515 127.733 675.133 128.352C675.763 128.971 676.077 129.851 676.077 130.992V136ZM674.205 132.944V132.464C673.629 132.24 672.984 132.128 672.269 132.128C671.661 132.128 671.187 132.245 670.845 132.48C670.504 132.715 670.333 133.045 670.333 133.472C670.333 133.856 670.488 134.16 670.797 134.384C671.107 134.608 671.496 134.72 671.965 134.72C672.616 134.72 673.149 134.555 673.565 134.224C673.992 133.893 674.205 133.467 674.205 132.944ZM605.499 158H603.579V156.96C602.897 157.771 601.985 158.176 600.843 158.176C600.001 158.176 599.286 157.947 598.699 157.488C598.123 157.019 597.835 156.368 597.835 155.536C597.835 154.629 598.15 153.941 598.779 153.472C599.409 153.003 600.235 152.768 601.259 152.768C602.081 152.768 602.859 152.885 603.595 153.12V152.96C603.595 152.373 603.414 151.925 603.051 151.616C602.699 151.307 602.187 151.152 601.515 151.152C600.747 151.152 599.942 151.328 599.099 151.68L598.571 150.128C599.617 149.659 600.689 149.424 601.787 149.424C603.014 149.424 603.937 149.733 604.555 150.352C605.185 150.971 605.499 151.851 605.499 152.992V158ZM603.627 154.944V154.464C603.051 154.24 602.406 154.128 601.691 154.128C601.083 154.128 600.609 154.245 600.267 154.48C599.926 154.715 599.755 155.045 599.755 155.472C599.755 155.856 599.91 156.16 600.219 156.384C600.529 156.608 600.918 156.72 601.387 156.72C602.038 156.72 602.571 156.555 602.987 156.224C603.414 155.893 603.627 155.467 603.627 154.944ZM607.802 158V149.552H612.138C612.981 149.552 613.653 149.744 614.154 150.128C614.666 150.501 614.922 151.013 614.922 151.664C614.922 152.549 614.469 153.195 613.562 153.6C614.725 153.931 615.306 154.635 615.306 155.712C615.306 156.427 615.023 156.987 614.458 157.392C613.903 157.797 613.146 158 612.186 158H607.802ZM609.706 156.464H611.898C612.357 156.464 612.709 156.368 612.954 156.176C613.21 155.973 613.338 155.707 613.338 155.376C613.338 155.056 613.205 154.805 612.938 154.624C612.682 154.443 612.303 154.352 611.802 154.352H609.706V156.464ZM609.706 153.04H611.69C612.085 153.04 612.394 152.944 612.618 152.752C612.842 152.56 612.954 152.309 612.954 152C612.954 151.712 612.853 151.483 612.65 151.312C612.447 151.131 612.138 151.04 611.722 151.04H609.706V153.04ZM619.047 158V151.216H616.327V149.552H623.719V151.216H620.999V158H619.047ZM629.271 158.192C627.991 158.192 626.924 157.765 626.071 156.912C625.218 156.059 624.791 155.019 624.791 153.792C624.791 152.565 625.223 151.525 626.087 150.672C626.951 149.808 628.023 149.376 629.303 149.376C630.583 149.376 631.65 149.803 632.503 150.656C633.367 151.509 633.799 152.555 633.799 153.792C633.799 155.008 633.367 156.048 632.503 156.912C631.639 157.765 630.562 158.192 629.271 158.192ZM629.303 156.512C630.071 156.512 630.69 156.251 631.159 155.728C631.628 155.205 631.863 154.56 631.863 153.792C631.863 153.035 631.618 152.395 631.127 151.872C630.636 151.339 630.018 151.072 629.271 151.072C628.514 151.072 627.9 151.333 627.431 151.856C626.962 152.379 626.727 153.024 626.727 153.792C626.727 154.539 626.972 155.179 627.463 155.712C627.954 156.245 628.567 156.512 629.303 156.512ZM635.771 158V149.552H637.691L640.331 153.472L642.987 149.552H644.907V158H642.955V152.368L640.299 156.16L637.659 152.4V158H635.771ZM651.349 158.192C650.069 158.192 649.003 157.765 648.149 156.912C647.296 156.059 646.869 155.019 646.869 153.792C646.869 152.565 647.301 151.525 648.165 150.672C649.029 149.808 650.101 149.376 651.381 149.376C652.661 149.376 653.728 149.803 654.581 150.656C655.445 151.509 655.877 152.555 655.877 153.792C655.877 155.008 655.445 156.048 654.581 156.912C653.717 157.765 652.64 158.192 651.349 158.192ZM651.381 156.512C652.149 156.512 652.768 156.251 653.237 155.728C653.707 155.205 653.941 154.56 653.941 153.792C653.941 153.035 653.696 152.395 653.205 151.872C652.715 151.339 652.096 151.072 651.349 151.072C650.592 151.072 649.979 151.333 649.509 151.856C649.04 152.379 648.805 153.024 648.805 153.792C648.805 154.539 649.051 155.179 649.541 155.712C650.032 156.245 650.645 156.512 651.381 156.512ZM661.977 156.512C662.691 156.512 663.273 156.267 663.721 155.776C664.179 155.275 664.409 154.656 664.409 153.92C664.409 153.195 664.169 152.581 663.689 152.08C663.219 151.568 662.638 151.312 661.945 151.312C661.241 151.312 660.659 151.563 660.201 152.064C659.753 152.565 659.529 153.184 659.529 153.92C659.529 154.645 659.763 155.259 660.233 155.76C660.702 156.261 661.283 156.512 661.977 156.512ZM661.945 158.192C660.579 158.192 659.513 157.76 658.745 156.896C657.977 156.032 657.593 154.821 657.593 153.264C657.593 152.763 657.603 152.325 657.625 151.952C657.657 151.568 657.71 151.157 657.785 150.72C657.859 150.272 657.971 149.883 658.121 149.552C658.281 149.221 658.478 148.907 658.713 148.608C658.958 148.299 659.267 148.043 659.641 147.84C660.025 147.627 660.467 147.467 660.969 147.36L665.577 146.4L665.897 147.952L661.289 148.96C660.521 149.12 659.971 149.408 659.641 149.824C659.31 150.229 659.118 150.741 659.065 151.36C659.321 150.933 659.721 150.565 660.265 150.256C660.819 149.936 661.502 149.776 662.313 149.776C663.411 149.776 664.355 150.176 665.145 150.976C665.945 151.765 666.345 152.736 666.345 153.888C666.345 155.072 665.923 156.085 665.081 156.928C664.249 157.771 663.203 158.192 661.945 158.192ZM668.318 158V149.552H670.206V155.216C671.976 152.699 673.31 150.811 674.206 149.552H676.03V158H674.158V152.368L670.142 158H668.318ZM678.394 158.096C678.085 158.096 677.706 158.059 677.258 157.984L677.402 156.4C677.573 156.443 677.76 156.464 677.962 156.464C678.186 156.464 678.368 156.432 678.506 156.368C678.656 156.304 678.805 156.144 678.954 155.888C679.114 155.621 679.237 155.248 679.322 154.768C679.408 154.288 679.477 153.616 679.53 152.752C679.584 151.877 679.61 150.811 679.61 149.552H685.994V158H684.058V151.216H681.418C681.418 152.421 681.37 153.445 681.274 154.288C681.178 155.131 681.05 155.797 680.89 156.288C680.741 156.779 680.528 157.163 680.25 157.44C679.984 157.707 679.712 157.883 679.434 157.968C679.157 158.053 678.81 158.096 678.394 158.096ZM687.659 158L689.995 154.832C689.398 154.651 688.918 154.347 688.555 153.92C688.203 153.483 688.027 152.944 688.027 152.304C688.027 151.472 688.32 150.805 688.907 150.304C689.494 149.803 690.31 149.552 691.355 149.552H695.595V158H693.659V155.152H691.931L689.931 158H687.659ZM691.627 153.696H693.659V151.12H691.611C691.099 151.12 690.694 151.237 690.395 151.472C690.107 151.696 689.963 152.005 689.963 152.4C689.963 152.805 690.112 153.125 690.411 153.36C690.72 153.584 691.126 153.696 691.627 153.696Z" fill="#212121"/>
    <path d="M883.424 136V124.8H892.56V136H890.592V126.576H885.392V136H883.424ZM899.232 136.192C897.952 136.192 896.885 135.765 896.032 134.912C895.179 134.059 894.752 133.019 894.752 131.792C894.752 130.565 895.184 129.525 896.048 128.672C896.912 127.808 897.984 127.376 899.264 127.376C900.544 127.376 901.611 127.803 902.464 128.656C903.328 129.509 903.76 130.555 903.76 131.792C903.76 133.008 903.328 134.048 902.464 134.912C901.6 135.765 900.523 136.192 899.232 136.192ZM899.264 134.512C900.032 134.512 900.651 134.251 901.12 133.728C901.589 133.205 901.824 132.56 901.824 131.792C901.824 131.035 901.579 130.395 901.088 129.872C900.597 129.339 899.979 129.072 899.232 129.072C898.475 129.072 897.861 129.333 897.392 129.856C896.923 130.379 896.688 131.024 896.688 131.792C896.688 132.539 896.933 133.179 897.424 133.712C897.915 134.245 898.528 134.512 899.264 134.512ZM905.668 136.096C905.358 136.096 904.98 136.059 904.532 135.984L904.676 134.4C904.846 134.443 905.033 134.464 905.236 134.464C905.46 134.464 905.641 134.432 905.78 134.368C905.929 134.304 906.078 134.144 906.228 133.888C906.388 133.621 906.51 133.248 906.596 132.768C906.681 132.288 906.75 131.616 906.804 130.752C906.857 129.877 906.884 128.811 906.884 127.552H913.268V136H911.332V129.216H908.692C908.692 130.421 908.644 131.445 908.548 132.288C908.452 133.131 908.324 133.797 908.164 134.288C908.014 134.779 907.801 135.163 907.524 135.44C907.257 135.707 906.985 135.883 906.708 135.968C906.43 136.053 906.084 136.096 905.668 136.096ZM917.428 138.608C916.724 138.608 916.058 138.437 915.428 138.096L916.084 136.656C916.479 136.869 916.858 136.976 917.22 136.976C917.498 136.976 917.727 136.901 917.908 136.752C918.09 136.613 918.26 136.363 918.42 136L914.9 127.552H916.964L919.364 133.824L921.556 127.552H923.572L920.212 136.24C919.871 137.104 919.492 137.712 919.076 138.064C918.66 138.427 918.111 138.608 917.428 138.608ZM930.368 136V132.848C929.536 133.275 928.698 133.488 927.856 133.488C926.992 133.488 926.293 133.259 925.76 132.8C925.237 132.331 924.976 131.675 924.976 130.832V127.552H926.912V130.368C926.912 130.773 927.04 131.12 927.296 131.408C927.552 131.696 927.888 131.84 928.304 131.84C929.029 131.84 929.717 131.653 930.368 131.28V127.552H932.304V136H930.368ZM938.604 136.192C937.366 136.192 936.332 135.781 935.5 134.96C934.678 134.139 934.268 133.077 934.268 131.776C934.268 130.549 934.657 129.509 935.436 128.656C936.214 127.803 937.201 127.376 938.396 127.376C939.676 127.376 940.668 127.813 941.372 128.688C942.086 129.552 942.444 130.629 942.444 131.92C942.444 132.155 942.433 132.336 942.412 132.464H936.204C936.31 133.136 936.582 133.664 937.02 134.048C937.457 134.421 937.996 134.608 938.636 134.608C939.468 134.608 940.23 134.272 940.924 133.6L942.06 134.608C941.185 135.664 940.033 136.192 938.604 136.192ZM936.188 131.184H940.524C940.46 130.533 940.241 130 939.868 129.584C939.494 129.168 938.998 128.96 938.38 128.96C937.793 128.96 937.302 129.168 936.908 129.584C936.513 129.989 936.273 130.523 936.188 131.184ZM944.388 136V127.552H946.324V130.976H950.052V127.552H951.988V136H950.052V132.592H946.324V136H944.388ZM954.419 136V127.552H956.307V133.216C958.078 130.699 959.411 128.811 960.307 127.552H962.131V136H960.259V130.368L956.243 136H954.419ZM968.432 136.192C967.194 136.192 966.16 135.781 965.328 134.96C964.506 134.139 964.096 133.077 964.096 131.776C964.096 130.549 964.485 129.509 965.264 128.656C966.042 127.803 967.029 127.376 968.224 127.376C969.504 127.376 970.496 127.813 971.2 128.688C971.914 129.552 972.272 130.629 972.272 131.92C972.272 132.155 972.261 132.336 972.24 132.464H966.032C966.138 133.136 966.41 133.664 966.848 134.048C967.285 134.421 967.824 134.608 968.464 134.608C969.296 134.608 970.058 134.272 970.752 133.6L971.888 134.608C971.013 135.664 969.861 136.192 968.432 136.192ZM966.016 131.184H970.352C970.288 130.533 970.069 130 969.696 129.584C969.322 129.168 968.826 128.96 968.208 128.96C967.621 128.96 967.13 129.168 966.736 129.584C966.341 129.989 966.101 130.523 966.016 131.184Z" fill="#212121"/>
    <line x1="98" y1="94.5" x2="352" y2="94.5" stroke="#212121" stroke-width="3"/>
    <line x1="382" y1="94.5" x2="632" y2="94.5" stroke="#212121" stroke-width="3"/>
    <line x1="662" y1="94.5" x2="912" y2="94.5" stroke="#212121" stroke-width="3"/>
    <circle cx="87" cy="95" r="14" fill="white" stroke="#212121" stroke-width="2"/>
    <circle cx="367" cy="95" r="14" fill="white" stroke="#212121" stroke-width="2"/>
    <circle cx="647" cy="95" r="14" fill="white" stroke="#212121" stroke-width="2"/>
    <circle cx="927" cy="95" r="14" fill="white" stroke="#212121" stroke-width="2"/>
    <g clip-path="url(#clip0_130_118)">
        <path fill-rule="evenodd" clip-rule="evenodd" d="M83.8748 4.16663C81.051 4.16687 78.2683 4.84238 75.7587 6.13682C73.2491 7.43126 71.0854 9.30708 69.4482 11.6078C67.811 13.9085 66.7477 16.5673 66.3471 19.3625C65.9465 22.1578 66.2201 25.0082 67.1452 27.6762C68.0702 30.3441 69.6199 32.7522 71.6649 34.6994C73.7099 36.6466 76.1908 38.0766 78.9009 38.87C81.6109 39.6633 84.4713 39.7971 87.2436 39.2602C90.0158 38.7232 92.6195 37.5311 94.8373 35.7833L102.446 43.3916C102.839 43.7711 103.365 43.9811 103.911 43.9764C104.457 43.9716 104.98 43.7525 105.366 43.3662C105.752 42.98 105.971 42.4575 105.976 41.9112C105.981 41.365 105.771 40.8387 105.391 40.4458L97.7831 32.8375C99.8415 30.2262 101.123 27.0883 101.481 23.7827C101.839 20.4771 101.26 17.1375 99.8086 14.146C98.3574 11.1545 96.0933 8.63195 93.2754 6.86711C90.4575 5.10226 87.1997 4.1664 83.8748 4.16663ZM70.3331 21.875C70.3331 18.2835 71.7598 14.8391 74.2994 12.2996C76.8389 9.76 80.2833 8.33329 83.8748 8.33329C87.4663 8.33329 90.9106 9.76 93.4502 12.2996C95.9898 14.8391 97.4165 18.2835 97.4165 21.875C97.4165 25.4664 95.9898 28.9108 93.4502 31.4504C90.9106 33.9899 87.4663 35.4166 83.8748 35.4166C80.2833 35.4166 76.8389 33.9899 74.2994 31.4504C71.7598 28.9108 70.3331 25.4664 70.3331 21.875Z" fill="black"/>
    </g>
    <path d="M367 3.125C354.92 3.125 345.125 12.9199 345.125 25C345.125 37.0801 354.92 46.875 367 46.875C379.08 46.875 388.875 37.0801 388.875 25C388.875 12.9199 379.08 3.125 367 3.125ZM367 43.1641C356.971 43.1641 348.836 35.0293 348.836 25C348.836 14.9707 356.971 6.83594 367 6.83594C377.029 6.83594 385.164 14.9707 385.164 25C385.164 35.0293 377.029 43.1641 367 43.1641ZM374.793 14.5996H371.888C371.741 14.5996 371.604 14.6826 371.541 14.8145L367.117 23.6035H366.951L362.527 14.8145C362.495 14.7502 362.445 14.6961 362.384 14.6582C362.323 14.6203 362.253 14.6 362.181 14.5996H359.217C359.153 14.5996 359.09 14.6143 359.031 14.6484C358.841 14.751 358.772 14.9902 358.875 15.1807L364.314 25.1807H361.316C361.102 25.1807 360.926 25.3564 360.926 25.5713V27.0312C360.926 27.2461 361.102 27.4219 361.316 27.4219H365.306V29.4434H361.316C361.102 29.4434 360.926 29.6191 360.926 29.834V31.2939C360.926 31.5088 361.102 31.6846 361.316 31.6846H365.306V35.0098C365.306 35.2246 365.481 35.4004 365.696 35.4004H368.348C368.562 35.4004 368.738 35.2246 368.738 35.0098V31.6846H372.742C372.957 31.6846 373.133 31.5088 373.133 31.2939V29.834C373.133 29.6191 372.957 29.4434 372.742 29.4434H368.738V27.417H372.742C372.957 27.417 373.133 27.2412 373.133 27.0264V25.5664C373.133 25.3516 372.957 25.1758 372.742 25.1758H369.715L375.14 15.1758C375.169 15.1172 375.188 15.0537 375.188 14.9902C375.184 14.7754 375.008 14.5996 374.793 14.5996Z" fill="black"/>
    <g clip-path="url(#clip1_130_118)">
        <path d="M654.143 26.7857C663.019 26.7857 670.214 23.5877 670.214 19.6429C670.214 15.698 663.019 12.5 654.143 12.5C645.267 12.5 638.071 15.698 638.071 19.6429C638.071 23.5877 645.267 26.7857 654.143 26.7857Z" stroke="black" stroke-width="4" stroke-linecap="round" stroke-linejoin="round"/>
        <path d="M638.071 19.6428V41.0714C638.071 45 645.214 48.2142 654.143 48.2142C663.071 48.2142 670.214 45 670.214 41.0714V19.6428" stroke="black" stroke-width="4" stroke-linecap="round" stroke-linejoin="round"/>
        <path d="M670.214 30.3572C670.214 34.2857 663.071 37.5 654.143 37.5C645.214 37.5 638.071 34.2857 638.071 30.3572M653.786 5.35717C649.612 2.78172 644.755 1.53615 639.857 1.78574C630.964 1.78574 623.786 5.00002 623.786 8.9286C623.786 11.0357 625.857 12.9286 629.143 14.2857" stroke="black" stroke-width="4" stroke-linecap="round" stroke-linejoin="round"/>
        <path d="M629.143 35.7143C625.857 34.3572 623.786 32.4643 623.786 30.3572V8.92859" stroke="black" stroke-width="4" stroke-linecap="round" stroke-linejoin="round"/>
        <path d="M629.143 25C625.857 23.6428 623.786 21.75 623.786 19.6428" stroke="black" stroke-width="4" stroke-linecap="round" stroke-linejoin="round"/>
    </g>
    <g clip-path="url(#clip2_130_118)">
        <path d="M936.208 8.33337C936.885 8.33331 937.551 8.49792 938.149 8.81298C938.748 9.12804 939.261 9.58408 939.644 10.1417L939.825 10.4334L947.283 23.4855C947.583 24.0095 947.765 24.5924 947.817 25.1938L947.833 25.5542V34.925C947.833 35.4417 947.737 35.9539 947.55 36.4355L947.394 36.7896L945.064 41.4459C944.744 42.0874 944.264 42.6354 943.669 43.0369C943.075 43.4384 942.388 43.6797 941.673 43.7375L941.337 43.75H937.417C936.365 43.7504 935.353 43.3534 934.582 42.6386C933.811 41.9238 933.339 40.9441 933.26 39.8959L933.25 39.5834H920.75C920.75 40.6346 920.353 41.6471 919.638 42.4178C918.924 43.1886 917.944 43.6608 916.896 43.7396L916.583 43.75H912.662C911.946 43.7498 911.242 43.5648 910.618 43.213C909.994 42.8612 909.471 42.3545 909.1 41.7417L908.935 41.4459L906.606 36.7875C906.375 36.3255 906.233 35.8246 906.185 35.3105L906.167 34.925V25.5542C906.166 24.9514 906.297 24.3557 906.55 23.8084L906.717 23.4855L914.175 10.4334C914.51 9.84603 914.984 9.34923 915.555 8.98589C916.125 8.62255 916.776 8.4036 917.45 8.34796L917.792 8.33337H936.208ZM936.208 12.5H917.792L910.333 25.5542V34.925L912.662 39.5834H916.583V37.7084C916.583 37.1437 916.791 36.5987 917.168 36.1781C917.545 35.7575 918.064 35.4908 918.625 35.4292L918.875 35.4167H935.125C935.69 35.4164 936.234 35.6246 936.655 36.0014C937.076 36.3782 937.342 36.897 937.404 37.4584L937.417 37.7084V39.5834H941.337L943.667 34.925V25.5542L936.208 12.5ZM936.487 23.1355C936.981 22.8896 937.553 22.8497 938.076 23.0247C938.6 23.1997 939.032 23.5752 939.279 24.0688C939.521 24.5642 939.558 25.1346 939.384 25.6574C939.209 26.1802 938.836 26.6137 938.346 26.8646C934.921 28.573 930.771 29.1667 927 29.1667C923.154 29.1667 919.146 28.5792 915.662 26.8688C915.172 26.6165 914.799 26.1828 914.623 25.66C914.447 25.1371 914.482 24.5662 914.721 24.0688C914.953 23.6136 915.344 23.259 915.82 23.0715C916.296 22.8839 916.823 22.8763 917.304 23.05L917.86 23.2896L918.369 23.4917L918.825 23.6584L919.367 23.8375L919.996 24.0292L920.704 24.2188L921.489 24.4063L922.346 24.5771C923.881 24.8583 925.439 24.9999 927 25C930.158 25 933.6 24.5167 936.487 23.1355Z" fill="black"/>
    </g>
    <defs>
        <clipPath id="clip0_130_118">
            <rect width="50" height="50" fill="white" transform="translate(62)"/>
        </clipPath>
        <clipPath id="clip1_130_118">
            <rect width="50" height="50" fill="white" transform="translate(622)"/>
        </clipPath>
        <clipPath id="clip2_130_118">
            <rect width="50" height="50" fill="white" transform="translate(902)"/>
        </clipPath>
    </defs>
</svg>
