<svg width="43" height="29" viewBox="0 0 43 29" fill="none" xmlns="http://www.w3.org/2000/svg">
<path d="M19.4825 14.0517C19.743 13.9936 19.7929 13.9356 20.0146 13.8776C20.4968 13.7457 20.918 13.8354 21.0233 13.8618C21.367 13.9462 21.6053 14.1044 21.7217 14.1835C21.8492 14.2732 21.9434 14.347 22.0543 14.4631C22.3314 14.7426 22.3979 14.9694 22.8413 15.2912C23.2903 15.6182 23.7171 15.7501 23.9609 15.8239C24.3101 15.9294 24.5984 15.9505 24.8533 15.9716C25.1914 16.0033 25.4796 16.0033 25.6958 15.9927C26.5715 14.1097 27.4473 12.2319 28.323 10.3489C33.2172 6.89924 38.1058 3.44962 43 0C42.8614 1.29756 42.7229 2.59513 42.5788 3.89796C40.5557 5.14805 38.5326 6.39814 36.5095 7.64296C38.1446 7.19462 39.7742 6.74627 41.4093 6.3032C40.7164 7.17879 40.0291 8.05966 39.3363 8.93525C36.6481 9.95326 33.9599 10.9713 31.2717 11.9893C33.9932 11.4776 36.7146 10.966 39.4361 10.4543C38.7876 11.1506 38.1391 11.8469 37.4906 12.5431C36.6647 12.9229 35.7724 13.3027 34.8135 13.6719C33.8768 14.0306 32.9789 14.3418 32.1197 14.6108C34.1761 14.5316 36.2379 14.4525 38.2943 14.3787C37.352 15.4758 36.3876 16.0296 35.7668 16.3145C35.1183 16.6151 34.5253 16.7681 33.7437 16.9685C32.7627 17.2217 31.9313 17.3589 31.3271 17.4433C33.1063 17.6437 34.8855 17.8389 36.6647 18.0393C36.0495 18.4032 35.2403 18.8041 34.2481 19.1259C32.868 19.5689 31.6375 19.685 30.7563 19.7008C31.7927 20.2863 32.8237 20.8718 33.8601 21.4625C32.6851 21.9425 31.5101 22.4225 30.335 22.9025C29.2764 22.892 28.2177 22.8814 27.1591 22.8761C25.4796 24.9174 23.7947 26.9587 22.1152 29C21.9102 28.9947 21.7051 28.9947 21.5 28.9895C19.5989 26.9218 17.6977 24.8594 15.7966 22.7917C14.7989 22.8181 13.7957 22.8498 12.798 22.8761C11.6895 22.3856 10.5754 21.8951 9.46687 21.4045C10.5311 20.8348 11.5953 20.2652 12.6594 19.6955C11.9722 19.7377 10.9911 19.7219 9.86594 19.4476C8.42485 19.0942 7.37729 18.4771 6.75651 18.0446C8.38605 17.8547 10.0156 17.6648 11.6507 17.4749C11.4456 17.4274 11.1463 17.3589 10.786 17.2745C10.2872 17.1584 9.48905 16.9685 8.93478 16.805C8.40823 16.6521 7.46597 16.3778 6.44612 15.7817C5.94728 15.4916 5.25445 15.0222 4.54499 14.289C6.77868 14.4103 9.01237 14.5316 11.2405 14.653C9.37819 13.9514 7.5214 13.2446 5.65906 12.5431C4.9884 11.8099 4.31774 11.082 3.64707 10.3489C6.36852 10.8974 9.08997 11.4407 11.8114 11.9893C9.1842 10.9554 6.55697 9.92161 3.92975 8.88778C3.75793 8.75591 3.50851 8.5502 3.24246 8.27064C3.12606 8.14405 2.95978 7.95944 2.4942 7.30538C2.32238 7.06275 2.09513 6.741 1.83462 6.3454C3.3644 6.76209 4.89417 7.18407 6.42395 7.60076C5.35421 6.97836 4.25122 6.29793 3.12052 5.5542C2.22261 4.96344 1.36904 4.37268 0.55981 3.78719C0.371359 2.53183 0.188451 1.27646 0 0.0158233C4.85538 3.41797 9.71075 6.81484 14.5661 10.217C15.0206 11.1401 15.525 12.1 16.0737 13.0811C16.5061 13.8618 16.9495 14.6002 17.3873 15.307C17.5536 15.4547 17.7144 15.5971 17.8806 15.7448C18.3629 15.7501 18.8451 15.7501 19.3217 15.7554C19.3051 15.8345 19.2829 15.9189 19.2663 15.998C18.773 16.5413 18.2686 17.0899 17.7587 17.6384C16.9384 18.5193 16.1236 19.3738 15.3088 20.2124C17.4372 22.4647 19.5656 24.717 21.6995 26.9745C23.778 24.7012 25.8565 22.4331 27.935 20.1597C27.7133 19.9382 27.4584 19.7061 27.1701 19.4687C26.9928 19.321 26.6547 19.052 26.2002 18.7408C25.8177 18.4824 25.5406 18.3241 25.2136 18.1395C24.5152 17.7439 24.3157 17.6859 24.1161 17.6648C23.9554 17.649 23.645 17.6173 23.3679 17.7808C23.1074 17.9285 22.991 18.1764 22.93 18.3136C22.4977 19.3421 21.7162 23.2559 21.4778 23.2612C21.2783 23.2665 20.9679 20.6028 20.7628 17.2164C20.7296 16.6837 20.7074 16.2354 20.6908 15.9083C20.6575 15.7817 20.5965 15.5971 20.4524 15.4125C20.3859 15.3281 20.2141 15.133 19.5989 14.864C19.2275 14.7004 19.0889 14.6846 18.6899 14.5369C18.3019 14.3945 17.9915 14.2468 17.7864 14.1413C18.1578 14.1308 18.5291 14.1202 18.9005 14.1097C19.028 14.1097 19.2386 14.1044 19.4825 14.0517Z" fill="#212121"/>
</svg>
