<svg width="310" height="249" viewBox="0 0 310 249" fill="none" xmlns="http://www.w3.org/2000/svg">
    <rect width="310" height="249" fill="#F8F8F8"/>
    <path d="M103.476 52L102.732 50.2H98.832L98.088 52H96.096L99.84 43.6H101.76L105.516 52H103.476ZM99.456 48.724H102.12L100.788 45.508L99.456 48.724ZM112.868 50.464H113.792V53.392H112.052V52H107.516V53.392H105.776V50.464H106.04C106.928 50.44 107.084 49.18 107.156 47.776L107.24 45.544H112.868V50.464ZM108.848 47.908C108.812 49 108.728 49.984 108.272 50.464H110.996V47.08H108.884L108.848 47.908ZM118.774 45.448C120.586 45.448 121.99 46.744 121.99 48.772C121.99 50.8 120.586 52.096 118.774 52.096C117.97 52.096 117.31 51.844 116.83 51.316V54.328H114.958V45.544H116.746V46.288C117.214 45.724 117.91 45.448 118.774 45.448ZM118.45 50.56C119.386 50.56 120.094 49.888 120.094 48.772C120.094 47.656 119.386 46.984 118.45 46.984C117.514 46.984 116.806 47.656 116.806 48.772C116.806 49.888 117.514 50.56 118.45 50.56ZM129.578 48.796C129.578 48.94 129.554 49.144 129.542 49.3H124.658C124.838 50.104 125.522 50.596 126.506 50.596C127.19 50.596 127.682 50.392 128.126 49.972L129.122 51.052C128.522 51.736 127.622 52.096 126.458 52.096C124.226 52.096 122.774 50.692 122.774 48.772C122.774 46.84 124.25 45.448 126.218 45.448C128.114 45.448 129.578 46.72 129.578 48.796ZM126.23 46.864C125.378 46.864 124.766 47.38 124.634 48.208H127.814C127.682 47.392 127.07 46.864 126.23 46.864ZM134.085 52.096C131.985 52.096 130.485 50.716 130.485 48.772C130.485 46.828 131.985 45.448 134.085 45.448C135.441 45.448 136.509 46.036 136.977 47.092L135.525 47.872C135.177 47.26 134.661 46.984 134.073 46.984C133.125 46.984 132.381 47.644 132.381 48.772C132.381 49.9 133.125 50.56 134.073 50.56C134.661 50.56 135.177 50.296 135.525 49.672L136.977 50.464C136.509 51.496 135.441 52.096 134.085 52.096Z" fill="#212121"/>
    <path d="M100.83 64.7V65.54H97.89V70H96.93V64.7H100.83ZM101.544 70.06C101.174 70.06 100.864 69.77 100.864 69.37C100.864 68.97 101.174 68.69 101.544 68.69C101.904 68.69 102.204 68.97 102.204 69.37C102.204 69.77 101.904 70.06 101.544 70.06ZM109.575 70.08C107.455 70.08 105.875 68.57 105.875 66.5C105.875 64.43 107.455 62.92 109.585 62.92C110.665 62.92 111.605 63.29 112.245 64.01L111.595 64.64C111.055 64.07 110.395 63.81 109.625 63.81C108.045 63.81 106.875 64.95 106.875 66.5C106.875 68.05 108.045 69.19 109.625 69.19C110.395 69.19 111.055 68.92 111.595 68.35L112.245 68.98C111.605 69.7 110.665 70.08 109.575 70.08ZM115.285 64.65C116.735 64.65 117.555 65.35 117.555 66.8V70H116.645V69.3C116.325 69.78 115.735 70.06 114.905 70.06C113.705 70.06 112.945 69.42 112.945 68.5C112.945 67.65 113.495 66.95 115.075 66.95H116.595V66.76C116.595 65.95 116.125 65.48 115.175 65.48C114.545 65.48 113.905 65.7 113.495 66.05L113.095 65.33C113.645 64.89 114.435 64.65 115.285 64.65ZM115.065 69.32C115.785 69.32 116.355 68.99 116.595 68.38V67.64H115.115C114.165 67.64 113.895 68.01 113.895 68.46C113.895 68.99 114.335 69.32 115.065 69.32ZM122.094 64.65C123.644 64.65 124.774 65.73 124.774 67.35C124.774 68.98 123.644 70.06 122.094 70.06C121.344 70.06 120.684 69.77 120.244 69.2V71.94H119.284V64.7H120.204V65.54C120.634 64.95 121.314 64.65 122.094 64.65ZM122.014 69.22C123.034 69.22 123.804 68.48 123.804 67.35C123.804 66.23 123.034 65.49 122.014 65.49C121.004 65.49 120.234 66.23 120.234 67.35C120.234 68.48 121.004 69.22 122.014 69.22ZM128.009 64.65C129.459 64.65 130.279 65.35 130.279 66.8V70H129.369V69.3C129.049 69.78 128.459 70.06 127.629 70.06C126.429 70.06 125.669 69.42 125.669 68.5C125.669 67.65 126.219 66.95 127.799 66.95H129.319V66.76C129.319 65.95 128.849 65.48 127.899 65.48C127.269 65.48 126.629 65.7 126.219 66.05L125.819 65.33C126.369 64.89 127.159 64.65 128.009 64.65ZM127.789 69.32C128.509 69.32 129.079 68.99 129.319 68.38V67.64H127.839C126.889 67.64 126.619 68.01 126.619 68.46C126.619 68.99 127.059 69.32 127.789 69.32ZM135.958 64.7V65.54H134.018V70H133.058V65.54H131.118V64.7H135.958ZM138.975 70.06C137.385 70.06 136.215 68.93 136.215 67.35C136.215 65.77 137.385 64.65 138.975 64.65C140.565 64.65 141.725 65.77 141.725 67.35C141.725 68.93 140.565 70.06 138.975 70.06ZM138.975 69.22C139.995 69.22 140.755 68.48 140.755 67.35C140.755 66.22 139.995 65.49 138.975 65.49C137.955 65.49 137.185 66.22 137.185 67.35C137.185 68.48 137.955 69.22 138.975 69.22ZM146.722 67.25C147.422 67.43 147.752 67.87 147.752 68.54C147.752 69.46 147.072 70 145.662 70H143.112V64.7H145.572C146.822 64.7 147.572 65.19 147.572 66.06C147.572 66.63 147.252 67.04 146.722 67.25ZM144.052 65.44V66.98H145.492C146.222 66.98 146.612 66.71 146.612 66.2C146.612 65.69 146.222 65.44 145.492 65.44H144.052ZM145.592 69.26C146.382 69.26 146.792 69.02 146.792 68.48C146.792 67.93 146.442 67.67 145.652 67.67H144.052V69.26H145.592ZM149.464 70.06C149.094 70.06 148.784 69.77 148.784 69.37C148.784 68.97 149.094 68.69 149.464 68.69C149.824 68.69 150.124 68.97 150.124 69.37C150.124 69.77 149.824 70.06 149.464 70.06ZM158.105 64.7V65.54H155.165V70H154.205V64.7H158.105ZM163.326 69.16H164.136V71.23H163.236V70H158.806V71.23H157.896V69.16H158.176C158.936 69.12 159.066 67.83 159.136 66.49L159.216 64.7H163.326V69.16ZM160.016 66.56C159.976 67.66 159.876 68.74 159.396 69.16H162.366V65.54H160.066L160.016 66.56ZM170.177 67.38C170.177 67.46 170.167 67.58 170.157 67.67H165.857C165.977 68.6 166.727 69.22 167.777 69.22C168.397 69.22 168.917 69.01 169.307 68.58L169.837 69.2C169.357 69.76 168.627 70.06 167.747 70.06C166.037 70.06 164.897 68.93 164.897 67.35C164.897 65.78 166.027 64.65 167.557 64.65C169.087 64.65 170.177 65.75 170.177 67.38ZM167.557 65.46C166.637 65.46 165.957 66.08 165.857 66.98H169.257C169.157 66.09 168.487 65.46 167.557 65.46ZM171.404 67.67V66.84H174.094V67.67H171.404ZM179.357 64.7V65.54H177.417V70H176.457V65.54H174.517V64.7H179.357ZM182.374 70.06C180.784 70.06 179.614 68.93 179.614 67.35C179.614 65.77 180.784 64.65 182.374 64.65C183.964 64.65 185.124 65.77 185.124 67.35C185.124 68.93 183.964 70.06 182.374 70.06ZM182.374 69.22C183.394 69.22 184.154 68.48 184.154 67.35C184.154 66.22 183.394 65.49 182.374 65.49C181.354 65.49 180.584 66.22 180.584 67.35C180.584 68.48 181.354 69.22 182.374 69.22ZM193.146 64.7V65.54H191.206V70H190.246V65.54H188.306V64.7H193.146ZM196.017 64.65C197.467 64.65 198.287 65.35 198.287 66.8V70H197.377V69.3C197.057 69.78 196.467 70.06 195.637 70.06C194.437 70.06 193.677 69.42 193.677 68.5C193.677 67.65 194.227 66.95 195.807 66.95H197.327V66.76C197.327 65.95 196.857 65.48 195.907 65.48C195.277 65.48 194.637 65.7 194.227 66.05L193.827 65.33C194.377 64.89 195.167 64.65 196.017 64.65ZM195.797 69.32C196.517 69.32 197.087 68.99 197.327 68.38V67.64H195.847C194.897 67.64 194.627 68.01 194.627 68.46C194.627 68.99 195.067 69.32 195.797 69.32ZM205.226 64.7H206.126V70H205.256V66.13L203.276 69.4H202.856L200.896 66.12V70H200.016V64.7H201.006L203.086 68.28L205.226 64.7ZM208.214 68.69C208.594 68.69 208.864 68.98 208.864 69.37C208.864 69.57 208.824 69.72 208.694 70.09L208.224 71.48H207.594L207.964 69.99C207.714 69.9 207.544 69.67 207.544 69.37C207.544 68.97 207.834 68.69 208.214 68.69ZM101.51 81.16H102.32V83.23H101.42V82H96.99V83.23H96.08V81.16H96.36C97.12 81.12 97.25 79.83 97.32 78.49L97.4 76.7H101.51V81.16ZM98.2 78.56C98.16 79.66 98.06 80.74 97.58 81.16H100.55V77.54H98.25L98.2 78.56ZM105.461 76.65C106.911 76.65 107.731 77.35 107.731 78.8V82H106.821V81.3C106.501 81.78 105.911 82.06 105.081 82.06C103.881 82.06 103.121 81.42 103.121 80.5C103.121 79.65 103.671 78.95 105.251 78.95H106.771V78.76C106.771 77.95 106.301 77.48 105.351 77.48C104.721 77.48 104.081 77.7 103.671 78.05L103.271 77.33C103.821 76.89 104.611 76.65 105.461 76.65ZM105.241 81.32C105.961 81.32 106.531 80.99 106.771 80.38V79.64H105.291C104.341 79.64 104.071 80.01 104.071 80.46C104.071 80.99 104.511 81.32 105.241 81.32ZM109.939 76.7H114.009V82H113.049V77.54H110.769L110.709 78.72C110.619 80.59 110.369 82.08 109.169 82.08C108.989 82.08 108.799 82.05 108.579 81.99L108.639 81.18C108.729 81.2 108.809 81.21 108.879 81.21C109.739 81.21 109.779 79.91 109.849 78.66L109.939 76.7ZM120.656 79.38C120.656 79.46 120.646 79.58 120.636 79.67H116.336C116.456 80.6 117.206 81.22 118.256 81.22C118.876 81.22 119.396 81.01 119.786 80.58L120.316 81.2C119.836 81.76 119.106 82.06 118.226 82.06C116.516 82.06 115.376 80.93 115.376 79.35C115.376 77.78 116.506 76.65 118.036 76.65C119.566 76.65 120.656 77.75 120.656 79.38ZM118.036 77.46C117.116 77.46 116.436 78.08 116.336 78.98H119.736C119.636 78.09 118.966 77.46 118.036 77.46ZM125.985 82L124.205 79.76H123.105V82H122.145V76.7H123.105V78.94H124.225L125.945 76.7H126.975L124.965 79.25L127.115 82H125.985ZM130.216 82.06C128.626 82.06 127.456 80.93 127.456 79.35C127.456 77.77 128.626 76.65 130.216 76.65C131.806 76.65 132.966 77.77 132.966 79.35C132.966 80.93 131.806 82.06 130.216 82.06ZM130.216 81.22C131.236 81.22 131.996 80.48 131.996 79.35C131.996 78.22 131.236 77.49 130.216 77.49C129.196 77.49 128.426 78.22 128.426 79.35C128.426 80.48 129.196 81.22 130.216 81.22ZM141.617 81.16H142.427V83.23H141.527V82H137.097V83.23H136.187V81.16H136.467C137.227 81.12 137.357 79.83 137.427 78.49L137.507 76.7H141.617V81.16ZM138.307 78.56C138.267 79.66 138.167 80.74 137.687 81.16H140.657V77.54H138.357L138.307 78.56ZM145.568 76.65C147.018 76.65 147.838 77.35 147.838 78.8V82H146.928V81.3C146.608 81.78 146.018 82.06 145.188 82.06C143.988 82.06 143.228 81.42 143.228 80.5C143.228 79.65 143.778 78.95 145.358 78.95H146.878V78.76C146.878 77.95 146.408 77.48 145.458 77.48C144.828 77.48 144.188 77.7 143.778 78.05L143.378 77.33C143.928 76.89 144.718 76.65 145.568 76.65ZM145.348 81.32C146.068 81.32 146.638 80.99 146.878 80.38V79.64H145.398C144.448 79.64 144.178 80.01 144.178 80.46C144.178 80.99 144.618 81.32 145.348 81.32ZM150.047 76.7H154.117V82H153.157V77.54H150.877L150.817 78.72C150.727 80.59 150.477 82.08 149.277 82.08C149.097 82.08 148.907 82.05 148.687 81.99L148.747 81.18C148.837 81.2 148.917 81.21 148.987 81.21C149.847 81.21 149.887 79.91 149.957 78.66L150.047 76.7ZM160.763 79.38C160.763 79.46 160.753 79.58 160.743 79.67H156.443C156.563 80.6 157.313 81.22 158.363 81.22C158.983 81.22 159.503 81.01 159.893 80.58L160.423 81.2C159.943 81.76 159.213 82.06 158.333 82.06C156.623 82.06 155.483 80.93 155.483 79.35C155.483 77.78 156.613 76.65 158.143 76.65C159.673 76.65 160.763 77.75 160.763 79.38ZM158.143 77.46C157.223 77.46 156.543 78.08 156.443 78.98H159.843C159.743 78.09 159.073 77.46 158.143 77.46ZM166.092 82L164.312 79.76H163.212V82H162.252V76.7H163.212V78.94H164.332L166.052 76.7H167.082L165.072 79.25L167.222 82H166.092ZM170.323 82.06C168.733 82.06 167.563 80.93 167.563 79.35C167.563 77.77 168.733 76.65 170.323 76.65C171.913 76.65 173.073 77.77 173.073 79.35C173.073 80.93 171.913 82.06 170.323 82.06ZM170.323 81.22C171.343 81.22 172.103 80.48 172.103 79.35C172.103 78.22 171.343 77.49 170.323 77.49C169.303 77.49 168.533 78.22 168.533 79.35C168.533 80.48 169.303 81.22 170.323 81.22Z" fill="#212121"/>
    <path d="M52.0751 73.5158C45.2642 63.6421 44 62.6287 44 59C44 54.0294 48.0294 50 53 50C57.9706 50 62 54.0294 62 59C62 62.6287 60.7358 63.6421 53.9249 73.5158C53.478 74.1614 52.522 74.1614 52.0751 73.5158ZM53 62.75C55.0711 62.75 56.75 61.0711 56.75 59C56.75 56.9289 55.0711 55.25 53 55.25C50.9289 55.25 49.25 56.9289 49.25 59C49.25 61.0711 50.9289 62.75 53 62.75Z" fill="#212121"/>
    <path d="M104.464 116.6V118.184H101.776V125H99.856V118.184H97.18V116.6H104.464ZM111.16 121.796C111.16 121.94 111.136 122.144 111.124 122.3H106.24C106.42 123.104 107.104 123.596 108.088 123.596C108.772 123.596 109.264 123.392 109.708 122.972L110.704 124.052C110.104 124.736 109.204 125.096 108.04 125.096C105.808 125.096 104.356 123.692 104.356 121.772C104.356 119.84 105.832 118.448 107.8 118.448C109.696 118.448 111.16 119.72 111.16 121.796ZM107.812 119.864C106.96 119.864 106.348 120.38 106.216 121.208H109.396C109.264 120.392 108.652 119.864 107.812 119.864ZM113.209 118.544H118.729V125H116.857V120.08H114.817L114.757 121.22C114.661 123.524 114.289 125.132 112.693 125.132C112.405 125.132 112.093 125.084 111.721 124.988L111.817 123.452C111.913 123.464 112.009 123.476 112.093 123.476C112.981 123.476 113.053 122.36 113.113 121.136L113.209 118.544ZM126.805 121.796C126.805 121.94 126.781 122.144 126.769 122.3H121.885C122.065 123.104 122.749 123.596 123.733 123.596C124.417 123.596 124.909 123.392 125.353 122.972L126.349 124.052C125.749 124.736 124.849 125.096 123.685 125.096C121.453 125.096 120.001 123.692 120.001 121.772C120.001 119.84 121.477 118.448 123.445 118.448C125.341 118.448 126.805 119.72 126.805 121.796ZM123.457 119.864C122.605 119.864 121.993 120.38 121.861 121.208H125.041C124.909 120.392 124.297 119.864 123.457 119.864ZM137.156 121.748C137.156 123.764 135.752 124.94 133.292 125.12V127.328H131.576V125.12C129.104 124.952 127.712 123.788 127.712 121.748C127.712 119.744 129.08 118.628 131.576 118.46V116.096H133.292V118.46C135.752 118.628 137.156 119.756 137.156 121.748ZM129.524 121.748C129.524 122.888 130.136 123.512 131.576 123.668V119.912C130.136 120.056 129.524 120.668 129.524 121.748ZM133.292 123.668C134.732 123.512 135.356 122.888 135.356 121.748C135.356 120.656 134.732 120.056 133.292 119.912V123.668ZM141.447 125.096C139.395 125.096 137.895 123.716 137.895 121.772C137.895 119.828 139.395 118.448 141.447 118.448C143.499 118.448 144.987 119.828 144.987 121.772C144.987 123.716 143.499 125.096 141.447 125.096ZM141.447 123.56C142.383 123.56 143.091 122.888 143.091 121.772C143.091 120.656 142.383 119.984 141.447 119.984C140.511 119.984 139.791 120.656 139.791 121.772C139.791 122.888 140.511 123.56 141.447 123.56ZM146.275 125V118.544H148.135V121.064H150.943V118.544H152.815V125H150.943V122.588H148.135V125H146.275Z" fill="#212121"/>
    <path d="M102.15 139.11V139.9H100.33V141.69H99.49V139.9H97.67V139.11H99.49V137.31H100.33V139.11H102.15ZM103.023 136H108.303V136.68L105.473 143H104.413L107.183 136.87H103.983V138.12H103.023V136ZM113.525 144.94C112.765 143.73 112.335 142.1 112.335 140.26C112.335 138.42 112.765 136.77 113.525 135.58H114.435C113.625 137 113.275 138.51 113.275 140.26C113.275 142.01 113.625 143.52 114.435 144.94H113.525ZM114.932 136H117.502V143H116.512V136.87H114.932V136ZM120.363 142.13H123.953V143H118.923V142.32L121.773 139.57C122.513 138.85 122.653 138.41 122.653 137.97C122.653 137.25 122.143 136.81 121.163 136.81C120.413 136.81 119.803 137.05 119.373 137.57L118.693 136.98C119.233 136.31 120.163 135.92 121.253 135.92C122.713 135.92 123.653 136.67 123.653 137.87C123.653 138.55 123.453 139.16 122.503 140.07L120.363 142.13ZM127.455 138.94C128.855 139.07 129.565 139.86 129.565 140.94C129.565 142.12 128.695 143.08 126.915 143.08C125.915 143.08 124.935 142.76 124.345 142.23L124.805 141.44C125.275 141.88 126.055 142.19 126.915 142.19C127.965 142.19 128.565 141.71 128.565 140.95C128.565 140.21 128.035 139.73 126.835 139.73H126.275V139.03L128.035 136.87H124.665V136H129.285V136.68L127.455 138.94ZM131.248 144.94H130.338C131.148 143.52 131.508 142.01 131.508 140.26C131.508 138.51 131.148 137 130.338 135.58H131.248C132.018 136.77 132.448 138.42 132.448 140.26C132.448 142.1 132.018 143.73 131.248 144.94ZM142.652 140.42V141.28H141.322V143H140.352V141.28H136.462V140.58L140.042 136H141.122L137.692 140.42H140.382V138.9H141.322V140.42H142.652ZM145.222 138.79C147.312 138.79 148.132 139.66 148.132 140.9C148.132 142.11 147.272 143.08 145.482 143.08C144.492 143.08 143.512 142.76 142.912 142.23L143.372 141.44C143.842 141.88 144.622 142.19 145.472 142.19C146.532 142.19 147.132 141.7 147.132 140.94C147.132 140.15 146.632 139.66 145.012 139.66H143.422L143.792 136H147.742V136.87H144.632L144.442 138.79H145.222ZM151.984 138.75C153.374 138.75 154.384 139.58 154.384 140.87C154.384 142.22 153.294 143.08 151.904 143.08C150.024 143.08 148.964 141.82 148.964 139.59C148.964 137.2 150.314 135.92 152.274 135.92C152.934 135.92 153.564 136.05 154.014 136.33L153.634 137.11C153.274 136.87 152.794 136.78 152.294 136.78C150.874 136.78 149.964 137.67 149.964 139.42C149.964 139.5 149.964 139.58 149.974 139.67C150.374 139.07 151.114 138.75 151.984 138.75ZM151.864 142.27C152.774 142.27 153.414 141.74 153.414 140.91C153.414 140.09 152.794 139.56 151.814 139.56C150.864 139.56 150.204 140.15 150.204 140.92C150.204 141.64 150.784 142.27 151.864 142.27ZM155.275 140.67V139.84H157.965V140.67H155.275ZM158.736 136H164.016V136.68L161.186 143H160.126L162.896 136.87H159.696V138.12H158.736V136ZM168.996 139.33C169.796 139.64 170.236 140.22 170.236 141.02C170.236 142.29 169.156 143.08 167.446 143.08C165.746 143.08 164.676 142.29 164.676 141.02C164.676 140.22 165.116 139.63 165.906 139.33C165.266 139.03 164.926 138.51 164.926 137.82C164.926 136.65 165.936 135.92 167.446 135.92C168.966 135.92 169.986 136.65 169.986 137.82C169.986 138.51 169.636 139.03 168.996 139.33ZM167.446 136.73C166.506 136.73 165.916 137.16 165.916 137.86C165.916 138.55 166.486 138.98 167.446 138.98C168.416 138.98 169.006 138.55 169.006 137.86C169.006 137.16 168.386 136.73 167.446 136.73ZM167.446 142.27C168.556 142.27 169.236 141.78 169.236 140.99C169.236 140.22 168.556 139.74 167.446 139.74C166.336 139.74 165.676 140.22 165.676 140.99C165.676 141.78 166.336 142.27 167.446 142.27ZM171.242 140.67V139.84H173.932V140.67H171.242ZM177.25 135.92C179.13 135.92 180.19 137.18 180.19 139.41C180.19 141.8 178.84 143.08 176.88 143.08C176.22 143.08 175.59 142.95 175.14 142.67L175.52 141.89C175.89 142.13 176.36 142.22 176.87 142.22C178.29 142.22 179.19 141.33 179.19 139.58V139.33C178.78 139.94 178.04 140.25 177.17 140.25C175.78 140.25 174.78 139.42 174.78 138.13C174.78 136.78 175.86 135.92 177.25 135.92ZM177.34 139.44C178.3 139.44 178.96 138.85 178.96 138.08C178.96 137.36 178.38 136.73 177.29 136.73C176.38 136.73 175.75 137.26 175.75 138.09C175.75 138.91 176.36 139.44 177.34 139.44ZM184.012 143.08C182.372 143.08 181.152 141.78 181.152 139.5C181.152 137.22 182.372 135.92 184.012 135.92C185.642 135.92 186.862 137.22 186.862 139.5C186.862 141.78 185.642 143.08 184.012 143.08ZM184.012 142.19C185.102 142.19 185.862 141.29 185.862 139.5C185.862 137.71 185.102 136.81 184.012 136.81C182.912 136.81 182.152 137.71 182.152 139.5C182.152 141.29 182.912 142.19 184.012 142.19Z" fill="#212121"/>
    <path d="M61.7638 134.136L59.367 136.514C59.0132 136.877 58.5442 136.999 58.0875 137C56.0677 136.939 54.1586 135.947 52.5911 134.929C50.0181 133.057 47.6573 130.736 46.1756 127.931C45.6073 126.755 44.9405 125.254 45.0042 123.941C45.0099 123.447 45.143 122.963 45.4908 122.644L47.8876 120.249C48.3853 119.825 48.8666 119.972 49.1851 120.465L51.1134 124.121C51.3163 124.555 51.1999 125.019 50.8971 125.328L50.0141 126.211C49.9595 126.286 49.9248 126.371 49.924 126.463C50.2626 127.774 51.2884 128.982 52.1946 129.813C53.1008 130.645 54.0749 131.771 55.3393 132.038C55.4956 132.081 55.687 132.097 55.7988 131.993L56.826 130.948C57.1801 130.68 57.6914 130.548 58.0695 130.768H58.0875L61.5655 132.821C62.0761 133.141 62.1294 133.76 61.7638 134.136Z" fill="#212121"/>
    <path d="M100.68 180.6C102.924 180.6 104.328 181.764 104.328 183.648C104.328 185.52 102.924 186.684 100.68 186.684H98.988V189H97.044V180.6H100.68ZM100.572 185.1C101.76 185.1 102.36 184.56 102.36 183.648C102.36 182.724 101.76 182.184 100.572 182.184H98.988V185.1H100.572ZM111.731 185.796C111.731 185.94 111.707 186.144 111.695 186.3H106.811C106.991 187.104 107.675 187.596 108.659 187.596C109.343 187.596 109.835 187.392 110.279 186.972L111.275 188.052C110.675 188.736 109.775 189.096 108.611 189.096C106.379 189.096 104.927 187.692 104.927 185.772C104.927 183.84 106.403 182.448 108.371 182.448C110.267 182.448 111.731 183.72 111.731 185.796ZM108.383 183.864C107.531 183.864 106.919 184.38 106.787 185.208H109.967C109.835 184.392 109.223 183.864 108.383 183.864ZM120.754 189L119.386 186.552H118.486V189H116.638V186.552H115.738L114.37 189H112.162L114.19 185.664L112.306 182.544H114.286L115.714 185.052H116.638V182.544H118.486V185.052H119.398L120.838 182.544H122.818L120.934 185.664L122.974 189H120.754ZM123.947 189V182.544H125.807V186.384L128.951 182.544H130.667V189H128.807V185.16L125.675 189H123.947ZM140.458 189H138.766V185.136L136.834 188.376H136.042L134.158 185.124V189H132.466V182.544H134.422L136.486 186.276L138.682 182.544H140.434L140.458 189ZM149.454 182.448C151.266 182.448 152.67 183.744 152.67 185.772C152.67 187.8 151.266 189.096 149.454 189.096C148.65 189.096 147.99 188.844 147.51 188.316V191.328H145.638V182.544H147.426V183.288C147.894 182.724 148.59 182.448 149.454 182.448ZM149.13 187.56C150.066 187.56 150.774 186.888 150.774 185.772C150.774 184.656 150.066 183.984 149.13 183.984C148.194 183.984 147.486 184.656 147.486 185.772C147.486 186.888 148.194 187.56 149.13 187.56ZM156.385 182.448C158.353 182.448 159.493 183.36 159.493 185.316V189H157.741V188.196C157.393 188.784 156.721 189.096 155.773 189.096C154.261 189.096 153.361 188.256 153.361 187.14C153.361 186 154.165 185.208 156.133 185.208H157.621C157.621 184.404 157.141 183.936 156.133 183.936C155.449 183.936 154.741 184.164 154.273 184.536L153.601 183.228C154.309 182.724 155.353 182.448 156.385 182.448ZM156.241 187.836C156.865 187.836 157.405 187.548 157.621 186.96V186.3H156.337C155.461 186.3 155.185 186.624 155.185 187.056C155.185 187.524 155.581 187.836 156.241 187.836ZM164.851 182.988C166.711 182.988 167.923 184.2 167.923 186.012C167.923 187.896 166.447 189.144 164.395 189.144C162.199 189.144 160.771 187.74 160.771 184.872C160.771 182.304 161.851 180.732 164.215 180.252L167.287 179.64L167.539 181.248L164.827 181.788C163.351 182.076 162.691 182.7 162.559 183.936C163.111 183.336 163.903 182.988 164.851 182.988ZM164.407 187.692C165.391 187.692 166.003 186.972 166.003 186.036C166.003 185.052 165.367 184.44 164.407 184.44C163.447 184.44 162.787 185.052 162.787 186.036C162.787 187.008 163.459 187.692 164.407 187.692ZM172.217 189.096C170.165 189.096 168.665 187.716 168.665 185.772C168.665 183.828 170.165 182.448 172.217 182.448C174.269 182.448 175.757 183.828 175.757 185.772C175.757 187.716 174.269 189.096 172.217 189.096ZM172.217 187.56C173.153 187.56 173.861 186.888 173.861 185.772C173.861 184.656 173.153 183.984 172.217 183.984C171.281 183.984 170.561 184.656 170.561 185.772C170.561 186.888 171.281 187.56 172.217 187.56ZM182.234 182.544V184.08H180.05V189H178.19V184.08H176.006V182.544H182.234ZM186.628 184.608C188.32 184.62 189.184 185.4 189.184 186.756C189.184 188.184 188.176 189.012 186.376 189.012L183.232 189V182.544H185.092V184.608H186.628ZM189.88 189V182.544H191.74V189H189.88ZM186.208 187.68C186.928 187.692 187.324 187.368 187.324 186.732C187.324 186.096 186.928 185.832 186.208 185.82L185.092 185.808V187.68H186.208Z" fill="#212121"/>
    <path d="M97.09 200H103.12V207H102.14V200.87H98.08V207H97.09V200ZM105.143 207V201.7H106.103V203.95H109.123V201.7H110.083V207H109.123V204.78H106.103V207H105.143ZM113.705 204.59V203.92H118.705V204.59H113.705ZM122.481 200H128.511V207H127.531V200.87H123.471V207H122.481V200ZM134.484 201.7V202.54H132.544V207H131.584V202.54H129.644V201.7H134.484ZM135.675 203.02C135.305 203.02 134.995 202.73 134.995 202.33C134.995 201.93 135.305 201.65 135.675 201.65C136.035 201.65 136.335 201.93 136.335 202.33C136.335 202.73 136.035 203.02 135.675 203.02ZM135.675 207.06C135.305 207.06 134.995 206.77 134.995 206.37C134.995 205.97 135.305 205.69 135.675 205.69C136.035 205.69 136.335 205.97 136.335 206.37C136.335 206.77 136.035 207.06 135.675 207.06ZM142.726 207.06C141.096 207.06 139.926 205.93 139.926 204.35C139.926 202.77 141.096 201.65 142.726 201.65C143.676 201.65 144.466 202.04 144.886 202.78L144.156 203.25C143.816 202.73 143.296 202.49 142.716 202.49C141.676 202.49 140.896 203.22 140.896 204.35C140.896 205.5 141.676 206.22 142.716 206.22C143.296 206.22 143.816 205.98 144.156 205.46L144.886 205.92C144.466 206.66 143.676 207.06 142.726 207.06ZM150.635 199.92C152.515 199.92 153.575 201.18 153.575 203.41C153.575 205.8 152.225 207.08 150.265 207.08C149.605 207.08 148.975 206.95 148.525 206.67L148.905 205.89C149.275 206.13 149.745 206.22 150.255 206.22C151.675 206.22 152.575 205.33 152.575 203.58V203.33C152.165 203.94 151.425 204.25 150.555 204.25C149.165 204.25 148.165 203.42 148.165 202.13C148.165 200.78 149.245 199.92 150.635 199.92ZM150.725 203.44C151.685 203.44 152.345 202.85 152.345 202.08C152.345 201.36 151.765 200.73 150.675 200.73C149.765 200.73 149.135 201.26 149.135 202.09C149.135 202.91 149.745 203.44 150.725 203.44ZM155.197 203.02C154.827 203.02 154.517 202.73 154.517 202.33C154.517 201.93 154.827 201.65 155.197 201.65C155.557 201.65 155.857 201.93 155.857 202.33C155.857 202.73 155.557 203.02 155.197 203.02ZM155.197 207.06C154.827 207.06 154.517 206.77 154.517 206.37C154.517 205.97 154.827 205.69 155.197 205.69C155.557 205.69 155.857 205.97 155.857 206.37C155.857 206.77 155.557 207.06 155.197 207.06ZM159.662 207.08C158.022 207.08 156.802 205.78 156.802 203.5C156.802 201.22 158.022 199.92 159.662 199.92C161.292 199.92 162.512 201.22 162.512 203.5C162.512 205.78 161.292 207.08 159.662 207.08ZM159.662 206.19C160.752 206.19 161.512 205.29 161.512 203.5C161.512 201.71 160.752 200.81 159.662 200.81C158.562 200.81 157.802 201.71 157.802 203.5C157.802 205.29 158.562 206.19 159.662 206.19ZM166.332 207.08C164.692 207.08 163.472 205.78 163.472 203.5C163.472 201.22 164.692 199.92 166.332 199.92C167.962 199.92 169.182 201.22 169.182 203.5C169.182 205.78 167.962 207.08 166.332 207.08ZM166.332 206.19C167.422 206.19 168.182 205.29 168.182 203.5C168.182 201.71 167.422 200.81 166.332 200.81C165.232 200.81 164.472 201.71 164.472 203.5C164.472 205.29 165.232 206.19 166.332 206.19ZM177.858 206.16H178.668V208.23H177.768V207H173.338V208.23H172.428V206.16H172.708C173.468 206.12 173.598 204.83 173.668 203.49L173.748 201.7H177.858V206.16ZM174.548 203.56C174.508 204.66 174.408 205.74 173.928 206.16H176.898V202.54H174.598L174.548 203.56ZM182.188 207.06C180.598 207.06 179.428 205.93 179.428 204.35C179.428 202.77 180.598 201.65 182.188 201.65C183.778 201.65 184.938 202.77 184.938 204.35C184.938 205.93 183.778 207.06 182.188 207.06ZM182.188 206.22C183.208 206.22 183.968 205.48 183.968 204.35C183.968 203.22 183.208 202.49 182.188 202.49C181.168 202.49 180.398 203.22 180.398 204.35C180.398 205.48 181.168 206.22 182.188 206.22ZM188.16 200H190.73V207H189.74V200.87H188.16V200ZM192.081 200H197.361V200.68L194.531 207H193.471L196.241 200.87H193.041V202.12H192.081V200ZM198.703 203.02C198.333 203.02 198.023 202.73 198.023 202.33C198.023 201.93 198.333 201.65 198.703 201.65C199.063 201.65 199.363 201.93 199.363 202.33C199.363 202.73 199.063 203.02 198.703 203.02ZM198.703 207.06C198.333 207.06 198.023 206.77 198.023 206.37C198.023 205.97 198.333 205.69 198.703 205.69C199.063 205.69 199.363 205.97 199.363 206.37C199.363 206.77 199.063 207.06 198.703 207.06ZM203.168 207.08C201.528 207.08 200.308 205.78 200.308 203.5C200.308 201.22 201.528 199.92 203.168 199.92C204.798 199.92 206.018 201.22 206.018 203.5C206.018 205.78 204.798 207.08 203.168 207.08ZM203.168 206.19C204.258 206.19 205.018 205.29 205.018 203.5C205.018 201.71 204.258 200.81 203.168 200.81C202.068 200.81 201.308 201.71 201.308 203.5C201.308 205.29 202.068 206.19 203.168 206.19ZM209.838 207.08C208.198 207.08 206.978 205.78 206.978 203.5C206.978 201.22 208.198 199.92 209.838 199.92C211.468 199.92 212.688 201.22 212.688 203.5C212.688 205.78 211.468 207.08 209.838 207.08ZM209.838 206.19C210.928 206.19 211.688 205.29 211.688 203.5C211.688 201.71 210.928 200.81 209.838 200.81C208.738 200.81 207.978 201.71 207.978 203.5C207.978 205.29 208.738 206.19 209.838 206.19Z" fill="#212121"/>
    <path d="M53 181C48.5819 181 45 184.582 45 189C45 193.418 48.5819 197 53 197C57.4181 197 61 193.418 61 189C61 184.582 57.4181 181 53 181ZM56.6923 190.231H53C52.8368 190.231 52.6803 190.166 52.5649 190.051C52.4495 189.935 52.3846 189.779 52.3846 189.615V184.077C52.3846 183.914 52.4495 183.757 52.5649 183.642C52.6803 183.526 52.8368 183.462 53 183.462C53.1632 183.462 53.3197 183.526 53.4351 183.642C53.5506 183.757 53.6154 183.914 53.6154 184.077V189H56.6923C56.8555 189 57.012 189.065 57.1275 189.18C57.2429 189.296 57.3077 189.452 57.3077 189.615C57.3077 189.779 57.2429 189.935 57.1275 190.051C57.012 190.166 56.8555 190.231 56.6923 190.231Z" fill="#212121"/>
</svg>
