<svg width="173" height="31" viewBox="0 0 173 31" fill="none" xmlns="http://www.w3.org/2000/svg">
    <path d="M2.016 8.336L0.944 8C1.12533 7.31733 1.34933 6.816 1.616 6.496C1.89333 6.176 2.26667 6.016 2.736 6.016C3.056 6.016 3.47733 6.12267 4 6.336C4.52267 6.54933 4.864 6.656 5.024 6.656C5.248 6.656 5.41867 6.59733 5.536 6.48C5.664 6.352 5.78667 6.144 5.904 5.856L6.976 6.176C6.79467 6.85867 6.56533 7.36533 6.288 7.696C6.02133 8.016 5.65333 8.176 5.184 8.176C4.864 8.176 4.44267 8.06933 3.92 7.856C3.39733 7.64267 3.056 7.536 2.896 7.536C2.672 7.536 2.496 7.6 2.368 7.728C2.25067 7.84533 2.13333 8.048 2.016 8.336ZM8.70588 12V10.448L12.5619 7.168C13.3512 6.50667 13.8952 5.96267 14.1939 5.536C14.5032 5.09867 14.6579 4.63467 14.6579 4.144C14.6579 3.61067 14.4872 3.18933 14.1459 2.88C13.8045 2.56 13.3725 2.4 12.8499 2.4C12.3592 2.4 11.9165 2.53333 11.5219 2.8C11.1379 3.06667 10.7165 3.49333 10.2579 4.08L8.86588 2.992C9.44188 2.18133 10.0339 1.58933 10.6419 1.216C11.2605 0.831999 12.0445 0.639999 12.9939 0.639999C14.0925 0.639999 14.9832 0.949333 15.6659 1.568C16.3485 2.18667 16.6899 3.00267 16.6899 4.016C16.6899 4.45333 16.6365 4.848 16.5299 5.2C16.4232 5.54133 16.2312 5.89333 15.9539 6.256C15.6872 6.608 15.3939 6.93333 15.0739 7.232C14.7645 7.52 14.3325 7.89333 13.7779 8.352L11.4739 10.272H16.8019V12H8.70588ZM23.7473 12V3.552H25.6673L28.3073 7.472L30.9633 3.552H32.8833V12H30.9313V6.368L28.2753 10.16L25.6353 6.4V12H23.7473ZM39.1818 12.192C37.9444 12.192 36.9098 11.7813 36.0778 10.96C35.2564 10.1387 34.8458 9.07733 34.8458 7.776C34.8458 6.54933 35.2351 5.50933 36.0138 4.656C36.7924 3.80267 37.7791 3.376 38.9738 3.376C40.2538 3.376 41.2458 3.81333 41.9498 4.688C42.6644 5.552 43.0218 6.62933 43.0218 7.92C43.0218 8.15467 43.0111 8.336 42.9898 8.464H36.7818C36.8884 9.136 37.1604 9.664 37.5978 10.048C38.0351 10.4213 38.5738 10.608 39.2138 10.608C40.0458 10.608 40.8084 10.272 41.5018 9.6L42.6378 10.608C41.7631 11.664 40.6111 12.192 39.1818 12.192ZM36.7658 7.184H41.1018C41.0378 6.53333 40.8191 6 40.4458 5.584C40.0724 5.168 39.5764 4.96 38.9578 4.96C38.3711 4.96 37.8804 5.168 37.4858 5.584C37.0911 5.98933 36.8511 6.52267 36.7658 7.184ZM48.87 12.192C47.622 12.192 46.582 11.7707 45.75 10.928C44.918 10.0747 44.502 9.04 44.502 7.824V7.792C44.502 6.576 44.918 5.536 45.75 4.672C46.5927 3.808 47.638 3.376 48.886 3.376C50.2513 3.376 51.3767 3.86133 52.262 4.832L51.062 6.128C50.39 5.424 49.6593 5.072 48.87 5.072C48.1767 5.072 47.5953 5.33333 47.126 5.856C46.6673 6.37867 46.438 7.01333 46.438 7.76V7.792C46.438 8.56 46.6727 9.20533 47.142 9.728C47.622 10.2507 48.23 10.512 48.966 10.512C49.7447 10.512 50.4753 10.16 51.158 9.456L52.326 10.608C51.8673 11.12 51.366 11.5147 50.822 11.792C50.2887 12.0587 49.638 12.192 48.87 12.192ZM53.2605 12L55.5965 8.832C54.9992 8.65067 54.5192 8.34667 54.1565 7.92C53.8045 7.48267 53.6285 6.944 53.6285 6.304C53.6285 5.472 53.9218 4.80533 54.5085 4.304C55.0952 3.80267 55.9112 3.552 56.9565 3.552H61.1965V12H59.2605V9.152H57.5325L55.5325 12H53.2605ZM57.2285 7.696H59.2605V5.12H57.2125C56.7005 5.12 56.2952 5.23733 55.9965 5.472C55.7085 5.696 55.5645 6.00533 55.5645 6.4C55.5645 6.80533 55.7138 7.12533 56.0125 7.36C56.3218 7.584 56.7272 7.696 57.2285 7.696ZM70.4543 14.032V12H63.6223V3.552H65.5423V10.336H69.1903V3.552H71.1103V10.336H72.3263L72.0703 14.032H70.4543ZM81.0228 12H79.1028V10.96C78.4201 11.7707 77.5081 12.176 76.3668 12.176C75.5241 12.176 74.8094 11.9467 74.2228 11.488C73.6468 11.0187 73.3588 10.368 73.3588 9.536C73.3588 8.62933 73.6734 7.94133 74.3028 7.472C74.9321 7.00267 75.7588 6.768 76.7828 6.768C77.6041 6.768 78.3828 6.88533 79.1188 7.12V6.96C79.1188 6.37333 78.9374 5.92533 78.5748 5.616C78.2228 5.30667 77.7108 5.152 77.0388 5.152C76.2708 5.152 75.4654 5.328 74.6228 5.68L74.0948 4.128C75.1401 3.65867 76.2121 3.424 77.3108 3.424C78.5374 3.424 79.4601 3.73333 80.0788 4.352C80.7081 4.97067 81.0228 5.85067 81.0228 6.992V12ZM79.1508 8.944V8.464C78.5748 8.24 77.9294 8.128 77.2148 8.128C76.6068 8.128 76.1321 8.24533 75.7908 8.48C75.4494 8.71467 75.2788 9.04533 75.2788 9.472C75.2788 9.856 75.4334 10.16 75.7428 10.384C76.0521 10.608 76.4414 10.72 76.9108 10.72C77.5614 10.72 78.0948 10.5547 78.5108 10.224C78.9374 9.89333 79.1508 9.46667 79.1508 8.944ZM5.028 29.144C3.82 29.144 2.816 28.728 2.016 27.896C1.216 27.056 0.816 26.024 0.816 24.8C0.816 23.592 1.22 22.568 2.028 21.728C2.836 20.88 3.848 20.456 5.064 20.456C5.768 20.456 6.368 20.572 6.864 20.804C7.36 21.028 7.844 21.364 8.316 21.812L7.692 22.484C6.884 21.716 6.004 21.332 5.052 21.332C4.124 21.332 3.348 21.664 2.724 22.328C2.108 22.992 1.8 23.816 1.8 24.8C1.8 25.776 2.112 26.6 2.736 27.272C3.36 27.936 4.132 28.268 5.052 28.268C5.596 28.268 6.076 28.168 6.492 27.968C6.908 27.768 7.332 27.464 7.764 27.056L8.388 27.716C7.916 28.188 7.42 28.544 6.9 28.784C6.38 29.024 5.756 29.144 5.028 29.144ZM9.89138 30.92V22.796H10.8154V24.044C11.4394 23.124 12.2314 22.664 13.1914 22.664C13.9834 22.664 14.6754 22.96 15.2674 23.552C15.8594 24.136 16.1554 24.92 16.1554 25.904C16.1554 26.872 15.8594 27.652 15.2674 28.244C14.6754 28.836 13.9834 29.132 13.1914 29.132C12.2154 29.132 11.4234 28.692 10.8154 27.812V30.92H9.89138ZM13.0234 28.304C13.6474 28.304 14.1674 28.088 14.5834 27.656C14.9994 27.216 15.2074 26.628 15.2074 25.892C15.2074 25.18 14.9954 24.604 14.5714 24.164C14.1474 23.716 13.6314 23.492 13.0234 23.492C12.4234 23.492 11.8994 23.72 11.4514 24.176C11.0034 24.632 10.7794 25.208 10.7794 25.904C10.7794 26.6 11.0034 27.176 11.4514 27.632C11.8994 28.08 12.4234 28.304 13.0234 28.304ZM23.0081 28.196C22.3841 28.828 21.6121 29.144 20.6921 29.144C19.7721 29.144 19.0041 28.828 18.3881 28.196C17.7801 27.564 17.4761 26.8 17.4761 25.904C17.4761 25.016 17.7841 24.256 18.4001 23.624C19.0241 22.984 19.7961 22.664 20.7161 22.664C21.6361 22.664 22.4041 22.98 23.0201 23.612C23.6361 24.244 23.9441 25.008 23.9441 25.904C23.9441 26.792 23.6321 27.556 23.0081 28.196ZM20.7161 28.316C21.3801 28.316 21.9241 28.084 22.3481 27.62C22.7801 27.156 22.9961 26.584 22.9961 25.904C22.9961 25.232 22.7721 24.66 22.3241 24.188C21.8841 23.716 21.3401 23.48 20.6921 23.48C20.0281 23.48 19.4841 23.716 19.0601 24.188C18.6361 24.652 18.4241 25.224 18.4241 25.904C18.4241 26.576 18.6441 27.148 19.0841 27.62C19.5241 28.084 20.0681 28.316 20.7161 28.316ZM25.6179 29V22.796H26.5419V26.372L29.9379 22.796H31.0779L28.4859 25.484L31.1499 29H30.0579L27.8499 26.156L26.5419 27.5V29H25.6179ZM41.1722 28.196C40.5482 28.828 39.7762 29.144 38.8562 29.144C37.9362 29.144 37.1682 28.828 36.5522 28.196C35.9442 27.564 35.6402 26.8 35.6402 25.904C35.6402 25.016 35.9482 24.256 36.5642 23.624C37.1882 22.984 37.9602 22.664 38.8802 22.664C39.8002 22.664 40.5682 22.98 41.1842 23.612C41.8002 24.244 42.1082 25.008 42.1082 25.904C42.1082 26.792 41.7962 27.556 41.1722 28.196ZM38.8802 28.316C39.5442 28.316 40.0882 28.084 40.5122 27.62C40.9442 27.156 41.1602 26.584 41.1602 25.904C41.1602 25.232 40.9362 24.66 40.4882 24.188C40.0482 23.716 39.5042 23.48 38.8562 23.48C38.1922 23.48 37.6482 23.716 37.2242 24.188C36.8002 24.652 36.5882 25.224 36.5882 25.904C36.5882 26.576 36.8082 27.148 37.2482 27.62C37.6882 28.084 38.2322 28.316 38.8802 28.316ZM42.99 29L45.534 25.448L43.122 22.796H44.238L47.394 26.396V22.796H48.318V26.396L51.474 22.796H52.59L50.178 25.448L52.722 29H51.642L49.578 26.108L48.318 27.488V29H47.394V27.488L46.134 26.108L44.07 29H42.99ZM53.989 29V22.796H54.913V27.704L58.597 22.796H59.497V29H58.573V24.092L54.877 29H53.989ZM60.6473 30.548V28.184H61.3193C61.8713 27.168 62.1473 25.732 62.1473 23.876V22.796H66.5633V28.184H67.4993L67.3553 30.548H66.5873V29H61.5713L61.4033 30.548H60.6473ZM62.3033 28.184H65.6393V23.612H63.0353V24.476C63.0353 26.036 62.7913 27.272 62.3033 28.184ZM70.6144 29.132C69.9824 29.132 69.4384 28.96 68.9824 28.616C68.5264 28.272 68.2984 27.792 68.2984 27.176C68.2984 26.528 68.5384 26.028 69.0184 25.676C69.4984 25.324 70.1424 25.148 70.9504 25.148C71.5904 25.148 72.2224 25.236 72.8464 25.412V25.22C72.8464 24.676 72.6864 24.26 72.3664 23.972C72.0464 23.684 71.5944 23.54 71.0104 23.54C70.4024 23.54 69.7744 23.688 69.1264 23.984L68.8504 23.228C69.6184 22.876 70.3704 22.7 71.1064 22.7C71.9864 22.7 72.6544 22.928 73.1104 23.384C73.5424 23.816 73.7584 24.424 73.7584 25.208V29H72.8464V28.076C72.2944 28.78 71.5504 29.132 70.6144 29.132ZM70.7944 28.388C71.3704 28.388 71.8584 28.232 72.2584 27.92C72.6584 27.608 72.8584 27.208 72.8584 26.72V26.144C72.2504 25.968 71.6464 25.88 71.0464 25.88C70.4784 25.88 70.0344 25.996 69.7144 26.228C69.3944 26.452 69.2344 26.76 69.2344 27.152C69.2344 27.528 69.3824 27.828 69.6784 28.052C69.9824 28.276 70.3544 28.388 70.7944 28.388ZM75.7156 29V22.796H76.6396V25.472H80.2156V22.796H81.1396V29H80.2156V26.288H76.6396V29H75.7156ZM83.2039 29V22.796H84.1279V27.704L87.8119 22.796H88.7119V29H87.7879V24.092L84.0919 29H83.2039ZM90.2222 29L92.1182 26.6C91.6302 26.488 91.2302 26.268 90.9182 25.94C90.6142 25.612 90.4622 25.208 90.4622 24.728C90.4622 24.152 90.6702 23.688 91.0862 23.336C91.5022 22.976 92.0742 22.796 92.8022 22.796H95.7182V29H94.7942V26.744H93.0782C93.0062 26.84 92.7582 27.168 92.3342 27.728C91.9102 28.288 91.5862 28.712 91.3622 29H90.2222ZM92.8742 25.964H94.7942V23.612H92.8502C92.3942 23.612 92.0342 23.716 91.7702 23.924C91.5142 24.124 91.3862 24.404 91.3862 24.764C91.3862 25.132 91.5222 25.424 91.7942 25.64C92.0742 25.856 92.4342 25.964 92.8742 25.964ZM103.228 29.132C102.596 29.132 102.052 28.96 101.596 28.616C101.14 28.272 100.912 27.792 100.912 27.176C100.912 26.528 101.152 26.028 101.632 25.676C102.112 25.324 102.756 25.148 103.564 25.148C104.204 25.148 104.836 25.236 105.46 25.412V25.22C105.46 24.676 105.3 24.26 104.98 23.972C104.66 23.684 104.208 23.54 103.624 23.54C103.016 23.54 102.388 23.688 101.74 23.984L101.464 23.228C102.232 22.876 102.984 22.7 103.72 22.7C104.6 22.7 105.268 22.928 105.724 23.384C106.156 23.816 106.372 24.424 106.372 25.208V29H105.46V28.076C104.908 28.78 104.164 29.132 103.228 29.132ZM103.408 28.388C103.984 28.388 104.472 28.232 104.872 27.92C105.272 27.608 105.472 27.208 105.472 26.72V26.144C104.864 25.968 104.26 25.88 103.66 25.88C103.092 25.88 102.648 25.996 102.328 26.228C102.008 26.452 101.848 26.76 101.848 27.152C101.848 27.528 101.996 27.828 102.292 28.052C102.596 28.276 102.968 28.388 103.408 28.388ZM108.329 29V22.796H111.329C111.945 22.796 112.437 22.936 112.805 23.216C113.173 23.496 113.357 23.872 113.357 24.344C113.357 25.008 113.013 25.484 112.325 25.772C113.237 26.02 113.693 26.532 113.693 27.308C113.693 27.828 113.489 28.24 113.081 28.544C112.673 28.848 112.125 29 111.437 29H108.329ZM109.253 28.208H111.317C111.757 28.208 112.105 28.116 112.361 27.932C112.617 27.748 112.745 27.492 112.745 27.164C112.745 26.86 112.609 26.624 112.337 26.456C112.073 26.288 111.693 26.204 111.197 26.204H109.253V28.208ZM109.253 25.46H111.161C111.545 25.46 111.849 25.376 112.073 25.208C112.305 25.032 112.421 24.784 112.421 24.464C112.421 24.2 112.313 23.988 112.097 23.828C111.881 23.668 111.577 23.588 111.185 23.588H109.253V25.46ZM116.86 29V23.612H114.64V22.796H120.016V23.612H117.796V29H116.86ZM126.508 28.196C125.884 28.828 125.112 29.144 124.192 29.144C123.272 29.144 122.504 28.828 121.888 28.196C121.28 27.564 120.976 26.8 120.976 25.904C120.976 25.016 121.284 24.256 121.9 23.624C122.524 22.984 123.296 22.664 124.216 22.664C125.136 22.664 125.904 22.98 126.52 23.612C127.136 24.244 127.444 25.008 127.444 25.904C127.444 26.792 127.132 27.556 126.508 28.196ZM124.216 28.316C124.88 28.316 125.424 28.084 125.848 27.62C126.28 27.156 126.496 26.584 126.496 25.904C126.496 25.232 126.272 24.66 125.824 24.188C125.384 23.716 124.84 23.48 124.192 23.48C123.528 23.48 122.984 23.716 122.56 24.188C122.136 24.652 121.924 25.224 121.924 25.904C121.924 26.576 122.144 27.148 122.584 27.62C123.024 28.084 123.568 28.316 124.216 28.316ZM129.118 29V22.796H129.994L132.31 26.06L134.626 22.796H135.514V29H134.578V24.272L132.286 27.416L130.018 24.272V29H129.118ZM142.727 28.196C142.103 28.828 141.331 29.144 140.411 29.144C139.491 29.144 138.723 28.828 138.107 28.196C137.499 27.564 137.195 26.8 137.195 25.904C137.195 25.016 137.503 24.256 138.119 23.624C138.743 22.984 139.515 22.664 140.435 22.664C141.355 22.664 142.123 22.98 142.739 23.612C143.355 24.244 143.663 25.008 143.663 25.904C143.663 26.792 143.351 27.556 142.727 28.196ZM140.435 28.316C141.099 28.316 141.643 28.084 142.067 27.62C142.499 27.156 142.715 26.584 142.715 25.904C142.715 25.232 142.491 24.66 142.043 24.188C141.603 23.716 141.059 23.48 140.411 23.48C139.747 23.48 139.203 23.716 138.779 24.188C138.355 24.652 138.143 25.224 138.143 25.904C138.143 26.576 138.363 27.148 138.803 27.62C139.243 28.084 139.787 28.316 140.435 28.316ZM148.253 29.144C147.301 29.144 146.537 28.832 145.961 28.208C145.393 27.576 145.109 26.724 145.109 25.652C145.109 25.26 145.117 24.928 145.133 24.656C145.149 24.376 145.181 24.068 145.229 23.732C145.277 23.396 145.353 23.108 145.457 22.868C145.561 22.628 145.693 22.392 145.853 22.16C146.021 21.928 146.237 21.732 146.501 21.572C146.765 21.412 147.073 21.292 147.425 21.212L150.881 20.396L151.061 21.176L147.701 22.004C147.077 22.164 146.629 22.42 146.357 22.772C146.093 23.116 145.937 23.596 145.889 24.212C146.417 23.316 147.273 22.868 148.457 22.868C149.273 22.868 149.973 23.172 150.557 23.78C151.141 24.38 151.433 25.104 151.433 25.952C151.433 26.832 151.129 27.584 150.521 28.208C149.913 28.832 149.157 29.144 148.253 29.144ZM148.277 28.316C148.909 28.316 149.433 28.092 149.849 27.644C150.265 27.188 150.473 26.632 150.473 25.976C150.473 25.328 150.257 24.776 149.825 24.32C149.401 23.864 148.877 23.636 148.253 23.636C147.621 23.636 147.097 23.864 146.681 24.32C146.265 24.768 146.057 25.32 146.057 25.976C146.057 26.624 146.269 27.176 146.693 27.632C147.125 28.088 147.653 28.316 148.277 28.316ZM153.106 29V22.796H154.03V27.704L157.714 22.796H158.614V29H157.69V24.092L153.994 29H153.106ZM160.377 29.096C160.137 29.096 159.889 29.064 159.633 29L159.741 28.208C159.925 28.264 160.073 28.292 160.185 28.292C160.361 28.292 160.505 28.272 160.617 28.232C160.729 28.184 160.849 28.068 160.977 27.884C161.113 27.692 161.217 27.424 161.289 27.08C161.361 26.736 161.421 26.248 161.469 25.616C161.525 24.984 161.553 24.216 161.553 23.312V22.796H165.945V29H165.021V23.612H162.429V23.756C162.429 24.7 162.393 25.504 162.321 26.168C162.249 26.832 162.157 27.352 162.045 27.728C161.941 28.104 161.793 28.396 161.601 28.604C161.409 28.812 161.221 28.944 161.037 29C160.861 29.064 160.641 29.096 160.377 29.096ZM167.46 29L169.356 26.6C168.868 26.488 168.468 26.268 168.156 25.94C167.852 25.612 167.7 25.208 167.7 24.728C167.7 24.152 167.908 23.688 168.324 23.336C168.74 22.976 169.312 22.796 170.04 22.796H172.956V29H172.032V26.744H170.316C170.244 26.84 169.996 27.168 169.572 27.728C169.148 28.288 168.824 28.712 168.6 29H167.46ZM170.112 25.964H172.032V23.612H170.088C169.632 23.612 169.272 23.716 169.008 23.924C168.752 24.124 168.624 24.404 168.624 24.764C168.624 25.132 168.76 25.424 169.032 25.64C169.312 25.856 169.672 25.964 170.112 25.964Z" fill="#212121"/>
</svg>
