<svg width="209" height="220" viewBox="0 0 209 220" fill="none" xmlns="http://www.w3.org/2000/svg">
    <circle cx="49.5" cy="13.5" r="7" fill="white" stroke="#212121"/>
    <circle cx="49.5" cy="78.5" r="7" fill="white" stroke="#212121"/>
    <circle cx="49.5" cy="143.5" r="7" fill="white" stroke="#212121"/>
    <circle cx="49.5" cy="208.5" r="7" fill="white" stroke="#212121"/>
    <line x1="49.5" y1="151" x2="49.5" y2="201" stroke="#212121"/>
    <line x1="49.5" y1="86" x2="49.5" y2="136" stroke="#212121"/>
    <line x1="49.5" y1="21" x2="49.5" y2="71" stroke="#212121"/>
    <path fill-rule="evenodd" clip-rule="evenodd" d="M12.0064 5C10.7296 5.00011 9.47135 5.30554 8.3366 5.89082C7.20184 6.4761 6.2235 7.32425 5.48321 8.36452C4.74293 9.40478 4.26215 10.607 4.081 11.8708C3.89985 13.1347 4.02358 14.4235 4.44186 15.6298C4.86014 16.8361 5.56085 17.9249 6.48552 18.8054C7.41019 19.6858 8.53201 20.3324 9.75739 20.6911C10.9828 21.0498 12.2762 21.1103 13.5297 20.8676C14.7832 20.6248 15.9605 20.0858 16.9633 19.2955L20.4036 22.7356C20.5812 22.9072 20.8192 23.0021 21.0662 23C21.3132 22.9978 21.5494 22.8988 21.7241 22.7241C21.8987 22.5495 21.9978 22.3132 22 22.0662C22.0021 21.8192 21.9072 21.5813 21.7356 21.4036L18.2953 17.9635C19.226 16.7829 19.8055 15.364 19.9675 13.8694C20.1295 12.3748 19.8674 10.8648 19.2112 9.51217C18.555 8.15955 17.5312 7.019 16.2571 6.22102C14.9829 5.42305 13.5099 4.9999 12.0064 5ZM5.88335 13.0068C5.88335 11.3829 6.52846 9.82556 7.67676 8.6773C8.82506 7.52904 10.3825 6.88396 12.0064 6.88396C13.6304 6.88396 15.1878 7.52904 16.3361 8.6773C17.4844 9.82556 18.1295 11.3829 18.1295 13.0068C18.1295 14.6307 17.4844 16.1881 16.3361 17.3363C15.1878 18.4846 13.6304 19.1297 12.0064 19.1297C10.3825 19.1297 8.82506 18.4846 7.67676 17.3363C6.52846 16.1881 5.88335 14.6307 5.88335 13.0068Z" fill="black"/>
    <path d="M11 69.375C5.68477 69.375 1.375 73.6848 1.375 79C1.375 84.3152 5.68477 88.625 11 88.625C16.3152 88.625 20.625 84.3152 20.625 79C20.625 73.6848 16.3152 69.375 11 69.375ZM11 86.9922C6.58711 86.9922 3.00781 83.4129 3.00781 79C3.00781 74.5871 6.58711 71.0078 11 71.0078C15.4129 71.0078 18.9922 74.5871 18.9922 79C18.9922 83.4129 15.4129 86.9922 11 86.9922ZM14.4289 74.4238H13.1506C13.0861 74.4238 13.026 74.4604 12.998 74.5184L11.0516 78.3855H10.9785L9.03203 74.5184C9.01778 74.4901 8.996 74.4663 8.96908 74.4496C8.94216 74.4329 8.91116 74.424 8.87949 74.4238H7.57539C7.54746 74.4238 7.51953 74.4303 7.49375 74.4453C7.40996 74.4904 7.37988 74.5957 7.425 74.6795L9.81836 79.0795H8.49922C8.40469 79.0795 8.32734 79.1568 8.32734 79.2514V79.8937C8.32734 79.9883 8.40469 80.0656 8.49922 80.0656H10.2545V80.9551H8.49922C8.40469 80.9551 8.32734 81.0324 8.32734 81.127V81.7693C8.32734 81.8639 8.40469 81.9412 8.49922 81.9412H10.2545V83.4043C10.2545 83.4988 10.3318 83.5762 10.4264 83.5762H11.593C11.6875 83.5762 11.7648 83.4988 11.7648 83.4043V81.9412H13.5266C13.6211 81.9412 13.6984 81.8639 13.6984 81.7693V81.127C13.6984 81.0324 13.6211 80.9551 13.5266 80.9551H11.7648V80.0635H13.5266C13.6211 80.0635 13.6984 79.9861 13.6984 79.8916V79.2492C13.6984 79.1547 13.6211 79.0773 13.5266 79.0773H12.1945L14.5814 74.6773C14.5943 74.6516 14.6029 74.6236 14.6029 74.5957C14.6008 74.5012 14.5234 74.4238 14.4289 74.4238Z" fill="black"/>
    <g clip-path="url(#clip0_163_1241)">
        <path d="M14.1427 143.786C18.0482 143.786 21.2141 142.379 21.2141 140.643C21.2141 138.907 18.0482 137.5 14.1427 137.5C10.2373 137.5 7.07129 138.907 7.07129 140.643C7.07129 142.379 10.2373 143.786 14.1427 143.786Z" stroke="black" stroke-width="2" stroke-linecap="round" stroke-linejoin="round"/>
        <path d="M7.07129 140.643V150.071C7.07129 151.8 10.2141 153.214 14.1427 153.214C18.0713 153.214 21.2141 151.8 21.2141 150.071V140.643" stroke="black" stroke-width="2" stroke-linecap="round" stroke-linejoin="round"/>
        <path d="M21.2142 145.357C21.2142 147.086 18.0714 148.5 14.1428 148.5C10.2142 148.5 7.07136 147.086 7.07136 145.357M13.9856 134.357C12.1494 133.224 10.012 132.676 7.85707 132.786C3.94422 132.786 0.785645 134.2 0.785645 135.929C0.785645 136.856 1.69707 137.689 3.14279 138.286" stroke="black" stroke-width="2" stroke-linecap="round" stroke-linejoin="round"/>
        <path d="M3.14279 147.714C1.69707 147.117 0.785645 146.284 0.785645 145.357V135.929" stroke="black" stroke-width="2" stroke-linecap="round" stroke-linejoin="round"/>
        <path d="M3.14279 143C1.69707 142.403 0.785645 141.57 0.785645 140.643" stroke="black" stroke-width="2" stroke-linecap="round" stroke-linejoin="round"/>
    </g>
    <g clip-path="url(#clip1_163_1241)">
        <path d="M15.0516 201.667C15.3492 201.667 15.6423 201.739 15.9057 201.878C16.1691 202.016 16.3947 202.217 16.5632 202.462L16.6429 202.591L19.9246 208.334C20.0563 208.564 20.1364 208.821 20.1593 209.085L20.1666 209.244V213.367C20.1666 213.594 20.1243 213.82 20.0419 214.032L19.9732 214.187L18.9483 216.236C18.8074 216.519 18.596 216.76 18.3345 216.936C18.0731 217.113 17.7705 217.219 17.456 217.245L17.3084 217.25H15.5833C15.1207 217.25 14.6752 217.076 14.3361 216.761C13.9969 216.447 13.7892 216.015 13.7545 215.554L13.7499 215.417H8.24992C8.25006 215.879 8.07538 216.325 7.76088 216.664C7.44638 217.003 7.01531 217.211 6.55409 217.245L6.41658 217.25H4.69142C4.37622 217.25 4.06637 217.169 3.7918 217.014C3.51722 216.859 3.28719 216.636 3.12392 216.366L3.0515 216.236L2.02667 214.187C1.92521 213.983 1.86242 213.763 1.8415 213.537L1.83325 213.367V209.244C1.83324 208.979 1.89079 208.717 2.00192 208.476L2.07525 208.334L5.35692 202.591C5.50458 202.332 5.71295 202.114 5.96401 201.954C6.21507 201.794 6.50128 201.698 6.79792 201.673L6.94825 201.667H15.0516ZM15.0516 203.5H6.94825L3.66659 209.244V213.367L4.69142 215.417H6.41658V214.592C6.41646 214.343 6.50807 214.104 6.67386 213.918C6.83965 213.733 7.06793 213.616 7.31492 213.589L7.42492 213.583H14.5749C14.8234 213.583 15.0632 213.675 15.2482 213.841C15.4333 214.006 15.5506 214.235 15.5778 214.482L15.5833 214.592V215.417H17.3084L18.3333 213.367V209.244L15.0516 203.5ZM15.1744 208.18C15.3918 208.071 15.6432 208.054 15.8735 208.131C16.1038 208.208 16.2942 208.373 16.4028 208.59C16.5091 208.808 16.5256 209.059 16.4488 209.289C16.372 209.519 16.208 209.71 15.9921 209.82C14.4851 210.572 12.6591 210.833 10.9999 210.833C9.30775 210.833 7.54409 210.575 6.01142 209.822C5.79556 209.711 5.63151 209.521 5.55414 209.29C5.47676 209.06 5.49217 208.809 5.59708 208.59C5.69952 208.39 5.87149 208.234 6.08075 208.152C6.29001 208.069 6.52219 208.066 6.73375 208.142L6.9785 208.247L7.20217 208.336L7.40292 208.41L7.64125 208.489L7.91808 208.573L8.22975 208.656L8.57533 208.739L8.95209 208.814C9.62768 208.938 10.3131 209 10.9999 209C12.3896 209 13.9039 208.787 15.1744 208.18Z" fill="black"/>
    </g>
    <path d="M78.08 9V0.599999H81.848C82.816 0.599999 83.548 0.848 84.044 1.344C84.42 1.72 84.608 2.192 84.608 2.76C84.608 3.592 84.208 4.216 83.408 4.632C84.52 5.008 85.076 5.696 85.076 6.696C85.076 7.432 84.796 8 84.236 8.4C83.676 8.8 82.92 9 81.968 9H78.08ZM79.532 4.14H81.548C82.036 4.14 82.42 4.044 82.7 3.852C82.988 3.652 83.132 3.36 83.132 2.976C83.132 2.64 83.004 2.38 82.748 2.196C82.492 2.004 82.128 1.908 81.656 1.908H79.532V4.14ZM79.532 7.692H81.98C82.492 7.692 82.888 7.592 83.168 7.392C83.456 7.192 83.6 6.9 83.6 6.516C83.6 5.764 83.024 5.388 81.872 5.388H79.532V7.692ZM86.5722 9V2.664H88.0242V4.884H89.3562C90.1082 4.884 90.7162 5.052 91.1802 5.388C91.6442 5.724 91.8762 6.224 91.8762 6.888C91.8762 7.544 91.6602 8.06 91.2282 8.436C90.7962 8.812 90.2082 9 89.4642 9H86.5722ZM88.0242 7.824H89.2722C89.6402 7.824 89.9242 7.744 90.1242 7.584C90.3242 7.424 90.4242 7.192 90.4242 6.888C90.4242 6.608 90.3202 6.392 90.1122 6.24C89.9122 6.088 89.6242 6.012 89.2482 6.012H88.0242V7.824ZM92.8362 9V2.664H94.2882V9H92.8362ZM99.2072 7.884C99.7432 7.884 100.179 7.7 100.515 7.332C100.859 6.956 101.031 6.492 101.031 5.94C101.031 5.396 100.851 4.936 100.491 4.56C100.139 4.176 99.7032 3.984 99.1832 3.984C98.6552 3.984 98.2192 4.172 97.8752 4.548C97.5392 4.924 97.3712 5.388 97.3712 5.94C97.3712 6.484 97.5472 6.944 97.8992 7.32C98.2512 7.696 98.6872 7.884 99.2072 7.884ZM99.1832 9.144C98.1592 9.144 97.3592 8.82 96.7832 8.172C96.2072 7.524 95.9192 6.616 95.9192 5.448C95.9192 5.072 95.9272 4.744 95.9432 4.464C95.9672 4.176 96.0072 3.868 96.0632 3.54C96.1192 3.204 96.2032 2.912 96.3152 2.664C96.4352 2.416 96.5832 2.18 96.7592 1.956C96.9432 1.724 97.1752 1.532 97.4552 1.38C97.7432 1.22 98.0752 1.1 98.4512 1.02L101.907 0.3L102.147 1.464L98.6912 2.22C98.1152 2.34 97.7032 2.556 97.4552 2.868C97.2072 3.172 97.0632 3.556 97.0232 4.02C97.2152 3.7 97.5152 3.424 97.9232 3.192C98.3392 2.952 98.8512 2.832 99.4592 2.832C100.283 2.832 100.991 3.132 101.583 3.732C102.183 4.324 102.483 5.052 102.483 5.916C102.483 6.804 102.167 7.564 101.535 8.196C100.911 8.828 100.127 9.144 99.1832 9.144ZM106.975 9.144C106.015 9.144 105.215 8.824 104.575 8.184C103.935 7.544 103.615 6.764 103.615 5.844C103.615 4.924 103.939 4.144 104.587 3.504C105.235 2.856 106.039 2.532 106.999 2.532C107.959 2.532 108.759 2.852 109.399 3.492C110.047 4.132 110.371 4.916 110.371 5.844C110.371 6.756 110.047 7.536 109.399 8.184C108.751 8.824 107.943 9.144 106.975 9.144ZM106.999 7.884C107.575 7.884 108.039 7.688 108.391 7.296C108.743 6.904 108.919 6.42 108.919 5.844C108.919 5.276 108.735 4.796 108.367 4.404C107.999 4.004 107.535 3.804 106.975 3.804C106.407 3.804 105.947 4 105.595 4.392C105.243 4.784 105.067 5.268 105.067 5.844C105.067 6.404 105.251 6.884 105.619 7.284C105.987 7.684 106.447 7.884 106.999 7.884ZM111.85 10.92V2.664H113.302V3.72C113.862 2.928 114.578 2.532 115.45 2.532C116.25 2.532 116.942 2.832 117.526 3.432C118.11 4.024 118.402 4.828 118.402 5.844C118.402 6.844 118.11 7.644 117.526 8.244C116.942 8.836 116.25 9.132 115.45 9.132C114.578 9.132 113.862 8.76 113.302 8.016V10.92H111.85ZM115.114 7.872C115.626 7.872 116.054 7.684 116.398 7.308C116.75 6.932 116.926 6.436 116.926 5.82C116.926 5.22 116.75 4.732 116.398 4.356C116.046 3.98 115.618 3.792 115.114 3.792C114.61 3.792 114.174 3.984 113.806 4.368C113.446 4.752 113.266 5.244 113.266 5.844C113.266 6.436 113.446 6.924 113.806 7.308C114.174 7.684 114.61 7.872 115.114 7.872ZM123.486 9V2.664H129.138V9H127.686V3.912H124.938V9H123.486ZM133.975 9.144C133.015 9.144 132.215 8.824 131.575 8.184C130.935 7.544 130.615 6.764 130.615 5.844C130.615 4.924 130.939 4.144 131.587 3.504C132.235 2.856 133.039 2.532 133.999 2.532C134.959 2.532 135.759 2.852 136.399 3.492C137.047 4.132 137.371 4.916 137.371 5.844C137.371 6.756 137.047 7.536 136.399 8.184C135.751 8.824 134.943 9.144 133.975 9.144ZM133.999 7.884C134.575 7.884 135.039 7.688 135.391 7.296C135.743 6.904 135.919 6.42 135.919 5.844C135.919 5.276 135.735 4.796 135.367 4.404C134.999 4.004 134.535 3.804 133.975 3.804C133.407 3.804 132.947 4 132.595 4.392C132.243 4.784 132.067 5.268 132.067 5.844C132.067 6.404 132.251 6.884 132.619 7.284C132.987 7.684 133.447 7.884 133.999 7.884ZM138.118 10.524V7.752H138.802C139.274 6.808 139.51 5.372 139.51 3.444V2.664H144.418V7.752H145.318L145.126 10.524H143.914V9H139.474L139.33 10.524H138.118ZM140.29 7.752H142.966V3.912H140.878V4.752C140.878 5.928 140.682 6.928 140.29 7.752ZM145.973 9L148.301 5.784L146.057 2.664H147.641L149.105 4.752L150.569 2.664H152.117L149.873 5.748L152.213 9H150.629L149.069 6.78L147.521 9H145.973ZM156.498 9.144C155.538 9.144 154.738 8.824 154.098 8.184C153.458 7.544 153.138 6.764 153.138 5.844C153.138 4.924 153.462 4.144 154.11 3.504C154.758 2.856 155.562 2.532 156.522 2.532C157.482 2.532 158.282 2.852 158.922 3.492C159.57 4.132 159.894 4.916 159.894 5.844C159.894 6.756 159.57 7.536 158.922 8.184C158.274 8.824 157.466 9.144 156.498 9.144ZM156.522 7.884C157.098 7.884 157.562 7.688 157.914 7.296C158.266 6.904 158.442 6.42 158.442 5.844C158.442 5.276 158.258 4.796 157.89 4.404C157.522 4.004 157.058 3.804 156.498 3.804C155.93 3.804 155.47 4 155.118 4.392C154.766 4.784 154.59 5.268 154.59 5.844C154.59 6.404 154.774 6.884 155.142 7.284C155.51 7.684 155.97 7.884 156.522 7.884ZM160.641 10.524V7.752H161.325C161.797 6.808 162.033 5.372 162.033 3.444V2.664H166.941V7.752H167.841L167.649 10.524H166.437V9H161.997L161.853 10.524H160.641ZM162.813 7.752H165.489V3.912H163.401V4.752C163.401 5.928 163.205 6.928 162.813 7.752ZM168.473 9L170.225 6.624C169.777 6.488 169.417 6.26 169.145 5.94C168.881 5.612 168.749 5.208 168.749 4.728C168.749 4.104 168.969 3.604 169.409 3.228C169.849 2.852 170.461 2.664 171.245 2.664H174.425V9H172.973V6.864H171.677L170.177 9H168.473ZM171.449 5.772H172.973V3.84H171.437C171.053 3.84 170.749 3.928 170.525 4.104C170.309 4.272 170.201 4.504 170.201 4.8C170.201 5.104 170.313 5.344 170.537 5.52C170.769 5.688 171.073 5.772 171.449 5.772ZM184.776 10.524V9H176.244V2.664H177.696V7.752H180.036V2.664H181.476V7.752H183.816V2.664H185.268V7.752H186.168L185.988 10.524H184.776ZM190.281 9.144C189.353 9.144 188.577 8.836 187.953 8.22C187.337 7.604 187.029 6.808 187.029 5.832C187.029 4.912 187.321 4.132 187.905 3.492C188.489 2.852 189.229 2.532 190.125 2.532C191.085 2.532 191.829 2.86 192.357 3.516C192.893 4.164 193.161 4.972 193.161 5.94C193.161 6.116 193.153 6.252 193.137 6.348H188.481C188.561 6.852 188.765 7.248 189.093 7.536C189.421 7.816 189.825 7.956 190.305 7.956C190.929 7.956 191.501 7.704 192.021 7.2L192.873 7.956C192.217 8.748 191.353 9.144 190.281 9.144ZM188.469 5.388H191.721C191.673 4.9 191.509 4.5 191.229 4.188C190.949 3.876 190.577 3.72 190.113 3.72C189.673 3.72 189.305 3.876 189.009 4.188C188.713 4.492 188.533 4.892 188.469 5.388ZM194.619 9V2.664H199.107V3.912H196.071V9H194.619ZM203.268 9.144C202.308 9.144 201.508 8.824 200.868 8.184C200.228 7.544 199.908 6.764 199.908 5.844C199.908 4.924 200.232 4.144 200.88 3.504C201.528 2.856 202.332 2.532 203.292 2.532C204.252 2.532 205.052 2.852 205.692 3.492C206.34 4.132 206.664 4.916 206.664 5.844C206.664 6.756 206.34 7.536 205.692 8.184C205.044 8.824 204.236 9.144 203.268 9.144ZM203.292 7.884C203.868 7.884 204.332 7.688 204.684 7.296C205.036 6.904 205.212 6.42 205.212 5.844C205.212 5.276 205.028 4.796 204.66 4.404C204.292 4.004 203.828 3.804 203.268 3.804C202.7 3.804 202.24 4 201.888 4.392C201.536 4.784 201.36 5.268 201.36 5.844C201.36 6.404 201.544 6.884 201.912 7.284C202.28 7.684 202.74 7.884 203.292 7.884ZM83.228 26H81.788V25.22C81.276 25.828 80.592 26.132 79.736 26.132C79.104 26.132 78.568 25.96 78.128 25.616C77.696 25.264 77.48 24.776 77.48 24.152C77.48 23.472 77.716 22.956 78.188 22.604C78.66 22.252 79.28 22.076 80.048 22.076C80.664 22.076 81.248 22.164 81.8 22.34V22.22C81.8 21.78 81.664 21.444 81.392 21.212C81.128 20.98 80.744 20.864 80.24 20.864C79.664 20.864 79.06 20.996 78.428 21.26L78.032 20.096C78.816 19.744 79.62 19.568 80.444 19.568C81.364 19.568 82.056 19.8 82.52 20.264C82.992 20.728 83.228 21.388 83.228 22.244V26ZM81.824 23.708V23.348C81.392 23.18 80.908 23.096 80.372 23.096C79.916 23.096 79.56 23.184 79.304 23.36C79.048 23.536 78.92 23.784 78.92 24.104C78.92 24.392 79.036 24.62 79.268 24.788C79.5 24.956 79.792 25.04 80.144 25.04C80.632 25.04 81.032 24.916 81.344 24.668C81.664 24.42 81.824 24.1 81.824 23.708ZM84.955 26V19.664H88.207C88.839 19.664 89.343 19.808 89.719 20.096C90.103 20.376 90.295 20.76 90.295 21.248C90.295 21.912 89.955 22.396 89.275 22.7C90.147 22.948 90.583 23.476 90.583 24.284C90.583 24.82 90.371 25.24 89.947 25.544C89.531 25.848 88.963 26 88.243 26H84.955ZM86.383 24.848H88.027C88.371 24.848 88.635 24.776 88.819 24.632C89.011 24.48 89.107 24.28 89.107 24.032C89.107 23.792 89.007 23.604 88.807 23.468C88.615 23.332 88.331 23.264 87.955 23.264H86.383V24.848ZM86.383 22.28H87.871C88.167 22.28 88.399 22.208 88.567 22.064C88.735 21.92 88.819 21.732 88.819 21.5C88.819 21.284 88.743 21.112 88.591 20.984C88.439 20.848 88.207 20.78 87.895 20.78H86.383V22.28ZM93.3891 26V20.912H91.3491V19.664H96.8931V20.912H94.8531V26H93.3891ZM101.057 26.144C100.097 26.144 99.2968 25.824 98.6568 25.184C98.0168 24.544 97.6968 23.764 97.6968 22.844C97.6968 21.924 98.0208 21.144 98.6688 20.504C99.3168 19.856 100.121 19.532 101.081 19.532C102.041 19.532 102.841 19.852 103.481 20.492C104.129 21.132 104.453 21.916 104.453 22.844C104.453 23.756 104.129 24.536 103.481 25.184C102.833 25.824 102.025 26.144 101.057 26.144ZM101.081 24.884C101.657 24.884 102.121 24.688 102.473 24.296C102.825 23.904 103.001 23.42 103.001 22.844C103.001 22.276 102.817 21.796 102.449 21.404C102.081 21.004 101.617 20.804 101.057 20.804C100.489 20.804 100.029 21 99.6768 21.392C99.3248 21.784 99.1488 22.268 99.1488 22.844C99.1488 23.404 99.3328 23.884 99.7008 24.284C100.069 24.684 100.529 24.884 101.081 24.884ZM105.932 26V19.664H107.372L109.352 22.604L111.344 19.664H112.784V26H111.32V21.776L109.328 24.62L107.348 21.8V26H105.932ZM117.615 26.144C116.655 26.144 115.855 25.824 115.215 25.184C114.575 24.544 114.255 23.764 114.255 22.844C114.255 21.924 114.579 21.144 115.227 20.504C115.875 19.856 116.679 19.532 117.639 19.532C118.599 19.532 119.399 19.852 120.039 20.492C120.687 21.132 121.011 21.916 121.011 22.844C121.011 23.756 120.687 24.536 120.039 25.184C119.391 25.824 118.583 26.144 117.615 26.144ZM117.639 24.884C118.215 24.884 118.679 24.688 119.031 24.296C119.383 23.904 119.559 23.42 119.559 22.844C119.559 22.276 119.375 21.796 119.007 21.404C118.639 21.004 118.175 20.804 117.615 20.804C117.047 20.804 116.587 21 116.235 21.392C115.883 21.784 115.707 22.268 115.707 22.844C115.707 23.404 115.891 23.884 116.259 24.284C116.627 24.684 117.087 24.884 117.639 24.884ZM125.586 24.884C126.122 24.884 126.558 24.7 126.894 24.332C127.238 23.956 127.41 23.492 127.41 22.94C127.41 22.396 127.23 21.936 126.87 21.56C126.518 21.176 126.082 20.984 125.562 20.984C125.034 20.984 124.598 21.172 124.254 21.548C123.918 21.924 123.75 22.388 123.75 22.94C123.75 23.484 123.926 23.944 124.278 24.32C124.63 24.696 125.066 24.884 125.586 24.884ZM125.562 26.144C124.538 26.144 123.738 25.82 123.162 25.172C122.586 24.524 122.298 23.616 122.298 22.448C122.298 22.072 122.306 21.744 122.322 21.464C122.346 21.176 122.386 20.868 122.442 20.54C122.498 20.204 122.582 19.912 122.694 19.664C122.814 19.416 122.962 19.18 123.138 18.956C123.322 18.724 123.554 18.532 123.834 18.38C124.122 18.22 124.454 18.1 124.83 18.02L128.286 17.3L128.526 18.464L125.07 19.22C124.494 19.34 124.082 19.556 123.834 19.868C123.586 20.172 123.442 20.556 123.402 21.02C123.594 20.7 123.894 20.424 124.302 20.192C124.718 19.952 125.23 19.832 125.838 19.832C126.662 19.832 127.37 20.132 127.962 20.732C128.562 21.324 128.862 22.052 128.862 22.916C128.862 23.804 128.546 24.564 127.914 25.196C127.29 25.828 126.506 26.144 125.562 26.144ZM130.342 26V19.664H131.758V23.912C133.086 22.024 134.086 20.608 134.758 19.664H136.126V26H134.722V21.776L131.71 26H130.342ZM137.899 26.072C137.667 26.072 137.383 26.044 137.047 25.988L137.155 24.8C137.283 24.832 137.423 24.848 137.575 24.848C137.743 24.848 137.879 24.824 137.983 24.776C138.095 24.728 138.207 24.608 138.319 24.416C138.439 24.216 138.531 23.936 138.595 23.576C138.659 23.216 138.711 22.712 138.751 22.064C138.791 21.408 138.811 20.608 138.811 19.664H143.599V26H142.147V20.912H140.167C140.167 21.816 140.131 22.584 140.059 23.216C139.987 23.848 139.891 24.348 139.771 24.716C139.659 25.084 139.499 25.372 139.291 25.58C139.091 25.78 138.887 25.912 138.679 25.976C138.471 26.04 138.211 26.072 137.899 26.072ZM144.848 26L146.6 23.624C146.152 23.488 145.792 23.26 145.52 22.94C145.256 22.612 145.124 22.208 145.124 21.728C145.124 21.104 145.344 20.604 145.784 20.228C146.224 19.852 146.836 19.664 147.62 19.664H150.8V26H149.348V23.864H148.052L146.552 26H144.848ZM147.824 22.772H149.348V20.84H147.812C147.428 20.84 147.124 20.928 146.9 21.104C146.684 21.272 146.576 21.504 146.576 21.8C146.576 22.104 146.688 22.344 146.912 22.52C147.144 22.688 147.448 22.772 147.824 22.772Z" fill="#212121"/>
    <path d="M78.08 74V65.6H84.932V74H83.456V66.932H79.556V74H78.08ZM89.9357 74.144C88.9757 74.144 88.1757 73.824 87.5357 73.184C86.8957 72.544 86.5757 71.764 86.5757 70.844C86.5757 69.924 86.8997 69.144 87.5477 68.504C88.1957 67.856 88.9997 67.532 89.9597 67.532C90.9197 67.532 91.7197 67.852 92.3597 68.492C93.0077 69.132 93.3317 69.916 93.3317 70.844C93.3317 71.756 93.0077 72.536 92.3597 73.184C91.7117 73.824 90.9037 74.144 89.9357 74.144ZM89.9597 72.884C90.5357 72.884 90.9997 72.688 91.3517 72.296C91.7037 71.904 91.8797 71.42 91.8797 70.844C91.8797 70.276 91.6957 69.796 91.3277 69.404C90.9597 69.004 90.4957 68.804 89.9357 68.804C89.3677 68.804 88.9077 69 88.5557 69.392C88.2037 69.784 88.0277 70.268 88.0277 70.844C88.0277 71.404 88.2117 71.884 88.5797 72.284C88.9477 72.684 89.4077 72.884 89.9597 72.884ZM94.8104 74V67.664H96.2504V70.7L99.0104 67.664H100.714L98.2544 70.328L100.918 74H99.2024L97.2824 71.384L96.2504 72.476V74H94.8104ZM103.22 75.956C102.692 75.956 102.192 75.828 101.72 75.572L102.212 74.492C102.508 74.652 102.792 74.732 103.064 74.732C103.272 74.732 103.444 74.676 103.58 74.564C103.716 74.46 103.844 74.272 103.964 74L101.324 67.664H102.872L104.672 72.368L106.316 67.664H107.828L105.308 74.18C105.052 74.828 104.768 75.284 104.456 75.548C104.144 75.82 103.732 75.956 103.22 75.956ZM109.072 74V67.664H114.724V74H113.272V68.912H110.524V74H109.072ZM116.549 74V67.664H117.989V70.7L120.749 67.664H122.453L119.993 70.328L122.657 74H120.941L119.021 71.384L117.989 72.476V74H116.549ZM128.978 74H127.538V73.22C127.026 73.828 126.342 74.132 125.486 74.132C124.854 74.132 124.318 73.96 123.878 73.616C123.446 73.264 123.23 72.776 123.23 72.152C123.23 71.472 123.466 70.956 123.938 70.604C124.41 70.252 125.03 70.076 125.798 70.076C126.414 70.076 126.998 70.164 127.55 70.34V70.22C127.55 69.78 127.414 69.444 127.142 69.212C126.878 68.98 126.494 68.864 125.99 68.864C125.414 68.864 124.81 68.996 124.178 69.26L123.782 68.096C124.566 67.744 125.37 67.568 126.194 67.568C127.114 67.568 127.806 67.8 128.27 68.264C128.742 68.728 128.978 69.388 128.978 70.244V74ZM127.574 71.708V71.348C127.142 71.18 126.658 71.096 126.122 71.096C125.666 71.096 125.31 71.184 125.054 71.36C124.798 71.536 124.67 71.784 124.67 72.104C124.67 72.392 124.786 72.62 125.018 72.788C125.25 72.956 125.542 73.04 125.894 73.04C126.382 73.04 126.782 72.916 127.094 72.668C127.414 72.42 127.574 72.1 127.574 71.708ZM139.619 74H138.179V73.22C137.667 73.828 136.983 74.132 136.127 74.132C135.495 74.132 134.959 73.96 134.519 73.616C134.087 73.264 133.871 72.776 133.871 72.152C133.871 71.472 134.107 70.956 134.579 70.604C135.051 70.252 135.671 70.076 136.439 70.076C137.055 70.076 137.639 70.164 138.191 70.34V70.22C138.191 69.78 138.055 69.444 137.783 69.212C137.519 68.98 137.135 68.864 136.631 68.864C136.055 68.864 135.451 68.996 134.819 69.26L134.423 68.096C135.207 67.744 136.011 67.568 136.835 67.568C137.755 67.568 138.447 67.8 138.911 68.264C139.383 68.728 139.619 69.388 139.619 70.244V74ZM138.215 71.708V71.348C137.783 71.18 137.299 71.096 136.763 71.096C136.307 71.096 135.951 71.184 135.695 71.36C135.439 71.536 135.311 71.784 135.311 72.104C135.311 72.392 135.427 72.62 135.659 72.788C135.891 72.956 136.183 73.04 136.535 73.04C137.023 73.04 137.423 72.916 137.735 72.668C138.055 72.42 138.215 72.1 138.215 71.708ZM141.346 74V67.664H144.598C145.23 67.664 145.734 67.808 146.11 68.096C146.494 68.376 146.686 68.76 146.686 69.248C146.686 69.912 146.346 70.396 145.666 70.7C146.538 70.948 146.974 71.476 146.974 72.284C146.974 72.82 146.762 73.24 146.338 73.544C145.922 73.848 145.354 74 144.634 74H141.346ZM142.774 72.848H144.418C144.762 72.848 145.026 72.776 145.21 72.632C145.402 72.48 145.498 72.28 145.498 72.032C145.498 71.792 145.398 71.604 145.198 71.468C145.006 71.332 144.722 71.264 144.346 71.264H142.774V72.848ZM142.774 70.28H144.262C144.558 70.28 144.79 70.208 144.958 70.064C145.126 69.92 145.21 69.732 145.21 69.5C145.21 69.284 145.134 69.112 144.982 68.984C144.83 68.848 144.598 68.78 144.286 68.78H142.774V70.28ZM149.78 74V68.912H147.74V67.664H153.284V68.912H151.244V74H149.78ZM157.447 74.144C156.487 74.144 155.687 73.824 155.047 73.184C154.407 72.544 154.087 71.764 154.087 70.844C154.087 69.924 154.411 69.144 155.059 68.504C155.707 67.856 156.511 67.532 157.471 67.532C158.431 67.532 159.231 67.852 159.871 68.492C160.519 69.132 160.843 69.916 160.843 70.844C160.843 71.756 160.519 72.536 159.871 73.184C159.223 73.824 158.415 74.144 157.447 74.144ZM157.471 72.884C158.047 72.884 158.511 72.688 158.863 72.296C159.215 71.904 159.391 71.42 159.391 70.844C159.391 70.276 159.207 69.796 158.839 69.404C158.471 69.004 158.007 68.804 157.447 68.804C156.879 68.804 156.419 69 156.067 69.392C155.715 69.784 155.539 70.268 155.539 70.844C155.539 71.404 155.723 71.884 156.091 72.284C156.459 72.684 156.919 72.884 157.471 72.884ZM162.322 74V67.664H163.762L165.742 70.604L167.734 67.664H169.174V74H167.71V69.776L165.718 72.62L163.738 69.8V74H162.322ZM174.006 74.144C173.046 74.144 172.246 73.824 171.606 73.184C170.966 72.544 170.646 71.764 170.646 70.844C170.646 69.924 170.97 69.144 171.618 68.504C172.266 67.856 173.07 67.532 174.03 67.532C174.99 67.532 175.79 67.852 176.43 68.492C177.078 69.132 177.402 69.916 177.402 70.844C177.402 71.756 177.078 72.536 176.43 73.184C175.782 73.824 174.974 74.144 174.006 74.144ZM174.03 72.884C174.606 72.884 175.07 72.688 175.422 72.296C175.774 71.904 175.95 71.42 175.95 70.844C175.95 70.276 175.766 69.796 175.398 69.404C175.03 69.004 174.566 68.804 174.006 68.804C173.438 68.804 172.978 69 172.626 69.392C172.274 69.784 172.098 70.268 172.098 70.844C172.098 71.404 172.282 71.884 172.65 72.284C173.018 72.684 173.478 72.884 174.03 72.884ZM181.977 72.884C182.513 72.884 182.949 72.7 183.285 72.332C183.629 71.956 183.801 71.492 183.801 70.94C183.801 70.396 183.621 69.936 183.261 69.56C182.909 69.176 182.473 68.984 181.953 68.984C181.425 68.984 180.989 69.172 180.645 69.548C180.309 69.924 180.141 70.388 180.141 70.94C180.141 71.484 180.317 71.944 180.669 72.32C181.021 72.696 181.457 72.884 181.977 72.884ZM181.953 74.144C180.929 74.144 180.129 73.82 179.553 73.172C178.977 72.524 178.689 71.616 178.689 70.448C178.689 70.072 178.697 69.744 178.713 69.464C178.737 69.176 178.777 68.868 178.833 68.54C178.889 68.204 178.973 67.912 179.085 67.664C179.205 67.416 179.353 67.18 179.529 66.956C179.713 66.724 179.945 66.532 180.225 66.38C180.513 66.22 180.845 66.1 181.221 66.02L184.677 65.3L184.917 66.464L181.461 67.22C180.885 67.34 180.473 67.556 180.225 67.868C179.977 68.172 179.833 68.556 179.793 69.02C179.985 68.7 180.285 68.424 180.693 68.192C181.109 67.952 181.621 67.832 182.229 67.832C183.053 67.832 183.761 68.132 184.353 68.732C184.953 69.324 185.253 70.052 185.253 70.916C185.253 71.804 184.937 72.564 184.305 73.196C183.681 73.828 182.897 74.144 181.953 74.144ZM186.732 74V67.664H188.148V71.912C189.476 70.024 190.476 68.608 191.148 67.664H192.516V74H191.112V69.776L188.1 74H186.732ZM194.29 74.072C194.058 74.072 193.774 74.044 193.438 73.988L193.546 72.8C193.674 72.832 193.814 72.848 193.966 72.848C194.134 72.848 194.27 72.824 194.374 72.776C194.486 72.728 194.598 72.608 194.71 72.416C194.83 72.216 194.922 71.936 194.986 71.576C195.05 71.216 195.102 70.712 195.142 70.064C195.182 69.408 195.202 68.608 195.202 67.664H199.99V74H198.538V68.912H196.558C196.558 69.816 196.522 70.584 196.45 71.216C196.378 71.848 196.282 72.348 196.162 72.716C196.05 73.084 195.89 73.372 195.682 73.58C195.482 73.78 195.278 73.912 195.07 73.976C194.862 74.04 194.602 74.072 194.29 74.072ZM201.238 74L202.99 71.624C202.542 71.488 202.182 71.26 201.91 70.94C201.646 70.612 201.514 70.208 201.514 69.728C201.514 69.104 201.734 68.604 202.174 68.228C202.614 67.852 203.226 67.664 204.01 67.664H207.19V74H205.738V71.864H204.442L202.942 74H201.238ZM204.214 70.772H205.738V68.84H204.202C203.818 68.84 203.514 68.928 203.29 69.104C203.074 69.272 202.966 69.504 202.966 69.8C202.966 70.104 203.078 70.344 203.302 70.52C203.534 70.688 203.838 70.772 204.214 70.772ZM80.072 91.144C78.984 91.144 78.06 90.82 77.3 90.172L77.984 89.212C78.576 89.716 79.24 89.968 79.976 89.968C80.312 89.968 80.596 89.888 80.828 89.728C81.06 89.56 81.176 89.348 81.176 89.092C81.176 88.852 81.064 88.66 80.84 88.516C80.616 88.372 80.3 88.3 79.892 88.3H79.112V87.256H79.892C80.228 87.256 80.496 87.18 80.696 87.028C80.904 86.868 81.008 86.668 81.008 86.428C81.008 86.212 80.908 86.04 80.708 85.912C80.516 85.776 80.268 85.708 79.964 85.708C79.26 85.708 78.66 85.924 78.164 86.356L77.516 85.444C78.212 84.836 79.072 84.532 80.096 84.532C80.792 84.532 81.36 84.692 81.8 85.012C82.24 85.332 82.46 85.74 82.46 86.236C82.46 86.908 82.128 87.388 81.464 87.676C82.232 87.948 82.616 88.46 82.616 89.212C82.616 89.756 82.38 90.216 81.908 90.592C81.436 90.96 80.824 91.144 80.072 91.144ZM89.4389 91H87.9989V90.22C87.4869 90.828 86.8029 91.132 85.9469 91.132C85.3149 91.132 84.7789 90.96 84.3389 90.616C83.9069 90.264 83.6909 89.776 83.6909 89.152C83.6909 88.472 83.9269 87.956 84.3989 87.604C84.8709 87.252 85.4909 87.076 86.2589 87.076C86.8749 87.076 87.4589 87.164 88.0109 87.34V87.22C88.0109 86.78 87.8749 86.444 87.6029 86.212C87.3389 85.98 86.9549 85.864 86.4509 85.864C85.8749 85.864 85.2709 85.996 84.6389 86.26L84.2429 85.096C85.0269 84.744 85.8309 84.568 86.6549 84.568C87.5749 84.568 88.2669 84.8 88.7309 85.264C89.2029 85.728 89.4389 86.388 89.4389 87.244V91ZM88.0349 88.708V88.348C87.6029 88.18 87.1189 88.096 86.5829 88.096C86.1269 88.096 85.7709 88.184 85.5149 88.36C85.2589 88.536 85.1309 88.784 85.1309 89.104C85.1309 89.392 85.2469 89.62 85.4789 89.788C85.7109 89.956 86.0029 90.04 86.3549 90.04C86.8429 90.04 87.2429 89.916 87.5549 89.668C87.8749 89.42 88.0349 89.1 88.0349 88.708ZM94.7636 92.92V84.664H96.2156V85.72C96.7756 84.928 97.4916 84.532 98.3636 84.532C99.1636 84.532 99.8556 84.832 100.44 85.432C101.024 86.024 101.316 86.828 101.316 87.844C101.316 88.844 101.024 89.644 100.44 90.244C99.8556 90.836 99.1636 91.132 98.3636 91.132C97.4916 91.132 96.7756 90.76 96.2156 90.016V92.92H94.7636ZM98.0276 89.872C98.5396 89.872 98.9676 89.684 99.3116 89.308C99.6636 88.932 99.8396 88.436 99.8396 87.82C99.8396 87.22 99.6636 86.732 99.3116 86.356C98.9596 85.98 98.5316 85.792 98.0276 85.792C97.5236 85.792 97.0876 85.984 96.7196 86.368C96.3596 86.752 96.1796 87.244 96.1796 87.844C96.1796 88.436 96.3596 88.924 96.7196 89.308C97.0876 89.684 97.5236 89.872 98.0276 89.872ZM104.099 92.956C103.571 92.956 103.071 92.828 102.599 92.572L103.091 91.492C103.387 91.652 103.671 91.732 103.943 91.732C104.151 91.732 104.323 91.676 104.459 91.564C104.595 91.46 104.723 91.272 104.843 91L102.203 84.664H103.751L105.551 89.368L107.195 84.664H108.707L106.187 91.18C105.931 91.828 105.647 92.284 105.335 92.548C105.023 92.82 104.611 92.956 104.099 92.956ZM113.047 89.884C113.583 89.884 114.019 89.7 114.355 89.332C114.699 88.956 114.871 88.492 114.871 87.94C114.871 87.396 114.691 86.936 114.331 86.56C113.979 86.176 113.543 85.984 113.023 85.984C112.495 85.984 112.059 86.172 111.715 86.548C111.379 86.924 111.211 87.388 111.211 87.94C111.211 88.484 111.387 88.944 111.739 89.32C112.091 89.696 112.527 89.884 113.047 89.884ZM113.023 91.144C111.999 91.144 111.199 90.82 110.623 90.172C110.047 89.524 109.759 88.616 109.759 87.448C109.759 87.072 109.767 86.744 109.783 86.464C109.807 86.176 109.847 85.868 109.903 85.54C109.959 85.204 110.043 84.912 110.155 84.664C110.275 84.416 110.423 84.18 110.599 83.956C110.783 83.724 111.015 83.532 111.295 83.38C111.583 83.22 111.915 83.1 112.291 83.02L115.747 82.3L115.987 83.464L112.531 84.22C111.955 84.34 111.543 84.556 111.295 84.868C111.047 85.172 110.903 85.556 110.863 86.02C111.055 85.7 111.355 85.424 111.763 85.192C112.179 84.952 112.691 84.832 113.299 84.832C114.123 84.832 114.831 85.132 115.423 85.732C116.023 86.324 116.323 87.052 116.323 87.916C116.323 88.804 116.007 89.564 115.375 90.196C114.751 90.828 113.967 91.144 113.023 91.144ZM120.707 91.144C119.779 91.144 119.003 90.836 118.379 90.22C117.763 89.604 117.455 88.808 117.455 87.832C117.455 86.912 117.747 86.132 118.331 85.492C118.915 84.852 119.655 84.532 120.551 84.532C121.511 84.532 122.255 84.86 122.783 85.516C123.319 86.164 123.587 86.972 123.587 87.94C123.587 88.116 123.579 88.252 123.563 88.348H118.907C118.987 88.852 119.191 89.248 119.519 89.536C119.847 89.816 120.251 89.956 120.731 89.956C121.355 89.956 121.927 89.704 122.447 89.2L123.299 89.956C122.643 90.748 121.779 91.144 120.707 91.144ZM118.895 87.388H122.147C122.099 86.9 121.935 86.5 121.655 86.188C121.375 85.876 121.003 85.72 120.539 85.72C120.099 85.72 119.731 85.876 119.435 86.188C119.139 86.492 118.959 86.892 118.895 87.388ZM124.241 91L126.725 87.328L124.337 84.664H126.029L128.657 87.772V84.664H130.109V87.772L132.749 84.664H134.441L132.053 87.328L134.525 91H132.893L131.081 88.3L130.109 89.404V91H128.657V89.404L127.685 88.3L125.873 91H124.241ZM138.557 91.144C137.597 91.144 136.797 90.824 136.157 90.184C135.517 89.544 135.197 88.764 135.197 87.844C135.197 86.924 135.521 86.144 136.169 85.504C136.817 84.856 137.621 84.532 138.581 84.532C139.541 84.532 140.341 84.852 140.981 85.492C141.629 86.132 141.953 86.916 141.953 87.844C141.953 88.756 141.629 89.536 140.981 90.184C140.333 90.824 139.525 91.144 138.557 91.144ZM138.581 89.884C139.157 89.884 139.621 89.688 139.973 89.296C140.325 88.904 140.501 88.42 140.501 87.844C140.501 87.276 140.317 86.796 139.949 86.404C139.581 86.004 139.117 85.804 138.557 85.804C137.989 85.804 137.529 86 137.177 86.392C136.825 86.784 136.649 87.268 136.649 87.844C136.649 88.404 136.833 88.884 137.201 89.284C137.569 89.684 138.029 89.884 138.581 89.884ZM143.432 91V84.664H144.872L146.852 87.604L148.844 84.664H150.284V91H148.82V86.776L146.828 89.62L144.848 86.8V91H143.432Z" fill="#212121"/>
    <path d="M85.244 136.872C84.412 137.72 83.36 138.144 82.088 138.144C80.816 138.144 79.768 137.724 78.944 136.884C78.12 136.044 77.708 135.016 77.708 133.8C77.708 132.6 78.124 131.576 78.956 130.728C79.788 129.88 80.84 129.456 82.112 129.456C83.384 129.456 84.432 129.876 85.256 130.716C86.08 131.556 86.492 132.584 86.492 133.8C86.492 135 86.076 136.024 85.244 136.872ZM80.06 135.924C80.604 136.5 81.288 136.788 82.112 136.788C82.936 136.788 83.612 136.5 84.14 135.924C84.676 135.348 84.944 134.64 84.944 133.8C84.944 132.968 84.672 132.264 84.128 131.688C83.592 131.104 82.912 130.812 82.088 130.812C81.264 130.812 80.584 131.1 80.048 131.676C79.52 132.252 79.256 132.96 79.256 133.8C79.256 134.632 79.524 135.34 80.06 135.924ZM88.1073 138V131.664H93.7593V138H92.3073V132.912H89.5593V138H88.1073ZM95.5359 138.072C95.3039 138.072 95.0199 138.044 94.6839 137.988L94.7919 136.8C94.9199 136.832 95.0599 136.848 95.2119 136.848C95.3799 136.848 95.5159 136.824 95.6199 136.776C95.7319 136.728 95.8439 136.608 95.9559 136.416C96.0759 136.216 96.1679 135.936 96.2319 135.576C96.2959 135.216 96.3479 134.712 96.3879 134.064C96.4279 133.408 96.4479 132.608 96.4479 131.664H101.236V138H99.7839V132.912H97.8039C97.8039 133.816 97.7679 134.584 97.6959 135.216C97.6239 135.848 97.5279 136.348 97.4079 136.716C97.2959 137.084 97.1359 137.372 96.9279 137.58C96.7279 137.78 96.5239 137.912 96.3159 137.976C96.1079 138.04 95.8479 138.072 95.5359 138.072ZM108.376 138H106.936V137.22C106.424 137.828 105.74 138.132 104.884 138.132C104.252 138.132 103.716 137.96 103.276 137.616C102.844 137.264 102.628 136.776 102.628 136.152C102.628 135.472 102.864 134.956 103.336 134.604C103.808 134.252 104.428 134.076 105.196 134.076C105.812 134.076 106.396 134.164 106.948 134.34V134.22C106.948 133.78 106.812 133.444 106.54 133.212C106.276 132.98 105.892 132.864 105.388 132.864C104.812 132.864 104.208 132.996 103.576 133.26L103.18 132.096C103.964 131.744 104.768 131.568 105.592 131.568C106.512 131.568 107.204 131.8 107.668 132.264C108.14 132.728 108.376 133.388 108.376 134.244V138ZM106.972 135.708V135.348C106.54 135.18 106.056 135.096 105.52 135.096C105.064 135.096 104.708 135.184 104.452 135.36C104.196 135.536 104.068 135.784 104.068 136.104C104.068 136.392 104.184 136.62 104.416 136.788C104.648 136.956 104.94 137.04 105.292 137.04C105.78 137.04 106.18 136.916 106.492 136.668C106.812 136.42 106.972 136.1 106.972 135.708ZM111.459 138V132.912H109.419V131.664H114.963V132.912H112.923V138H111.459ZM121.431 138H119.991V137.22C119.479 137.828 118.795 138.132 117.939 138.132C117.307 138.132 116.771 137.96 116.331 137.616C115.899 137.264 115.683 136.776 115.683 136.152C115.683 135.472 115.919 134.956 116.391 134.604C116.863 134.252 117.483 134.076 118.251 134.076C118.867 134.076 119.451 134.164 120.003 134.34V134.22C120.003 133.78 119.867 133.444 119.595 133.212C119.331 132.98 118.947 132.864 118.443 132.864C117.867 132.864 117.263 132.996 116.631 133.26L116.235 132.096C117.019 131.744 117.823 131.568 118.647 131.568C119.567 131.568 120.259 131.8 120.723 132.264C121.195 132.728 121.431 133.388 121.431 134.244V138ZM120.027 135.708V135.348C119.595 135.18 119.111 135.096 118.575 135.096C118.119 135.096 117.763 135.184 117.507 135.36C117.251 135.536 117.123 135.784 117.123 136.104C117.123 136.392 117.239 136.62 117.471 136.788C117.703 136.956 117.995 137.04 118.347 137.04C118.835 137.04 119.235 136.916 119.547 136.668C119.867 136.42 120.027 136.1 120.027 135.708ZM83.228 155H81.788V154.22C81.276 154.828 80.592 155.132 79.736 155.132C79.104 155.132 78.568 154.96 78.128 154.616C77.696 154.264 77.48 153.776 77.48 153.152C77.48 152.472 77.716 151.956 78.188 151.604C78.66 151.252 79.28 151.076 80.048 151.076C80.664 151.076 81.248 151.164 81.8 151.34V151.22C81.8 150.78 81.664 150.444 81.392 150.212C81.128 149.98 80.744 149.864 80.24 149.864C79.664 149.864 79.06 149.996 78.428 150.26L78.032 149.096C78.816 148.744 79.62 148.568 80.444 148.568C81.364 148.568 82.056 148.8 82.52 149.264C82.992 149.728 83.228 150.388 83.228 151.244V155ZM81.824 152.708V152.348C81.392 152.18 80.908 152.096 80.372 152.096C79.916 152.096 79.56 152.184 79.304 152.36C79.048 152.536 78.92 152.784 78.92 153.104C78.92 153.392 79.036 153.62 79.268 153.788C79.5 153.956 79.792 154.04 80.144 154.04C80.632 154.04 81.032 153.916 81.344 153.668C81.664 153.42 81.824 153.1 81.824 152.708ZM84.955 155V148.664H88.207C88.839 148.664 89.343 148.808 89.719 149.096C90.103 149.376 90.295 149.76 90.295 150.248C90.295 150.912 89.955 151.396 89.275 151.7C90.147 151.948 90.583 152.476 90.583 153.284C90.583 153.82 90.371 154.24 89.947 154.544C89.531 154.848 88.963 155 88.243 155H84.955ZM86.383 153.848H88.027C88.371 153.848 88.635 153.776 88.819 153.632C89.011 153.48 89.107 153.28 89.107 153.032C89.107 152.792 89.007 152.604 88.807 152.468C88.615 152.332 88.331 152.264 87.955 152.264H86.383V153.848ZM86.383 151.28H87.871C88.167 151.28 88.399 151.208 88.567 151.064C88.735 150.92 88.819 150.732 88.819 150.5C88.819 150.284 88.743 150.112 88.591 149.984C88.439 149.848 88.207 149.78 87.895 149.78H86.383V151.28ZM93.3891 155V149.912H91.3491V148.664H96.8931V149.912H94.8531V155H93.3891ZM101.057 155.144C100.097 155.144 99.2968 154.824 98.6568 154.184C98.0168 153.544 97.6968 152.764 97.6968 151.844C97.6968 150.924 98.0208 150.144 98.6688 149.504C99.3168 148.856 100.121 148.532 101.081 148.532C102.041 148.532 102.841 148.852 103.481 149.492C104.129 150.132 104.453 150.916 104.453 151.844C104.453 152.756 104.129 153.536 103.481 154.184C102.833 154.824 102.025 155.144 101.057 155.144ZM101.081 153.884C101.657 153.884 102.121 153.688 102.473 153.296C102.825 152.904 103.001 152.42 103.001 151.844C103.001 151.276 102.817 150.796 102.449 150.404C102.081 150.004 101.617 149.804 101.057 149.804C100.489 149.804 100.029 150 99.6768 150.392C99.3248 150.784 99.1488 151.268 99.1488 151.844C99.1488 152.404 99.3328 152.884 99.7008 153.284C100.069 153.684 100.529 153.884 101.081 153.884ZM105.932 155V148.664H107.372L109.352 151.604L111.344 148.664H112.784V155H111.32V150.776L109.328 153.62L107.348 150.8V155H105.932ZM117.615 155.144C116.655 155.144 115.855 154.824 115.215 154.184C114.575 153.544 114.255 152.764 114.255 151.844C114.255 150.924 114.579 150.144 115.227 149.504C115.875 148.856 116.679 148.532 117.639 148.532C118.599 148.532 119.399 148.852 120.039 149.492C120.687 150.132 121.011 150.916 121.011 151.844C121.011 152.756 120.687 153.536 120.039 154.184C119.391 154.824 118.583 155.144 117.615 155.144ZM117.639 153.884C118.215 153.884 118.679 153.688 119.031 153.296C119.383 152.904 119.559 152.42 119.559 151.844C119.559 151.276 119.375 150.796 119.007 150.404C118.639 150.004 118.175 149.804 117.615 149.804C117.047 149.804 116.587 150 116.235 150.392C115.883 150.784 115.707 151.268 115.707 151.844C115.707 152.404 115.891 152.884 116.259 153.284C116.627 153.684 117.087 153.884 117.639 153.884ZM125.586 153.884C126.122 153.884 126.558 153.7 126.894 153.332C127.238 152.956 127.41 152.492 127.41 151.94C127.41 151.396 127.23 150.936 126.87 150.56C126.518 150.176 126.082 149.984 125.562 149.984C125.034 149.984 124.598 150.172 124.254 150.548C123.918 150.924 123.75 151.388 123.75 151.94C123.75 152.484 123.926 152.944 124.278 153.32C124.63 153.696 125.066 153.884 125.586 153.884ZM125.562 155.144C124.538 155.144 123.738 154.82 123.162 154.172C122.586 153.524 122.298 152.616 122.298 151.448C122.298 151.072 122.306 150.744 122.322 150.464C122.346 150.176 122.386 149.868 122.442 149.54C122.498 149.204 122.582 148.912 122.694 148.664C122.814 148.416 122.962 148.18 123.138 147.956C123.322 147.724 123.554 147.532 123.834 147.38C124.122 147.22 124.454 147.1 124.83 147.02L128.286 146.3L128.526 147.464L125.07 148.22C124.494 148.34 124.082 148.556 123.834 148.868C123.586 149.172 123.442 149.556 123.402 150.02C123.594 149.7 123.894 149.424 124.302 149.192C124.718 148.952 125.23 148.832 125.838 148.832C126.662 148.832 127.37 149.132 127.962 149.732C128.562 150.324 128.862 151.052 128.862 151.916C128.862 152.804 128.546 153.564 127.914 154.196C127.29 154.828 126.506 155.144 125.562 155.144ZM130.342 155V148.664H131.758V152.912C133.086 151.024 134.086 149.608 134.758 148.664H136.126V155H134.722V150.776L131.71 155H130.342ZM137.899 155.072C137.667 155.072 137.383 155.044 137.047 154.988L137.155 153.8C137.283 153.832 137.423 153.848 137.575 153.848C137.743 153.848 137.879 153.824 137.983 153.776C138.095 153.728 138.207 153.608 138.319 153.416C138.439 153.216 138.531 152.936 138.595 152.576C138.659 152.216 138.711 151.712 138.751 151.064C138.791 150.408 138.811 149.608 138.811 148.664H143.599V155H142.147V149.912H140.167C140.167 150.816 140.131 151.584 140.059 152.216C139.987 152.848 139.891 153.348 139.771 153.716C139.659 154.084 139.499 154.372 139.291 154.58C139.091 154.78 138.887 154.912 138.679 154.976C138.471 155.04 138.211 155.072 137.899 155.072ZM144.848 155L146.6 152.624C146.152 152.488 145.792 152.26 145.52 151.94C145.256 151.612 145.124 151.208 145.124 150.728C145.124 150.104 145.344 149.604 145.784 149.228C146.224 148.852 146.836 148.664 147.62 148.664H150.8V155H149.348V152.864H148.052L146.552 155H144.848ZM147.824 151.772H149.348V149.84H147.812C147.428 149.84 147.124 149.928 146.9 150.104C146.684 150.272 146.576 150.504 146.576 150.8C146.576 151.104 146.688 151.344 146.912 151.52C147.144 151.688 147.448 151.772 147.824 151.772Z" fill="#212121"/>
    <path d="M78.8183 213V204.6H85.6703V213H84.1943V205.932H80.2943V213H78.8183ZM90.674 213.144C89.714 213.144 88.914 212.824 88.274 212.184C87.634 211.544 87.314 210.764 87.314 209.844C87.314 208.924 87.638 208.144 88.286 207.504C88.934 206.856 89.738 206.532 90.698 206.532C91.658 206.532 92.458 206.852 93.098 207.492C93.746 208.132 94.07 208.916 94.07 209.844C94.07 210.756 93.746 211.536 93.098 212.184C92.45 212.824 91.642 213.144 90.674 213.144ZM90.698 211.884C91.274 211.884 91.738 211.688 92.09 211.296C92.442 210.904 92.618 210.42 92.618 209.844C92.618 209.276 92.434 208.796 92.066 208.404C91.698 208.004 91.234 207.804 90.674 207.804C90.106 207.804 89.646 208 89.294 208.392C88.942 208.784 88.766 209.268 88.766 209.844C88.766 210.404 88.95 210.884 89.318 211.284C89.686 211.684 90.146 211.884 90.698 211.884ZM95.5007 213.072C95.2687 213.072 94.9847 213.044 94.6487 212.988L94.7567 211.8C94.8847 211.832 95.0247 211.848 95.1767 211.848C95.3447 211.848 95.4807 211.824 95.5847 211.776C95.6967 211.728 95.8087 211.608 95.9207 211.416C96.0407 211.216 96.1327 210.936 96.1967 210.576C96.2607 210.216 96.3127 209.712 96.3527 209.064C96.3927 208.408 96.4127 207.608 96.4127 206.664H101.201V213H99.7487V207.912H97.7687C97.7687 208.816 97.7327 209.584 97.6607 210.216C97.5887 210.848 97.4927 211.348 97.3727 211.716C97.2607 212.084 97.1007 212.372 96.8927 212.58C96.6927 212.78 96.4887 212.912 96.2807 212.976C96.0727 213.04 95.8127 213.072 95.5007 213.072ZM104.321 214.956C103.793 214.956 103.293 214.828 102.821 214.572L103.313 213.492C103.609 213.652 103.893 213.732 104.165 213.732C104.373 213.732 104.545 213.676 104.681 213.564C104.817 213.46 104.945 213.272 105.065 213L102.425 206.664H103.973L105.773 211.368L107.417 206.664H108.929L106.409 213.18C106.153 213.828 105.869 214.284 105.557 214.548C105.245 214.82 104.833 214.956 104.321 214.956ZM114.026 213V210.636C113.402 210.956 112.774 211.116 112.142 211.116C111.494 211.116 110.97 210.944 110.57 210.6C110.178 210.248 109.982 209.756 109.982 209.124V206.664H111.434V208.776C111.434 209.08 111.53 209.34 111.722 209.556C111.914 209.772 112.166 209.88 112.478 209.88C113.022 209.88 113.538 209.74 114.026 209.46V206.664H115.478V213H114.026ZM120.203 213.144C119.275 213.144 118.499 212.836 117.875 212.22C117.259 211.604 116.951 210.808 116.951 209.832C116.951 208.912 117.243 208.132 117.827 207.492C118.411 206.852 119.151 206.532 120.047 206.532C121.007 206.532 121.751 206.86 122.279 207.516C122.815 208.164 123.083 208.972 123.083 209.94C123.083 210.116 123.075 210.252 123.059 210.348H118.403C118.483 210.852 118.687 211.248 119.015 211.536C119.343 211.816 119.747 211.956 120.227 211.956C120.851 211.956 121.423 211.704 121.943 211.2L122.795 211.956C122.139 212.748 121.275 213.144 120.203 213.144ZM118.391 209.388H121.643C121.595 208.9 121.431 208.5 121.151 208.188C120.871 207.876 120.499 207.72 120.035 207.72C119.595 207.72 119.227 207.876 118.931 208.188C118.635 208.492 118.455 208.892 118.391 209.388ZM124.541 213V206.664H125.993V209.232H128.789V206.664H130.241V213H128.789V210.444H125.993V213H124.541ZM132.064 213V206.664H133.48V210.912C134.808 209.024 135.808 207.608 136.48 206.664H137.848V213H136.444V208.776L133.432 213H132.064ZM142.574 213.144C141.646 213.144 140.87 212.836 140.246 212.22C139.63 211.604 139.322 210.808 139.322 209.832C139.322 208.912 139.614 208.132 140.198 207.492C140.782 206.852 141.522 206.532 142.418 206.532C143.378 206.532 144.122 206.86 144.65 207.516C145.186 208.164 145.454 208.972 145.454 209.94C145.454 210.116 145.446 210.252 145.43 210.348H140.774C140.854 210.852 141.058 211.248 141.386 211.536C141.714 211.816 142.118 211.956 142.598 211.956C143.222 211.956 143.794 211.704 144.314 211.2L145.166 211.956C144.51 212.748 143.646 213.144 142.574 213.144ZM140.762 209.388H144.014C143.966 208.9 143.802 208.5 143.522 208.188C143.242 207.876 142.87 207.72 142.406 207.72C141.966 207.72 141.598 207.876 141.302 208.188C141.006 208.492 140.826 208.892 140.762 209.388Z" fill="#212121"/>
    <defs>
        <clipPath id="clip0_163_1241">
            <rect width="22" height="22" fill="white" transform="translate(0 132)"/>
        </clipPath>
        <clipPath id="clip1_163_1241">
            <rect width="22" height="22" fill="white" transform="translate(0 198)"/>
        </clipPath>
    </defs>
</svg>
