<svg width="119" height="122" viewBox="0 0 119 122" fill="none" xmlns="http://www.w3.org/2000/svg">
<path d="M59.1868 82.125C53.5399 82.125 48.1242 79.8818 44.1313 75.8888C40.1383 71.8959 37.8951 66.4802 37.8951 60.8333C37.8951 55.1864 40.1383 49.7708 44.1313 45.7779C48.1242 41.7849 53.5399 39.5417 59.1868 39.5417C64.8337 39.5417 70.2493 41.7849 74.2422 45.7779C78.2352 49.7708 80.4784 55.1864 80.4784 60.8333C80.4784 66.4802 78.2352 71.8959 74.2422 75.8888C70.2493 79.8818 64.8337 82.125 59.1868 82.125ZM104.386 66.7342C104.629 64.7875 104.812 62.8408 104.812 60.8333C104.812 58.8258 104.629 56.8183 104.386 54.75L117.222 44.8342C118.378 43.9217 118.682 42.2792 117.952 40.9408L105.785 19.8925C105.055 18.5542 103.413 18.0067 102.074 18.5542L86.9268 24.6375C83.7634 22.265 80.4784 20.1967 76.6459 18.6758L74.3951 2.55501C74.2715 1.8385 73.8983 1.18886 73.3416 0.721199C72.7848 0.25354 72.0805 -0.00194529 71.3534 1.11536e-05H47.0201C45.4993 1.11536e-05 44.2218 1.09501 43.9784 2.55501L41.7276 18.6758C37.8951 20.1967 34.6101 22.265 31.4468 24.6375L16.2993 18.5542C14.9609 18.0067 13.3184 18.5542 12.5884 19.8925L0.421767 40.9408C-0.369066 42.2792 -0.0040655 43.9217 1.15177 44.8342L13.9876 54.75C13.7443 56.8183 13.5618 58.8258 13.5618 60.8333C13.5618 62.8408 13.7443 64.7875 13.9876 66.7342L1.15177 76.8325C-0.0040655 77.745 -0.369066 79.3875 0.421767 80.7259L12.5884 101.774C13.3184 103.113 14.9609 103.599 16.2993 103.113L31.4468 96.9684C34.6101 99.4017 37.8951 101.47 41.7276 102.991L43.9784 119.112C44.2218 120.572 45.4993 121.667 47.0201 121.667H71.3534C72.8743 121.667 74.1518 120.572 74.3951 119.112L76.6459 102.991C80.4784 101.409 83.7634 99.4017 86.9268 96.9684L102.074 103.113C103.413 103.599 105.055 103.113 105.785 101.774L117.952 80.7259C118.682 79.3875 118.378 77.745 117.222 76.8325L104.386 66.7342Z" fill="white"/>
</svg>
