<svg width="133" height="94" viewBox="0 0 133 94" fill="none" xmlns="http://www.w3.org/2000/svg">
    <path d="M60.2597 45.5467C61.0655 45.3587 61.2198 45.1706 61.9055 44.9825C63.397 44.5551 64.6999 44.8458 65.0257 44.9312C66.0886 45.2048 66.8257 45.7177 67.1857 45.9742C67.58 46.2648 67.8715 46.5042 68.2144 46.8803C69.0715 47.7865 69.2773 48.5216 70.6487 49.5646C72.0374 50.6246 73.3574 51.052 74.1118 51.2914C75.1918 51.6333 76.0833 51.7017 76.8719 51.7701C77.9176 51.8727 78.8091 51.8727 79.4777 51.8385C82.1864 45.7348 84.8951 39.6482 87.6038 33.5446C102.742 22.363 117.862 11.1815 133 0C132.571 4.20589 132.143 8.41179 131.697 12.6348C125.44 16.6868 119.182 20.7388 112.925 24.7737C117.982 23.3205 123.022 21.8672 128.08 20.4311C125.937 23.2692 123.811 26.1244 121.668 28.9625C113.353 32.2623 105.039 35.562 96.7242 38.8618C105.142 37.2033 113.559 35.5449 121.977 33.8865C119.971 36.1433 117.965 38.4001 115.959 40.657C113.405 41.888 110.645 43.119 107.679 44.3158C104.782 45.4784 102.004 46.4871 99.3471 47.359C105.707 47.1026 112.085 46.8461 118.445 46.6068C115.531 50.163 112.548 51.9582 110.628 52.8814C108.622 53.8559 106.787 54.3518 104.37 55.0015C101.336 55.8221 98.7642 56.2666 96.8956 56.5402C102.399 57.1899 107.902 57.8225 113.405 58.4722C111.502 59.6519 108.999 60.9512 105.93 61.9942C101.662 63.4303 97.8556 63.8065 95.1298 63.8578C98.3357 65.7555 101.524 67.6533 104.73 69.5682C101.096 71.124 97.4613 72.6799 93.8269 74.2357C90.5525 74.2015 87.278 74.1673 84.0036 74.1502C78.8091 80.7668 73.5975 87.3834 68.4029 94C67.7686 93.9829 67.1343 93.9829 66.5 93.9658C60.6198 87.2637 54.7395 80.5788 48.8592 73.8767C45.7734 73.9622 42.6704 74.0648 39.5846 74.1502C36.1558 72.5602 32.71 70.9702 29.2813 69.3801C32.5728 67.5336 35.8644 65.6872 39.156 63.8407C37.0302 63.9775 33.9957 63.9262 30.5156 63.0371C26.0583 61.8916 22.8181 59.8912 20.898 58.4893C25.9383 57.8738 30.9785 57.2583 36.0358 56.6428C35.4015 56.4889 34.4758 56.2666 33.3614 55.9931C31.8185 55.617 29.3498 55.0014 27.6355 54.4714C26.0068 53.9756 23.0924 53.0866 19.938 51.1546C18.3951 50.2143 16.2521 48.6926 14.0577 46.3161C20.9666 46.7094 27.8755 47.1026 34.7672 47.4958C29.007 45.2219 23.2639 42.9309 17.5036 40.657C15.4292 38.2805 13.3549 35.9211 11.2805 33.5446C19.698 35.3227 28.1155 37.0837 36.533 38.8618C28.4069 35.5107 20.2809 32.1597 12.1548 28.8087C11.6234 28.3812 10.8519 27.7144 10.029 26.8083C9.66899 26.398 9.15468 25.7996 7.71462 23.6795C7.18317 22.8931 6.48028 21.8501 5.67453 20.5678C10.4062 21.9185 15.1378 23.2863 19.8694 24.637C16.5607 22.6195 13.1491 20.414 9.65184 18.0033C6.87458 16.0884 4.23447 14.1735 1.7315 12.2757C1.14862 8.20662 0.582882 4.1375 0 0.0512893C15.0178 11.0789 30.0356 22.0895 45.0534 33.1171C46.4591 36.1091 48.0192 39.2208 49.7164 42.4009C51.0536 44.9312 52.4251 47.3248 53.7795 49.6159C54.2938 50.0946 54.7909 50.5562 55.3052 51.0349C56.7967 51.052 58.2882 51.052 59.7626 51.0691C59.7111 51.3256 59.6426 51.5991 59.5911 51.8556C58.0653 53.6166 56.5053 55.3947 54.9281 57.1728C52.3908 60.028 49.8707 62.7977 47.3506 65.5162C53.9337 72.8167 60.5169 80.1171 67.1172 87.4347C73.546 80.0658 79.9749 72.7141 86.4037 65.3452C85.718 64.6271 84.9294 63.8749 84.0379 63.1055C83.4893 62.6268 82.4435 61.7548 81.0378 60.7461C79.8549 59.9083 78.9977 59.3954 77.9862 58.797C75.8261 57.5147 75.2089 57.3267 74.5918 57.2583C74.0946 57.207 73.1346 57.1044 72.2774 57.6344C71.4716 58.1131 71.1116 58.9167 70.923 59.3612C69.5858 62.6952 67.1686 75.3812 66.4314 75.3983C65.8143 75.4154 64.8542 66.7814 64.2199 55.805C64.117 54.0782 64.0485 52.625 63.997 51.5649C63.8942 51.1546 63.7056 50.5562 63.2599 49.9578C63.0541 49.6842 62.5227 49.0517 60.6197 48.1797C59.4711 47.6497 59.0425 47.5984 57.8082 47.1197C56.6082 46.6581 55.6481 46.1793 55.0138 45.8374C56.1624 45.8032 57.311 45.769 58.4597 45.7348C58.854 45.7348 59.5054 45.7177 60.2597 45.5467Z" fill="white"/>
</svg>
