<svg width="24" height="20" viewBox="0 0 24 20" fill="none" xmlns="http://www.w3.org/2000/svg">
<path d="M23.9024 4.634C23.5724 1.416 21.4324 0.739 19.5484 0.43C18.6024 0.27 16.9184 0.13 15.8324 0.0899999C14.8864 0.0299999 12.6644 0 11.9974 0C11.3404 0 9.10738 0.0299999 8.16238 0.0899999C7.08638 0.13 5.39238 0.27 4.44638 0.43C2.56338 0.749 0.420376 1.424 0.092376 4.634C0.012376 5.511 -0.00762396 6.657 0.00237604 7.882C0.032376 9.913 0.202376 11.288 0.302376 12.245C0.372376 12.902 0.640376 14.865 0.989376 15.881C1.46738 17.276 1.90538 17.684 2.41338 18.103C3.35038 18.86 4.88438 19.099 5.20338 19.159C6.93638 19.469 10.4434 19.527 11.9874 19.527C13.5314 19.527 17.0374 19.477 18.7714 19.159C19.1004 19.099 20.6344 18.869 21.5614 18.103C22.0694 17.684 22.5074 17.276 22.9854 15.881C23.3354 14.865 23.6134 12.902 23.6834 12.245C23.7834 11.288 23.9624 9.913 23.9824 7.882C24.0224 6.657 23.9924 5.511 23.9024 4.634ZM22.7264 10.034C22.5364 12.604 22.3084 14.138 21.9794 15.254C21.6894 16.23 21.3424 16.877 20.8144 17.346C19.9474 18.133 18.7514 18.302 18.0544 18.402C16.5404 18.632 13.9994 18.702 11.9974 18.702C9.99538 18.702 7.45438 18.622 5.94038 18.402C5.24338 18.302 4.04738 18.133 3.18038 17.346C2.66238 16.877 2.30438 16.22 2.02538 15.253C1.69638 14.148 1.46738 12.603 1.27838 10.033C1.16838 8.49 1.18838 5.979 1.35838 4.633C1.61638 2.622 2.61338 1.615 4.74538 1.237C5.74138 1.057 7.08538 0.927 8.35138 0.867C9.36738 0.797 11.0514 0.767 11.9874 0.777C12.9234 0.767 14.6074 0.807 15.6234 0.867C16.8984 0.927 18.2334 1.057 19.2294 1.237C21.3714 1.615 22.3684 2.632 22.6174 4.634C22.8164 5.979 22.8454 8.49 22.7264 10.034ZM17.5254 1.644C16.9774 4.106 16.7584 5.232 16.3094 7.014C15.8814 8.729 15.5424 10.312 14.9744 11.079C14.3874 11.856 13.6094 12.026 13.0814 12.085C12.8024 12.115 12.6034 12.125 12.0154 12.135C11.6563 12.1418 11.2972 12.1251 10.9404 12.085C10.4124 12.025 9.62538 11.856 9.04838 11.079C8.47038 10.312 8.14138 8.729 7.71338 7.015C7.24338 5.242 7.03538 4.105 6.47738 1.645C6.47738 1.645 5.92938 1.665 5.68038 1.685C5.35138 1.705 5.09238 1.735 4.81338 1.775C5.15638 7.147 5.50538 12.854 5.93938 17.905C6.73238 18.0047 7.53023 18.0612 8.32938 18.074C8.65938 16.808 9.07738 15.054 9.53638 14.307C9.91438 13.699 10.5024 13.63 10.8314 13.59C11.3494 13.52 11.7874 13.51 11.9964 13.51C12.1964 13.5 12.6334 13.51 13.1614 13.59C13.4914 13.64 14.0784 13.7 14.4564 14.307C14.9264 15.054 15.3334 16.807 15.6624 18.073C15.6624 18.073 16.0204 18.063 16.8274 18.023C17.2374 18.005 17.6474 17.965 18.0534 17.903C18.5114 12.513 18.8384 7.175 19.1794 1.775C18.8994 1.735 18.6414 1.705 18.3124 1.685C18.0824 1.665 17.5254 1.644 17.5254 1.644Z" fill="#212121"/>
</svg>
