<svg width="24" height="24" viewBox="0 0 24 24" fill="none" xmlns="http://www.w3.org/2000/svg">
    <path d="M0.568456 12.1115C0.978456 12.5215 1.38846 12.6505 2.19746 12.6505L11.0685 12.6975C11.1505 12.6975 11.2205 12.6975 11.256 12.744C11.291 12.779 11.3025 12.8495 11.3025 12.92L11.3375 21.803C11.3495 22.6115 11.4785 23.0215 11.8885 23.4315C12.4395 23.994 13.213 23.9005 13.787 23.338C14.092 23.033 14.338 22.5295 14.5605 22.0605L23.5255 2.725C23.994 1.741 23.9355 1.014 23.4555 0.533499C22.986 0.0649995 22.2595 0.00649941 21.2755 0.474999L1.93946 9.44C1.47046 9.6625 0.966955 9.9085 0.661955 10.2135C0.0994554 10.7875 0.00595555 11.5495 0.568456 12.112" fill="#757575"/>
</svg>
