<svg width="18" height="26" viewBox="0 0 18 26" fill="none" xmlns="http://www.w3.org/2000/svg">
    <path d="M0.25 25.25H17.75V20.875C17.7477 19.2513 17.1016 17.6947 15.9535 16.5465C14.8053 15.3984 13.2487 14.7523 11.625 14.75H6.375C4.75126 14.7523 3.19469 15.3984 2.04653 16.5465C0.898368 17.6947 0.252315 19.2513 0.25 20.875V25.25ZM2.875 6.875C2.875 8.08641 3.23422 9.27062 3.90725 10.2779C4.58027 11.2851 5.53687 12.0702 6.65606 12.5338C7.77526 12.9973 9.00679 13.1186 10.1949 12.8823C11.3831 12.646 12.4744 12.0626 13.331 11.206C14.1876 10.3494 14.771 9.25806 15.0073 8.06993C15.2436 6.88179 15.1223 5.65026 14.6588 4.53106C14.1952 3.41187 13.4101 2.45527 12.4029 1.78225C11.3956 1.10923 10.2114 0.75 9 0.75C7.37555 0.75 5.81763 1.39531 4.66897 2.54397C3.52031 3.69263 2.875 5.25055 2.875 6.875Z" fill="#757575"/>
</svg>
