<svg width="25" height="24" viewBox="0 0 25 24" fill="none" xmlns="http://www.w3.org/2000/svg">
    <path d="M18.1139 15.5145C19.5663 13.5325 20.2168 11.0752 19.9353 8.63418C19.6538 6.19317 18.461 3.94847 16.5955 2.34915C14.73 0.749839 12.3295 -0.0861376 9.87411 0.00847209C7.41874 0.103082 5.08963 1.1213 3.35276 2.85942C1.61589 4.59754 0.599334 6.92737 0.506482 9.38281C0.413629 11.8382 1.25132 14.2382 2.85197 16.1025C4.45262 17.9669 6.69817 19.1581 9.13939 19.4378C11.5806 19.7176 14.0374 19.0653 16.0184 17.6115H16.0169C16.0619 17.6715 16.1099 17.7285 16.1639 17.784L21.9389 23.559C22.2201 23.8404 22.6017 23.9986 22.9996 23.9988C23.3975 23.9989 23.7791 23.841 24.0606 23.5597C24.3421 23.2784 24.5003 22.8969 24.5004 22.499C24.5006 22.1011 24.3426 21.7194 24.0614 21.438L18.2864 15.663C18.2327 15.6087 18.1751 15.5585 18.1139 15.513V15.5145ZM18.5009 9.74846C18.5009 10.8319 18.2875 11.9047 17.8729 12.9056C17.4583 13.9065 16.8506 14.816 16.0845 15.5821C15.3184 16.3482 14.4089 16.9559 13.408 17.3705C12.4071 17.7851 11.3343 17.9985 10.2509 17.9985C9.16745 17.9985 8.09466 17.7851 7.09372 17.3705C6.09278 16.9559 5.18331 16.3482 4.41723 15.5821C3.65114 14.816 3.04345 13.9065 2.62885 12.9056C2.21425 11.9047 2.00086 10.8319 2.00086 9.74846C2.00086 7.56042 2.87005 5.462 4.41723 3.91483C5.9644 2.36765 8.06282 1.49846 10.2509 1.49846C12.4389 1.49846 14.5373 2.36765 16.0845 3.91483C17.6317 5.462 18.5009 7.56042 18.5009 9.74846Z" fill="#757575"/>
</svg>