<svg width="22" height="22" viewBox="0 0 22 22" fill="none" xmlns="http://www.w3.org/2000/svg">
    <path d="M13.85 21.5C14.1284 21.5 14.3955 21.3894 14.5924 21.1925C14.7893 20.9956 14.9 20.7285 14.9 20.45C14.9 20.1715 14.7893 19.9044 14.5924 19.7075C14.3955 19.5106 14.1284 19.4 13.85 19.4H5.09995C4.35735 19.4 3.64515 19.105 3.12005 18.5799C2.59495 18.0548 2.29995 17.3426 2.29995 16.6V5.4C2.29995 4.65739 2.59495 3.9452 3.12005 3.4201C3.64515 2.895 4.35735 2.6 5.09995 2.6H13.85C14.1284 2.6 14.3955 2.48938 14.5924 2.29246C14.7893 2.09555 14.9 1.82848 14.9 1.55C14.9 1.27152 14.7893 1.00445 14.5924 0.807538C14.3955 0.610625 14.1284 0.5 13.85 0.5H5.09995C3.80039 0.5 2.55406 1.01625 1.63513 1.93518C0.7162 2.8541 0.199951 4.10044 0.199951 5.4V16.6C0.199951 17.8996 0.7162 19.1459 1.63513 20.0648C2.55406 20.9838 3.80039 21.5 5.09995 21.5H13.85ZM15.2374 5.6786C15.3386 5.585 15.4574 5.51227 15.5868 5.46457C15.7162 5.41686 15.8537 5.39512 15.9915 5.40058C16.1293 5.40604 16.2647 5.4386 16.3899 5.49639C16.5152 5.55418 16.6278 5.63608 16.7213 5.7374L20.9214 10.2874C21.1006 10.4814 21.2002 10.7358 21.2002 11C21.2002 11.2641 21.1006 11.5186 20.9214 11.7126L16.7213 16.2626C16.5322 16.467 16.2695 16.5879 15.9912 16.5986C15.7129 16.6094 15.4418 16.5092 15.2374 16.32C15.0329 16.1308 14.9121 15.8682 14.9013 15.5899C14.8905 15.3116 14.9908 15.0404 15.18 14.836L17.7532 12.0486H6.84995C6.57147 12.0486 6.3044 11.938 6.10749 11.7411C5.91058 11.5441 5.79995 11.2771 5.79995 10.9986C5.79995 10.7201 5.91058 10.4531 6.10749 10.2561C6.3044 10.0592 6.57147 9.9486 6.84995 9.9486H17.7518L15.1786 7.1612C15.085 7.05991 15.0122 6.94117 14.9645 6.81177C14.9168 6.68236 14.8951 6.54483 14.9005 6.40702C14.906 6.26921 14.9385 6.13383 14.9963 6.0086C15.0541 5.88338 15.136 5.77217 15.2374 5.6786Z" fill="#212121"/>
</svg>
