<svg width="77" height="54" viewBox="0 0 77 54" fill="none" xmlns="http://www.w3.org/2000/svg">
    <path d="M34.8872 26.1652C35.3537 26.0571 35.443 25.9491 35.84 25.841C36.7035 25.5955 37.4579 25.7625 37.6464 25.8116C38.2618 25.9687 38.6886 26.2634 38.897 26.4107C39.1253 26.5777 39.294 26.7152 39.4925 26.9312C39.9888 27.4518 40.1079 27.8741 40.9019 28.4733C41.7059 29.0822 42.4701 29.3278 42.9068 29.4653C43.5321 29.6617 44.0482 29.701 44.5048 29.7403C45.1102 29.7992 45.6263 29.7992 46.0134 29.7796C47.5816 26.2732 49.1498 22.7766 50.718 19.2703C59.482 12.8469 68.236 6.42343 77 0C76.7519 2.41615 76.5037 4.8323 76.2457 7.25828C72.623 9.58603 69.0003 11.9138 65.3775 14.2317C68.3055 13.3969 71.2235 12.562 74.1515 11.737C72.9108 13.3674 71.6801 15.0076 70.4394 16.6381C65.6257 18.5336 60.8119 20.4292 55.9982 22.3248C60.8715 21.3721 65.7448 20.4194 70.6181 19.4667C69.4568 20.7632 68.2956 22.0597 67.1343 23.3561C65.6555 24.0633 64.0575 24.7705 62.3404 25.458C60.6631 26.1259 59.0552 26.7053 57.5168 27.2063C61.199 27.0589 64.8912 26.9116 68.5735 26.7741C66.8862 28.817 65.1592 29.8483 64.0476 30.3787C62.8863 30.9385 61.8243 31.2234 60.4249 31.5966C58.6681 32.068 57.1793 32.3234 56.0975 32.4805C59.2835 32.8538 62.4695 33.2172 65.6555 33.5904C64.5538 34.2681 63.1047 35.0145 61.3281 35.6137C58.8567 36.4387 56.6533 36.6548 55.0752 36.6842C56.9312 37.7745 58.7773 38.8647 60.6333 39.9647C58.5291 40.8585 56.425 41.7523 54.3208 42.6461C52.4251 42.6264 50.5294 42.6068 48.6337 42.5969C45.6263 46.398 42.6091 50.199 39.6017 54C39.2345 53.9902 38.8672 53.9902 38.5 53.9804C35.0956 50.1302 31.6913 46.2899 28.2869 42.4398C26.5004 42.4889 24.7039 42.5478 22.9174 42.5969C20.9323 41.6835 18.9374 40.7701 16.9523 39.8567C18.858 38.7959 20.7636 37.7352 22.6692 36.6744C21.4385 36.753 19.6817 36.7235 17.6669 36.2128C15.0864 35.5548 13.2105 34.4056 12.0989 33.6002C15.0169 33.2466 17.9349 32.8931 20.8629 32.5395C20.4956 32.4511 19.9597 32.3234 19.3145 32.1662C18.4212 31.9502 16.992 31.5966 15.9995 31.2921C15.0566 31.0073 13.3693 30.4965 11.5431 29.3867C10.6498 28.8465 9.40913 27.9724 8.1387 26.6071C12.1386 26.833 16.1384 27.0589 20.1284 27.2848C16.7935 25.9785 13.4685 24.6624 10.1337 23.3561C8.93272 21.9909 7.73176 20.6355 6.53081 19.2703C11.4041 20.2917 16.2774 21.3034 21.1507 22.3248C16.4461 20.3998 11.7416 18.4747 7.03699 16.5497C6.72931 16.3041 6.28268 15.9211 5.80626 15.4005C5.59783 15.1648 5.30008 14.821 4.46636 13.6031C4.15868 13.1513 3.75174 12.5522 3.28525 11.8156C6.02462 12.5915 8.76399 13.3772 11.5034 14.1531C9.58778 12.9942 7.61266 11.7272 5.58791 10.3423C3.98002 9.24227 2.45153 8.14223 1.00245 7.05202C0.664992 4.71444 0.337458 2.37686 0 0.0294641C8.69451 6.3645 17.389 12.6897 26.0835 19.0247C26.8974 20.7435 27.8006 22.5311 28.7832 24.358C29.5574 25.8116 30.3514 27.1866 31.1355 28.5027C31.4332 28.7777 31.7211 29.0429 32.0188 29.3179C32.8823 29.3278 33.7458 29.3278 34.5994 29.3376C34.5696 29.4849 34.5299 29.6421 34.5001 29.7894C33.6168 30.801 32.7136 31.8225 31.8005 32.8439C30.3315 34.4842 28.8725 36.0753 27.4135 37.637C31.2248 41.8309 35.0361 46.0247 38.8573 50.2285C42.5793 45.9953 46.3012 41.7719 50.0232 37.5387C49.6262 37.1262 49.1696 36.6941 48.6535 36.2521C48.3359 35.9771 47.7305 35.4762 46.9166 34.8967C46.2318 34.4154 45.7355 34.1208 45.1499 33.777C43.8993 33.0404 43.542 32.9323 43.1847 32.8931C42.8969 32.8636 42.3411 32.8047 41.8448 33.1091C41.3783 33.3841 41.1699 33.8458 41.0607 34.1011C40.2865 36.0164 38.8871 43.3041 38.4603 43.3139C38.103 43.3238 37.5472 38.3638 37.1799 32.0582C37.1204 31.0662 37.0807 30.2314 37.0509 29.6224C36.9914 29.3867 36.8822 29.0429 36.6241 28.6992C36.505 28.542 36.1973 28.1786 35.0956 27.6777C34.4307 27.3732 34.1825 27.3438 33.4679 27.0688C32.7731 26.8036 32.2173 26.5286 31.8501 26.3321C32.5151 26.3125 33.1801 26.2928 33.8451 26.2732C34.0733 26.2732 34.4505 26.2634 34.8872 26.1652Z" fill="white"/>
</svg>
