<svg width="10" height="10" viewBox="0 0 10 10" fill="none" xmlns="http://www.w3.org/2000/svg">
    <path fill-rule="evenodd" clip-rule="evenodd" d="M8.96417 0.623583C9.08712 0.569065 9.2217 0.550262 9.35389 0.569131C9.48608 0.588 9.61105 0.643852 9.7158 0.730874C9.82055 0.817895 9.90125 0.932904 9.94949 1.06393C9.99773 1.19496 10.0118 1.33721 9.9901 1.47589L8.86168 8.6869C8.75222 9.38248 8.02779 9.78137 7.42229 9.4349C6.91579 9.14503 6.1635 8.69844 5.48684 8.23245C5.14852 7.99919 4.11213 7.25225 4.23951 6.72074C4.34896 6.26628 6.09036 4.55853 7.08545 3.54322C7.47602 3.14432 7.2979 2.91421 6.83668 3.28113C5.69133 4.19214 3.85242 5.57752 3.24442 5.96751C2.70807 6.31136 2.42845 6.37007 2.0941 6.31136C1.48411 6.20443 0.918408 6.03879 0.456688 5.83699C-0.16723 5.56442 -0.13688 4.66075 0.456191 4.39761L8.96417 0.623583Z" fill="white"/>
</svg>
